<svg data-name="Layer 1" xmlns="http://www.w3.org/2000/svg" xmlns:xlink="http://www.w3.org/1999/xlink" viewBox="0 0 802.2 825.6"><defs><linearGradient id="b" x1="959.9" y1="607.4" x2="959.9" y2="587.4" gradientTransform="rotate(26 1554 -113)" gradientUnits="userSpaceOnUse"><stop offset="0" stop-color="#fff"/><stop offset="1"/></linearGradient><linearGradient id="a" x1="1312.9" y1="1202.2" x2="1312.9" y2="1014.2" gradientTransform="rotate(-5 -3261 7778)" gradientUnits="userSpaceOnUse"><stop offset="0" stop-color="gray" stop-opacity=".3"/><stop offset=".5" stop-color="gray" stop-opacity=".1"/><stop offset="1" stop-color="gray" stop-opacity=".1"/></linearGradient><linearGradient id="c" x1="1109.3" y1="1145.6" x2="1109.3" y2="787.5" gradientTransform="rotate(-5 -2740 5541)" xlink:href="#a"/></defs><path d="M594 384c14 1 28-2 42-6 28-8 56-21 70-45 6-10 9-20 11-30 6-20 12-40 13-62a134 134 0 00-14-66 14 14 0 00-8-7c-5-3-9 0-11 4-15 19-13 45-15 69a251 251 0 01-14 71c-3 10-8 20-16 25-6 4-12 5-18 6-9 2-19 3-28-1-8-5-14-16-24-18-9-2-22 8-27 16-12 24 19 42 39 44z" fill="#ffd180"/><g opacity=".1"><path d="M652 337c-6 4-12 5-18 6s-13 2-19 1c7 4 17 2 25 1 6-1 13-3 18-6 9-5 13-16 17-25a251 251 0 0014-71c1-24 0-51 14-70 2-2 4-4 7-4a13 13 0 00-2-1c-5-3-9 0-11 4-15 19-13 45-15 69a251 251 0 01-14 71c-3 10-8 20-16 25zM561 342c4-8 16-17 25-17a16 16 0 00-4-1c-9-2-22 8-27 16-11 22 15 39 35 43-18-6-38-22-29-41z"/></g><path opacity=".1" d="M473 172l166 83-24 49-166-83z"/><path fill="#3b8070" d="M473 172l166 83-21 44-167-83z"/><circle cx="579.3" cy="199.9" r="29.4" fill="#3b8070"/><path d="M557 47s51 13 69 34c0 0 30-25 44-18s-6 60-6 60l-19 83s10 201-120 241-222-123-192-183S453 93 453 93s79-88 92-93 12 47 12 47z" fill="#ffd180"/><g opacity=".1" fill="#fff"><path d="M634 309a409 409 0 0011-103l-3 13a409 409 0 01-8 90zM347 256c30-60 103-150 103-150s79-88 92-93c14-4 12 47 12 47s51 13 70 34c0 0 30-25 43-18 6 2 6 12 4 23 4-15 7-33-1-36-14-7-44 18-44 18-18-21-69-34-69-34s2-51-12-47c-13 5-92 93-92 93s-73 90-103 150l-3 13z"/></g><circle cx="606.9" cy="172.5" r="10.3" fill="#58555d"/><circle cx="500.5" cy="119.5" r="10.3" fill="#58555d"/><ellipse cx="750.3" cy="193.6" rx="10.3" ry="15.5" transform="rotate(-64 621 336)" fill="#58555d"/><path fill="#ffd180" d="M634 189l1-5 47 11-2 5zM625 207l1-5 51 14-1 5zM431 59l4-4 37 42-4 3zM406 75l3-4 56 39-3 5z"/><path d="M463 285s-3 86-48 71 6-70 6-70 6-22-4-28M503 303s-72 47-35 78 56-43 56-43 15-15 26-10" opacity=".1"/><path d="M460 281s-2 86-48 71 7-70 7-70 5-21-5-28M507 301s-71 48-35 78 57-42 57-42 15-16 25-11" fill="#ffd180"/><path fill="#58555d" opacity=".5" d="M399 344l7-13h1l-7 14zM411 350l7-14v1l-6 14zM404 348l10-19-9 19zM477 379l7-13-7 14zM488 385l7-14 1 1-7 13zM482 383l9-19h1l-10 19z"/><path d="M510 210a237 237 0 01-34-21c-35-25-53-55-54-56l5-7c1 0 21 32 54 56 31 22 89 49 163 46l1 9c-54 2-103-11-135-27z" opacity=".1"/><path d="M510 216l-1-1a5 5 0 004-8h1a6 6 0 01-4 9z" fill="#4d8af0"/><path d="M510 216l-1-1a5 5 0 004-8h1a6 6 0 01-4 9z" opacity=".1"/><path d="M645 226c-74 3-132-24-163-46-33-24-53-55-54-56l-7 5c0 1 21 33 56 58a237 237 0 0034 21c32 16 81 29 135 27zm-132-18a1 1 0 111 0 1 1 0 01-1 0z" fill="#f55f44"/><path d="M697 254a10 10 0 004 13 10 10 0 0014-5 10 10 0 00-5-13 10 10 0 00-13 5zm11 0a2 2 0 112-1 2 2 0 01-2 1z" transform="translate(-199 -37)" opacity=".1" fill="url(#b)"/><path d="M499 217a9 9 0 004 12 9 9 0 0012-4 9 9 0 00-4-12 9 9 0 00-12 4zm10 0a2 2 0 112-1 2 2 0 01-2 1z" fill="#4d8af0"/><path d="M509 215a6 6 0 014-8l1 1a5 5 0 00-4 7zM513 207" fill="#4d8af0"/><path d="M632 223c-159 11-197-92-197-92z" fill="#ffd180"/><path d="M216 578h-21v177s135 44 266 0V578z" fill="#3f3d56"/><ellipse cx="326.3" cy="579.3" rx="131" ry="19.9" fill="#3f3d56"/><ellipse cx="326.3" cy="579.3" rx="131" ry="19.9" opacity=".1"/><path d="M479 367c-33 123-147 198-147 198s-59-122-26-244 146-198 146-198 60 122 27 244z" fill="#3f3d56"/><path d="M178 367c33 123 146 198 146 198s60-122 27-244-146-198-146-198-60 122-27 244z" fill="#3b8070"/><path d="M227 341c90 88 101 224 101 224s-136-7-226-96S0 246 0 246s136 7 227 95zM430 341c-91 88-102 224-102 224s136-7 227-96 102-223 102-223-136 7-227 95z" fill="#3f3d56"/><circle cx="328.2" cy="122.8" r="41.8" fill="#3b8070"/><circle cx="708.2" cy="731.6" r="94" fill="url(#a)" opacity=".5"/><circle cx="708.2" cy="731.6" r="88" fill="#f55f44"/><path d="M652 829c-14 1-28-6-31-19-2-7 1-15 4-22 2-8 5-15 1-20-1-3-4-5-7-6l-11-7-19-11c-12-10-17-22-16-34 2-9 9-17 15-24 7-8 13-15 13-24 0-11-13-20-23-27l-2-2c-13-9-25-25-18-39 3-5 7-9 12-12a42 42 0 007-7c8-9 4-24 2-29l-5-13-8-20v-1c-5-17-5-17 0-33v-2l7 2-1 2c-4 14-4 14 0 29l1 1c1 7 4 13 7 19l6 13c5 15 4 28-3 37a48 48 0 01-9 8c-4 3-8 5-9 9-6 11 7 25 15 31l2 1c11 8 26 18 26 33 0 12-8 20-15 28-6 7-12 14-13 22-1 10 6 20 13 26l18 11 12 7c3 2 7 4 9 8 5 8 2 18-1 26-2 7-4 13-3 19 2 10 16 15 26 12 9-1 17-6 25-11l8-5c15-9 28-11 39-6a52 52 0 019 6 52 52 0 008 4 25 25 0 0032-11l1-3c2-4 4-9 8-11 4-3 9-3 13-3h39v7h-39l-9 1c-3 2-4 5-5 8l-2 4a32 32 0 01-41 15 58 58 0 01-9-6 46 46 0 00-8-5c-11-4-24 1-33 6l-8 5c-8 5-16 10-26 12a33 33 0 01-4 1z" transform="translate(-199 -37)" fill="url(#c)" opacity=".5"/><path d="M455 788c-14 2-28-5-31-18-2-8 1-15 3-22 3-8 6-15 2-21l-7-6-11-6c-7-4-13-7-19-12-12-9-18-21-16-33 2-10 8-17 15-25 6-7 13-14 13-23-1-12-13-20-23-28l-2-1c-13-9-25-25-18-40 3-5 7-8 11-11a42 42 0 008-7c8-10 4-24 2-30l-6-13c-3-6-6-12-7-19l-1-1c-4-17-4-18 1-33v-2l7 1-1 2c-4 15-4 15 0 30v1l8 18 6 14c5 14 4 28-3 36a48 48 0 01-9 8c-4 3-8 6-10 10-6 11 7 24 16 30l2 2c11 8 25 18 26 33 0 11-8 20-15 28-6 7-12 13-13 21-2 11 6 21 13 27l18 11 12 6c3 2 7 5 9 9 5 8 2 17-1 26-2 7-5 13-3 18 2 11 15 15 26 13 9-2 16-7 25-12l8-5c15-8 28-10 39-6a52 52 0 019 6 52 52 0 007 5 25 25 0 0033-11l1-4c2-4 4-8 8-11s9-3 13-3l39 1v7l-39-1-10 2-4 8-2 4a32 32 0 01-42 14 58 58 0 01-8-5 46 46 0 00-8-5c-11-5-24 0-33 6l-8 4c-8 6-17 11-27 13a33 33 0 01-3 0z" fill="#f55f44"/><path d="M718 670s49 4 56 75M640 762s-23-58 53-98M659 747s-11-30 13-49M704 695s20 15 13 55M741 655s34 15 46 69M692 659s20-8 34 2M678 773s19 19 86-8M656 667s-25 21-25 59M653 761s-5 13 8 22M772 774s-7 24-21 23M730 708s10 11 5 26M680 714s-8 16-1 29M691 713s9 18 3 28" fill="none" stroke="#000" stroke-miterlimit="10" opacity=".2"/></svg>