<svg data-name="Layer 1" xmlns="http://www.w3.org/2000/svg" viewBox="0 0 1003.9 836.8"><defs><linearGradient id="a" x1="795.2" y1="863.7" x2="795.2" y2="394.9" gradientUnits="userSpaceOnUse"><stop offset="0" stop-color="gray" stop-opacity=".3"/><stop offset=".5" stop-color="gray" stop-opacity=".1"/><stop offset="1" stop-color="gray" stop-opacity=".1"/></linearGradient></defs><ellipse cx="713.5" cy="826.7" rx="102.6" ry="10.1" fill="#3b8070" opacity=".1"/><path d="M440 12c45-17 100-2 147 19a846 846 0 01340 320c31 46 60 94 72 146 24 105-38 214-143 253a608 608 0 01-326 5A1012 1012 0 0167 423C32 374 2 319 1 263s36-112 95-121c25-4 51 0 77 4 37 6 75 13 113 10s88-18 95-54c7-40 14-74 60-91z" fill="#3b8070" opacity=".1"/><path d="M244 769s48-3 43 31c0 0 1 6-5 8 0 0 0-2-5-1a22 22 0 01-5 0 11 11 0 01-6-3s-14-5-19-27l-4-6 8 3s-3 6 0 11l1-11 5 2s-5 11-1 18c0 0-2-12 2-17l6 4s-6 10-2 19c0 0-1-14 3-19l5 4s-5 11-2 18c0 0 1-15 3-17l6 6s-4 8-2 12l3-11 5 12s0-7-4-12c0 0 4 0 7 3 0 0-1-5-8-5l-5-6s7 0 12 2c0 0-4-5-13-3l-5-4s9-1 13 0c0 0-4-4-15-1l-5-3s8-2 13-1c0 0-5-3-15 0l-4-2 8-1 2-1a21 21 0 00-12 1l-8-3z" fill="#3b8070"/><ellipse cx="277.3" cy="811.4" rx="34.2" ry="5.8" fill="#3b8070" opacity=".1"/><path d="M179 746s28-2 24 17a5 5 0 01-2 5s0-1-3-1a12 12 0 01-3 1 6 6 0 01-3-2s-8-3-11-16l-2-3 4 2s-1 3 0 6l1-6 2 1s-2 6 0 10c0 0-1-7 1-9l4 2s-4 6-1 11c0 0-1-8 1-11l3 3s-3 5-1 9c0 0 0-8 2-9l3 3s-2 5-1 7l1-6 3 6a14 14 0 00-2-6 8 8 0 014 2s0-3-5-3l-2-3h6s-2-2-7-1l-3-2h8s-3-3-9-1l-3-2a29 29 0 018 0s-3-2-9 0l-2-1 4-1 1-1a12 12 0 00-6 1l-5-2z" fill="#3b8070"/><ellipse cx="198.1" cy="770" rx="19.3" ry="3.3" fill="#3b8070" opacity=".1"/><path d="M849 764s33-2 29 21a6 6 0 01-3 6s0-1-4-1a15 15 0 01-3 0 7 7 0 01-4-1s-10-4-13-19l-3-4 6 2s-2 4-1 7l2-7 2 2s-3 7 0 12c0 0-1-9 1-12l4 2s-3 8-1 13c0 0-1-9 2-12l4 3s-4 7-2 12l2-12 4 4s-2 5-1 8l2-7s3 5 3 8a17 17 0 00-2-8 9 9 0 014 2s0-3-5-3l-3-4s5-1 8 1c0 0-3-3-9-2l-4-3h9s-3-2-10 0l-4-3h9s-3-2-10 0l-2-2h5l1-1a14 14 0 00-8 1l-5-3z" fill="#3b8070"/><ellipse cx="871.4" cy="793.4" rx="23.3" ry="3.9" fill="#3b8070" opacity=".1"/><path d="M914 553a71 71 0 01-1-10c0-5-6-9-6-9s-3-8-6-9-10-12-10-12a10 10 0 00-2-6 85 85 0 01-6-9l-2-9v-2a12 12 0 002-12 5 5 0 00-1-3c-2-1-4 0-6-2l2-8-1-6a9 9 0 00-2 0c-3-1-5-4-6-7a25 25 0 01-1-9l2-9a24 24 0 00-4-15 12 12 0 00-5-5l-5-2c-4-2-4-8-7-11s-8-3-12-2-9 3-13 2l-9-2a9 9 0 00-2 0l-5 4a5 5 0 000 1v4a3 3 0 010 2l-2 2a3 3 0 00-1 2c0 2 2 3 3 4h1l-2 1a26 26 0 00-6 18 27 27 0 0016 24v1a37 37 0 01-2 3 7 7 0 00-6 1c-3 2-8 2-10 2l-18-2c-1 1-4-2-5 1s-3 4-4 5l-5 4-4 3-6 5-7 3-5 5s-4 0-3-3-2-6-2-6-7-14-7-17-6-15-6-15h-1v-1l-3-9-4-5s-24-18-39-12 28 22 32 24c2 0 3 2 3 4a21 21 0 00-8 8s9 21 10 27l6 20s2 10 15 10c0 0 18 3 22 0l9-6a7 7 0 003-3s-5 37-8 40-28 45-19 52a181 181 0 0022 15l7-6v2c0 15 2 37 4 42 4 7 3 21 3 21a17 17 0 006 2l1 2 7 24a149 149 0 006 40l3 16-4 41v2a7 7 0 000 1 5 5 0 010 3 40 40 0 01-2 6 31 31 0 00-2 3l-3 4-3 18s0 8-2 10-3 13 8 15 15-6 15-6l-1-32a5 5 0 001-1v-1a21 21 0 001-10v-1-1h1v-1-2l1-1v-1-2h1v-1l3 9s2 7 1 8 1 9 2 9l-1 8a127 127 0 00-1 14l-1 1 2 11c9 12 21 1 21 1s1-6 0-7l-1-6 1-19c0-8-7-15-7-15v1l-2-9-2-32a177 177 0 001-24v-4l2-15v-1-1-3l1-8 2-16s2-7 5-12h1v-2l2-2v-1-1h1a3 3 0 000-1v-1l1-1v-1-1l2-5 1-1h11s2-14 1-23l2-19v-2c3 3 5-5 5-5l-2-17v-1a47 47 0 006 1h2a66 66 0 0012 5l7-12a50 50 0 014-7l9-12c0-1 2-10 5-14s3-11 3-12zm-27 10c-3 1-6 7-6 9s-3 10-5 11c-3 0-8 5-9 6h-3l-2-15c-2-4 2-16 2-16s0-12 3-14 2-10 2-10l1-5c1-2 3 0 3 0s7 4 8 10 8 15 8 15-1 3 0 5 0 2-2 4z" transform="translate(-98 -32)" fill="url(#a)"/><path d="M609 426a20 20 0 0120-9v14h-9l-7-2z" fill="#4c4981"/><path d="M609 426a20 20 0 0120-9v14h-9l-7-2z" opacity=".1"/><path d="M630 421l-11 7v-3c-1-4-2-10-5-11-4-2-47-18-32-24s39 13 39 13l4 4 3 9 2 5z" fill="#ae6e79"/><path fill="#4c4981" d="M715 432h1l3 3-2 6-5-2 1-4 2-3z"/><path d="M699 779s-3 0-5 5-3 18-3 18 0 8-2 10-3 13 8 14 14-5 14-5v-32zM735 781s6 7 6 15v32s-11 10-21-1c0 0-2-7-1-11l3-24z" fill="#444053"/><path d="M751 635l-9 22-5 12-3 16a88 88 0 00-1 11c1 3-6 55-6 55l-10 13s-5 9-4 13 0 10-2 12l-1 15c-1 3 2 10 0 11s-19 1-19-1l2-13 1-10s4-6 3-8 1-6 1-6 4-7 3-9 4-52 4-52l13-88z" fill="#ae6e79"/><path d="M751 635l-2 6-7 16-5 12-3 16a89 89 0 00-1 11l-2 20-4 35-10 13-1 3c-2 3-3 8-3 10 1 4 0 10-2 12l-1 14c-1 2 2 11 0 12s-19 1-19-1l2-13 1-10s4-6 3-8 1-6 1-6 4-7 3-9l3-45 1-7 11-76 1-6v-6z" opacity=".1"/><path d="M740 819c0 1-17 3-20 1s0-19 0-19l1-9c-1 0-3-6-2-8s0-8 0-8l-3-9-2-6a245 245 0 01-12-53l-1-19s-2-16-5-21l-7-25-2-7 30-2h8l-1 6 3 27c2 6 3 22 3 24l-1 12a55 55 0 012 13 179 179 0 010 24l1 33c-1 3 4 11 4 13l1 13 3 20zM750 461l-2 3-2 1-8 9-20 2-11-3-3-1v-12c1-8 3-19 7-21a16 16 0 004-6 33 33 0 002-5l1-1a55 55 0 001-9l7-3c9-5 26-11 20 3a54 54 0 00-2 6v1c-2 8-1 12 1 15a9 9 0 000 1 7 7 0 002 2l2 15v1z" fill="#ae6e79"/><path d="M746 419c-1 2 1-2 0 0-4 3-14 12-20 12-4 0-5-1-9-3a55 55 0 002-9s35-19 27 0z" opacity=".1"/><path d="M755 403a27 27 0 01-24 26h-3a27 27 0 1127-26z" fill="#ae6e79"/><path d="M759 521l-4 10h-8c-16 1-52 1-54-3a11 11 0 010-3c0-7 3-16 3-16l1-21-1-14 3-11 8-6s4 6 6 6 5 3 5 3 7 5 9 2 21-13 21-13l9 10z" opacity=".1"/><path d="M759 522l-4 10-8 1a502 502 0 01-54-3 9 9 0 010-2v-2c0-6 3-16 3-16l1-20-1-15 3-11 5-4 3-2a38 38 0 003 4 7 7 0 003 3c2 0 5 3 5 3s7 4 9 2l18-12 3-2 1 2 8 9z" fill="#fff"/><path d="M630 421l-11 7v-3c5-3 8-8 9-9l2 5z" opacity=".1"/><path d="M667 446l-2-1-6 5-7 3-6 5s-4 0-2-3-3-6-3-6-6-14-6-17-6-15-6-15-7 14-20 9c0 0 9 21 10 27l6 20s2 10 15 10c0 0 17 3 21 0l9-6c2 0 4-3 4-3v-14z" fill="#4c4981"/><path d="M645 460s3 11 1 12zM747 533c-16 0-52 1-54-3a11 11 0 010-4l53 3zM751 635l-2 6a470 470 0 00-47 1 38 38 0 01-13 1l-2-7 30-2 1-6z" opacity=".1"/><path d="M765 590l-2 4v4l-2 19c1 9-1 23-1 23s-45-3-58 0-20 0-20 0 1-14-3-21a159 159 0 01-3-55c3-3 14-36 14-36h10l40 2 6 1 1 2z" fill="#444053"/><path d="M785 575l1 4s-20-6-19-14v-7l16 1z" fill="#4c4981"/><path d="M785 575l1 4s-20-6-19-14v-7l16 1zM658 463a18 18 0 007 3 5 5 0 01-2-1l-4-3-4-2a21 21 0 003 3zM659 468a9 9 0 011 2 15 15 0 010 8l-3-8-2-3-2-4c1-1 5 4 6 5zM747 510a10 10 0 006-2l-10 2a14 14 0 01-9-1c4 2 9 2 13 1zM738 488a2 2 0 01-2-1l-7-4-7-5c5 5 9 8 16 10zM744 514a15 15 0 004-1 5 5 0 003-2 2 2 0 00-1 1 22 22 0 01-12 1l6 1zM721 571a40 40 0 01-7 1 47 47 0 01-7 0l-10-1h-5s-3 0-1-1h4l5-1 10 1 11 1zM710 576c-2-1-4 0-6 1a38 38 0 01-6 0 33 33 0 01-11-2l23 1zM688 581a16 16 0 012 0c5 2 9 0 13-1l-4 3a23 23 0 01-10 1l-4-2c-1-2 2-1 3-1zM712 589a33 33 0 014 1c4 1 9-1 14-2a67 67 0 0118-2l-4 2a82 82 0 01-12 2 84 84 0 01-17 1l-9-1a10 10 0 016-1zM714 438s0 11-2 16a171 171 0 00-7 24l-5 50v1l-1 3c-2 16-16 40-20 42a14 14 0 00-4 3l1-13c3-3 14-36 14-36h3v-2c0-6 3-16 3-16l1-20-1-15 3-11 5-4c1-8 3-19 7-21a16 16 0 004-6v-1z" opacity=".1"/><path d="M716 432a7 7 0 00-6 0c-3 2-9 2-10 2l-18-2c-1 1-4-2-5 1l-4 5c-1 0-5 3-4 4s-4 3-4 3l9 29s-6 37-9 40-28 45-19 52a178 178 0 0023 15c1 0 4-6 9-8s20-30 21-46l5-50 7-24 2-17z" fill="#4c4981"/><path d="M765 590l-2 4v4a2 2 0 01-1-1c-3-2-21-21-22-37v-27-3s14-17 12-23-5-38-5-38l-1-4-1-7-2-17h2a7 7 0 002 2l2 15 8 9 2 55-4 10-8 1z" opacity=".1"/><path d="M773 498s-3-1-4 0v5s0 7-2 10-3 14-3 14-5 12-3 16l3 16a888 888 0 014 32s-2 8-5 5-21-20-22-37v-26-4s14-16 12-22-5-38-5-38v-5l-1-6v-1l-3-17c1 0 15 3 16 5s13 5 13 5a10 10 0 017 7l1 1 2 9c1 1-10 31-10 31z" fill="#4c4981"/><path d="M766 574c-5-1-12-3-12-8s6-7 10-7l2 15z" opacity=".1"/><path d="M782 572l-2 1a58 58 0 01-8 1s-17-1-17-9c0-6 8-7 12-7a28 28 0 013 0s13 12 12 14z" fill="#ae6e79"/><path d="M782 572l-2 1c-5-6-11-14-14-14l1-1a28 28 0 013 0s13 12 12 14z" opacity=".1"/><path d="M778 466l5 1a87 87 0 006 9 10 10 0 012 6s7 11 9 12 6 10 6 10 6 3 6 8a72 72 0 001 10l-3 12-5 14c0 2-7 9-9 12a50 50 0 00-4 7l-6 12s-14-20-19-21c0 0 5-6 8-7s6-9 6-10 2-8 5-9 4-3 3-4v-5s-7-10-8-15-8-10-8-10l-4-9z" fill="#4c4981"/><path d="M796 512a16 16 0 0110-4c-3 0-5 1-7 3a15 15 0 00-2 2c0 1-5 7-6 6-1-2 4-6 5-7zM785 506a4 4 0 003-3 14 14 0 001-4 65 65 0 012-7 3 3 0 000-3 10 10 0 00-2-3l-1 5-1 5-2 10zM780 457a10 10 0 01-1 1c-2 2-5 3-5 6a6 6 0 01-1 2l-3 1a6 6 0 01-3-1l-2-5a6 6 0 00-5-2l-6 1a15 15 0 01-4-1 11 11 0 01-1 0 15 15 0 01-2-1 11 11 0 01-1 0 16 16 0 01-4-3c-2-1-3-4-3-6l1-5c1-4-2-8-5-11l-4-4a18 18 0 01-4-6 19 19 0 01-1-8 55 55 0 000-8c-1-10-9-18-18-22a27 27 0 1136 39v1c-2 8-1 12 0 15 1 0 15 3 16 5s13 4 13 4a10 10 0 017 8z" opacity=".1"/><path d="M706 378l2-1c2-2 0-5 1-8s4-4 7-4l8 2c4 1 9-1 13-2s9-1 12 2 3 9 7 11l5 2a12 12 0 015 5 24 24 0 014 15l-2 9a25 25 0 001 9c1 3 2 6 5 7a9 9 0 012 1c2 1 2 3 1 5l-1 8c1 2 4 1 6 2a5 5 0 011 3 12 12 0 01-4 13l-5 5a6 6 0 010 3h-3a6 6 0 01-3-1l-3-4a6 6 0 00-5-2h-5a17 17 0 01-12-4c-2-2-3-4-3-7l1-4c0-4-2-9-5-12s-7-6-9-10c-2-5 0-10 0-16-1-10-10-17-18-21-2-1-5-3-3-6z" fill="#444053"/><path d="M772 462l-3-4a6 6 0 00-5-3l-5 1a17 17 0 01-12-4c-2-2-4-4-3-7l1-4c0-5-2-9-6-12s-6-6-8-10c-2-5 0-11 0-16-1-10-10-17-18-21-2-1-5-4-3-6l2-2c2-2 0-5 1-7a4 4 0 010-2c-2 1-4 2-4 4-1 3 1 6-1 7l-2 2c-2 2 1 5 3 6 8 4 17 11 18 21 0 5-2 11 0 16 2 4 5 7 9 10s6 7 5 12a38 38 0 00-1 4c0 3 1 5 3 7a16 16 0 0012 4h5a6 6 0 015 2l3 4a6 6 0 003 1h3a3 3 0 000-2 6 6 0 01-2-1z" opacity=".1"/><path d="M626 403h-69v-68h69zm-1-103h-67c0-106 101-100 101-167 0-37-31-66-67-66s-68 32-68 67h-67A134 134 0 01592 0c74 0 134 59 134 133 0 84-101 94-101 167z" fill="#3b8070"/><path d="M281 382h-18v-17h18zm0-26h-17c0-27 26-26 26-43a17 17 0 00-18-17 18 18 0 00-17 17h-17a35 35 0 0169 0c0 21-26 24-26 43zM416 505h-18v-18h18zm0-27h-17c0-27 26-25 26-43a17 17 0 00-18-17 18 18 0 00-17 18h-17a35 35 0 0169-1c0 22-26 24-26 43zM498 288h-13v-13h13zm0-19h-12c0-20 18-19 18-31a12 12 0 00-12-13 13 13 0 00-13 13h-12a25 25 0 0150 0c0 15-19 17-19 31zM719 306h-7v-7h7zm0-11h-7c0-11 11-10 11-17a7 7 0 00-7-7 7 7 0 00-8 7h-7a14 14 0 0129 0c0 8-11 9-11 17zM831 634h-7v-8h7zm0-11h-7c0-12 10-11 10-18a7 7 0 00-7-7 7 7 0 00-7 7h-7a14 14 0 0128 0c1 9-10 10-10 18z" fill="#3b8070" opacity=".1"/></svg>