<svg data-name="Layer 1" xmlns="http://www.w3.org/2000/svg" xmlns:xlink="http://www.w3.org/1999/xlink" viewBox="0 0 860.9 811"><defs><radialGradient id="b" cx="626.9" cy="274.4" r="10.1" gradientUnits="userSpaceOnUse"><stop offset="0" stop-color="#fff"/><stop offset="1"/></radialGradient><radialGradient id="d" cx="1932.9" cy="274.4" r="10.1" gradientTransform="matrix(-1 0 0 1 2529 0)" xlink:href="#b"/><linearGradient id="a" x1="430" y1="841.3" x2="430" y2="145.5" gradientUnits="userSpaceOnUse"><stop offset="0" stop-color="gray" stop-opacity=".3"/><stop offset=".5" stop-color="gray" stop-opacity=".1"/><stop offset="1" stop-color="gray" stop-opacity=".1"/></linearGradient><linearGradient id="c" x1="612.5" y1="436" x2="612.5" y2="231" xlink:href="#a"/></defs><path d="M266 30C295 4 341-2 383 0c131 7 249 70 351 142 38 26 74 54 98 89 49 73 34 174-34 233a494 494 0 01-245 100 821 821 0 01-448-114c-41-26-80-58-97-100s-6-95 36-120c18-10 39-15 59-19 30-7 61-13 88-26 29-13 62-39 56-69-6-32-10-60 19-86z" fill="#3b8070" opacity=".1"/><path d="M675 235s-11-4-44 11-38 14-47 12-13-3-23-16c0 0-6-36-13-42s-33 4-33 4-33 7-39-36c0 0 5-33-1-43 0 0 12 5 32-3s35 9 35 9 5 13 5 20 3 11 12 7c0 0 5-6-2-17s-11-19-9-28 7-20 24-26 40-7 51-12l14-8s-7 7 9 36 6 42 6 42-8 20-46 19c0 0-37 1-17 17l32-9c19-6 33 19 36 36s18 27 18 27z" fill="#3b8070"/><path d="M626 90v-1c2 6-15 28-29 46 20-25 30-41 29-45zM598 135a987 987 0 01-40 47l3-4 37-43zM558 181v1c-20 25-21 65-21 65l-5-5s6-35 26-61z" fill="#444053"/><path d="M651 221s-24-12-42-8-61-15-61-15-18-8-22-16c0 0-12-13-13-20s-12-23-20-24M648 233s-12-8-11-17M629 244s-17-6-19-31M601 250s-16-13-11-37M568 244s-11-23-1-38M652 206s-13 4-10 11M637 184s-17 5-18 29M613 178s-15 19-14 36M587 185s-16 15-14 23M577 180s-14 3-16-2M559 163s7 10 9 7M630 157s-36 3-44-8M551 115s17 36 29 41M569 98s10 33 23 44" fill="none" stroke="#444053" stroke-miterlimit="10"/><path d="M645 130s-27 11-43 0M593 91s7 24 15 30M641 102s-15 6-21 2" fill="none" stroke="#444053" stroke-miterlimit="10" stroke-width=".8"/><path d="M546 171s0 21-6 23M499 199s23 2 33-10M540 146s-6 22-21 27M485 176s16 6 30-9M522 127s-2 19-12 27M485 148s14 0 17-4" fill="none" stroke="#444053" stroke-miterlimit="10"/><ellipse cx="424.5" cy="738" rx="376" ry="73" fill="#3b8070" opacity=".1"/><path fill="#504f60" d="M447 435v4l-7 238h-11l5-238 1-5 12 1z"/><path opacity=".1" d="M447 435v4l-7 238h-11l5-238 1-5 12 1z"/><path fill="#504f60" d="M513 637H371l4-11h137l1 11z"/><path opacity=".1" d="M447 435v4h-13l1-5 12 1z"/><path fill="#504f60" d="M431 429h21v8h-21z"/><path opacity=".1" d="M379 626l-1 11h-7l4-11h4z"/><path fill="#504f60" d="M397 429v3l-28 277h-13l29-277 1-3h11z"/><path opacity=".1" d="M513 637h-9l-1-11h9l1 11z"/><path fill="#504f60" d="M526 709h-13l-28-277v-3h11l1 3 29 277z"/><path fill="#fff" d="M298 156h283v272H298z"/><path fill="#fff" d="M298 156h283v272H298z"/><path d="M445 65v66h-11V65a6 6 0 1111 0z" fill="#504f60"/><path opacity=".1" d="M434 125h11v6h-11z"/><path d="M449 130v21h-20v-21a3 3 0 013-3h14a3 3 0 013 3z" fill="#504f60"/><circle cx="439.3" cy="140.6" r="4.2" opacity=".1"/><circle cx="439.3" cy="139.7" r="4.2" fill="#3f3d56"/><path opacity=".1" d="M429 149h20v2h-20zM421 152h36v6h-36z"/><path fill="#504f60" d="M421 150h36v6h-36z"/><path d="M367 421h150a7 7 0 017 7v1H360v-1a7 7 0 017-7zM386 429h11v3h-12l1-3zM431 429h21v4h-21zM497 432h-12v-3h11l1 3z" opacity=".1"/><path d="M367 423h150a7 7 0 017 6v2H360v-2a7 7 0 017-6z" fill="#504f60"/><path d="M388 185c9-11 23-14 35-13 39 3 75 30 106 60 11 11 22 23 29 38 15 31 10 74-10 100-7 8-15 15-24 21-15 10-32 19-50 21-12 2-25 1-37-2-35-6-69-21-97-46-13-11-24-25-30-43s-1-40 11-51c6-4 12-6 18-8 9-3 18-6 27-11 8-6 18-17 16-30-1-13-3-25 6-36z" fill="#3b8070" opacity=".1"/><path d="M549 361l-82 21-3 10a37 37 0 01-10-2l-11-6a15 15 0 011-7c5-7 11-14 10-23l-1-9a88 88 0 01-1-16v-9l2 1h2v1a6 6 0 00-1 1c8 3 7 6 7 6h1c1-5 1-9-1-12a14 14 0 00-7-7l-3-2 1-18a21 21 0 00-1-6 27 27 0 00-3-6l-4-6a27 27 0 014-4l2-1 1-1 4-2a22 22 0 003-3 16 16 0 001-2 17 17 0 001-2 20 20 0 001-2 21 21 0 001-2 2 2 0 010-1v-2a36 36 0 000-7v-3c-2-8-4-15-3-22v-1c0-5 2-10 3-14l1-2v-2c2-5 2-9 2-13a19 19 0 00-1-3c-2-6-7-11-12-15-9-8-18-15-29-19a51 51 0 00-30-2c-10 2-20 1-30 6-3 1-6 3-8 6l-1 7a23 23 0 01-6 14l-9 7a19 19 0 00-4 9 17 17 0 00-1 6v1l1 1v1a12 12 0 001 1l3 6 1 1a24 24 0 011 6 51 51 0 011 5 109 109 0 01-1 22v6c-3 1-6 3-7 6l-1 7c0 4-1 7-3 10l-4 7a41 41 0 000 7v9l-1 1v1l-1 1v3l-1 1v3a16 16 0 01-1 5 17 17 0 01-1 2v1a12 12 0 00-1 3 15 15 0 000 1v9a34 34 0 01-1 4v1l-1 2-1 8-2 8-4 15a39 39 0 00-1 4 13 13 0 000 4 8 8 0 001 2l1 1a9 9 0 010 2l1 5a7 7 0 000 2 6 6 0 005 4 5 5 0 001 0l1 2 3 5a9 9 0 007 1 25 25 0 007-3l16-9a11 11 0 012 4 3 3 0 010 1 6 6 0 01-1 2l-3 8c-9 19-7 40-5 60l3 26c1 21 0 43 2 64l6 34a240 240 0 013 31l2-1h4l2-1a68 68 0 0113 0h2l1 4v1a183 183 0 002 18 15 15 0 011 5l-5 7c-5 6-11 11-15 18-5 8-7 17-9 26-4 13-7 26-9 40a7 7 0 000 2l-7 12a29 29 0 00-1 8v15c0 11 0 22 3 33a26 26 0 005 9 14 14 0 0010 5 18 18 0 005-1 13 13 0 001 7 5 5 0 001 2 5 5 0 002 1c10 4 21 0 31 2 12 2 22 11 34 12l8-1a8 8 0 002-8 8 8 0 000-1 10 10 0 00-8-7 39 39 0 01-28-17c-5-8-6-18-6-27s2-19 5-28l12-56a200 200 0 004-21l1-11 1-1c3-7 7-14 8-21a82 82 0 001-12v-1-4h1c12-1 22-11 33-10 1 1 2-1 3-2 6-11 3-25 1-37a471 471 0 01-8-101c0-15 1-30-2-44l76-25zm-39 19c0 1-1 2-3 2a15 15 0 010-2 3 3 0 00-1-3c2 0 4 1 4 3zm-8-3a4 4 0 00-1 3 3 3 0 010 1 3 3 0 000 1l-2-2 3-3zm-158-24h-1zm28 449c-2-8-2-17-2-25v-20a49 49 0 011-8l1-5a53 53 0 014-8c-1 12-3 25-1 36a51 51 0 01-3 30zm83-391l-1-2 5 2-2 4-2-4z" transform="translate(-170 -44)" fill="url(#a)"/><path d="M195 111c-3 1-6 3-8 6l-1 7a23 23 0 01-6 14l-8 7c-5 5-7 13-4 19l4 6 2 12a112 112 0 010 21c-1 5-2 9-1 14a30 30 0 005 9c5 8 10 15 18 20s17 8 26 9 19 0 29-2c7 0 15-2 18-9l3-11c2-7 10-9 15-15 5-5 5-13 4-21s-4-14-3-22c1-12 9-23 5-34-2-7-7-11-11-15-9-8-18-15-29-19a48 48 0 00-29-2c-10 2-19 2-29 6z" fill="#2f2e41"/><g opacity=".1"><path d="M174 186a109 109 0 000-11l-3-12-3-5a14 14 0 01-1-4 15 15 0 001 10l3 6c2 3 3 8 3 12v4zM288 169a35 35 0 000 5c1-10 7-20 6-31-1 9-6 17-6 26zM287 212c-5 5-13 8-15 14l-3 12c-3 6-11 8-18 9-10 1-19 2-29 1s-18-3-26-9c-8-5-13-12-18-20a30 30 0 01-5-9 16 16 0 010-1 25 25 0 000 8 30 30 0 005 9c5 8 10 15 18 20s17 8 26 9 19 0 29-2c7 0 15-2 18-9l3-11c2-7 10-9 15-15 4-4 5-11 4-17a20 20 0 01-4 11z"/></g><path d="M265 258c-4 4-9 6-14 6a36 36 0 01-16-3 58 58 0 01-34-45 9 9 0 010-5c2-4 7-4 11-7 3-2 5-6 6-10v-3l1-8a9 9 0 012-4 9 9 0 013-3c9-4 20-2 28 1 3 1 2 2 1 4a55 55 0 00-1 6l-1 1a60 60 0 00-2 15c0 4 1 9 3 12 4 6 12 9 16 15a21 21 0 012 8c1 7 0 15-5 20zM175 703a29 29 0 00-1 9l-1 15c0 11 0 22 3 32a26 26 0 005 10 13 13 0 0010 5 17 17 0 004-1c3-1 6-2 7-5 2-3 1-7 0-10l-1-25v-20a49 49 0 011-9l1-6a7 7 0 00-1-5 7 7 0 00-4-2l-8-1a11 11 0 01-3-1l-3-2-3 5c-2 4-5 7-6 11z" fill="#fbbebe"/><path d="M257 564c-7 22-2 45-4 67a200 200 0 01-4 21l-13 56c-2 9-4 18-4 27s1 19 6 27a38 38 0 0027 18 10 10 0 018 6 9 9 0 010 2 8 8 0 01-2 7c-2 2-5 2-8 2-11-1-21-10-33-12-10-2-21 1-31-3a5 5 0 01-1-1 5 5 0 01-1-2c-3-7 2-14 5-21a52 52 0 004-30c-2-12 0-24 0-36a217 217 0 015-32c1-8 3-15 6-22l6-12a236 236 0 0013-72 50 50 0 0118 4 5 5 0 013 6z" fill="#fbbebe"/><path d="M257 564c-7 22-2 45-4 67a200 200 0 01-4 21l-13 56c-2 9-4 18-4 27s1 19 6 27a38 38 0 0027 18 10 10 0 018 6 9 9 0 010 2 8 8 0 01-2 7c-2 2-5 2-8 2-11-1-21-10-33-12-10-2-21 1-31-3a5 5 0 01-1-1 5 5 0 01-1-2c-3-7 2-14 5-21a52 52 0 004-30c-2-12 0-24 0-36a217 217 0 015-32c1-8 3-15 6-22l6-12a236 236 0 0013-72 50 50 0 0118 4 5 5 0 013 6z" opacity=".1"/><path d="M265 554l-2 31v1a82 82 0 01-1 12c-1 7-4 14-8 21a47 47 0 01-3 6l-4 5c-3 4-4 9-5 14-8 22-32 35-40 57a126 126 0 01-18-6 4 4 0 01-3-6 400 400 0 0118-65c4-7 9-12 15-18l4-6a15 15 0 000-5l-3-19v-1-14c1-8 17-10 23-10l27 3zM283 347c10 4 21 3 32 1s21-6 32-6c3 0 7 0 8 4l-2 4-5 7-7 2-12 5c-7 3-14 4-21 5a41 41 0 01-10 1 37 37 0 01-7-1l-19-6-3-2a5 5 0 01-1-3 29 29 0 000-9c-1-2-4-8-3-9 3-2 15 6 18 7z" fill="#fbbebe"/><path d="M283 347c10 4 21 3 32 1s21-6 32-6c3 0 7 0 8 4l-2 4-5 7-7 2-12 5c-7 3-14 4-21 5a41 41 0 01-10 1 37 37 0 01-7-1l-19-6-3-2a5 5 0 01-1-3 29 29 0 000-9c-1-2-4-8-3-9 3-2 15 6 18 7zM253 181a55 55 0 00-1 6 33 33 0 01-34 4l1-8a9 9 0 012-4 9 9 0 013-3c9-4 20-2 28 1 3 1 2 2 1 4z" opacity=".1"/><circle cx="231.2" cy="159.3" r="33.1" fill="#fbbebe"/><path d="M265 554l-2 31c-5 1-10-1-15-2-11-4-22-7-33-8 0-4-2-10-1-14 2-8 17-10 24-10l27 3z" opacity=".1"/><path d="M299 569c-1 1-1 3-2 2-12-1-21 9-33 10-5 1-11-1-16-3-19-5-38-10-57-4a245 245 0 00-2-32c-2-11-5-22-6-34-2-21 0-42-2-63l-3-26c-2-20-4-41 5-60l3-8a6 6 0 001-2 3 3 0 000-1l-3-5c-2-2-2-6-1-9v-3l-7-17-5-20-11-31-2-17a43 43 0 011-6c0-3 1-6 4-7 2-3 3-7 3-11l1-7c2-4 7-6 12-7s9-1 14-3a30 30 0 005-3 169 169 0 0016-12h1l12 11 7 6a54 54 0 018 11 49 49 0 013 5 56 56 0 013 9 43 43 0 011 8v1a5 5 0 002-1 4 4 0 001-1 9 9 0 001-2 21 21 0 000-3v-3a28 28 0 000-6l-3-9v-10l3-2a3 3 0 012 2 10 10 0 011 4l1 2c0 3 2 6 5 8l8 5c4 3 5 7 7 10a28 28 0 014 6 21 21 0 010 6v39a89 89 0 000 16l2 9c0 9-6 16-10 23-3 6-2 12 1 18l10 16c10 19 9 42 8 63a480 480 0 008 102c2 12 5 25-1 36z" fill="#3f3d56"/><path d="M249 237h-4v3a31 31 0 016 0 15 15 0 016 3c3 2 5 7 4 11h-2a7 7 0 010 4c0 2-2 2-3 1s0-3-2-4a2 2 0 00-2 1 5 5 0 000 3c1 8 4 15 4 23 1 3 1 6-1 8l-11 10-19 20a245 245 0 01-34 25l-4 3-3-5c-2-2-2-6-1-9v-3c-3-5-6-11-7-17h1c5 0 10-1 14-3a101 101 0 0012-5 86 86 0 0016-12c3-2 7-5 11-5 2-3 6-4 7-7a11 11 0 000-6 107 107 0 00-2-13l-2-10a48 48 0 01-1-11c1-8 4-14 8-21l2-3 2-3a3 3 0 012 3 9 9 0 01-1 4v1l-5 12a52 52 0 018-3 22 22 0 013-1 14 14 0 012 0c4 0 7 1 9 4 1 1 2 2 1 3a47 47 0 00-10-1l-4-1z" opacity=".1"/><path d="M295 340l-14 51 83-28 11-45zm37 0c-3 0-6-2-6-3s3-3 6-3 5 1 5 3-2 3-5 3z" fill="#464353"/><ellipse cx="234.6" cy="139.1" rx="35.8" ry="17.6" fill="#2f2e41"/><ellipse cx="307.5" cy="349.8" rx="4.7" ry="1.4" fill="#3b8070" opacity=".9"/><ellipse cx="302.1" cy="356.5" rx="4.7" ry="1.4" fill="#fbbebe" opacity=".9"/><ellipse cx="337.3" cy="347.1" rx="4.7" ry="1.4" fill="#fbbebe" opacity=".9"/><ellipse cx="306.2" cy="356.5" rx="4.7" ry="1.4" fill="#fbbebe" opacity=".9"/><ellipse cx="298.1" cy="355.2" rx="4.7" ry="1.4" fill="#fbbebe" opacity=".9"/><ellipse cx="298.1" cy="359.2" rx="4.7" ry="1.4" fill="#fbbebe" opacity=".9"/><ellipse cx="308.9" cy="353.8" rx="4.7" ry="1.4" fill="#fbbebe" opacity=".9"/><ellipse cx="300.8" cy="351.1" rx="4.7" ry="1.4" fill="#fbbebe" opacity=".9"/><ellipse cx="310.3" cy="355.2" rx="4.7" ry="1.4" fill="#3b8070" opacity=".9"/><ellipse cx="312.9" cy="348.4" rx="4.7" ry="1.4" fill="#3b8070" opacity=".9"/><ellipse cx="312.9" cy="351.1" rx="4.7" ry="1.4" fill="#3b8070" opacity=".9"/><ellipse cx="314.3" cy="355.2" rx="4.7" ry="1.4" fill="#3b8070" opacity=".9"/><ellipse cx="327.8" cy="349.8" rx="4.7" ry="1.4" fill="#3b8070" opacity=".9"/><ellipse cx="333.2" cy="348.4" rx="4.7" ry="1.4" fill="#3b8070" opacity=".9"/><ellipse cx="333.2" cy="351.1" rx="4.7" ry="1.4" fill="#3b8070" opacity=".9"/><ellipse cx="326.4" cy="355.2" rx="4.7" ry="1.4" fill="#3b8070" opacity=".9"/><ellipse cx="327.8" cy="355.2" rx="4.7" ry="1.4" fill="#3b8070" opacity=".9"/><ellipse cx="326.4" cy="355.2" rx="4.7" ry="1.4" fill="#3b8070" opacity=".9"/><ellipse cx="322.4" cy="355.2" rx="4.7" ry="1.4" fill="#3b8070" opacity=".9"/><ellipse cx="317" cy="349.8" rx="4.7" ry="1.4" fill="#3b8070" opacity=".9"/><ellipse cx="318.4" cy="352.5" rx="4.7" ry="1.4" fill="#3b8070" opacity=".9"/><ellipse cx="322.4" cy="348.4" rx="4.7" ry="1.4" fill="#3f3d56" opacity=".9"/><ellipse cx="322.4" cy="351.1" rx="4.7" ry="1.4" fill="#3b8070" opacity=".9"/><ellipse cx="321.1" cy="352.5" rx="4.7" ry="1.4" fill="#f86d70"/><ellipse cx="326.4" cy="352.5" rx="4.7" ry="1.4" fill="#3b8070" opacity=".9"/><ellipse cx="329.1" cy="357.9" rx="4.7" ry="1.4" fill="#3b8070" opacity=".9"/><ellipse cx="331.9" cy="351.1" rx="4.7" ry="1.4" fill="#3b8070" opacity=".9"/><ellipse cx="331.9" cy="353.8" rx="4.7" ry="1.4" fill="#3b8070" opacity=".9"/><ellipse cx="333.2" cy="357.9" rx="4.7" ry="1.4" fill="#3b8070" opacity=".9"/><ellipse cx="346.7" cy="352.5" rx="4.7" ry="1.4" fill="#3b8070" opacity=".9"/><ellipse cx="352.1" cy="351.1" rx="4.7" ry="1.4" fill="#3b8070" opacity=".9"/><ellipse cx="352.1" cy="353.8" rx="4.7" ry="1.4" fill="#a1616a" opacity=".9"/><ellipse cx="345.4" cy="357.9" rx="4.7" ry="1.4" fill="#3b8070" opacity=".9"/><ellipse cx="346.7" cy="357.9" rx="4.7" ry="1.4" fill="#3b8070" opacity=".9"/><ellipse cx="345.4" cy="357.9" rx="4.7" ry="1.4" fill="#3b8070" opacity=".9"/><ellipse cx="341.3" cy="357.9" rx="4.7" ry="1.4" fill="#f86d70"/><ellipse cx="335.9" cy="352.5" rx="4.7" ry="1.4" fill="#3b8070" opacity=".9"/><ellipse cx="337.3" cy="355.2" rx="4.7" ry="1.4" fill="#3b8070" opacity=".9"/><ellipse cx="341.3" cy="351.1" rx="4.7" ry="1.4" fill="#a1616a" opacity=".9"/><ellipse cx="341.3" cy="353.8" rx="4.7" ry="1.4" fill="#f86d70"/><ellipse cx="340" cy="355.2" rx="4.7" ry="1.4" fill="#f86d70"/><ellipse cx="463.3" cy="409.2" rx="4.7" ry="1.4" transform="rotate(-11 139 1298)" fill="#3b8070" opacity=".9"/><ellipse cx="467" cy="414" rx="4.7" ry="1.4" transform="rotate(-11 143 1303)" fill="#3b8070" opacity=".9"/><ellipse cx="468.4" cy="406.9" rx="4.7" ry="1.4" transform="rotate(-11 145 1296)" fill="#3b8070" opacity=".9"/><ellipse cx="468.9" cy="409.6" rx="4.7" ry="1.4" transform="rotate(-10 151 1331)" fill="#3b8070" opacity=".9"/><ellipse cx="471" cy="413.3" rx="4.7" ry="1.4" transform="rotate(-11 147 1302)" fill="#3b8070" opacity=".9"/><ellipse cx="483.3" cy="405.5" rx="4.7" ry="1.4" transform="rotate(-11 159 1295)" fill="#3b8070" opacity=".9"/><ellipse cx="488.3" cy="403.2" rx="4.7" ry="1.4" transform="rotate(-11 165 1292)" fill="#3b8070" opacity=".9"/><ellipse cx="488.8" cy="405.8" rx="4.7" ry="1.4" transform="rotate(-11 165 1295)" fill="#3b8070" opacity=".9"/><ellipse cx="482.9" cy="411.1" rx="4.7" ry="1.4" transform="rotate(-11 159 1300)" fill="#3b8070" opacity=".9"/><ellipse cx="484.2" cy="410.8" rx="4.7" ry="1.4" transform="rotate(-11 160 1300)" fill="#3b8070" opacity=".9"/><ellipse cx="482.9" cy="411.1" rx="4.7" ry="1.4" transform="rotate(-11 159 1300)" fill="#3b8070" opacity=".9"/><ellipse cx="478.9" cy="411.8" rx="4.7" ry="1.4" transform="rotate(-11 155 1301)" fill="#3b8070" opacity=".9"/><ellipse cx="472.6" cy="407.5" rx="4.7" ry="1.4" transform="rotate(-11 149 1297)" fill="#3f3d56" opacity=".9"/><ellipse cx="474.5" cy="409.9" rx="4.7" ry="1.4" transform="rotate(-11 151 1299)" fill="#3b8070" opacity=".9"/><ellipse cx="477.7" cy="405.2" rx="4.7" ry="1.4" transform="rotate(-11 154 1294)" fill="#3f3d56" opacity=".9"/><ellipse cx="478.2" cy="407.8" rx="4.7" ry="1.4" transform="rotate(-11 154 1297)" fill="#3b8070" opacity=".9"/><ellipse cx="477.1" cy="409.4" rx="4.7" ry="1.4" transform="rotate(-11 153 1298)" fill="#3f3d56" opacity=".9"/><ellipse cx="482.4" cy="408.4" rx="4.7" ry="1.4" transform="rotate(-11 159 1297)" fill="#3b8070" opacity=".9"/><ellipse cx="486.1" cy="413.2" rx="4.7" ry="1.4" transform="rotate(-11 162 1302)" fill="#3b8070" opacity=".9"/><ellipse cx="487.5" cy="406.1" rx="4.7" ry="1.4" transform="rotate(-11 164 1295)" fill="#3b8070" opacity=".9"/><ellipse cx="488" cy="408.7" rx="4.7" ry="1.4" transform="rotate(-11 164 1298)" fill="#3b8070" opacity=".9"/><ellipse cx="490.1" cy="412.5" rx="4.7" ry="1.4" transform="rotate(-11 166 1302)" fill="#3b8070" opacity=".9"/><ellipse cx="502.3" cy="404.7" rx="4.7" ry="1.4" transform="rotate(-11 179 1294)" fill="#3b8070" opacity=".9"/><ellipse cx="507.4" cy="402.3" rx="4.7" ry="1.4" transform="rotate(-11 184 1291)" fill="#3b8070" opacity=".9"/><ellipse cx="507.9" cy="405" rx="4.7" ry="1.4" transform="rotate(-11 184 1294)" fill="#a1616a" opacity=".9"/><ellipse cx="502" cy="410.2" rx="4.7" ry="1.4" transform="rotate(-11 178 1299)" fill="#3b8070" opacity=".9"/><ellipse cx="503.3" cy="410" rx="4.7" ry="1.4" transform="rotate(-11 179 1299)" fill="#3b8070" opacity=".9"/><ellipse cx="502" cy="410.2" rx="4.7" ry="1.4" transform="rotate(-11 178 1299)" fill="#3b8070" opacity=".9"/><ellipse cx="498" cy="411" rx="4.7" ry="1.4" transform="rotate(-11 174 1300)" fill="#3b8070" opacity=".9"/><ellipse cx="491.7" cy="406.6" rx="4.7" ry="1.4" transform="rotate(-10 175 1328)" fill="#a1616a" opacity=".9"/><ellipse cx="493.5" cy="409.1" rx="4.7" ry="1.4" transform="rotate(-11 170 1298)" fill="#3b8070" opacity=".9"/><path d="M216 182l-1 1s45 71 55 78l3-2s-12-21-57-77z" fill="#2f2e41"/><path d="M276 261s-3-4-4-3l-3 3 3 5s3-1 4-4z" fill="#464353"/><path d="M291 284h-1s1-2-5-5a31 31 0 00-3-1c-8-3-11-8-10-13l4-3v1a35 35 0 007 4 14 14 0 017 7 17 17 0 011 10z" fill="#fdd8d8" opacity=".9"/><path d="M276 263s1 3 7 6 8 12 8 12-4-9-9-10-7-7-7-7z" fill="none" stroke="#2f2e41" stroke-miterlimit="10" stroke-width=".3" opacity=".2"/><path d="M275 264s-1 4 3 7 12 8 13 10l-7-5c-3-1-8-4-9-6l-1-6z" fill="none" stroke="#2f2e41" stroke-miterlimit="10" stroke-width=".3" opacity=".2"/><path d="M273 265s-1 3 3 8a18 18 0 007 4 17 17 0 017 5" fill="none" stroke="#2f2e41" stroke-miterlimit="10" stroke-width=".3" opacity=".2"/><ellipse cx="496.8" cy="404.3" rx="4.7" ry="1.4" transform="rotate(-11 173 1293)" fill="#3f3d56" opacity=".9"/><ellipse cx="497.3" cy="407" rx="4.7" ry="1.4" transform="rotate(-11 173 1296)" fill="#3b8070" opacity=".9"/><ellipse cx="496.2" cy="408.6" rx="4.7" ry="1.4" transform="rotate(-11 172 1298)" fill="#3b8070" opacity=".9"/><path d="M156 265a20 20 0 01-1 5l-1 3c-2 4-1 9-2 13a51 51 0 01-1 8l-7 30c-1 4-2 7 0 10l1 3 1 7a6 6 0 006 4c1-10 5-19 10-27 3-3 6-7 10-9l5-4a13 13 0 003-7c3-14-4-29-11-42-1-3-5-9-8-7s-5 9-5 13z" fill="#3f3d56"/><path d="M235 151c-18 0-33-6-36-15a9 9 0 000 3c0 10 16 18 36 18s35-8 35-18a9 9 0 000-3c-3 9-17 15-35 15z" opacity=".1"/><g opacity=".1"><path d="M153 337l-1-3v-10l7-30a50 50 0 002-8c0-4-1-9 1-13l1-3a20 20 0 001-5 28 28 0 013-10v-9a42 42 0 010-6c1-3 2-6 4-7 2-3 3-7 3-10l1-8c2-4 7-6 12-7s10-1 14-3a30 30 0 005-3l12-9-3-3h-1a169 169 0 01-16 13 30 30 0 01-5 2l-14 3c-4 1-10 3-12 7l-1 8c0 3-1 7-3 10-3 1-4 4-4 7a43 43 0 00-1 7l1 8a28 28 0 00-3 10 20 20 0 01-1 5l-1 3c-2 4-1 9-2 13a51 51 0 01-1 8l-7 30v10l1 3 1 7a6 6 0 006 4 39 39 0 012-10 6 6 0 00-1-1zM251 220l2 3a55 55 0 013 9 43 43 0 011 8v1a5 5 0 002-1 4 4 0 002-1 9 9 0 000-2 21 21 0 000-3v-3a28 28 0 000-6l-3-9v-1a7 7 0 01-1-3l-1-2a10 10 0 00-1-4 3 3 0 00-2-2l-3 2v10l1 4zM197 542l-6-34c-2-21 0-42-2-63l-3-26c-2-20-4-41 5-60l3-8a6 6 0 001-2 3 3 0 000-1l-3-5c-2-2-2-6-1-9v-3l-7-17-1-4-3 2a23 23 0 00-4 3 48 48 0 007 16v3c-1 3-1 7 1 9l3 5a3 3 0 010 1 6 6 0 01-1 2l-3 8c-9 19-7 40-5 60l3 26c2 21 0 42 2 64l6 33a245 245 0 012 32 52 52 0 018-2 242 242 0 00-2-30zM256 579c-14-5-29-9-43-8 11 1 23 4 35 8 5 1 11 3 16 2h2a74 74 0 01-10-2z"/></g><path d="M148 339l5 11c0 2 1 4 3 5a8 8 0 007 1 25 25 0 007-3l19-12a247 247 0 0034-26l20-19 10-10c2-2 2-5 2-8 0-8-4-15-5-23a5 5 0 011-3 2 2 0 012-1l2 4c1 1 3 0 3-1a7 7 0 000-4l1-1c2-3 0-8-3-10s-8-3-12-3v-3a46 46 0 0117 1v-3c-3-4-7-5-11-4l-12 4 6-13a9 9 0 001-4 3 3 0 00-3-3l-4 6c-3 7-7 13-7 21a47 47 0 001 11l1 10a105 105 0 013 13 11 11 0 010 6c-1 3-5 4-7 7-4 0-8 3-11 5a86 86 0 01-16 12 104 104 0 01-12 5c-5 2-9 3-14 3l-11 1c-5 1-8 7-10 12l-4 8a59 59 0 00-3 8z" fill="#fbbebe"/><path d="M162 321c3-4 6-8 10-10l2-1h-9c-5 2-8 7-11 12l-4 8a60 60 0 00-3 9l4 9c1-10 6-19 11-27z" fill="#3f3d56"/><ellipse cx="331.2" cy="336.8" rx="2.7" ry="3.2" fill="#fbbebe"/><ellipse cx="331.2" cy="338.4" rx="2.7" ry="3.2" fill="#fbbebe"/><path d="M291 286s0-3-7-6a6 6 0 010-1 5 5 0 010-1 5 5 0 011-1 6 6 0 012-2 5 5 0 011-1 4 4 0 011 0 6 6 0 012 0c1 3 2 7 0 12z" fill="#3b8070" opacity=".9"/><path d="M121 661s7 8-2 20-17 23-14 30c0 0 14-23 25-23s4-14-9-27z" fill="#3b8070"/><path d="M121 661a10 10 0 012 2c11 13 16 25 6 25s-21 18-24 22a9 9 0 000 1s14-23 25-23 4-14-9-27z" opacity=".1"/><path d="M133 671l-1 5v-5-2s1-1 1 2zM137 674l-5 2 4-3h2l-1 1z" fill="#ffd037"/><path d="M89 661s-7 8 2 20 17 23 14 30c0 0-14-23-25-23s-4-14 9-27z" fill="#3b8070"/><path d="M89 661a10 10 0 00-2 2c-11 13-16 25-6 25s22 18 24 22a9 9 0 010 1s-14-23-25-23-4-14 9-27z" opacity=".1"/><path d="M77 671l1 5v-5-2s-1-1-1 2zM73 674l5 2-4-3h-2l1 1z" fill="#ffd037"/><path d="M79 710s17 0 23-4 26-8 28-2 26 29 6 30-45-3-51-7-6-17-6-17z" fill="#a8a8a8"/><path d="M137 732c-20 0-46-4-51-7-4-2-6-11-6-15h-1s1 14 6 17 32 7 51 7c6 0 8-2 8-5-1 1-3 3-7 3z" opacity=".2"/><path d="M566 690s-11-38 2-66a60 60 0 005-37 100 100 0 00-5-18" fill="none" stroke="#535461" stroke-miterlimit="10" stroke-width="2"/><path d="M576 552c0 4-9 18-9 18s-8-14-8-18a8 8 0 0117 0zM590 577c-3 4-17 11-17 11s0-16 3-20a8 8 0 0114 9zM589 621c-4 2-20 1-20 1s8-14 13-16a8 8 0 117 15zM581 654c-4 3-19 4-19 4s5-15 9-17a8 8 0 1110 13zM555 589c4 3 19 6 19 6s-4-15-7-18a8 8 0 10-12 12zM546 628c5 2 20 0 20 0s-8-13-12-15a8 8 0 00-8 15zM543 666c4 3 20 4 20 4s-6-14-10-17a8 8 0 00-10 13z" fill="#3b8070"/><path d="M576 552c0 4-9 18-9 18s-8-14-8-18a8 8 0 0117 0zM590 577c-3 4-17 11-17 11s0-16 3-20a8 8 0 0114 9zM589 621c-4 2-20 1-20 1s8-14 13-16a8 8 0 117 15zM581 654c-4 3-19 4-19 4s5-15 9-17a8 8 0 1110 13zM555 589c4 3 19 6 19 6s-4-15-7-18a8 8 0 10-12 12zM546 628c5 2 20 0 20 0s-8-13-12-15a8 8 0 00-8 15zM543 666c4 3 20 4 20 4s-6-14-10-17a8 8 0 00-10 13z" fill="#3b8070"/><path d="M540 687s13-2 17-6 20-10 22-5 24 19 9 22-37 4-41 2-7-13-7-13z" fill="#a8a8a8"/><path d="M588 696c-16 3-37 4-41 2-3-1-6-8-7-11s2 11 7 13 25 1 41-2c4-1 5-3 5-5-1 2-2 3-5 3z" opacity=".2"/><g opacity=".8"><path d="M680 429a11 11 0 010-2v-3a13 13 0 00-1-3l-1-10-1-4v-5l-1-15a206 206 0 00-2-21l-3-10v-6a11 11 0 00-1-5 10 10 0 00-2-3l-10-7a6 6 0 003-1 2 2 0 001-2 3 3 0 00-2-1 14 14 0 00-3-1 14 14 0 000-1c1-6-2-11-2-16s3-10 4-15a37 37 0 00-1-25l-5-12-1-11c-1-9-9-16-18-18-6-2-13-1-20 0h-17l-6 2a33 33 0 00-2 4c-2 4-7 5-11 7-7 4-12 10-13 17s2 13 2 20c1 9-2 17-5 25a20 20 0 00-1 7 19 19 0 001 5l2 7a25 25 0 01-6 2l-6 1a7 7 0 00-2 2 12 12 0 00-2 9 3 3 0 00-2 2l1 3a18 18 0 01-1 5 44 44 0 00-2 18c2 9 2 18 2 28l1 18 3 6a11 11 0 011 1l1 3a8 8 0 008 6l-2 6h103v-1a11 11 0 010-3l1 4h19a17 17 0 00-1-7z" transform="translate(-170 -44)" fill="url(#c)"/><path d="M428 188l-6 3a31 31 0 00-2 3c-2 4-7 6-11 8-7 3-12 9-13 17-1 6 2 13 2 19 1 9-2 17-5 25a19 19 0 00-1 7 19 19 0 001 5c2 7 6 14 10 20s12 11 19 13a54 54 0 0011 1h16a46 46 0 008 0l17-8c6-4 13-9 14-16l-2-16c0-6 2-10 4-15a37 37 0 00-1-25l-5-12-1-10c-1-9-9-16-18-18-7-2-13-1-20 0-6 1-11-1-17-1z" fill="#3f3d56"/><path d="M430 262a22 22 0 01-2 16 26 26 0 01-6 6 37 37 0 01-12 6 23 23 0 009 5 42 42 0 008 1 213 213 0 0038-2c4 0 8-1 12-4l-1-2c-4-2-9-2-12-5-6-4-8-10-8-17l-1-20-26 1-5 1 2 4a29 29 0 014 10z" fill="#fbbebe"/><circle cx="442.3" cy="232.4" r="29.6" opacity=".1"/><circle cx="442.3" cy="231.3" r="29.6" fill="#fbbebe"/><path d="M484 340c-3 10-4 20-3 30l3 21h-73v-11-2-3-8l-1-14a105 105 0 00-6-25v-2l-1-2c-4-9-8-19-6-29a25 25 0 0112-17 14 14 0 017-2c4 0 7 2 10 4l5 3a51 51 0 0012 6c5 2 12 2 18-1a21 21 0 003-2 34 34 0 004-5l8 5a22 22 0 017 11 58 58 0 013 13 67 67 0 011 13c0 6-2 11-3 17z" fill="#3f3d56"/><path d="M440 391h-50l2-5h-1a8 8 0 01-8-6l-1-4a10 10 0 00-1-1c-2-1-2-3-3-5v-18l-2-28a43 43 0 011-18 17 17 0 001-5v-3a3 3 0 011-2 12 12 0 012-9 8 8 0 012-2l7-1c10-1 18-10 28-11a38 38 0 017 0c3 0 5 5 6 9v1c2 9 1 19 1 28a23 23 0 001 6c2 6 2 12 2 17a390 390 0 004 41 74 74 0 011 7 46 46 0 010 9z" fill="#f86d70"/><path d="M429 318a29 29 0 013 4v2a2 2 0 01-1 1h-7a8 8 0 01-3 0 8 8 0 01-3-3l-4-4a9 9 0 01-2-4 3 3 0 012-3 5 5 0 013 0l7 2a27 27 0 015 5z" fill="#f86d70"/><path d="M429 318a29 29 0 013 4v2a2 2 0 01-1 1h-7a8 8 0 01-3 0 8 8 0 01-3-3l-4-4a9 9 0 01-2-4 3 3 0 012-3 5 5 0 013 0l7 2a27 27 0 015 5z" opacity=".1"/><path d="M425 319a100 100 0 014-14 32 32 0 001-6l1-6v-4a23 23 0 000-10c-1-2 0-5-2-7l-2-2a3 3 0 01-1-3 17 17 0 007 1 4 4 0 002-1 2 2 0 001-2 2 2 0 00-2-1 16 16 0 00-13-2 1 1 0 010-1 3 3 0 011 0 7 7 0 005-4 1 1 0 000-1l-2-1-4 1a10 10 0 00-2 1 9 9 0 00-2 2l-6 8-1 4a6 6 0 01-3 3 3 3 0 00-2 4 10 10 0 002 4 49 49 0 005 6 19 19 0 014 4l1 4a8 8 0 011 2 5 5 0 010 1c-1 7-6 12-8 19a2 2 0 001 2l12 6a46 46 0 002-7z" opacity=".1"/><path d="M424 318a100 100 0 014-13 31 31 0 002-7v-5l1-5a23 23 0 00-1-9l-1-7-3-2a3 3 0 010-3 17 17 0 006 0 4 4 0 002 0 2 2 0 001-2 2 2 0 00-1-2 16 16 0 00-14-1 1 1 0 011-1 3 3 0 011 0 7 7 0 005-5 1 1 0 000-1h-2l-4 1a10 10 0 00-3 1 9 9 0 00-2 2l-5 7-2 4a6 6 0 01-2 4 3 3 0 00-2 3 10 10 0 002 4 50 50 0 005 7 19 19 0 013 4l2 4a8 8 0 010 2 5 5 0 010 1c-1 7-6 12-7 18a2 2 0 001 3c3 3 8 4 12 5a46 46 0 001-7z" fill="#fbbebe"/><path d="M427 317a1 1 0 010 1 44 44 0 01-3 8l-10-6a5 5 0 01-2-1c-4-9 12-4 15-2z" fill="#3f3d56"/><path d="M409 321l-3 4a64 64 0 00-5 8 56 56 0 01-6 10c-3 4-6 7-7 11a3 3 0 010 2l-1 1v1c-2 0-3 2-3 4l-1 3a14 14 0 000 3 12 12 0 001 4 60 60 0 006 12l5 4a13 13 0 006 1c3 0 6-1 8-3l1-5a17 17 0 012-2 13 13 0 002-5 171 171 0 007-23 37 37 0 012-7 43 43 0 014-7l4-11c-4-1-5-4-9-6l-11-8c-1 3 0 7-2 9z" opacity=".1"/><path d="M407 319l-3 4a62 62 0 00-5 8 56 56 0 01-7 10c-3 3-6 7-6 11a3 3 0 010 2 7 7 0 01-2 1v1l-2 3-1 4a13 13 0 000 3 11 11 0 001 3 60 60 0 006 13l5 4a13 13 0 006 1c2 0 6-1 7-3l2-6a20 20 0 012-2 13 13 0 002-4 171 171 0 006-23 37 37 0 012-8 44 44 0 014-6c3-4 3-6 4-10-4-1-5-5-8-7l-11-8c-1 3 0 6-2 9z" opacity=".1"/><path d="M408 320l-3 4a62 62 0 00-5 8 56 56 0 01-6 10c-3 4-6 7-7 11a3 3 0 010 2 8 8 0 01-1 1l-1 1-2 4-1 3a12 12 0 000 3 12 12 0 001 3 60 60 0 006 13l5 4a13 13 0 006 1c3 0 6-1 7-3l2-5a20 20 0 012-3 13 13 0 002-4 171 171 0 007-23 37 37 0 012-7 44 44 0 013-7 71 71 0 007-12 33 33 0 01-11-5l-11-8c-1 3 0 7-2 9z" fill="#f86d70"/><circle cx="418.2" cy="322.9" r="2.1" fill="#3f3d56"/><circle cx="411.6" cy="333.1" r="2.1" fill="#3f3d56"/><circle cx="404.9" cy="343.6" r="2.1" fill="#3f3d56"/><path d="M511 391h-19l-1-3a11 11 0 000 3h1-25a39 39 0 011-9 85 85 0 001-13v-17a120 120 0 011-16c1-5 2-10 1-15l-2-17a19 19 0 00-1-3 24 24 0 00-1-3 37 37 0 01-3-12c0-2-3-3-3-5 3-1 9-2 12 0l9 4 9 2a3 3 0 012 1 2 2 0 01-2 2 6 6 0 01-3 1l10 7a10 10 0 013 3 11 11 0 011 5v5l2 11a141 141 0 012 21l1 15v4a45 45 0 001 5l2 9a13 13 0 010 3 14 14 0 000 4 11 11 0 001 1 17 17 0 010 7z" fill="#f86d70"/><ellipse cx="443.4" cy="208.2" rx="28.3" ry="11" fill="#3f3d56"/><path d="M459 219c-9-3-13 4-13 4-3 10 3 15 7 17a10 10 0 005 1 9 9 0 004 0 16 16 0 009-12c2-13-12-10-12-10zm9 10a13 13 0 01-8 10 8 8 0 01-7-1c-3-1-8-6-5-14 0 0 2-6 10-3 0 0 11-2 10 8z" fill="#f86d70"/><path d="M458 221s11-2 10 8a13 13 0 01-8 10 8 8 0 01-3 1 8 8 0 01-4-2c-3-1-8-6-5-14 0 1 2-6 10-3z" fill="#3f3d56"/><path d="M627 266s12-3 10 7a13 13 0 01-7 10 8 8 0 01-3 1 8 8 0 01-4-1c-3-2-9-6-6-14 0 0 3-6 10-3z" transform="translate(-170 -44)" opacity=".1" fill="url(#b)"/><path d="M413 229a16 16 0 009 12 9 9 0 004 0 10 10 0 005-1c4-2 10-7 7-17 0 0-4-7-13-4 0 0-14-3-12 10zm13-8c8-3 10 3 10 3 3 8-2 12-5 14a8 8 0 01-7 1 13 13 0 01-8-10c-1-10 10-8 10-8z" fill="#f86d70"/><path d="M426 221s-11-2-10 8a13 13 0 008 10 8 8 0 003 1 8 8 0 004-2c3-1 8-6 5-14 0 1-2-6-10-3z" fill="#3f3d56"/><path d="M596 266s-12-3-10 7a13 13 0 007 10 8 8 0 003 1 8 8 0 004-1c3-2 9-6 6-14 0 0-3-6-10-3z" transform="translate(-170 -44)" opacity=".1" fill="url(#d)"/></g></svg>