<svg xmlns="http://www.w3.org/2000/svg" data-name="Layer 1" viewBox="0 0 705.3 719.5"><defs><linearGradient id="a" x1="652.6" y1="850.5" x2="652.6" y2="265.5" gradientUnits="userSpaceOnUse" gradientTransform="matrix(.90208 0 0 .92241 -234 -76)"><stop offset="0" stop-color="gray" stop-opacity=".3"/><stop offset=".5" stop-color="gray" stop-opacity=".1"/><stop offset="1" stop-color="gray" stop-opacity=".1"/></linearGradient></defs><path d="M658 298A378 378 0 00303 12C214 9 120 39 52 143c-122 185 7 313 98 373a566 566 0 01117 106c61 72 178 162 318 21 102-102 100-236 73-345z" fill="#f2f2f2"/><path d="M81 125H65l2-2c4 0 29 3 70-5 38-8 68-37 111-82l16-21c33 23 41 31 62 47 11 8 20 17 37 22 31 11 59 17 83 18 29 2 54-3 70-16v1c-16 13-40 19-70 17-24-2-52-7-84-18l-99-73c-15 23-67 75-67 75l-8 6c-7 5-30 21-50 25-19 4-38 6-57 6z" fill="#2f2e41"/><path fill="#3b8070" d="M108 153l-12-28 21-2zM165 109l19 29-1-40zM217 68l21 34-4-51zM292 80l23-27-19-14zM464 103h-27l14 34zM378 91l-17-6v33z"/><path d="M516 491s13-8 32-4c18 4 45 2 48 1zM591 358s-6 67-10 80 10-80 10-80z" opacity=".1"/><path d="M682 390c-4-3-15-23-18-28l-1-2c1-4-6-10-8-12-4-5-11-12-16-13-6-2-11 0-16-1a12 12 0 01-6-3l-4-4 2-1a190 190 0 0018-9l1-1 2-2c4-1 8-4 9-8v-1l-1 1v-4l2-3v1l6-9v-3l-1 2c1-4-1-9 1-12l1-1v1c1-2 3-3 3-5v-2 1l-1-3c-1-6-3-13-9-16-2-1-4-1-5-3-3-3-2-9-5-12-2-1-5-1-5-3v-3c-1-2-5-1-7-1-3 0-7-3-6-6-4-3-10-3-14-1l-8 2-3-1c-5-1-9 4-14 6s-11 1-15 5c-4 3-5 8-8 11l-7 4c-2 1-3 5-2 7 2 2 7 1 8 4 1 2-2 4-3 6-1 3 0 7 3 7v1c-5 15 2 32 16 40l1 3c3 5 6 13 7 21-3-1-10 5-10 5l-11 3c-8 1-7 4-7 4-4 4-31 28-35 29v1l-1 1-13 10-21 1c-9 2-24 5-13 17l1 1-40-3v-1l-3-2a282 282 0 0018-2c7-1 0-5 3-9s0-18 0-21-2-16-4-18c-2-3-2-14-2-14s-5-4-7-19c-3-15-14-22-18-23l-8-5-9-2-6-2 2-3 2-2 1-1a2 2 0 011 0l2 1h1v-1-2-1l1-8 6-6 2-1 1-1v-1h1v-1l1-1v-1l1-1v-1-1a17 17 0 00-3-16c-3-3-6-5-6-9l1-5v-2l1-1c0-3-2-5-4-7-6-5-13-7-21-6-2 1-4 2-6 1l-6-3c-7-3-16 0-20 6-2 4-3 9-7 11l-6 5h-1v5c0 3 2 6 4 8l1 1 1 1-1 1c-10 13-8 32 5 43v6l-4-1h-6c-2-1-3 0-4 1-2 2-11 5-15 5h-1-1c-3-1-10 5-12 8l-7 12s-5 6-4 10c0 3-2 7-5 8-3 2-9 17-9 17s-7 14-13 18c-3 1-4 4-4 8h-3s-20 5-27 1-30-5-30-5l-24-26-1-1c5-4-3-6-3-9s-2-4-2-4v1l-1-1-2 2-1-3c0-5-2-9-4-12a163 163 0 0113-30 30 30 0 009-48h2l7 1 1-1c3-1 2-4 1-5l-5-5-2-4c-1-4-4-8-8-9-4-2-9-2-13 0l-6 3c-4 2-9 1-13-1l-8-2-3-11-1-1c4-1 10-1 12-5l4-1c2 0 3-2 2-3v-1l-2-1c-3-2-5-5-5-9v-1l1-5-1-2c-1-3-4-5-7-5h-3c-6 1-10-6-15-4l-4 1c-2 0-4-4-7-4h-6l-5-3c-4-2-9-3-13 0l-2 2h-3l-11 1-2 1-1 2c-1 4-5 6-9 6l-3 1c-2 1-2 3-1 5l2 5c0 5-5 9-5 13-2 7 5 13 3 19l-4 7c0 3 3 5 5 7s2 5 3 8c1 4 1 11 5 13a4 4 0 001 0v1a95 95 0 01-16 19l-3-1c-2 0-10 5-10 8s-7 7-15 15-8 45-5 52l3 18-3 6c-3 13 1 23 5 24 3 1 3-5 3-5-3-6-4-11-3-15l3 15s9 32 13 41l16 69 4 5 3 17 5 10h1l-1 7s1 31-1 35c-2 5-16 88-16 88l-5 36 11 3s-2-7 1-18l9-34 7-29v21s-6 26-4 27l9 2s0-14 2-22l24-93c6-3 13-4 19-3 23 1 35 9 42 18l-29 16v1h-1l-1 1h-1l-1 1-1 1h-1l-1 1h-1l-1 1h-1v1h-1l-1 1h-1l-1 1h-1l-1 1h-1l-1 1h-1v1h-2l-1 1c-4 1-7 12-2 19 4 7 3 20 1 24-3 5 1 13 1 16 1 1 6 3 15 2 5 1 10 0 14-1 14-2 9-8 8-12a45 45 0 010-23l13-16c2-2 7-5 13-7l16 66c3 9 4 30 4 30l11-1-3-56-4-44 10-2 12 44 1 22s9 0 10-2c1-1-4-27-4-27l1-46 34-16 25-15 15 128h9l5-1 6-1 14-116 2 2c0 3-1 8 1 11v21c-1 4-6 10 6 13 11 2 19 0 19-2 1-2 3-10 1-15s-2-17 1-23c4-7 2-18-2-19l-8-4 5-5c6-3 5-10 5-10s6 0 11-8l8-14 1 8c1 5 7 58 10 62 3 5 0 21 0 21h9v-25s-11-75-2-83l4-4 17 128v3s-7 3-2 7l4 2v2h-5l-1 16-8 17-7 11s-9 7 4 10c14 2 29-1 29-1s10-18 11-17v9l5-1s-1-11 2-17c2-5-2-20-4-26h1l2-8 3-13c2-6 0-5 0-9l2-17 3 1 2 8-3 2v12s2 18-1 21-9 7-5 13l2 1c2 2 7 3 13 4l-3 33 11 1s2-21 5-30l3-13 7-10 2 11 10-2s-5-11-4-14c0-4-3-9-6-14l-1-2 8-33s2-35 50-38c7 0 14 1 20 3l23 94c2 7 2 21 2 21s9 0 10-2c1-1-5-27-5-27l1-21 6 29 10 34c3 12 1 18 1 18l10-2c1-8-4-37-4-37l-16-87c-2-5-1-36-1-36l-1-7c12-8 18-53 18-53l12-70 5-11v-1l2 2 7 18c14 20 28 20 28 20v-1c3 1 5 0 7-2 6-4-5-33-9-37zm-249 43l-3-11h3zm-43-142l-1 1v-2l1 1zm-85 148l-5 10h1l-7 7-4-34 18 1-3 16zm18 71l9-2-2 12-7-10zm-11-134v-1 1zm-95 84a1049 1049 0 00-45-16c1-4-7-13-10-15-3-3-7-7-3-10l1-3 31 1 9 3 12-2 61 3 6 48-6 7s-4 7-5 17l-32-11c3-11-14-20-19-22zm-56-52v-4l-1-7 17 11zm144 144v-1c2 0 4-1 5-3l7 7-11 8zm127-53l-2 66-9-61 11-5zm55-90s10 12 18 8l21-11 4 5 5-3h1l2 19c1 9-13 20-13 20v1l-1 1h1c0 3 0 8-3 9s-5 2-12 0c-8-2-16-4-24-4-12-1-24 0-30 7v1l-1 1c-3 6-4 17-4 29h-1l-1 1h-1l-1 1-1 1h-1l-1 1-2 1 1-76h49l-1-8h-7l3-4zM135 598l1-1v-1 2h-1zm174-8l13-4-7 55zm122 48l2 1v1h-2z" fill="url(#a)"/><path d="M147 618s2 9 0 15c-2 5-2 17-1 21 2 5 7 10-7 13s-23 0-24-2c0-2-3-10-1-15s3-17-1-24c-5-7-2-18 2-20 5-1 23-12 23-12s-7 12 1 15c4 1 7 5 8 9z" fill="#575a88"/><path d="M301 551s-28 20-40 26c-13 5-53 25-53 25s-41 5-48 14l-16 19-7-41s81-43 81-46c1-3 24-12-44-12-59 0-80 4-85-4l-2-4c0-14 80-76 80-76a216 216 0 0022 15c6 6 19 8 19 8l78 25s24 7 24 28c1 21-9 23-9 23z" fill="#aac9f5"/><path d="M310 528c0-21-24-28-24-28l-78-25s-13-2-19-8c-2-3-8-7-14-10l-8-5s-80 62-80 76l2 4c5 8 26 4 85 4 68 0 45 9 44 12 0 3-81 46-81 46v1l-22 11c-4 2-7 13-2 20 4 7 3 19 1 24s1 13 1 15c1 2 10 4 24 2 14-3 9-9 8-13a44 44 0 010-23l13-15c7-9 48-14 48-14s40-20 53-25c12-6 40-26 40-26s10-2 9-23zm-171 81c-6-2-3-10-2-13l2 13z" opacity=".1"/><path d="M199 549l24 97c2 8 2 22 2 22l10-2c1-2-5-28-5-28l2-72-24-21z" fill="#d5838e"/><path fill="#ffccd0" d="M139 597h18v16h-18z"/><path d="M152 618s2 9 0 15c-2 5-2 17-1 21 2 5 7 10-7 13s-23 0-24-2c0-2-4-10-1-15 2-5 3-17-1-24-5-7-2-18 2-20 5-1 23-12 23-12s-7 12 1 15c4 1 7 5 8 9zM169 445l49 15c5 3 22 11 19 22s-27 12-27 12l-37-14-15-30z" fill="#575a88"/><path d="M183 290l-5 8v1c-8 15-21 41-13 49 11 12-25-7-25-7l-1-1-15-28 19-23c3-5 5-10 5-13-1-2 3-2 8 0 10 3 27 14 27 14z" fill="#cd828d"/><path d="M183 290l-5 8v1c-6 3-11 3-17 2-7-1-14-5-18-11v-1c3-5 5-10 5-13-1-2 3-2 8 0 10 3 27 14 27 14z" opacity=".1"/><path d="M195 271a29 29 0 01-34 29c-24-4-32-36-13-52s47-2 47 23z" fill="#cd828d"/><path d="M188 251l-4 3c-3 2-7 2-10 3l-3 6c-2 6-11 8-15 12l-1 2c-2 4-1 8 1 12a101 101 0 006 13c2 4 5 8 4 12-3 6-13 8-17 14l-2 6c-1 3-5 4-8 6l-15-28 19-23c-9-13-7-31 5-41s30-9 40 3z" opacity=".1"/><path d="M198 245l-6-5-1-4c-1-4-4-7-8-9s-9-1-13 0l-6 3c-4 2-9 1-13 0-5-1-9-3-14-3-4 0-9 2-10 6v3c-1 5-5 9-9 11l-14 8c-5 3-8 7-7 12l5 8a56 56 0 019 28c-1 5-6 8-9 12-4 5-5 11-5 17a69 69 0 007 22c2 4 6 6 9 8l6 2c4-1 6-4 7-8l1-8v-3l2-3c6-3 14-4 17-9l2-6c4-6 14-8 17-14 1-4-2-8-4-12s-5-8-6-13c-2-4-3-8-1-12 3-6 14-7 16-13 1-3 1-5 3-7 3-1 7-1 10-3l5-3c3 0 7 2 9 1 2-2 2-4 1-6z" fill="#663d5c"/><path d="M197 245l-5-5-1-4c-1-4-4-7-8-9 2 2 4 4 4 7l1 4 6 5c1 1 1 4-1 5h-9c-2 0-4 2-5 3-3 1-7 1-10 3-2 1-2 4-3 6-2 6-13 7-16 13-2 4-1 9 1 13l6 13c2 3 5 7 4 11-3 7-13 8-16 15l-3 5c-3 6-11 6-17 10l-2 2v3l-1 9c-1 3-3 7-7 7l-6-2-2-1 6 4 5 1c4 0 7-4 7-7l1-8 1-4 2-2c6-3 14-4 17-9l2-6c3-6 14-8 16-14 2-4-1-8-3-12l-7-13c-1-4-3-8 0-12 3-6 13-7 16-14l3-6 9-3 6-3c2-1 6 2 9 1 2-2 2-4 0-6z" opacity=".1"/><path d="M516 382s4 19 14 29l4-9-5-16z" fill="#f26383"/><path d="M529 386l-13-4s4 19 14 29" opacity=".1"/><path d="M691 428c-4 3-9 2-13-1l-38-44-1-1 20-23 4 2 1 2c3 5 14 25 17 28 5 4 15 33 10 37z" fill="#ffc1c7"/><path d="M320 552s-10 11-17 12-13 24-3 26c9 2 28-6 31-9l12-21z" fill="#ffd6db"/><path d="M533 403l-5 3c-8 4-21 12-23 11-3 0-3-24-3-24l13-10 1-1 4-1z" fill="#ffc1c7"/><path d="M533 403l-5 3c-1-9-6-18-13-23l1-1 4-1z" opacity=".1"/><path d="M561 375l-15 28-11 6-5 2c2-21-14-29-14-29 4-1 31-26 35-29v-1h4z" fill="#3b8070"/><path d="M610 526l-14-10 43-145 15 6-11 23-13 72s-7 51-20 54z" fill="#e4aab4"/><path d="M660 356l-45-1s-39 11-36-5c2-10-3-23-7-31l-1-2-3-6 11-1 8-2h15l2 7 1 1 7 11 5 5 2 2 4 1c5 1 10-2 16 0 9 3 21 21 21 21z" fill="#ffc1c7"/><path d="M422 469s-37 21-40 30c-2 8 6 15 6 15l2 13c0 5 6 58 9 62 3 5 1 21 1 21h9l-1-25s-10-75-2-82c9-8 16-17 19-16 2 1-3-18-3-18z" fill="#e4aab4"/><path d="M376 439s-25 48-25 55c-1 6-22 34-22 34l26 34s4-8 10-11 4-10 4-10 7 0 11-8c5-7 10-15 10-18 0-4 33-38 33-38l-3-37-6-12z" fill="#bdd2e8"/><path d="M311 442l-37 34c0 1-12 21 3 39a571 571 0 0067 60c2 3 32 0 15-21-18-20-35-44-35-44s30-7 32-12-40-69-40-69z" opacity=".1"/><path d="M310 442l-37 34c0 1-12 21 3 39 16 18 50 47 50 47l17 13c2 3 32 0 15-21-18-20-35-44-35-44s30-7 32-12l41-67-81-2z" fill="#bdd2e8"/><path d="M396 305l-3 28-31 12c-1 0-20-18-17-30l3-21v-12s44-17 40-5c-1 4-1 8 1 13l7 15z" fill="#cf6f80"/><path d="M125 247v1c-4 7-7 15-9 23v1l-2 17c1 12 7 15 7 15s-91-15-76-18l7-4a215 215 0 0021-26v-1l10-17s63-39 42 9z" fill="#ffccd0"/><path d="M575 544l24 97c2 8 2 22 2 22l10-2c1-2-5-28-5-28l2-72-24-21z" fill="#d5838e"/><path d="M588 516h23l2 16s-1 31 1 35a3402 3402 0 0120 124l-10 2s2-6-1-18l-10-33-7-36s-2-64-50-61c-47 3-50 38-50 38l-19 77c-3 8-4 29-4 29l-11-1 3-55 10-114 31-2z" fill="#e4aab4"/><path d="M106 559l-25 97-1 21s-9 0-10-2c-1-1 4-27 4-27l-1-72 24-21z" fill="#d5838e"/><path d="M93 530l-23 1-2 16s1 30-1 35l-16 87s-5 29-4 37l10 2s-2-6 1-18l10-33 7-36s2-64 49-61c48 3 51 38 51 38l19 77c3 8 4 29 4 29l11-1-3-55-11-114-31-3z" fill="#e4aab4"/><path d="M389 290l-1 1a29 29 0 01-40 3v-12s44-17 40-5c-1 4-1 8 1 13z" opacity=".1"/><path d="M396 269c0 12-7 23-18 28s-24 2-33-6c-8-9-11-22-6-34 5-11 15-18 27-18 17-1 30 13 30 30z" fill="#cf6f80"/><path d="M306 551s-28 20-41 26l-52 25s-41 5-48 14l-16 19-7-41s80-43 81-46 24-12-44-12c-59 0-81 4-85-4l-2-4c0-14 80-76 80-76a216 216 0 0022 15c6 6 19 8 19 8l78 25s23 7 24 28-9 23-9 23z" fill="#aac9f5"/><path d="M359 334s-11-27-15-27-10 137-10 137l60 1 3-72-12-63s-12 25-26 24z" opacity=".1"/><path d="M359 336s-11-27-15-27-10 137-10 137l69 1-6-72-12-63s-12 25-26 24z" opacity=".1"/><path d="M359 335s-11-27-15-27-10 137-10 137l69 1-6-72-12-63s-12 25-26 24z" fill="#ffd6db"/><path d="M348 300s-2-3-5-2-5-2-8 1-15 6-17 5-10 5-12 8l-8 12s-5 6-4 9c1 4-2 8-5 9-3 2-8 17-8 17s-7 14-14 17c-6 4-1 19-1 19l39-1 9-21s-3 61-7 67c-5 5-5 9-5 9s16 3 20 7c3 3 12-1 12-1l9-81s3-15 3-23l2-51zM389 294l4-2 6 2 8 2c0 1 5 4 9 5 3 1 14 8 17 23s7 19 7 19l-26 13s20 89 23 95c2 6 3 44 3 44l-21 10c-4 2-2-22-11-36s-18-35-18-35l-16-43s-9-58-1-69c8-10 17-24 16-28z" opacity=".1"/><path d="M390 294l4-2 6 2 8 2c0 1 5 4 9 5 3 1 14 8 17 23s7 19 7 19l-26 13s20 89 23 95c2 6 3 44 3 44l-21 10c-4 2-2-22-11-36s-19-35-19-35l-15-43s-9-58-1-68c8-11 17-25 16-29z" fill="#575a89"/><path d="M444 405h-3l-23 1s-12-23-22-23c0 0 9-10 13-9l1-1c1-5-2-20-2-20l-5-21 27 6 10 5s1 11 3 13c2 3 4 15 4 18-1 3 2 18-1 21-3 4 4 9-2 10z" opacity=".1"/><path d="M445 405h-3l-23 1s-12-23-22-23c0 0 9-10 13-9l1-1c1-5-2-20-2-20l-5-21 27 6 10 5s1 11 3 13c2 3 4 15 4 18-1 3 2 18-1 21-3 4 4 9-2 10z" fill="#575a89"/><path d="M417 350s23 2 24 8-24-8-24-8z" opacity=".1"/><path d="M342 571s-2 9 0 14 2 17 0 21c-1 4-5 10 6 12 12 3 19 0 20-2 0-2 3-10 1-14-2-5-3-17 1-24s1-17-2-18l-10-5s7 12 1 15c-6 2-17 1-17 1z" fill="#ffd6db"/><path d="M396 269a31 31 0 01-8 21l-2-6 2-8c1-3 0-6-1-9-1-2-2-5-5-5h-1l-2-3c0-6-5-11-11-12h-2l-2 2c-2 2-6-1-9-1-2 0-4 3-5 5-1 3-2 5-5 6h-1v-3c1-2 0-4-1-6 8-10 21-14 33-10 12 5 20 16 20 29z" opacity=".1"/><path d="M344 255v3h1c3-1 4-3 5-6 1-2 3-5 5-5 3 0 7 3 9 1l2-2h2c6 1 11 6 11 12l2 3h1c3 0 4 3 5 5 1 3 2 6 1 9l-2 8 2 6c1 2 2 4 4 4l4-4c1-1 2-3 4-3l2 1v-1c1-4 0-8 2-11l6-5c7-7 9-18 2-26-2-3-5-5-6-9l2-8-4-7c-5-5-13-7-20-5l-6 1-6-3c-7-4-16-1-20 5-3 4-3 9-7 12-2 1-6 2-7 5v5c0 3 2 5 4 7s4 5 2 8z" fill="#512e4e"/><path fill="#ffceb4" d="M283 418h7l25 222v50l-9-1-32-270z"/><path fill="#f8bda5" d="M274 419l9-1v2l32 270-9-1z"/><path fill="#ffceb4" d="M326 687l-6 2-5 1v-50l29-220h1l14-1z"/><path fill="#f8bda5" d="M320 689l-5 1v-50l29-220h1l6 1-31 267zM407 418h2l25 166-1 18-2 47-31-230z"/><path fill="#ffceb4" d="M408 420l-1-2h2l25 166-1 18z"/><path fill="#f8bda5" d="M443 614l-4-1h-9l3-196 7 1h3l-1 84z"/><path fill="#ffceb4" d="M439 613l1-195h3l-1 84 1 112z"/><path d="M347 300s-2-3-5-2-5-2-8 1-15 6-17 5-10 5-12 8l-8 12s-5 6-4 9c1 4-2 8-5 9-3 2-8 17-8 17s-7 14-14 17c-6 4-1 19-1 19l39-1 9-21s-3 61-7 67c-5 5-5 9-5 9s16 3 20 6c3 4 12 0 12 0l9-81s4-15 4-23l1-51z" fill="#575a89"/><path fill="#f8bda5" d="M492 421l-162 3-172-8v-7h43l128-2 99 6 64 1z"/><path fill="#ffceb4" d="M492 414l-155-10-179 5 127 5z"/><path fill="#8a3000" d="M323 404l-178 6 126 7 207-1z"/><path d="M301 401c-9 17-37 9-37 9s-12-3-20 2c-7 4-43 9-43 9s-14-3-17-8c-3-4-30-20-37-25h-2v-1l30-37 4 5 24 26s23 1 30 5c6 4 27-2 27-2s10 0 11-2 39 3 30 19z" fill="#ffccd0"/><path d="M250 414l-1-16 6-16 9 15 1 17-7 2z" fill="#525584"/><path d="M249 398l7 2 8-3 1 17" fill="#575a89"/><path d="M250 414l8 2-2-16-7-2z" fill="#4d507f"/><path d="M256 400l-1-18 9 15-8 3" fill="#545786"/><path d="M292 344s3 8 12 8c8-1-12-8-12-8zM300 331s6 1 8 6-8-6-8-6zM316 323c0 1 3 19 0 26-4 7-3 16-3 16zM125 247v1c-4 7-7 15-9 23v1l-11 2c-9 0-14-11-20-16-3-3-10 1-12-2v-1l10-17s63-39 42 9z" opacity=".1"/><path d="M144 234a38 38 0 01-75 9c-5-20 5-39 23-46 19-7 39 2 48 19 2 6 4 12 4 18z" fill="#ffccd0"/><path d="M121 304s-91-16-76-18l7-4 2 2 17-2s21-5 30 1l13 6c1 12 7 15 7 15zM180 457l-1 1c-5 2-10 22-10 22s-55 54-75 52l-2-4c0-14 80-76 80-76l8 5z" opacity=".1"/><path d="M71 283s21-5 30 1c5 3 12 6 18 7 0 0 16 4 21 10 6 6 11 2 13 10 2 7 9 14 9 14l-3 51 3 29s1 12-2 15c-4 2 0 7 3 9s11 12 10 15 8 7 8 7 0 6-4 7c-5 2-10 22-10 22s-58 57-77 52-33-24-33-24-13-59-17-68l-13-41s-5-36-8-43-3-44 5-52 15-12 15-15 8-8 11-8c3 1 4 4 4 4z" fill="#ff748e"/><path d="M140 216l-5 3c-2 3-1 6-2 9-1 5-5 9-4 14v5l-4 1c-4-2-6-6-9-9-2-3-7-5-10-3-3 3-2 7-2 10s-1 8-4 8h-4c-4 1-4 9-8 10h-4l-4-1c-4 0-8 2-12 1l5-9c-12-19-6-44 13-55s44-4 54 16z" opacity=".1"/><path d="M84 263h4c4-1 4-9 8-10h4c3 0 4-5 4-8s-1-7 2-10c3-2 8 0 10 3l8 9 5-1v-5c-1-5 3-9 4-14 1-3 0-6 2-9 4-5 13-2 16-8h4c2-1 3-2 2-4l-2-2c-3-2-5-6-5-9l1-5c-1-4-4-7-8-7h-3c-6 0-10-6-15-5l-4 1-7-4h-6l-5-2c-4-2-9-3-12 0l-3 1-3 1H75l-3 2v2c-1 4-6 5-10 6l-3 1c-2 1-2 3-1 5l2 5c0 4-4 8-5 13-1 6 6 12 3 18-1 3-4 5-3 8 0 3 2 4 4 7 2 2 2 4 3 7 1 4 1 12 6 13 5 2 11-1 16 1z" fill="#ffedba"/><path d="M85 399c6 7 26 25 39 29s-39-29-39-29zM88 436c3 2 13 22 25 24 11 1-25-24-25-24zM91 418c1 1 27 25 36 27 10 2 2-8-10-13s-26-14-26-14zM91 468s18 6 30 5c11-2-30-5-30-5zM112 507s17-13 25-14c9 0-25 14-25 14zM34 299s42 5 30 7c-11 2-30-7-30-7zM34 321s20 0 27-3-27 3-27 3zM28 364c3-1 18-33 24-25 6 9-24 25-24 25zM88 356s5 5 22 9c16 5-22-9-22-9zM186 471s9 5 2 16-2-16-2-16z" opacity=".1"/><path d="M89 514v-1 1zM95 542l-26-2-5-10-28-155-1-3h42l1 5 11 136-1 3c0 9 7 26 7 26z" fill="#e4aab4"/><path d="M605 316l-1 1c-2 2-6-5-10-4-2 1-5 10-8 10-5 0-9-2-14-4l-1-2-3-6 11-1 8-2h15l2 7 1 1z" opacity=".1"/><path d="M619 287c0 14-8 26-20 31-13 5-27 2-36-7-9-10-12-24-7-36 5-13 17-21 30-21 18 0 33 15 33 33z" fill="#ffc1c7"/><path d="M613 351l-10 1s1-9 5-12l11-6 4 1c-15 9-10 16-10 16z" fill="#fff"/><path d="M504 394l-2-1-20 2c-10 1-24 4-14 16 10 13 20-2 20-2s9 12 17 8c7-4-1-23-1-23zM463 588s7 15 6 20c-1 4 21-5 21-5s-5-11-2-14c2-3-25-1-25-1zM434 630h17v22h-17z" fill="#ffc1c7"/><path d="M467 581c-2 3-3 8-4 13l-2 17c0 4 2 3 0 8l-3 13v1l-2 8s-25-2-30-5c-6-4 2-8 2-8v-1c0-10 5-110 8-120 0-3 1-5 3-7 3-3 7-6 11-7l7-3 3 19c4 25 10 67 7 72z" fill="#575988"/><path d="M460 509c-2 4-4 6-5 4l-16-13c6-7 18-10 18-10l3 19z" fill="#ffc1c7"/><path d="M608 482l-1 13c-2 14-11 26-23 33 0 0-61 0-71-3a16 16 0 00-15 3l-4 4-6-29c0-1 3-14 10-22 6-9 45-10 48-10l25-11 8-4 16 5 12 4s2 4 1 17z" fill="#575988"/><path d="M595 461l-13 5c-11 5-27 10-36 9-15-2-34 2-34 2-5 3-11 6-16 11-8 7-1 9 3 18 2 4 1 12 0 21l-1 1-4 4-6-29c0-1 3-14 10-22 6-9 45-10 48-10l25-11 8-4 16 5zM467 581c-2 3-3 8-4 13l-2-1c-3-3-2-8-2-11v-3c0-1 2-14-1-18s-3-22-3-22-4-24-5-46l7-3 3 19c4 25 10 67 7 72z" opacity=".1"/><path d="M597 460l-2 1-14 5c-11 5-27 10-36 9-15-2-34 2-34 2-5 3-11 6-16 11-8 7 0 9 3 18 2 4 1 13 0 22l-3 25-1 5 1 18-2 4 2 4c2 3 0 13 0 13s-5 1-15-1-13 0-18-3c-3-3-2-8-2-11v-3c0-1 2-14-1-18s-3-22-3-22-11-62 0-77c6-7 19-9 30-8l25 4c6 2 8 1 12 0 2-1 2-6 2-9v-1l3-2 12-7z" fill="#575988"/><path d="M604 315l8 12h-3l-3-1c-3-2-6 0-8-2-2-1-3-3-3-5v-1c0-3 0-9-3-10h-4-1c-2 2-3 4-6 4l-2-2-1-4-5-16-2-2c-2 0-2 2-1 4l3 4c0 3-4 4-6 3-3-2-3-5-2-8l1-8c1-3-1-6-3-7-3-1-5 1-7 1 7-22 32-30 50-16s17 41-1 54z" opacity=".1"/><path d="M589 308c-2 1-4 4-7 4-2 0-3-4-3-6l-5-16-2-2c-2 0-2 2-1 4l3 4c0 3-4 4-6 3-3-2-3-5-3-8l2-8c0-3-1-6-3-7-3-1-6 1-9 1-3-1-4-5-3-7 1-3 4-5 3-7-1-3-6-2-8-4-1-2 0-5 2-7l7-3c3-3 4-9 8-12 4-4 10-3 15-5s9-6 14-5l3 1c3 0 5-2 8-3 4-2 9-1 14 1-1 3 3 6 6 6 2 0 6-1 6 1l1 4c0 2 3 2 4 3 4 2 2 9 6 12l5 2c6 3 8 10 9 16v4c0 2-2 3-3 5-2 4 0 9-1 13s-6 7-7 11v5c-1 4-5 6-9 7l-2 2-1 1-2 3-16 6-4 1-3-2c-3-2-6 0-8-2-3-1-3-3-3-6 0-4 0-12-7-10z" fill="#b97482"/><path d="M458 632v1l-2 8s-25-2-30-5c-6-4 2-8 2-8v-1c8 2 23 6 30 5z" fill="#575988"/><path d="M458 632v1l-2 8s-25-2-30-5c-6-4 2-8 2-8v-1c8 2 23 6 30 5z" opacity=".1"/><path d="M454 638l-30 2c-1-1-1 16-1 16s-7 13-7 16l-8 11s-9 7 5 10c13 3 28-1 28-1s10-18 11-17v10l6-2s-1-11 1-17-5-28-5-28z" fill="#d3878a"/><path d="M495 596s-5 1-15-1-13 0-18-3c-3-3-2-8-2-11l16-3c5-1 12 0 17 1l2 4c2 3 0 13 0 13z" opacity=".1"/><path d="M495 597s-5 1-15-1-13 0-18-3c-3-3-2-8-2-11l16-3c5-1 12 0 17 1l2 4c2 3 0 13 0 13z" fill="#575988"/><path d="M495 597s-5 1-15-1-13 0-18-3c-3-3-2-8-2-11l16-3c5-1 12 0 17 1l2 4c2 3 0 13 0 13z" opacity=".1"/><path d="M509 645l-9 3-3-12-7 11-2 3c-5 7-21 6-27 1l-2-1c-3-5 2-10 5-13 3-2 2-20 2-20s-2-8-1-12 26-5 26-5 5 14 8 18 6 9 6 13c-1 4 4 14 4 14z" fill="#d3878a"/><path d="M496 470c-4 5-32 1-40-8 6-7 19-9 30-8 5 4 14 11 10 16z" fill="#ffc1c7"/><path d="M470 474s-5-7-9-4c-5 3-6-6-6-6s2-2 7 1 11 7 10 8l-2 1z" opacity=".1"/><path d="M470 473s-5-7-9-4c-5 3-6-6-6-6s2-2 7 1c5 2 11 7 10 8l-2 1z" fill="#575988"/><path d="M559 474s25 11 19 16c-5 4-19-16-19-16zM461 553s15 2 19 4c2 2 5 3 9 3 2 0-21-13-28-7zM479 543s-6 5 1 6c7 2-1-6-1-6zM446 600s9 11 12 8-12-8-12-8zM440 622c1 0 3-1 8 3 4 3 4-3 2-5-1-2-10 2-10 2zM430 372c2 1 11 3 12 9 2 5-12-9-12-9zM78 377h-1s-25-6-41-2l-1-3h43z" opacity=".1"/><path d="M55 365s64 1 86 45c22 45 27 130 27 130s4 13-1 13c-6 0-8-11-8-11s2-9 0-12l-22-108s-2-32-60-46c0 0-68-16-50 23 0 0 1 5-3 4-3-1-8-11-5-24 3-12 36-14 36-14z" fill="#e4aab4"/><path d="M179 355c-4 4-21 33-32 33h-1-1v-1l29-37z" opacity=".1"/><path d="M146 319l15 6s8 8 7 14c0 7 4 2 4 2s2 1 2 4 8 5 3 9-22 34-33 33l-22-22c-11-10-22-62 24-46z" opacity=".1"/><path d="M147 319l15 6s8 8 7 14c0 7 4 2 4 2s2 1 2 4 8 5 3 9-22 34-33 33l-21-22c-12-10-23-62 23-46z" fill="#ff748e"/><path d="M561 375l-15 28-11 6v-5s-7-17 10-29c16-11 8-20 6-22v-1h4zM664 363c-3 5-24 20-24 20l-1-1 20-23 4 2zM608 482h-9a131 131 0 00-28-22 71 71 0 00-47-10l1-1 3-3 12-7 57 21-2 1 12 4s2 4 1 17z" opacity=".1"/><path d="M590 346s44 5 64 2c0 0 10 8 9 13s-23 21-23 21-2 40-11 49c-9 10-17 34-13 42s-16 7-16 7-37-40-75-32c0 0 14-12 13-20l-2-24s-7-17 10-29c18-13 5-23 5-23s-1-3 7-4l11-2s7-7 11-5l10 5z" fill="#3b8070"/><path d="M640 377s6 11 0 16l-6 8c-11 15-20 31-27 48-12 29-33 78-36 81-5 3-5 11-1 11 5 0 7-6 7-6l8-18 32-74s11-29 23-36c0 0 11-18 9-26s-9-4-9-4z" opacity=".1"/><path d="M640 376s6 11 0 16l-6 8c-11 15-20 31-27 47-12 30-33 79-36 82-5 3-5 11-1 11 5 0 7-6 7-6l8-18 32-74s11-29 23-36c0 0 11-18 9-26s-9-4-9-4z" fill="#e4aab4"/><path d="M686 412c1 6 1 12-2 18 0 0-14 1-28-20l-9-21s-9-16-15-15c-5 1-10 29-23 27-13-3-6-38 11-41l7-2c5-1 11 0 15 3a429 429 0 0025 20c10 7 16 18 19 31z" fill="#ffc1c7"/><path d="M539 410s7 9 18 10c10 2 17-1 26 3l-44-13zM630 395s-20 18-20 22c1 5 20-22 20-22z" opacity=".1"/><g opacity=".1"><path d="M574 295a4 4 0 01-5 0c-2-1-3-4-2-6l-1 2c0 3 0 6 2 8 3 1 7 0 6-3a4 4 0 000-1zM568 283a18 18 0 001-4c0-2-1-6-4-7-3 0-6 2-8 1a5 5 0 01-4-4 5 5 0 003 8c3 0 6-2 8-1 3 1 4 4 4 7zM556 263a3 3 0 001-4c-1-3-6-1-8-4a3 3 0 01-1-1v5c2 2 7 1 8 4zM637 312l-3 1v2l-3 2-15 7h-5l-3-2c-2-1-5 1-8-1l-3-6c0-4 0-13-7-10-2 1-4 4-6 4-3 0-4-4-4-7l-5-15-2-3c-1 0-2 2-1 4a1 1 0 011 0l2 2c2 5 4 10 4 16 1 2 1 6 4 6s4-3 7-4c6-2 7 6 7 10 0 3 0 5 2 6 3 2 6 0 9 2l3 1h4l15-7 3-2v-1l3-2c4-1 8-4 9-8a9 9 0 000-1c-2 3-5 5-8 6zM654 275a8 8 0 00-1 4c1-2 3-3 3-5a5 5 0 000-2l-2 3zM646 300a10 10 0 00-1 1l7-9a10 10 0 000-3c-1 4-6 6-6 11z"/></g><path d="M501 627l-11 9c-4 4-15 7-15 7zM448 670s-21 19-24 18c-3 0 24-18 24-18zM490 647l-2 3c-5 7-21 6-27 1 5-1 21-6 29-4z" opacity=".1"/><g opacity=".1"><path d="M407 230a13 13 0 001-2 13 13 0 00-1 2zM345 253a8 8 0 010-1c2-4 0-6-2-8a12 12 0 01-4-8 20 20 0 010-2 5 5 0 00-1 1v5a12 12 0 004 7l3 6zM401 283c-2-1-3 1-4 3-1 1-2 3-4 3s-3-2-4-4l-2-6a7 7 0 010-1 13 14 0 00-1 5l2 6c1 2 2 4 4 4l4-4c0-1 2-3 4-3l2 1a2 2 0 000-1 13 13 0 001-3h-2zM411 266l-6 5a9 9 0 00-1 4l6-6a18 18 0 006-10 18 18 0 01-5 7z"/><path d="M388 275a20 20 0 001-3c1-3 0-7-1-10-1-2-2-5-5-4a5 5 0 01-1 0l-2-3a14 14 0 00-11-12 4 4 0 00-2 0l-2 2c-2 1-6-2-9-2-2 1-4 3-5 6-1 2-2 5-5 5a1 2 0 01-1 0 1 1 0 01-1 0 5 6 0 010 1v3a2 2 0 001 0c3-1 4-3 5-6 1-2 3-5 5-5 3 0 7 3 9 1l2-2a4 4 0 012 0 14 14 0 0111 12l2 3a5 5 0 001 0c3 0 4 3 5 5 1 3 2 6 1 9z"/></g><path d="M304 408l8 2-2-18-7-1z" fill="#3b8070"/><path d="M405 381s-13 4-19 4h-28s-58-20-40 8c17 27 45 12 45 12l5 1c2 0 55 0 57-2s-20-23-20-23z" fill="#cf6f80"/><path d="M441 405l-23 1s-12-23-22-23c0 0 9-10 13-9l1-1c10 3 28 10 30 23l1 9z" opacity=".1"/><path d="M442 405l-23 1s-12-23-22-23c0 0 9-10 13-9l1-1c10 3 28 10 30 23l1 9z" fill="#575a89"/><path d="M442 405l-23 1s-12-23-22-23c0 0 9-10 13-9l1-1c10 3 28 10 30 23l1 9zM372 473s23-5 26-2c4 3-26 2-26 2zM308 495s10 6 11 10c1 5-11-10-11-10z" opacity=".1"/><g opacity=".1"><path d="M150 192a10 10 0 000 4v-1l1-6a7 7 0 00-1-2v5zM58 191l2 3a5 5 0 00-1-1l-1-5a7 7 0 000 3zM157 206a2 3 0 000-1 3 3 0 01-2 2 9 9 0 01-4 1c-3 5-13 3-16 8-2 2-2 5-3 8-1 5-4 9-4 14v5c-1 2-2 2-4 1-4-2-6-5-8-9-3-3-8-5-11-2-2 2-2 6-1 9 0 4-1 8-4 9h-4c-4 1-4 8-8 9H67c-2-1-3-4-4-7 0 4 2 8 5 9 5 2 11-1 16 0l4 1c4-1 4-9 8-10h4c3 0 4-5 4-8s-1-7 2-10c3-2 8 0 10 3 3 3 5 7 9 8h4v-5c-1-5 3-9 4-14 1-3 0-6 2-9 4-5 13-2 16-8a8 9 0 004 0c2-1 3-2 2-4zM61 246l-2-7c-2-2-4-3-4-5a5 5 0 000 1c0 3 2 4 4 6l3 8-1-3zM58 221l-3-10 3 10z"/></g><path d="M232 537s28 0 21 3-25 2-25 2zM346 598s13-2 16 0c4 2-16 0-16 0z" opacity=".1"/><path fill="#e4aab4" d="M218 554l-22 11-1-29h34z"/><path d="M20 21h13l7-10-7-11-12 1-6 9 5 11z" fill="#b3b3b3" fill-rule="evenodd" stroke="#ececec" stroke-width=".1" stroke-linejoin="round" transform="matrix(.90208 0 0 .92241 380 391)"/><path d="M21 21l6-10h13l-7 10z" fill="#ececec" fill-rule="evenodd" stroke="#ececec" stroke-width=".1" stroke-linejoin="round" transform="matrix(.90208 0 0 .92241 380 391)"/><path d="M40 11L33 0 21 1l6 10z" fill="#fff" fill-rule="evenodd" stroke="#fff" stroke-width=".3" stroke-linejoin="round" transform="matrix(.90208 0 0 .92241 380 391)"/><path d="M403 407a2 1 0 110 2 2 1 0 110-2zm8-4a2 1 0 110 2 2 1 0 110-2zm1-6a2 1 0 110 2 2 1 0 110-2zm-3-4a2 1 0 110 2 2 1 0 110-2zm-5 0a2 1 0 110 2 2 1 0 110-2zm2 4a2 1 0 110 2 2 1 0 110-2zm-6 4a1 2-4 11-2 0 1 2-4 112 0z"/><path d="M385 400v12l9 6 10-6v-11l-9-6-10 5z" fill="#fff" fill-rule="evenodd"/><path d="M385 400l9 6 1 12-10-6z" fill="#ccc" fill-rule="evenodd"/><path d="M16 29l10-6-1-13-10 6z" fill="#ececec" fill-rule="evenodd" stroke="#ececec" stroke-width=".2" stroke-linejoin="round" transform="matrix(.90208 0 0 .92241 380 391)"/><path d="M388 405a1 2 0 11-2 0 1 2 0 112 0zm5 8a1 2 0 11-2 0 1 2 0 112 0zm6 0a1 2 0 11-2 0 1 2 0 112 0zm3-2a1 2 0 11-2 0 1 2 0 112 0zm0-6a1 2 0 11-2 0 1 2 0 112 0zm-4 2a1 2 0 11-2 0 1 2 0 112 0zm-3-6a1 2 86 11-1-2 1 2 86 111 2z"/><path d="M367 415l1-15-6-13-8 11-1 17 8 2z" fill="#ff6b85"/><path d="M368 400l-6 1-8-3-1 17" fill="#ff5771"/><path d="M367 415l-6 2 1-16 6-1z" fill="#ff748e"/><path d="M362 401v-14l-8 11 8 3" fill="#ff5d77"/><g><path d="M304 408l-1-17 6-17 9 15 2 19-8 2z" fill="#2d7161"/><path d="M312 410l-2-18 8-3 2 19" fill="#3b8070"/><path d="M310 392l-1-18 9 15-8 3" fill="#357b6b"/><path d="M304 408l8 2-2-18-7-1z" fill="#266a5a"/></g></svg>