<svg data-name="Layer 1" xmlns="http://www.w3.org/2000/svg" viewBox="0 0 1022.8 813.2"><defs><linearGradient id="a" x1="635.2" y1="545.3" x2="635.2" y2="43.4" gradientUnits="userSpaceOnUse"><stop offset="0" stop-color="gray" stop-opacity=".3"/><stop offset=".5" stop-color="gray" stop-opacity=".1"/><stop offset="1" stop-color="gray" stop-opacity=".1"/></linearGradient></defs><path d="M600 137c-65-2-127-23-185-46S297 43 234 31c-40-8-87-9-120 13-31 21-41 57-47 91-4 25-6 52 5 75 8 17 22 30 31 46 34 55 10 122-26 176-17 25-37 49-50 76s-19 57-8 84c12 27 39 47 68 61 60 29 130 38 199 42a4672 4672 0 00625-10c31-5 62-13 85-31 28-24 35-64 16-93-32-50-120-62-142-115-12-29 0-62 18-89 38-58 102-109 106-176 2-45-29-91-76-113-50-22-120-20-156 18-38 39-105 53-162 51z" fill="#3b8070" opacity=".1"/><path fill="#3b8070" d="M435 691l-342-2-34-80 120-9-21-87 238-31-227-79 20-5 366 60-20 136-29 75-71 22z"/><path d="M98 655s21-3 34 12c0 0-9 7-29-3zM96 655s-13 17-7 35c0 0 11-4 13-27zM84 628s9-15 42 6c0 0-4 10-19 10s-19-8-23-16zM82 627s-17-2-19 38c0 0 11 2 19-11s4-19 0-27zM72 595s10-27 45-8c0 0-8 25-41 17zM61 554s18-27 51-2c0 0-11 26-48 12zM57 516s22-25 54 0c0 0-20 22-54 6zM54 478s22-26 53-1c0 0-25 23-53 7zM56 445s23-34 52-11c0 0-25 29-52 17zM61 406s24-34 53-8c0 0-29 29-53 14zM69 371s29-31 54-19c0 0-30 34-55 28zM79 338s33-38 53-25c0 0-25 30-55 33zM94 300s29-32 50-24c0 0-25 33-54 34zM107 264s32-30 46-25c0 0-23 34-48 32zM120 231s27-36 43-33c0 0-17 32-43 37zM134 187s24-28 37-28c0 0-19 37-38 37zM142 157l24-58s1 52-27 69zM152 93s4-48 1-52c0 0 17 40-2 74zM71 594s-25-15-40 22c0 0 21 15 43-12zM60 553s-30-14-45 25c0 0 24 16 48-15zM56 518s-22-25-54 0c0 0 20 22 54 7zM53 478s-22-26-53-1c0 0 25 23 53 7zM56 446s-16-38-49-22c0 0 18 34 47 28z" fill="#3b8070"/><path d="M63 406s-15-39-49-21c0 0 21 36 47 27zM72 371s-6-42-34-46c0 0 6 45 31 54zM80 338s-2-51-26-52c0 0 1 38 23 60zM96 299s-7-43-29-48c0 0 3 41 27 58zM109 265s0-45-13-51c0 0-9 40 10 56zM121 231s-2-46-16-52c0 0-5 36 14 55zM136 190s0-37-10-45c0 0-10 40 4 53z" fill="#3b8070"/><path d="M141 155l-10-61s-13 50 10 72zM143 94s-25-41-25-46c0 0 3 43 34 65zM146 82s-24-59-35-64c0 0 34 17 37 62z" fill="#3b8070"/><path d="M133 196h-2c20-65 25-106 14-117l1-1c12 11 7 52-13 118z" fill="#444053"/><path d="M78 348l-2-1 6-18c21-52 39-100 50-137l2-1a1833 1833 0 01-56 157z" fill="#444053"/><path d="M128 704s-32-37-55-99a364 364 0 01-22-112c-1-48 9-102 26-151l2 2a386 386 0 00-3 260c22 61 54 97 55 98z" fill="#444053"/><path d="M631 627s-23 28-5 69l-181 79-17 4-8-35 5-45v-24z" fill="#d5d6db"/><path fill="#3b8070" d="M59 609l251-46 332 53-207 75-376-82z"/><path fill="#3b8070" d="M59 609l251-46 332 53-207 75-376-82z"/><path d="M59 609s-23 44 4 85l371 81s-23-35 1-84z" fill="#3b8070"/><path d="M59 609s-23 44 4 85l371 81s-23-35 1-84zM70 624s-13 33 0 54" opacity=".1"/><path d="M434 775l208-89s11 3 4 11-208 86-208 86L63 694z" fill="#3b8070"/><path d="M434 775l208-89s11 3 4 11-208 86-208 86L63 694zM417 699s-20 24 0 60" opacity=".1"/><path opacity=".1" d="M424 729l90-30v1l-89 30zM424 737l108-41v1l-107 41zM425 746l124-50v1l-124 50zM426 755l140-63h1l-140 64zM427 759l155-67-154 68zM430 766l184-80 1 1-185 80z"/><path fill="#fff" opacity=".3" d="M152 614l176-37 107 20-144 47-139-30z"/><path d="M642 616s9 4 3 10-210 65-210 65z" fill="#3b8070"/><path d="M730 531s-23 27-5 69l-181 79-17 3-8-35 5-44v-24z" fill="#d5d6db"/><path fill="#3a3768" d="M158 513l251-46 332 53-206 74-377-81z"/><path d="M158 513s-23 44 4 85l371 81s-23-36 2-85z" fill="#3a3768"/><path d="M158 513s-23 44 4 85l371 81s-23-36 2-85l-118-25zM170 528s-14 33 0 54" opacity=".1"/><path d="M534 679l207-89s12 3 4 11-207 86-207 86l-376-89z" fill="#3a3768"/><path d="M534 679l207-89s12 3 4 11-207 86-207 86l-376-89zM517 603s-20 24 0 60" opacity=".1"/><path opacity=".1" d="M524 633l89-30 1 1-90 30zM524 641l107-41 1 1-108 41zM524 650l124-50v1l-123 50zM526 659l140-64v1l-140 64zM527 663l154-68v1l-154 68zM529 670l185-80v1l-185 80z"/><path fill="#fff" opacity=".5" d="M252 518l176-37 107 20-144 47-139-30z"/><path d="M741 520s9 4 4 9-210 65-210 65z" fill="#3a3768"/><path d="M739 421s-22 49-4 91l-181 57-18 3-8-35 6-44v-24z" fill="#d5d6db"/><path fill="#3b8070" d="M168 403l250-46 332 53-206 74-376-81z"/><path d="M168 403s-24 44 3 85l372 81s-23-36 1-85z" fill="#3b8070"/><path d="M168 403s-24 44 3 85l372 81s-23-36 1-85zM179 418s-13 33 0 54" opacity=".1"/><path d="M543 569l207-67s12 3 4 11-207 64-207 64l-376-89z" fill="#3b8070"/><path d="M543 569l207-67s12 3 4 11-207 64-207 64l-376-89zM526 493s-20 24 0 60" opacity=".1"/><path opacity=".1" d="M533 523l90-30v1l-90 30zM533 531l108-41v1l-108 41zM534 540l123-50 1 1-124 50zM535 549l140-64 1 1-140 64zM536 553l154-68 1 1-154 68zM539 560l184-80 1 1-185 79z"/><path fill="#fff" opacity=".3" d="M261 408l176-37 107 20-144 47-139-30z"/><path d="M750 410s9 4 4 9-210 65-210 65zM310 106s-38-2-33 25c0 0-1 5 3 7 0 0 0-2 4-2a17 17 0 004 1 9 9 0 005-2s11-5 15-22l3-5-6 3s2 4 0 8l-1-8-4 2s4 8 1 13c0 0 1-9-2-13l-4 3s4 8 1 15c0 0 1-11-2-15l-4 4s4 8 1 13c0 0 0-12-2-13l-4 5s3 6 1 9l-2-8s-4 5-4 9a19 19 0 013-10 11 11 0 00-6 3s1-4 7-4l4-4s-6-1-10 1c0 0 3-4 11-2l4-4s-8-1-11 1c0 0 3-4 12-1l4-3-10-1s4-2 11 0l3-1-6-1c-2 0-1-1-1-1a17 17 0 019 1l6-3z" fill="#3b8070"/><path d="M845 216s-38-2-34 24c0 0 0 5 4 7 0 0 0-2 4-1a18 18 0 004 0 9 9 0 005-2s11-4 15-22l3-5-7 3s3 5 1 9c0 0 0-9-2-8l-3 1s4 8 1 14c0 0 1-10-2-13l-5 2s5 9 2 15c0 0 0-10-3-14l-4 3s4 8 2 14c0 0 0-12-3-13l-4 4s3 6 1 10l-2-9-4 9a19 19 0 013-9 11 11 0 00-5 3s1-4 6-4l4-5-9 1s3-3 10-2l4-3s-7-1-11 0c0 0 4-3 12-1l5-2-11-1s4-2 12 0l3-1-6-2h-2a16 16 0 019 1l7-3zM374 271s-16-34-37-17c0 0-5 1-5 6 0 0 2-1 3 3a18 18 0 002 4 9 9 0 005 3s9 7 26 2h6l-6-4s-3 4-7 5c0 0 7-4 6-5l-3-3s-5 8-11 8c0 0 9-4 10-8l-4-3s-5 8-13 9c0 0 10-5 12-10l-5-2s-5 8-11 9c0 0 10-7 10-9l-6-1s-4 5-8 5l7-6-10 1a19 19 0 0110-2 11 11 0 00-6-3s4-1 7 4l6 1s-3-6-6-8c0 0 5 1 7 8l5 2s-3-7-6-9c0 0 5 1 7 10l4 2-4-9s4 2 6 10l2 2-2-6v-1a16 16 0 014 8l5 4zM758 168s-16-35-37-18c0 0-5 2-5 6 0 0 2 0 3 3a17 17 0 002 4 9 9 0 004 3s9 8 27 3h5l-5-4s-3 4-7 4c0 0 7-4 6-5l-3-2s-5 7-12 7c0 0 10-4 11-8l-5-3s-5 8-12 9c0 0 9-4 11-9l-4-2s-6 8-12 8c0 0 11-6 10-9l-5-1s-4 5-8 5c0 0 7-4 6-5 0 0-6-1-10 1a19 19 0 0110-2 11 11 0 00-5-4s4-1 7 4l5 1s-2-5-5-7c0 0 5 0 7 8l5 1s-3-7-6-9c0 0 5 2 7 10l4 3-4-10s4 3 5 10l3 3-2-6v-2a16 16 0 013 8l6 5zM811 337s-16-34-38-17c0 0-4 1-4 6 0 0 2-1 3 3a17 17 0 002 4 9 9 0 004 3s9 7 27 2l5 1-5-5s-3 5-8 5c1 0 8-4 7-5l-3-2s-5 7-12 7c0 0 9-4 11-8l-5-3s-5 8-12 9c0 0 9-5 11-9l-5-2s-5 7-11 8c0 0 11-6 10-9l-6-1s-3 5-7 5l6-5s-6-1-10 1a20 20 0 0110-2 11 11 0 00-5-4s4-1 7 4l5 1-5-8s5 1 7 8l4 2s-2-7-5-9c0 0 5 2 7 10l4 2-4-9s4 2 5 10l3 2-2-6v-1a16 16 0 013 8l6 4z" fill="#3b8070" opacity=".1"/><ellipse cx="201.9" cy="781.6" rx="23" ry="2.6" fill="#3b8070" opacity=".1"/><ellipse cx="51.2" cy="737.9" rx="23" ry="2.6" fill="#3b8070" opacity=".1"/><ellipse cx="316.8" cy="810.6" rx="23" ry="2.6" fill="#3b8070" opacity=".1"/><ellipse cx="905.5" cy="747.4" rx="23" ry="2.6" fill="#3b8070" opacity=".1"/><ellipse cx="714.2" cy="734.9" rx="23" ry="2.6" fill="#3b8070" opacity=".1"/><ellipse cx="590.5" cy="793.7" rx="27.2" ry="4.7" fill="#3b8070" opacity=".1"/><path d="M603 747s-38 19-19 42c0 0 2 5 7 5 0 0-1-2 3-4a20 20 0 005-2 10 10 0 003-5s8-10 2-29v-6l-5 6s5 3 6 8c0 0-5-8-6-7l-3 3s9 6 9 13c0 0-4-10-9-12l-3 6s9 5 10 13c0 0-5-10-11-12l-2 5s9 6 10 13c0 0-8-12-10-12l-2 7s6 4 7 8c0 0-6-7-7-6l1 10s-3-5-2-10a12 12 0 00-4 5s-1-4 4-7l1-7s-6 3-8 7c0 0 1-5 9-8l2-5s-8 3-11 6c0 0 2-5 11-8l3-5-10 5s2-4 11-6l2-3-6 2h-2a18 18 0 019-4l5-6z" fill="#3b8070"/><path d="M804 421c-7-18-43-20-59-15l-47 9v-1l1-4a53 53 0 010-7c8 3 15-3 15-3 9-4 6-21 8-26l3-34v-4l1-2s0-25 2-30 3-28 3-32v-3-5l-1-21v-1c0-4 0-22-16-29l-19-8c-2-15-6-30-5-45v-7 7c1-19 8-38 7-56v5a58 58 0 00-2-18l-3-6a13 13 0 00-6-2 110 110 0 00-14-3 22 22 0 00-3-6 71 71 0 00-43-30c-9-1-20 0-26 6a19 19 0 00-1 2c-4 4-5 9-8 13l-1 1c-7 5-17 7-24 12a29 29 0 00-4 3 61 61 0 00-8 10c-3 4-6 9-7 14-2 11 5 22 7 33 3 25-25 47-20 71a33 33 0 009 16l-20 19v1h-1v2l1 10-1 16v2c0 5 1 26 3 31s2 30 2 30 2 35 4 40-1 22 8 26a19 19 0 009 4c0 3 0 6 2 7a4 4 0 002 1 22 22 0 00-2 2 42 42 0 01-10-2c-10-4-42-13-51-7s-32 12-22 38 15 26 15 26a37 37 0 019 8c3 5 32 16 39 16a71 71 0 019 0s-8 7-7 11-2 36-2 36 8 8 11-2h1c0 1 4 5 10 0a59 59 0 019-5l31-5a89 89 0 0110 0c5 0 10-3 13-5l17 6c7 2 40 11 48 8a11 11 0 004-3l7 1h-3l15 1h11a520 520 0 0067-1h2s22-4 13-26c-7-17-29-22-38-23l6-2c7-1 20-7 21-9l14-11c2-3 11-28 5-45zm-181 49l-1 1h-1l-1 1-4-2h7zm95 29z" transform="translate(-89 -43)" fill="url(#a)"/><path d="M598 322s15 40 24 36 6-21 8-26 4-40 4-40 0-25 2-30 3-28 3-32l-2-29-9-3-22 8-3 17-1 7v3z" fill="#be6f72"/><path d="M603 315s15 12 19 13 7 10 7 10" opacity=".1"/><path d="M478 323s-15 40-24 36-6-21-8-25-3-40-3-40-1-25-3-30l-3-32v-1l2-29 9-2 22 8 3 17 1 7 1 3z" fill="#be6f72"/><path fill="#3e373a" d="M544 109h34v54h-34z"/><path opacity=".1" d="M544 109h34v54h-34z"/><path d="M472 363s-11 13-7 15 32 46 32 46 92 12 110-5 17-48 17-48-14 3-16 2l-10-10s-118-7-126 0z" fill="#4b4b5b"/><path d="M638 201l-30 24-9 1h-3l-56 4-58-4-9-1-11-1-23-22s16-17 31-29c5-5 11-8 14-10h1a16 16 0 006-4c12-12 22-41 22-41s50-25 44 8 22 26 22 26l9 4 4 2 10 4 21 10c16 7 15 29 15 29z" fill="#be6f72"/><circle cx="537.4" cy="101.1" r="44.7" opacity=".1"/><path d="M638 233H437v-1l2-29s16-17 31-29l126-5 5-6 22 10c16 7 15 29 15 29s2 25 0 31z" opacity=".1"/><path d="M638 232H437v-1l2-29s16-17 31-29l126-5 5-6 22 10c16 7 15 29 15 29s2 25 0 31z" fill="#e7c7ca"/><path d="M505 151s32 40 74-1 5 91 5 91l-91 11z" opacity=".1"/><path d="M505 153s32 40 74-1 5 91 5 91l-91 11z" fill="#e7c7ca"/><path d="M592 160l3 51 4 17 3 13s7 100 5 105 1 9 1 11v13c0 3 0 4-8 3l-18-3s-27 2-36-1-27-4-27-4h-36c-9-1-13 11-19 7s7-35 11-45-5-33-5-33l12-66 2-15v-48h1a16 16 0 006-4l3 47 94 4v-54" opacity=".1"/><path d="M592 158l3 51 4 17 3 13s7 100 5 105 1 9 1 11v13c0 3 0 4-8 3l-18-3s-27 2-36-1-27-4-27-4h-36c-9-1-13 11-19 7s7-35 11-45-5-33-5-33l12-66 2-15v-48h1a16 16 0 006-4l3 47 94 4v-54" fill="#e7c7ca"/><path d="M603 51l-3-6a12 12 0 00-5-2 104 104 0 00-14-3 22 22 0 00-3-6c-10-14-25-27-42-30-9-1-19 0-25 7l-7 13c-6 7-17 8-25 14-4 3-7 7-10 12-3 4-7 9-8 14-2 11 6 22 7 33 3 24-23 46-18 71 3 14 16 24 29 29 5 2 10 3 13 8l2 6c3 7 13 7 19 2s7-13 8-20c3-32-10-64-9-97 1-10 3-21 12-25 12-6 26 4 39 2a78 78 0 014 47c-2 9-6 17-6 26 0 14 7 26 13 38a20 20 0 013 7 18 18 0 01-2 8c-3 10-9 19-10 29a5 5 0 001 3 4 4 0 002 1c11 2 20-7 26-17a81 81 0 0010-34c1-21-6-41-6-61 1-23 11-47 5-69z" opacity=".1"/><path d="M604 50l-3-6a12 12 0 00-5-2 104 104 0 00-14-3 22 22 0 00-3-6c-10-14-25-27-42-30-9-1-19 0-25 7l-7 13c-6 7-17 8-25 14-4 3-7 7-10 12-3 4-7 9-8 14-2 11 6 22 7 33 3 24-23 46-18 71 3 14 16 24 29 29 5 2 10 3 13 8l2 6c3 7 13 7 19 2s7-13 8-20c3-32-10-64-9-97 1-10 3-21 12-25 12-6 26 4 39 2a78 78 0 014 47c-2 9-6 17-6 26 0 14 7 26 13 38a20 20 0 013 7 18 18 0 01-2 8c-3 10-9 19-10 29a5 5 0 001 3 4 4 0 002 1c11 2 20-7 26-17a81 81 0 0010-34c1-21-6-41-6-61 1-23 11-47 5-69z" fill="#3e373a"/><path fill="#c3c7d9" d="M582 493l39 1-5-29-31 2-3 26z"/><path d="M705 423l-14 11c-1 2-14 8-20 9s-26 6-30 8c-3 2-24 7-38 10a107 107 0 01-11 2c-6 0-72-22-72-22l13-13h1l29-10c10-3 22-15 22-15l20-7c2-1-6-23-6-23s39-5 54-10 49-3 56 15-2 42-4 45z" fill="#4b4b5b"/><path d="M530 479s-8 8-15 8l-35 2a54 54 0 00-13 7c-7 5-10 1-11 1v-1c-3 11-11 3-11 3s4-32 3-36 6-11 6-11l9-2 23-6 33 11z" fill="#e7c7ca"/><path d="M463 450l-7 47v-1c-3 11-11 3-11 3s4-32 3-36 6-11 6-11zM510 317s18 6 33 0M571 328s7 4 13 0M571 337s12 1 14-2M567 355s23-3 29-7M496 348s13 8 23 7M603 461a107 107 0 01-11 2c-6 0-72-22-72-22l13-13h1l5 3c5 5 10-1 12-1s20 14 20 14 16 4 18 7 12 3 14 5v5z" opacity=".1"/><path d="M480 374s-16 1-25-3-41-13-50-6-30 12-20 37 14 26 14 26a36 36 0 018 8c3 5 31 16 38 16s20 0 37 12 33 13 33 13l29 11c7 2 38 11 45 8s12-19 12-19 4-15 2-18-11-1-14-5-18-7-18-7-18-14-20-14-7 6-12 1a293 293 0 00-35-22c-13-6-24-38-24-38z" fill="#4b4b5b"/><path d="M448 384a19 19 0 0116 4c8 7 35 20 35 20M648 384s-36 5-43 12" opacity=".1"/><path d="M689 494h-92l11-2s-4-15-1-16c0 0-15-10-4-17s24-4 24-4l28-9 5-2s32 2 41 24-12 26-12 26z" fill="#e7c7ca"/><path d="M689 494h-2c9-8 31-31-32-48l5-2s32 2 41 24-12 26-12 26z" opacity=".1"/><circle cx="629.9" cy="466.3" r="1.8" fill="#4b4b5b"/><circle cx="619.7" cy="469.2" r="1.8" fill="#4b4b5b"/><g opacity=".1"><path d="M570 99a78 78 0 00-6-32c-13 2-27-8-39-2-8 5-11 16-12 26v5c1-10 4-21 12-26 12-6 26 4 39 2a77 77 0 016 27zM469 98a33 33 0 000-7c-1-9-6-17-6-26-2 11 5 21 6 31v2zM522 187c-1 8-2 16-8 21s-16 4-19-2l-2-7c-2-4-8-6-13-8-13-5-26-15-29-29a31 31 0 01-1-4 32 32 0 001 9c3 14 16 24 29 29 5 2 11 4 13 8l2 6c3 7 14 8 19 3s7-13 8-21a114 114 0 000-11v6zM599 114v4c1-18 8-37 7-55 0 17-6 34-7 51zM578 189a13 13 0 000-3 20 20 0 00-3-8c-5-11-12-22-13-34v1c0 14 7 26 13 38a24 24 0 013 6zM605 175a81 81 0 01-10 34c-5 10-15 20-25 18a4 4 0 01-3-1 3 3 0 010-1l-1 2a5 5 0 001 4 4 4 0 003 1c10 2 20-8 25-18a81 81 0 0010-34v-7 2z"/></g><path d="M607 476s25 10 42-13M612 494s20-13 47 0M473 491s9-19 32-4" fill="none" stroke="#000" stroke-miterlimit="10" opacity=".1"/><path d="M445 202l18-16s69-5 71 19c0 0 25-28 76-22l22 17-60 27-58 20-43-19z" opacity=".1"/><path d="M445 203l18-16s69-5 71 19c0 0 25-28 76-22l22 17-60 27-58 20-43-19z" fill="#d5d6db"/><path opacity=".1" d="M437 205l8 94 83 4-3-94v-1l-88-3z"/><path fill="#3b8070" d="M437 203l8 94 83 4-3-94v-1l-88-3z"/><path opacity=".1" d="M635 203l-85 13v94l83-12 2-95z"/><path fill="#3b8070" d="M635 201l-85 13v94l83-12 2-95z"/><path fill="#fff" opacity=".3" d="M615 224l-46 5 1 16 45-5v-16z"/><path d="M450 347l4 12s7 6 15 3 14-4 18-7 8-18 8-18 4-16 9-20 17-59 0-53-30 55-30 55-3 4-7 4-13-1-15 3-7 13-2 21z" fill="#be6f72"/><path d="M550 216a29 29 0 01-25-7l3 94s9 9 22 7z" opacity=".1"/><path d="M550 214a29 29 0 01-25-7l3 94s9 9 22 7z" fill="#3b8070"/><path d="M550 214a29 29 0 01-25-7l3 94s9 9 22 7zM552 203s35-11 44-9M513 199s-34-8-40-6M574 204s23-8 31-4M562 419a77 77 0 0111-7l17-11M473 317s-14 12-19 13-7 10-7 10" opacity=".1"/><path d="M627 345l-5 13s-7 6-15 3-14-5-17-8-8-17-8-17-5-16-10-20-17-60 0-54 30 55 30 55 3 4 8 4 13 0 14 3 8 14 3 21z" fill="#be6f72"/><path d="M619 322s9 6 9 13" opacity=".1"/><circle cx="537.5" cy="98.9" r="44.7" fill="#be6f72"/><path d="M509 87c6-1 11-4 16-6 11-4 24-1 36 2 4 2 9 3 14 3s9-1 12-6c2-3 2-8 0-12l-8-10c-11-10-24-19-38-18-6 0-11 2-16 5a182 182 0 00-20 9c-5 3-14 7-16 12-7 11 11 22 20 21z" fill="#3e373a"/><path d="M587 76c-3 4-8 6-12 6l-14-3c-12-3-25-6-36-2-5 2-10 5-16 6-7 1-20-6-22-15-1 10 14 19 22 18 6-1 11-4 16-6 11-4 24-1 36 2 4 2 9 3 14 3s9-2 12-6a12 12 0 001-7 11 11 0 01-1 4z" opacity=".1"/><path d="M949 618s6 8-2 20-16 21-13 29c0 0 13-22 23-22s4-14-8-27z" fill="#3b8070"/><path d="M949 618a10 10 0 012 3c10 12 16 23 6 24-10 0-21 16-24 21a10 10 0 001 1s13-22 23-22 4-14-8-27z" opacity=".1"/><path d="M960 628v5l-1-5c0-3 0-1 1-1s0-2 0 1zM964 631l-4 2 4-3h1s2 0-1 1z" fill="#ffd037"/><path d="M918 618s-6 8 3 20 16 21 13 29c0 0-13-22-24-22s-4-14 8-27z" fill="#3b8070"/><path d="M918 618a10 10 0 00-1 3c-11 12-16 23-6 24 9 0 20 16 23 21a8 8 0 010 1s-13-22-24-22-4-14 8-27z" opacity=".1"/><path d="M907 628l1 5v-5-1s-1-2-1 1zM903 631l5 2-4-3h-2l1 1z" fill="#ffd037"/><ellipse cx="933.8" cy="716.4" rx="62" ry="9.5" fill="#3b8070" opacity=".1"/><path d="M966 656l-1 3v4l-1 4v5l-5 39c0 3-6 6-13 6h-25c-6 0-12-3-13-6l-4-39-1-4v-6l-1-3v-3c0-2 3-4 7-4h50c4 0 7 2 7 4z" fill="#65617d"/><path fill="#9d9cb5" d="M965 659v3h-62l-1-3h63zM965 663l-1 4h-61v-4h62zM964 668v4h-60l-1-4h61z"/></svg>