<svg data-name="Layer 1" xmlns="http://www.w3.org/2000/svg" viewBox="0 0 1007.5 702.3"><path fill="#2f2e41" d="M39 264h969v2H39z"/><path d="M861 648c-14 18 2 53 2 53s38 6 52-12-2-53-2-53-38-6-52 12z" fill="#3b8070"/><path d="M137 244a76 76 0 1176-76 76 76 0 01-76 76zm0-150a74 74 0 1074 74 74 74 0 00-74-74zM137 77c-26 0-47-18-47-39s21-38 47-38 47 17 47 38-21 39-47 39zm0-75c-25 0-45 16-45 36s20 37 45 37 45-17 45-37-20-36-45-36z" fill="#2f2e41"/><path d="M115 59c-6 0-10-8-10-19s4-19 10-19 10 8 10 19-4 19-10 19zm0-36c-4 0-8 8-8 17s4 17 8 17 8-8 8-17-4-17-8-17zM159 59c-6 0-10-8-10-19s4-19 10-19 10 8 10 19-4 19-10 19zm0-36c-4 0-8 8-8 17s4 17 8 17 8-8 8-17-4-17-8-17zM235 149a40 40 0 1140-40 40 40 0 01-40 40zm0-78a38 38 0 1038 38 38 38 0 00-38-38zM40 149a40 40 0 1140-40 40 40 0 01-40 40zm0-78a38 38 0 1038 38 38 38 0 00-38-38zM137 264c-14 0-25-5-25-11s11-11 25-11 26 5 26 11-12 11-26 11zm0-20c-14 0-23 5-23 9s9 9 23 9 24-5 24-9-10-9-24-9zM476 244a76 76 0 1176-76 76 76 0 01-76 76zm0-150a74 74 0 1074 74 74 74 0 00-74-74z" fill="#2f2e41"/><path d="M476 94a47 47 0 1147-47 47 47 0 01-47 47zm0-92a45 45 0 1045 45 45 45 0 00-45-45z" fill="#2f2e41"/><path d="M454 59c-6 0-10-8-10-19s4-19 10-19 10 8 10 19-4 19-10 19zm0-36c-4 0-8 8-8 17s4 17 8 17 8-8 8-17-4-17-8-17zM498 59c-6 0-10-8-10-19s4-19 10-19 10 8 10 19-4 19-10 19zm0-36c-4 0-8 8-8 17s4 17 8 17 8-8 8-17-4-17-8-17zM583 250a40 40 0 1140-40 40 40 0 01-40 40zm0-78a38 38 0 1038 38 38 38 0 00-38-38zM362 203a40 40 0 1140-40 40 40 0 01-40 40zm0-78a38 38 0 1038 38 38 38 0 00-38-38zM476 264c-14 0-25-5-25-11s11-11 25-11 26 5 26 11-12 11-26 11zm0-20c-14 0-23 5-23 9s9 9 23 9 24-5 24-9-10-9-24-9zM826 247a76 76 0 1176-76 76 76 0 01-76 76zm0-150a74 74 0 1074 74 74 74 0 00-74-74z" fill="#2f2e41"/><path d="M866 104a47 47 0 1147-47 47 47 0 01-47 47zm0-92a45 45 0 1045 45 45 45 0 00-45-45z" fill="#2f2e41"/><path d="M844 87c-6 0-10-8-10-19s4-19 10-19 10 8 10 19-4 19-10 19zm0-36c-4 0-8 8-8 17s4 17 8 17 8-8 8-17-4-17-8-17zM888 87c-6 0-10-8-10-19s4-19 10-19 10 8 10 19-4 19-10 19zm0-36c-4 0-8 8-8 17s4 17 8 17 8-8 8-17-4-17-8-17zM933 253a40 40 0 1140-40 40 40 0 01-40 40zm0-78a38 38 0 1038 38 38 38 0 00-38-38zM712 206a40 40 0 1140-40 40 40 0 01-40 40zm0-78a38 38 0 1038 38 38 38 0 00-38-38zM796 263c-15 0-26-5-26-11s11-11 26-11 25 5 25 11-11 11-25 11zm0-20c-15 0-24 5-24 9s9 9 24 9 23-5 23-9-9-9-23-9z" fill="#2f2e41"/><path d="M362 47c-31-33-100-20-101-20v-2c1 0 70-13 102 21z" fill="#3b8070"/><path d="M370 56c-5-3-12-7-18-8l10-3 5-8c0 5 1 13 3 19zM676 101c-31-33-100-20-101-20v-2c1 0 70-13 102 21z" fill="#3b8070"/><path d="M684 110c-5-3-12-7-18-8l10-3 5-8c0 5 1 13 3 19z" fill="#3b8070"/><path d="M682 189s-22 0-24 13-6 154-3 171l2 15s-5 33 6 35 10-39 10-39l9-143zM773 189s22 0 24 13 6 154 3 171l-2 15s5 33-6 35-10-39-10-39l-9-143z" fill="#9e616a"/><path d="M678 680h-9a21 21 0 00-22 22h58v-27h-27zM769 680h9a21 21 0 0121 22h-57v-27h27z" fill="#2f2e41"/><circle cx="718.1" cy="131.1" r="30.6" fill="#9e616a"/><path d="M711 148s-4 38-8 42 49-2 49-2-19-29-15-38-26-2-26-2z" fill="#9e616a"/><path d="M780 189s-64-27-107 0c0 0-10 27-2 42s21 52 8 77 1 14 1 14-16 66-18 117 7 238 14 239 29 4 31 0 19-249 19-249 7 251 14 251 26 0 30-5 33-233 22-280l-17-71s12-8 9-13-21-55-13-63 9-59 9-59z" fill="#2f2e41"/><circle cx="737.5" cy="112.7" r="49.4" fill="#2f2e41"/><path d="M768 88a33 33 0 01-25-39v2a33 33 0 0065 15v-1a33 33 0 01-40 23z" fill="#2f2e41"/><circle cx="770.3" cy="70.2" r="24.2" fill="#2f2e41"/><path fill="#2f2e41" d="M483 700h434v2H483z"/></svg>