<svg data-name="Layer 1" xmlns="http://www.w3.org/2000/svg" viewBox="0 0 860.3 771.9"><ellipse cx="449.8" cy="728.9" rx="283" ry="43" fill="#f2f2f2"/><path d="M628 577a21 21 0 102-40l1 11-5-10a21 21 0 00-11 12 20 20 0 00-1 6 21 21 0 0014 21z" fill="#57b894"/><path d="M653 701c-2-9 6-17 13-22s17-11 20-20c3-13-8-24-17-34a125 125 0 01-16-25c-2-4-4-7-4-11-1-6 1-11 3-17l19-54" fill="none" stroke="#3f3d56" stroke-miterlimit="10"/><path d="M628 574a21 21 0 103-40l1 11-5-9a21 21 0 00-11 11 20 20 0 00-1 6 21 21 0 0013 21z" fill="none" stroke="#3f3d56" stroke-miterlimit="10"/><path d="M650 515a21 21 0 0115-13l2 10 3-11a21 21 0 11-20 14z" fill="#57b894"/><path d="M651 511a21 21 0 0115-13l2 10 3-11a21 21 0 11-20 14z" fill="none" stroke="#3f3d56" stroke-miterlimit="10"/><path d="M666 625a21 21 0 0018-37l-2 8-2-10a21 21 0 10-14 39z" fill="#57b894"/><path d="M667 621a21 21 0 0018-37l-2 8-2-10h0a21 21 0 10-14 39z" fill="none" stroke="#3f3d56" stroke-miterlimit="10"/><path d="M644 659a21 21 0 104-16l9 14-12-7a21 21 0 00-1 9z" fill="#57b894"/><path d="M645 657a21 21 0 104-17l9 14-12-7a21 21 0 00-1 10z" fill="none" stroke="#3f3d56" stroke-miterlimit="10"/><path d="M587 114a58 58 0 0158-56l5 1a78 78 0 01135 0l4-1a58 58 0 0159 56" fill="#f2f2f2"/><path d="M599 109a58 58 0 0158-55h6a78 78 0 01134 0h4a58 58 0 0159 55" fill="none" stroke="#3f3d56" stroke-miterlimit="10"/><path d="M162 392a58 58 0 0158-56l5 1a78 78 0 01135 0l4-1a58 58 0 0159 56" fill="#f2f2f2"/><path d="M174 387a58 58 0 0158-55h6a78 78 0 01134 0h4a58 58 0 0159 55" fill="none" stroke="#3f3d56" stroke-miterlimit="10"/><path d="M38 99a58 58 0 0158-56l5 1a78 78 0 01135 0l4-1a58 58 0 0159 56" fill="#f2f2f2"/><path d="M50 94a58 58 0 0158-55h6a78 78 0 01134 0h4a58 58 0 0159 55" fill="none" stroke="#3f3d56" stroke-miterlimit="10"/><path d="M295 217s105 53 124 45 25-71 25-71l-77-15z" fill="#3b8070"/><path d="M295 217s105 53 124 45 25-71 25-71l-77-15z" opacity=".1"/><path fill="#ff6584" d="M444 140h69v60h-69z"/><path opacity=".1" d="M444 140h69v60h-69z"/><path d="M381 396s-3 63 17 61 0-59 0-59zM462 149s4 27-4 31l-13 6 18 13 34 2 8-7 8-7s-13-3-13-9l-1-26z" fill="#fbbebe"/><path d="M462 149s4 27-4 31l-13 6 18 13 34 2 8-7 8-7s-13-3-13-9l-1-26z" opacity=".1"/><path d="M416 407s-21 67-21 116c0 0-35 79-33 117l-9 53 12 4 10-8s3-28 12-42 31-79 31-79 58-121 56-139-58-22-58-22zM544 391s14 7-5 123c0 0 11 77 1 119l-1 42h-16l-2-4s-1-38-6-48-10-69-10-69-23-120-18-130 57-33 57-33z" fill="#fbbebe"/><path d="M351 681s5 11 14 8l12-2s-7 33-4 49-2 26-16 26-17-17-17-17l7-42zM518 663s5 10 13 8 11-6 11-6-1 22 2 32 9 40-6 41a20 20 0 01-20-12v-63z" fill="#2f2e41"/><circle cx="481.4" cy="135.6" r="31.9" fill="#fbbebe"/><path d="M540 193s-25-10-34-9a37 37 0 01-29 9c-17-2-24-11-24-11s-47 11-44 15 16 76 16 76 9 61-2 82-15 56-11 59 53 16 59 20 8-9 12-7 11 6 16 3 55-29 53-34-20-67-26-79-2-39 2-44 11-11 12-25 0-55 0-55z" fill="#2f2e41"/><path d="M410 195s-5 4-8 14-5 85-5 85-27 103-21 105 23 7 25 5 27-90 25-100 2-37 2-37z" fill="#2f2e41"/><path d="M544 330s-39-20-43-7 41 27 41 27 16-6 16-9-14-11-14-11z" fill="#fbbebe"/><path d="M532 196l8-3s4-3 10 8 60 74 50 95-44 61-45 58-19-24-16-26 37-32 32-37-22-41-32-42-7-53-7-53z" fill="#2f2e41"/><path d="M446 134S336 90 240 47c0 0-50-12-76 11 0 0 22-3 22 10 0 0 18 24-40 29-41 3-57 27-64 42a59 59 0 01-24 28c-14 8-34 14-58 3l4 6c46 62 217 116 278 68 37-30 97-67 139-48 67 29 79 16 79 16l3-8s-64-17-66-39 9-31 9-31zM511 140s15 6 18 27c0 0 17 32-2 40s-22 6-22 6v-4s20-12 16-21-10-48-10-48z" fill="#3b8070"/><path d="M483 233s5-13 3-13 6-8 9-5 8 11 2 13l-14 5zM519 225s-14-5-14-3-8-6-5-9 11-8 14-2l5 14z" fill="#3b8070"/><path d="M497 205s7-4 11 2-5 16-11 16-5-12-5-12z" fill="#3b8070"/><path d="M497 205s7-4 11 2-5 16-11 16-5-12-5-12z" opacity=".1"/><path d="M454 83c-4 4-8 7-10 12a49 49 0 00-3 7c-3 9-10 17-7 25 1 3 2 5 1 8l-4 5c-4 3-4 9-4 13-1 9 4 20 10 27a36 36 0 014 4 9 9 0 011 7l8-2a71 71 0 011 10 9 9 0 009-6 26 26 0 002 6 34 34 0 006-10 30 30 0 001-15 65 65 0 00-4-11 344 344 0 01-10-36l3-1a15 15 0 011-5 18 18 0 015 2l4-9c2 3 6 4 9 5l12 4v-3a62 62 0 0017 11 4 4 0 01-1-3c3 5 2 12 0 18s-4 12-3 18c0 4 3 9 2 13l-1 7c-1 5 2 10 5 15l5-7 7-7 8-5c5-4 4-12 3-17l-2-10c1-5 5-10 7-15a26 26 0 00-2-22c-2-5-6-9-9-13-2-5-3-10-7-14a24 24 0 00-5-5 74 74 0 00-32-10c-10-1-19 3-27 9z" fill="#ff6584"/></svg>