<svg data-name="Layer 1" xmlns="http://www.w3.org/2000/svg" viewBox="0 0 1150.4 675.6"><defs><linearGradient id="a" x1="501.8" y1="766.6" x2="501.8" y2="122.5" gradientUnits="userSpaceOnUse"><stop offset="0" stop-color="gray" stop-opacity=".3"/><stop offset=".5" stop-color="gray" stop-opacity=".1"/><stop offset="1" stop-color="gray" stop-opacity=".1"/></linearGradient></defs><path d="M1120 628l-4 2a111 111 0 01-13 7c-23 12-52 18-80 22-63 8-128 10-192 12-173 4-347 9-520-2-69-4-139-11-201-32l-26-10c-17-7-34-16-47-27a99 99 0 01-30-34c-13-27-6-58 9-85a261 261 0 0121-31l36-44c41-54 68-121 30-176-11-16-27-29-36-46-11-21-11-44-7-67l2-8c6-34 17-70 53-91C153-4 206-3 252 5c72 12 138 38 205 60s138 44 211 46c66 2 142-12 185-51 42-38 121-40 178-18 39 16 68 44 80 75a94 94 0 015 20 86 86 0 011 18l-1 9c-9 62-78 111-119 167-20 27-35 60-21 89 21 44 96 60 140 93a102 102 0 0122 22c22 29 14 69-18 93z" fill="#3b8070" opacity=".1"/><ellipse cx="537.7" cy="650.7" rx="269.6" ry="9.2" fill="#3b8070" opacity=".1"/><g data-name="flowers"><path d="M752 645s58-74 53-147c-1-31 6-61 23-87a238 238 0 0127-34" fill="none" stroke="#535461" stroke-miterlimit="10" stroke-width="2"/><path d="M853 331c-4 10 2 47 2 47s31-22 35-32a20 20 0 00-37-15zM799 375c2 11 28 39 28 39s14-35 11-46a20 20 0 00-39 7zM762 473c7 8 43 19 43 19s-6-37-13-46a20 20 0 10-30 27zM750 553c6 9 40 26 40 26s0-38-6-47a20 20 0 10-34 21zM865 431c-10 4-47-2-47-2s22-30 32-35a20 20 0 0115 37zM850 525c-11 1-44-17-44-17s30-22 41-23a20 20 0 113 40zM823 613c-11 3-46-8-46-8s25-27 36-30a20 20 0 0110 38z" fill="#3b8070"/><path d="M853 331c-4 10 2 47 2 47s31-22 35-32a20 20 0 00-37-15zM799 375c2 11 28 39 28 39s14-35 11-46a20 20 0 00-39 7zM762 473c7 8 43 19 43 19s-6-37-13-46a20 20 0 10-30 27zM750 553c6 9 40 26 40 26s0-38-6-47a20 20 0 10-34 21zM865 431c-10 4-47-2-47-2s22-30 32-35a20 20 0 0115 37zM850 525c-11 1-44-17-44-17s30-22 41-23a20 20 0 113 40zM823 613c-11 3-46-8-46-8s25-27 36-30a20 20 0 0110 38z" opacity=".3"/><path d="M752 642s83-44 109-113c10-29 30-53 55-70a239 239 0 0139-20" fill="none" stroke="#535461" stroke-miterlimit="10" stroke-width="2"/><path d="M972 396c-8 7-17 44-17 44s36-8 44-16a20 20 0 00-27-28zM905 415c-3 10 10 46 10 46s26-27 29-37a20 20 0 10-39-9zM831 488c4 11 32 35 32 35s10-36 6-47a20 20 0 10-38 12zM788 557c1 11 26 39 26 39s15-34 14-45a20 20 0 10-40 6zM942 492c-11 0-42-21-42-21s32-19 43-18a20 20 0 01-1 39zM891 572c-11-4-34-33-34-33s36-9 47-5a20 20 0 01-13 38zM830 642c-11-2-39-27-39-27s35-14 46-13a20 20 0 01-7 40z" fill="#3b8070"/></g><path fill="#464353" d="M760 648h-9l-65-335-8 335h-10l-10-335-64 335h-10l43-345 2-11 84-9 3 20 44 345zM527 216h54v33h-54zM838 201l33-13h7a4 4 0 014 4v91a4 4 0 01-4 4h-7l-33-13zM772 205h66v65h-66z"/><path fill="#514e7f" d="M657 85h43v7h-43zM608 95h120v87H608z"/><path opacity=".1" d="M608 172h120v10H608zM771 205h3v65h-3zM562 216h19v33h-19zM716 303h-89l2-11 84-9 3 20z"/><rect x="564" y="173.6" width="207.9" height="128.1" rx="10.7" ry="10.7" fill="#514e7f"/><path d="M838 201v73a5 5 0 01-6-6v-62a5 5 0 016-5zM871 188h6a4 4 0 015 4v91a4 4 0 01-5 4h-6v-99z" fill="#514e7f"/><path opacity=".1" d="M527 216h10v33h-10z"/><rect x="516.2" y="205.2" width="18.7" height="56.6" rx="7.2" ry="7.2" fill="#514e7f"/><circle cx="608.1" cy="94.6" r="59.9" fill="#464353"/><circle cx="608.1" cy="94.6" r="44.9" fill="#3b8070"/><circle cx="719.1" cy="95.8" r="43.7" fill="#464353"/><circle cx="719.1" cy="95.8" r="32.8" fill="#3b8070"/><circle cx="715.7" cy="192.7" r="5.8" fill="#3b8070"/><circle cx="734" cy="192.7" r="5.8" fill="#3b8070" opacity=".5"/><path d="M686 325v-1a36 36 0 017 3c-1-8-34-33-40-33s-13-10-13-10-17-3-20-6-20-1-25 0-11-3-11-3-3-6-8-6-10-6-10-6-4-4-8-5-9-5-11-8-14-5-21-4-25-2-25-2c8-3 9-11 9-11-6 0-23-15-23-15l1 11-1-1a108 108 0 010-14v-1a31 31 0 0010-31l-1-2a14 14 0 004 1h1a6 6 0 004-2 5 5 0 000-1 1 1 0 001 0 5 5 0 000-1v-1a12 12 0 00-1-5l-2-8 2-7v-1a8 8 0 000-1c1-4-3-8-7-10l-10-4c-4-2-6-6-8-10-4-4-10-8-16-7-4 0-7 2-11 3-6 1-12-1-18 1a6 6 0 00-3 2 4 4 0 00-1 1 7 7 0 000 2 13 13 0 000 2v1h1v3a21 21 0 011 3 12 12 0 01-2 7c-3 4-8 5-10 10a9 9 0 00-1 3 9 9 0 000 1v1a9 9 0 000 1v1a8 8 0 001 1l3 6-1 6v1c0 1 0 0 0 0v2a4 4 0 000 1h1a3 3 0 000 1c2 1 4 0 5 2a3 3 0 011 1 5 5 0 010 2l-2 6v5a4 4 0 001 1l5 2a17 17 0 004 0v1a31 31 0 006 8v1l-1 7h-5c-4 3 0 16 0 16s-17 0-21 4-11 0-11 0-15 1-14 4-8 0-8 0-6 1-6 5-10 7-8 10-6 5-6 5-8-1-5 4-4 9-7 10-8 8-8 8-13 2-12 6-20 33-20 33-7 14-2 24l9 20c1 3 13 20 13 23l7 13-1 1-3 2s-8 21 2 22c8 1 14 2 18 1a4 4 0 001-1l6 9 1-1 1 1 2-3v18s4 0 2 20 12 36 12 36v32c1 4 2 14 6 21 4 8 0 31 0 31v42l1 2c-21 17-42 39-42 39a11 11 0 013 1l-2 2-5 7-4 5 6 21 8-3s4 7 3 12a5 5 0 01-1 2 3 3 0 00-1 1c-2 8 6 40 19 41 0 0 5 2 6-2 1-2 1-5-1-10 0 0-7-8-2-17l10-17 1-2 4 6 10-11 1 2a31 31 0 002 4l7 26h3v2c-1 4 0 11 2 15 1 3 4 6 9 6 15-1 20-9 20-9v-21l5-1-2-72v-2l34-37 3-1c22-9 22-31 22-31s0-12 3-23 0-64-5-77-6-29-6-29 5-7 0-13a26 26 0 01-4-5l7-1 3-1h2c-1 8-1 15 2 17 7 5 32-12 32-12-9 0-14-67-13-69s5-35 3-41 8-33 8-33l2-2s39 17 43 20 18-8 21-3 17 10 17 10 21-2 24 4 16 18 16 18a76 76 0 011-9v2c7 16 18 35 28 25 12-12 3-35-3-46zm-296 71zm-8-77l-4 44-8 9-1 1-9-9s-4-2 0-6-7-12-7-12-1-6 4-8 10-12 10-12l15-8zm56 229a5 5 0 011-1c2-1 3 0 4 2a17 17 0 01-1 10c-2 6 3 27 3 27s-7 3-8 10a7 7 0 01-1 2l-1-2-1-6a43 43 0 010-16 11631 11631 0 004-27z" transform="translate(-25 -112)" fill="url(#a)"/><path d="M460 110l2-2 6 13-2 3h-8l1-7 1-7z" fill="#464353"/><path d="M418 619v28s-5 8-20 8a9 9 0 01-9-5c-2-5-3-11-2-16a60 60 0 010-7z" fill="#3f3d56"/><path d="M418 619v9l-31 6a60 60 0 010-7z" opacity=".1"/><path d="M423 624l-39 9-7-26a32 32 0 01-2-5l-1-2c-8-17-11-47-12-72v-4l-1-42s4-22 0-31c-4-7-5-17-5-21l-1-2 1-2 3-8h33l18 16 3 3v2l-4 24a42 42 0 001 16 3459 3459 0 0011 74c2 25 2 71 2 71z" fill="#514e7f"/><path d="M418 646v1s-5 8-20 8a9 9 0 01-9-5c7 1 18 3 29-4z" opacity=".1"/><path d="M665 260c-11 11-22-9-28-24l-6-17 27-11 4 7c5 11 14 33 3 45zM462 104a125 125 0 002 30s-55 6-50-3a316 316 0 007-42s53-21 45-3c-3 5-4 12-4 18z" fill="#a1616a"/><path fill="#464353" d="M467 247l-8 90 35-6-6-74 2-19-23 9z"/><path opacity=".1" d="M494 331l-15 3-20 3 2-16 6-73 7-4 6-2 10-4-2 20 6 73z"/><path d="M349 625c-4 9 2 17 2 17 2 5 2 8 1 10-1 4-6 2-6 2-13-1-21-38-18-42s-2-14-2-14l-7 3-7-21 4-5 6-7 3-5 38 39-4 6-10 17z" fill="#3f3d56"/><path d="M421 553l-46 49c-8-15-12-47-13-74 8-7 17-14 23-17 0 0 22-15 26-23a773 773 0 0010 65zM410 434l-54-8 3-8h33l18 16z" opacity=".1"/><path d="M421 549l-47 51c-8-17-11-47-12-72v-4c8-7 17-14 23-17 0 0 20-14 26-22v3a773 773 0 0010 61zM363 602l-4 6c-8-10-27-33-37-40l3-5z" opacity=".1"/><path d="M483 459c-3 11-3 23-3 23s0 22-22 31l-2 1-91 98s-34-44-45-47c0 0 44-46 65-56 0 0 26-18 27-24s9-10 9-10-6-21-4-27a17 17 0 001-10c-1-2-2-3-4-2a5 5 0 00-1 1l-57-9v-30s-14-16-12-36-3-19-3-19 0-34 3-37 30-16 30-16l86 16 4 16s3 13 8 19 0 13 0 13 2 15 7 28 7 67 4 77z" fill="#514e7f"/><path d="M466 86c-3 5-4 12-4 18a31 31 0 01-43-2l2-13s53-21 45-3z" opacity=".1"/><path d="M473 80a31 31 0 11-1-7 31 31 0 011 7z" fill="#a1616a"/><path d="M448 134l-24-12c-1-1-48 117-48 117l-13 59s70 30 85 26 16 0 16 0 15-86 20-94-4-85-4-85l-18-23z" opacity=".1"/><path d="M448 130l-24-12c-1-1-48 117-48 117l-13 59s70 30 85 26 16 0 16 0 15-86 20-94-4-85-4-85l-18-23z" opacity=".1"/><path d="M484 228l-4 14-4 16-12 64-3-2c-3 0-7 0-13 2-15 4-85-26-85-26l2-9 11-50s47-118 48-117a182 182 0 0024 12l14-11v-1l18 23s9 78 4 85z" fill="#3b8070"/><path d="M431 143c2 8-3 21-3 21s-16 39-20 57-32 55-32 55l-9 9-2 2 11-50s46-118 48-117l16 8c-4 4-10 10-9 15z" opacity=".1"/><path d="M429 143c2 8-3 21-3 21s-16 39-20 57-32 55-32 55l-9 9-2 2a2151 2151 0 01-32 32 4 4 0 01-1 0h-18c-10-1-1-22-1-22l2-3 3-2 27-28 2-2 8-9 4-45v-1l-3-7a1358 1358 0 00-19-43h-1c-2-5 5-4 5-4s7-2 6-5 9-5 8-10 6-5 6-5 9 3 8 0 14-4 14-4 8 3 12 0 20-4 20-4-3-13 0-16 29 16 29 16-15 11-13 18z" fill="#464353"/><path d="M346 314s28 39 47 26-26-45-26-45z" opacity=".1"/><path d="M346 312s28 39 47 26-26-45-26-45z" fill="#a1616a"/><path d="M479 334c2-19 8-47 3-55-3-4-4-12-6-21l-2-14-1-23s-12-53-10-64c2-7 0-24-2-36l1-1 18 23s9 78 4 85l-4 14 10-4-2 19 6 74z" opacity=".1"/><path d="M462 108s17 15 24 15c0 0-2 8-10 11 0 0 18 3 25 2s18 0 21 4 7 7 11 8 9 5 9 5l-30 43s-10 27-8 33 0 39-2 41 3 69 12 69c0 0-25 16-32 11s9-59 2-71-9-58-9-58-12-53-10-64-3-49-3-49z" fill="#464353"/><path d="M662 215c-9-3-23-3-25 21l-7-17 28-11 4 7z" opacity=".1"/><path d="M525 151l17 2s5 6 9 6 9 6 9 6 6 4 11 3 22-3 25 0 20 6 20 6 6 10 12 10 40 24 41 33c0 0-33-21-34 25 0 0-14-12-16-18s-24-3-24-3-15-6-17-11-16 7-20 4-44-20-44-20l-12-23z" fill="#464353"/><circle cx="449.8" cy="188.4" r="2.8" fill="#3f3d56"/><circle cx="447" cy="247.5" r="2.8" fill="#3f3d56"/><circle cx="449.8" cy="216.4" r="2.8" fill="#3f3d56"/><circle cx="441.7" cy="278.6" r="2.8" fill="#3f3d56"/><path d="M352 652c-1 4-5 2-5 2-14-1-22-38-19-42s-2-14-2-14l-7 3-7-21 4-5 12 20a38 38 0 014 18c-1 7 7 38 20 39zM472 72h-2c-3-1-5-2-6-4-2-2-2-5-4-6s-5 1-7 1c-3 1-6 0-9-1-5-2-11-4-15-1-3 2-2 7-3 10-1 6-7 9-8 15-1 2 0 5-2 7a5 5 0 01-2 1 31 31 0 1158-21z" opacity=".1"/><path d="M444 60c3 1 6 2 9 1 2 0 5-2 7-1s2 4 4 6c1 2 3 3 6 4a17 17 0 005 1 6 6 0 005-2c2-2 2-5 0-8s-2-5-2-8l3-9c0-4-3-8-7-10-4-1-8-1-11-4l-8-9c-4-5-10-9-16-8-4 0-7 2-11 3-6 1-12-1-17 1a6 6 0 00-4 2v7c1 4 2 8-1 12-2 4-7 6-10 10a9 9 0 000 8l4 6-1 6c0 2-1 4 1 5l5 2a4 4 0 010 3l-2 6a7 7 0 001 6c2 2 6 2 9 2a6 6 0 003-1c2-2 1-5 2-7 1-6 7-9 8-15 1-3 0-8 3-11 4-3 10 0 15 2z" fill="#464353"/><path d="M439 422s31 20 32 27zM437 438s36 17 34 23zM435 453s20 11 22 17zM444 477s13 12 16 9-16-9-16-9zM425 484s10 17 5 18-5-18-5-18zM379 188s-17 11-12 14 12-14 12-14zM379 149s-18 33-9 31 9-31 9-31zM571 182s-11 13-9 20zM599 188s-16 15-14 17zM610 206s-2 10 1 10zM429 410c-4 5-4 15-6 19l-5 9c-1-2-2-3-4-2l-4-28c-1-5 10-17 10-17s11 3 14 8 0 5-5 11zM374 294c-12 2-34 34-34 34l-7-11c-6-7-12-17-17-25l29-30 5 5s10 11 10 13l5 5 9 9zM336 159l-1-2 12 1 7 42-18-41z" opacity=".1"/><path d="M363 287a2151 2151 0 01-32 32 4 4 0 01-1 0l-17-25 3-2 27-28 3 3s10 11 10 13l7 7z" opacity=".1"/><path d="M350 158l-15-1s-4 9-8 10-7 8-7 8-13 2-13 6-20 33-20 33-6 14-2 24l9 20c1 4 13 20 13 23s30 47 30 47 23-32 35-34c0 0-14-12-14-14s-10-13-10-13l-13-14s-4-2 0-5-7-12-7-12 0-6 4-8 10-13 10-13l16-8z" fill="#464353"/><path d="M292 224s18-4 19-1-19 1-19 1zM307 242s15 2 15 5-15-5-15-5zM320 186s15 20 17 16z" opacity=".1"/><g opacity=".1"><path d="M408 31a22 22 0 00-1-7 22 22 0 01-1-3 12 12 0 001 5 26 26 0 011 5zM478 53l3-9a8 8 0 000-2l-3 9a7 7 0 000 2zM480 67a6 6 0 01-5 2 17 17 0 01-5-1c-3-1-5-2-6-4-2-2-2-5-4-6s-5 1-7 1c-3 1-6 0-9-1-5-2-11-4-15-1-3 2-2 7-3 10-1 6-7 9-8 15-1 2 0 5-2 7a6 6 0 01-3 1c-3 0-7 1-9-2a5 5 0 01-1-3 6 6 0 001 5c2 3 6 2 9 2a6 6 0 003-1c2-2 1-5 2-7 1-6 7-9 8-15 1-3 0-8 3-10 4-3 10-1 15 1 3 1 6 2 9 1 2 0 5-2 7-1s2 4 4 6c1 2 3 3 6 4a17 17 0 005 1 6 6 0 005-2 6 6 0 001-4 5 5 0 01-1 2zM400 60l-4-6a9 9 0 01-1-3 9 9 0 001 5l4 6a6 6 0 000-2zM405 76a4 4 0 000-3l-5-2a4 4 0 01-1-2c-1 1 0 3 1 4l5 2a3 3 0 010 1z"/></g><path d="M168 594s-42-3-37 26c0 0-1 6 4 8 0 0 0-2 4-1a19 19 0 005 0 9 9 0 005-3s12-4 16-23c0 0 4-4 4-6l-7 3s2 5 0 10l-1-9-4 2s4 8 1 15c0 0 1-11-2-15l-5 3s5 9 1 17c0 0 1-12-2-16l-5 3s5 9 2 15c0 0 0-13-3-14l-4 5s3 6 1 10l-2-9s-4 6-4 10c0 0 0-6 3-11a12 12 0 00-6 4s1-5 7-5l4-5s-6 0-10 2c0 0 3-4 11-3l4-3s-8-1-11 0c0 0 4-3 13-1l4-3-11-1s5-2 13 0l3-1-6-1-2-1a18 18 0 0110 1l7-3z" fill="#3b8070"/><ellipse cx="139.3" cy="630.5" rx="29.3" ry="5" fill="#3b8070" opacity=".1"/></svg>