<svg data-name="Layer 1" xmlns="http://www.w3.org/2000/svg" viewBox="0 0 1131.1 783.2"><path d="M584 134c-71 12-142 6-211-2s-137-17-208-15c-46 2-97 11-129 38-31 26-36 60-36 92 0 23 2 48 19 67 11 13 29 22 42 34 47 42 33 108 2 164-14 26-31 52-41 79s-11 55 7 77c17 22 50 34 85 41 71 13 149 5 225-6 169-23 335-61 501-98 62-13 124-27 183-47 33-11 66-25 88-46 26-28 27-65 1-87-44-38-143-30-177-73-18-23-10-55 5-84 31-60 92-120 84-180-5-42-47-76-103-85-59-10-135 8-168 49-35 43-105 71-169 82z" fill="#3b8070" opacity=".1"/><path d="M855 107l-4 12a98 98 0 01-10 18 135 135 0 01-9 11c-4 5-8 9-9 15l-1 10c0 3-1 7-4 9l-7 2-5-1a4 4 0 010-2v-5l-2-2-2 2c-2 0-3 0-4-2a6 6 0 010-4 20 20 0 0110-13 30 30 0 005-3 17 17 0 004-5c10-15 19-30 26-47a35 35 0 002-9V83a56 56 0 011-18 14 14 0 012-4c3-4 9-5 13-2a13 13 0 015 10l-2 9-9 29z" fill="#a1616a"/><path d="M855 107l-4 12a98 98 0 01-10 18 135 135 0 01-9 11c-4 5-8 9-9 15l-1 10c0 3-1 7-4 9l-7 2-5-1a4 4 0 010-2v-5l-2-2-2 2c-2 0-3 0-4-2a6 6 0 010-4 20 20 0 0110-13 30 30 0 005-3 17 17 0 004-5c10-15 19-30 26-47a35 35 0 002-9V83a56 56 0 011-18 14 14 0 012-4c3-4 9-5 13-2a13 13 0 015 10l-2 9-9 29z" opacity=".1"/><path d="M913 270a13 13 0 01-6 1l-3-2a4 4 0 00-3 1l-1 1a5 5 0 01-2 0l-8 1c-4 0-7 1-11-1a4 4 0 01-2-1c0-1 0-3 2-4l4-2c3-3 3-7 5-10a27 27 0 014-5 21 21 0 013-4c4-3 7-3 11-3 3 0 5 0 7 2 3 3 2 9 2 12a91 91 0 01-2 14z" fill="#514e7f"/><path d="M913 270a13 13 0 01-6 1l-3-2a4 4 0 00-3 1l-1 1a5 5 0 01-2 0l-8 1c-4 0-7 1-11-1a4 4 0 01-2-1c0-1 0-3 2-4l4-2c3-3 3-7 5-10a27 27 0 014-5 21 21 0 013-4c4-3 7-3 11-3 3 0 5 0 7 2 3 3 2 9 2 12a91 91 0 01-2 14z" opacity=".1"/><path d="M910 113c2 0 3 3 3 6s-2 5-3 7l-9 21-7 14c-2 5-4 11-3 17l3 7a42 42 0 012 9 162 162 0 010 29 9 9 0 010 4c-1 1-2 2-1 3v1c1 1 0 2-1 3a3 3 0 002 1 4 4 0 00-2 4v3l-1 1a3 3 0 001 4 7 7 0 004 0 43 43 0 007-1 6 6 0 002-1 6 6 0 001-4 73 73 0 001-13c-1-19 0-39 1-59 0-8 2-16 6-23a124 124 0 015-11c5-8 9-17 8-27l-2-2a2 2 0 00-1 0 49 49 0 00-6 3 23 23 0 01-10 4z" fill="#464353"/><path d="M910 113c2 0 3 3 3 6s-2 5-3 7l-9 21-7 14c-2 5-4 11-3 17l3 7a42 42 0 012 9 162 162 0 010 29 9 9 0 010 4c-1 1-2 2-1 3v1c1 1 0 2-1 3a3 3 0 002 1 4 4 0 00-2 4v3l-1 1a3 3 0 001 4 7 7 0 004 0 43 43 0 007-1 6 6 0 002-1 6 6 0 001-4 73 73 0 001-13c-1-19 0-39 1-59 0-8 2-16 6-23a124 124 0 015-11c5-8 9-17 8-27l-2-2a2 2 0 00-1 0 49 49 0 00-6 3 23 23 0 01-10 4z" opacity=".1"/><path d="M943 88a9 9 0 015-1l4 2a48 48 0 015 5 25 25 0 015 24c-1 5-4 8-6 12l-6 8-25 35a1 1 0 01-1 2h-1a8 8 0 001 3 1 1 0 010 1l-2 1v1l1 1-1 2 1 1a2 2 0 01-1 2c0 6 3 11 4 17 1 9-4 18-4 26a7 7 0 01-1 3c0 2-3 3-2 5a18 18 0 000 2v3l2 2-2 7-19 1a17 17 0 010-5l2-5a6 6 0 00-1-6 2 2 0 002-1 8 8 0 000-3c-1-5 2-10 1-15l-2-11c-1-9 0-17-3-25-2-4-5-9-3-14l5-6a23 23 0 002-6c3-9 8-17 12-26a27 27 0 003-6 35 35 0 000-7 95 95 0 011-11 11 11 0 011-5 11 11 0 013-2c6-5 14-7 20-11z" fill="#464353"/><path d="M921 277a14 14 0 01-6 1l-4-2a4 4 0 00-2 1l-1 1a5 5 0 01-2 0l-8 1-11-1a4 4 0 01-2-1c-1-1 0-3 1-4l5-3c2-2 3-6 4-9a27 27 0 014-6 22 22 0 014-3c3-3 7-3 11-3 2 0 5-1 7 2s1 9 1 12a90 90 0 01-1 14z" fill="#514e7f"/><circle cx="836.8" cy="36.9" r="18.7" fill="#a1616a"/><path d="M854 43c3 2 7 2 11 2a63 63 0 0121 7 8 8 0 013 1 7 7 0 011 3 18 18 0 011 7 19 19 0 01-2 6 33 33 0 01-12 13 9 9 0 01-3 1c-2 1-5-1-7-1a12 12 0 00-7 0c-2 1-4 2-6 1a6 6 0 01-3-3 108 108 0 01-5-11 42 42 0 00-2-5c-2-4-6-7-7-11a3 3 0 01-1-2 3 3 0 012-1 33 33 0 007-6c2-2 4-5 6-5s2 2 3 4z" fill="#a1616a"/><path d="M854 81h7l18-6a10 10 0 004-3 11 11 0 002-4l1-7-1-7a2 2 0 011-2 2 2 0 011 0c3 0 4 3 6 5a12 12 0 004 2l5 4 1 2c1 3 6 2 8 5l1 2 2 1c4 1 6 5 10 8l9 3 5 2 6 1a1 1 0 011 0 2 2 0 010 1 34 34 0 01-21 27 7 7 0 00-2 1l-4 5a4 4 0 01-4-1 37 37 0 01-3-4 12 12 0 00-7-3c-2 0-5 0-6-2a22 22 0 01-3-2 14 14 0 00-4-3 49 49 0 00-16-3c-5 0-10 0-15-2a9 9 0 01-3-1 10 10 0 01-2-4 29 29 0 01-1-15z" fill="#3b8070"/><path d="M878 53h-9a12 12 0 00-11 8 2 2 0 000 1 1 1 0 001 1 21 21 0 012-4 12 12 0 016-4 16 16 0 018-1l3 1 5 1 3 1 2 1v-1a7 7 0 00-3-2 28 28 0 00-7-2z" fill="#3b8070"/><path d="M866 109l-4 12a98 98 0 01-11 18 135 135 0 01-8 11c-4 5-8 9-9 15l-1 10c0 3-2 7-4 9l-7 2-5-1a4 4 0 010-2l-1-5-1-2-3 2c-1 0-3 0-3-2a6 6 0 010-4 20 20 0 0110-13 31 31 0 005-3 17 17 0 004-5c9-15 19-30 25-47a35 35 0 003-9V85a56 56 0 011-18 14 14 0 012-4c3-4 9-5 13-2a13 13 0 015 10l-3 10-8 28z" fill="#a1616a"/><path d="M810 24c-1-2 1-3 2-4a39 39 0 005-3l4-4a16 16 0 015-3 41 41 0 0113-2c5 0 9 1 13 3a8 8 0 012 2 9 9 0 011 3 61 61 0 003 10c1 3 3 7 6 10s9 4 11 8a3 3 0 011 2l-3 2c-5 3-10 8-13 13s-2 11 1 15c2 2 3 4 2 6-2 2-9 1-10 4v3c0 2-3 5-7 6l-11 2a10 10 0 010-7 3 3 0 000-2 4 4 0 00-1-1c-4-4-3-10-1-14s7-9 8-14c1-2 1-5-1-7a24 24 0 00-4-3 13 13 0 01-5-6c-1-3-1-7-4-9s-8-2-11-3-6-5-6-7z" fill="#464353"/><path d="M476 108c-1 8 5 16 4 24l-2 5c-1 5 2 10 5 14l23 34a22 22 0 004 4c4 4 11 3 16 4a29 29 0 0112 5 1 1 0 010 1 10 10 0 01-8 4v3l4 3a4 4 0 01-1 2 7 7 0 01-4 3c-8 3-17-2-23-8l-16-19-10-9c-7-7-12-14-17-22a24 24 0 01-4-8l-1-8-6-9c-4-6-6-12-6-19s5-14 12-17a10 10 0 016 0l7 5 4 5a12 12 0 013 4 4 4 0 01-1 4" fill="#fbbebe"/><path d="M476 108c-1 8 5 16 4 24l-2 5c-1 5 2 10 5 14l23 34a22 22 0 004 4c4 4 11 3 16 4a29 29 0 0112 5 1 1 0 010 1 10 10 0 01-8 4v3l4 3a4 4 0 01-1 2 7 7 0 01-4 3c-8 3-17-2-23-8l-16-19-10-9c-7-7-12-14-17-22a24 24 0 01-4-8l-1-8-6-9c-4-6-6-12-6-19s5-14 12-17a10 10 0 016 0l7 5 4 5a12 12 0 013 4 4 4 0 01-1 4" opacity=".1"/><path d="M458 318c5 4 12 4 18 3l2 1c1 1 0 2-1 3a26 26 0 01-12 5 79 79 0 01-11 1l-32-1a4 4 0 01-2-1 3 3 0 01-1-2c-1-3 0-6 3-7l7-4 9-4 8-3c5 0 9 7 12 9z" fill="#3f3d56"/><path d="M458 318c5 4 12 4 18 3l2 1c1 1 0 2-1 3a26 26 0 01-12 5 79 79 0 01-11 1l-32-1a4 4 0 01-2-1 3 3 0 01-1-2c-1-3 0-6 3-7l7-4 9-4 8-3c5 0 9 7 12 9z" opacity=".1"/><path d="M452 196c4 5 8 11 7 17l-4 10a68 68 0 00-4 13l-4 21c-1 7 4 29 4 37l2 5 1 2a3 3 0 010 2c-2 5-6 8-11 11s-17 5-23 5a4 4 0 01-2 0 4 4 0 01-1-2c-4-7 0-33 0-42l-2-20 2-17a402 402 0 00-11-60l-6-8a36 36 0 01-7-26l14 4a45 45 0 0113 8l8 10 12 14 12 16z" fill="#464353"/><path d="M452 196c4 5 8 11 7 17l-4 10a68 68 0 00-4 13l-4 20c-1 8 4 30 4 38l2 5 1 2a3 3 0 010 2c-2 5-6 8-11 10s-17 4-23 4a4 4 0 01-2 0 4 4 0 01-1-2c-4-7 0-32 0-40l-2-21 2-16a398 398 0 00-11-60l-6-8a36 36 0 01-7-26l14 3a45 45 0 0113 9l8 10 12 14 12 16z" opacity=".1"/><circle cx="494.6" cy="62" r="21.5" fill="#fbbebe"/><path d="M475 61a28 28 0 01-18 13l2 5c3 11 6 21 14 28-1-3 0-7 2-10a39 39 0 017-7l13-11a3 3 0 001-1 3 3 0 000-3c-2-4-7-8-10-11a34 34 0 01-5-6c-3-3-4 0-6 3z" fill="#fbbebe"/><path d="M523 40v-4c-3 1-6-2-8-5s-5-6-8-7c-4-2-8 1-12 3a38 38 0 01-14 4 9 9 0 00-2 0c-3 1-4 4-4 7l-2 9-3 5c-3 5 0 12-3 17l7-6 2-1 1 2c0 2 3 2 5 2s3-3 4-4c3-4 7-7 11-9a14 14 0 0112 1c3 2 5 6 9 6 6 0 8-10 10-14a5 5 0 01-1-6h-4z" fill="#464353"/><path d="M433 318a23 23 0 0016 6c1 0 3 0 3 2a2 2 0 010 1 14 14 0 01-8 6l-10 1-9-1h-6l-5-1a73 73 0 00-14-1h-3v-4-9c1-5 5-8 10-10 4-2 11-3 15-1 5 3 7 8 11 11z" fill="#3f3d56"/><path d="M424 157c-1 4-5 7-5 11 0 3 2 6 4 8a58 58 0 014 9 137 137 0 0012 24c2 3 4 7 4 11a17 17 0 01-2 6l-7 13a38 38 0 00-3 8l-1 8c-1 8-5 16-3 24l2 1c-3 4-4 8-4 13v7a8 8 0 00-1 3v2c0 2-1 3-3 4l-6 1-9 6a19 19 0 01-10 3 3 3 0 01-1 0 2 2 0 01-1-2 10 10 0 013-9 4 4 0 002-1 4 4 0 000-2 119 119 0 010-21 33 33 0 001-7l-1-6 2-6 1-10 3-18 2-6c2-1 4-3 4-5a6 6 0 00-2-2 8 8 0 01-1-5 3 3 0 01-3-2c-11-5-20-15-24-26a9 9 0 00-1-3l-4-3c-5-2-8-7-11-11l-5-8a27 27 0 010-6v-11a6 6 0 010-2 5 5 0 011-2 20 20 0 0111-6h9l16-2c9 1 17 7 21 15 1 2 3 5 6 5z" fill="#464353"/><path d="M472 89a11 11 0 001 5l4 2c0-1 1-3 2-2a3 3 0 012 2 8 8 0 011 5l-1 6 1 5a8 8 0 01-2 1 5 5 0 001 8h-17l-2 8a51 51 0 01-39 25 3 3 0 011 6h-5l-5-4a14 14 0 00-9-2l-7 1c-6 0-11-4-17-6-4-1-9-1-13-4-2-1-3-3-2-5a8 8 0 011-3l5-9a54 54 0 0112-16 109 109 0 0112-10 21 21 0 014-2 34 34 0 004-1l5-6 12-8c3-2 5-5 9-6l5-1 9-6 9-1a21 21 0 009-3 11 11 0 013-2c5-1 5 7 6 10l1 13z" fill="#3b8070"/><path d="M468 117c-1 8 6 16 4 24l-2 5c0 5 2 9 5 13l23 35a21 21 0 004 4c4 4 11 3 17 4a29 29 0 0111 5 1 1 0 010 1 10 10 0 01-8 4c-1 1 0 2 1 3s3 1 3 3a4 4 0 01-1 2 7 7 0 01-4 3c-8 3-16-2-23-8s-10-13-16-19l-10-9c-7-7-12-15-17-22a24 24 0 01-4-8l-1-8-5-9c-5-6-7-13-7-20s5-14 12-16a10 10 0 016 0l7 5 4 5a12 12 0 013 4 4 4 0 01-1 4" fill="#fbbebe"/><path d="M456 83c3 1 7 1 9 3a12 12 0 012 4c2 4 4 8 4 13l-1 11c-1 3 1 7 1 10l-12-5a41 41 0 00-8-4c-3-1-9 1-13 3l2-9a10 10 0 00-1-3 18 18 0 00-2-3 12 12 0 011-14c3-4 8-5 13-5a54 54 0 019-1" fill="#3b8070"/><path fill="#dfe6f5" d="M1020 303l-20 200-689 280L78 564 61 358l657-192 302 137z"/><path opacity=".1" d="M311 783L78 564 61 358l244 199 6 226z"/><path opacity=".1" d="M1020 303l-20 200-689 280-6-226 715-254z"/><path fill="#a7adb8" d="M81 374l642-182 266 123-684 242L81 374z"/><path d="M837 84l-8 1-207 21a42 42 0 00-26 12L483 235 229 496l75 61 182-64 79-28 223-267 70-84s2-24-21-30zM625 213c-9 6-20 6-23 0-2-4-1-9 3-14a31 31 0 018-6c8-5 17-6 21-3a8 8 0 013 3c3 6-2 15-12 20z" fill="#454b69"/><path d="M837 84l-8 1c10 10 5 13 5 13l-76 86-272 309 79-28 223-267 70-84s2-24-21-30z" opacity=".1"/><path d="M613 193a31 31 0 00-8 6l29-9c-4-3-13-2-21 3z" fill="#dfe6f5"/><path d="M602 213c3 6 14 6 23 0s15-14 11-20a8 8 0 00-2-3l-29 9c-4 5-5 10-3 14z" fill="#dfe6f5"/><ellipse cx="781.2" cy="716.6" rx="44.1" ry="7.1" transform="rotate(-27 640 760)" fill="#3b8070" opacity=".1"/><ellipse cx="747" cy="653.4" rx="3.8" ry="5" fill="#3f3d56"/><ellipse cx="747" cy="647.3" rx="3.8" ry="5" fill="#3f3d56"/><ellipse cx="747" cy="641.2" rx="3.8" ry="5" fill="#3f3d56"/><ellipse cx="747" cy="635.2" rx="3.8" ry="5" fill="#3f3d56"/><ellipse cx="747" cy="629.1" rx="3.8" ry="5" fill="#3f3d56"/><ellipse cx="747" cy="623" rx="3.8" ry="5" fill="#3f3d56"/><ellipse cx="747" cy="616.9" rx="3.8" ry="5" fill="#3f3d56"/><path d="M761 575a19 19 0 002-2l-10-1h10a18 18 0 001-15l-15 8 14-10a18 18 0 10-30 20 18 18 0 00-2 4l13 6-14-4a18 18 0 003 17 18 18 0 1028 0 18 18 0 000-23z" fill="#3b8070"/><path d="M729 587a18 18 0 004 11 18 18 0 1028 0c3-3-32-13-32-11z" opacity=".1"/><ellipse cx="1011.2" cy="649.8" rx="28.8" ry="4.6" transform="rotate(-27 870 693)" fill="#3b8070" opacity=".1"/><ellipse cx="976.9" cy="588.2" rx="2.5" ry="3.3" fill="#3f3d56"/><ellipse cx="976.9" cy="584.2" rx="2.5" ry="3.3" fill="#3f3d56"/><ellipse cx="976.9" cy="580.3" rx="2.5" ry="3.3" fill="#3f3d56"/><ellipse cx="976.9" cy="576.3" rx="2.5" ry="3.3" fill="#3f3d56"/><ellipse cx="976.9" cy="572.3" rx="2.5" ry="3.3" fill="#3f3d56"/><ellipse cx="976.9" cy="568.3" rx="2.5" ry="3.3" fill="#3f3d56"/><ellipse cx="976.9" cy="564.4" rx="2.5" ry="3.3" fill="#3f3d56"/><path d="M986 537a11 11 0 001-1l-6-1h7a12 12 0 001-5 12 12 0 00-1-5l-10 5 9-6a12 12 0 10-20 13 12 12 0 00-1 2l9 5-9-3a12 12 0 002 11 12 12 0 1018 0 12 12 0 000-15z" fill="#3b8070"/><path d="M965 545a12 12 0 002 7 12 12 0 1019 0c2-2-21-9-21-7z" opacity=".1"/><ellipse cx="240.7" cy="820.6" rx="10.8" ry="26.2" transform="rotate(-45 153 833)" fill="#3b8070" opacity=".1"/><ellipse cx="208.1" cy="756.4" rx="5.8" ry="7.6" fill="#3f3d56"/><ellipse cx="208.1" cy="747.1" rx="5.8" ry="7.6" fill="#3f3d56"/><ellipse cx="208.1" cy="737.9" rx="5.8" ry="7.6" fill="#3f3d56"/><ellipse cx="208.1" cy="728.6" rx="5.8" ry="7.6" fill="#3f3d56"/><ellipse cx="208.1" cy="719.4" rx="5.8" ry="7.6" fill="#3f3d56"/><ellipse cx="208.1" cy="710.1" rx="5.8" ry="7.6" fill="#3f3d56"/><ellipse cx="208.1" cy="700.8" rx="5.8" ry="7.6" fill="#3f3d56"/><path d="M230 638a28 28 0 002-4l-15-2h16a28 28 0 001-22l-22 11 20-15a28 28 0 10-46 31 27 27 0 00-3 5l20 11-21-7a28 28 0 004 26 28 28 0 1044 0 28 28 0 000-35z" fill="#3b8070"/><path d="M180 655a28 28 0 006 17 28 28 0 1044 0c3-5-50-20-50-17z" opacity=".1"/></svg>