<svg data-name="Layer 1" xmlns="http://www.w3.org/2000/svg" viewBox="0 0 1036.9 660"><path fill="#3f3d56" d="M45 494h786v3H45zM0 0h900v438H0z"/><path d="M900 34V22h-28V0h-12v22H40V0H28v22H0v12h28v370H0v12h28v22h12v-22h820v22h12v-22h28v-12h-28V34zm-40 370H40V34h820z" opacity=".1"/><path fill="#d0cde1" d="M398 58h142v135H398z"/><path fill="#3b8070" d="M414 74h110v84H414z"/><path fill="#f2f2f2" d="M438 88h38v38h-38z"/><path d="M453 97v47h46V97zm44 45h-42V99h42z" fill="#3f3d56"/><path fill="#f2f2f2" d="M414 166h59v3h-59z"/><circle cx="468.7" cy="65.6" r="6.3" fill="#3f3d56"/><path fill="#d0cde1" d="M451 252h142v135H451z"/><path fill="#3b8070" d="M467 269h110v83H467z"/><path fill="#f2f2f2" d="M467 362h60v3h-60zM467 372h60v3h-60z"/><circle cx="486.9" cy="310.5" r="12.6" fill="#3f3d56"/><circle cx="522.2" cy="310.5" r="12.6" fill="#f2f2f2"/><circle cx="557.5" cy="310.5" r="12.6" fill="#ff6584"/><circle cx="522.2" cy="260.3" r="6.3" fill="#3f3d56"/><path fill="#d0cde1" d="M234 210h142v135H234z"/><path fill="#3b8070" d="M250 226h110v84H250z"/><circle cx="297.7" cy="278.1" r="26.6" fill="#f2f2f2"/><path d="M306 299a33 33 0 1133-34 33 33 0 01-33 34zm0-66a32 32 0 1032 32 32 32 0 00-32-32z" fill="#3f3d56"/><path fill="#f2f2f2" d="M250 328h60v3h-60zM250 319h83v3h-83z"/><circle cx="305" cy="218.1" r="6.3" fill="#3f3d56"/><path fill="#d0cde1" d="M78 55h142v135H78z"/><path fill="#3b8070" d="M94 72h110v83H94z"/><path fill="#3f3d56" d="M137 137h24v7h-24zM109 83h80v3h-80zM109 92h80v3h-80zM109 102h80v3h-80zM109 111h80v3h-80zM109 121h80v3h-80z"/><path fill="#f2f2f2" d="M94 164h60v3H94zM94 172h83v3H94z"/><circle cx="149.1" cy="63.2" r="6.3" fill="#3f3d56"/><path d="M655 144l103 7 29 2-2-2 5 79 3 40v5c0 1 1 2-1 3l-9 1-20 2a490 490 0 01-77 0l-20-1c-2-1-5-1-6-3l-1-9q-3-19-4-39a443 443 0 013-77l1-10c0-2-3-3-4-1a447 447 0 00-4 80l3 41 1 10 3 8c1 2 4 3 6 3l10 1a490 490 0 0081 1l20-2 10-1h5a22 22 0 004-1c3-1 3-4 3-7l-1-10-1-21-6-81-1-11a2 2 0 00-1-1l-103-8-29-2c-3 0-3 3 0 4z" fill="#d0cde1"/><path d="M699 186c0-1-1 2 0 0v-1a20 20 0 011-2c1 0 2-1 0 1a9 9 0 001-1 22 22 0 012-2c0-1 1-1 0 0l1-1 2-1h0l3-1 2-1c1 0 2 0 0 0h1a22 22 0 012 0h1c1 0-2 0 0 0a20 20 0 012 1 9 9 0 002 0h-1a20 20 0 012 1l1 1c1 1-1-1 0 0l2 1 1 1c0 1 0 2 0 0l2 5v-1 1l1 3 1 2c-1-2-1-1-1 0l1 1v2l-1 2v-1a23 23 0 010 3v1l-1 1v-1l-6 12a53 53 0 00-5 32 7 7 0 003 5 7 7 0 006 0c4-1 6-4 5-9 0-1 0 2 0 0v-1-4-3a9 9 0 010-2s0 1 0 0v-1a45 45 0 012-6v-2h1l1-3c3-5 6-9 7-14a29 29 0 002-12c-1-9-4-17-11-23a28 28 0 00-25-5 30 30 0 00-21 18c-1 4 1 8 5 9s7-1 9-5zM724 272a6 6 0 10-6-6 6 6 0 006 6z" fill="#d0cde1"/><path fill="#3b8070" d="M40 482h34v34H40z"/><path d="M94 496H53v-40h41zm-39-1h37v-38H55z" fill="#3f3d56"/><path d="M823 300l-4 15s-30 34-9 39 24-37 24-37l6-12z" fill="#ffb8b8"/><path d="M857 126s-7-1-9 27l-4 80-28 71 35 11 17-81z" fill="#575a89"/><path fill="#ffb8b8" d="M842 555l-4 23h32l-1-23h-27zM946 580l-2 32 21 2v-36l-19 2z"/><path d="M855 257l-28 159 7 144h38V429l36-67 29 84 7 140 41-7-10-137s-7-183-14-185-106 0-106 0z" fill="#2f2e41"/><path d="M845 571s0-12-9-5-22 20-22 20-46 26-13 29 53-16 53-16l3 3s19-3 19-8a93 93 0 00-1-12s-2-21-5-17-20 13-25 6zM967 605s-22-11-27-2-8 29-8 29-16 30 12 28 26-18 26-22-1-12 0-15-3-18-3-18z" fill="#2f2e41"/><circle cx="919.1" cy="44.5" r="33.7" fill="#ffb8b8"/><path fill="#ffb8b8" d="M897 61l-1 43 43-4V61h-42z"/><path d="M941 79l-26 15c-6 2-19-9-19-9s-4 2-4 5l-2 12-29 95 2 67s88 8 98-2-5-166-5-166z" fill="#d0cde1"/><path d="M935 104s-32 12-43 1c0 0 16 4 43-1z" opacity=".1"/><path d="M1021 365c-13 9-57 19-57 19s-4-101-21-118c-17-16-45-131-20-151l16-36s2-4 7 1a131 131 0 0111 13l1 1 33 12-14 59s57 192 44 200z" fill="#575a89"/><path d="M958 94l-9 33-26-12 16-36s2-4 7 1a131 131 0 0111 13z" opacity=".1"/><path d="M895 84l-4 41v2l-27 262s-24-9-33-18 20-117 20-117l2-135s21-15 30-23l4-5c1-4 8-7 8-7z" fill="#575a89"/><path d="M895 84l-4 41v2l-17-2 9-29 4-5c1-4 8-7 8-7z" opacity=".1"/><path d="M959 287l-13 12s6 25 13 26c0 0 5-7 6-13s12-12 12-12z" fill="#ffb8b8"/><path d="M975 104l16 2s51 88 45 120-54 85-54 85l-30-24 45-60-23-72z" fill="#575a89"/><path d="M885 48s0-29 8-36h8s10-15 23-10 35 15 34 30-6 25-6 25-3 0-8-9c-7-10 9-7-12-11s-35-9-38-4l-9 15z" fill="#2f2e41"/><path d="M901 14s1-9 6-11z" fill="#2f2e41"/><path d="M901 16s-2-9 1-12z" fill="#2f2e41"/></svg>