<svg data-name="Layer 1" xmlns="http://www.w3.org/2000/svg" viewBox="0 0 888 638"><circle cx="174" cy="76.1" r="31" fill="#2f2e41"/><path d="M80 449l19-66 6 2s-8 50-20 62z" fill="#2f2e41"/><path d="M152 95s3 26-3 33 4 21 4 21l17 21 25-12 3-21-2-14s-9-9-5-24-39-4-39-4z" fill="#ffb9b9"/><path d="M152 95s3 26-3 33 4 21 4 21l17 21 25-12 3-21-2-14s-9-9-5-24-39-4-39-4z" opacity=".1"/><path fill="#ffb9b9" d="M167 580v16l22 5-2-28-20 7zM234 573l-5 23 9 7 17-12-2-20-19 2z"/><path d="M191 599s-8-15-24-6c0 0-3 16-6 18s-19 24 0 26 28-4 28-4-4 3 2 1 3-10 3-10zM247 589s-13 9-15 5-5-4-5-4-12 43-4 45a25 25 0 0014-1s10-6 10-1 27 5 38 4 5-9 5-9l-15-14-17-25s-7-7-11 0zM127 318l17 163s9 100 11 102 12 7 35 0l-5-131 10-81 22 56s5 150 9 150 26 8 31-1 5-105 5-105-3-152-21-157-114 4-114 4z" fill="#2f2e41"/><circle cx="174" cy="81.8" r="28" fill="#ffb9b9"/><path d="M176 160l-3-21c0-3-13-5-13-5s-9-11-12-10l-37 25c-5 2-10 15-10 16l26 54s11 32 3 49-18 51-3 58 83 22 95 9 22-17 25-17-13-56-10-62-1-38-1-38l18-52s-1-29-38-36l-22-10z" fill="#575a89"/><path d="M100 325l-2 25c0 5-10 39 4 43s13-44 13-44v-24zM268 307s2 19 1 23 12 39-5 41-13-42-13-42v-22z" fill="#ffb9b9"/><path d="M96 443l12-63h4a25 25 0 013 24c-5 14-9 39-9 39z" fill="#2f2e41"/><path d="M107 160l-6 5s-8 129-6 139-7 23 1 25 18 6 22 3 5-15 7-18 4-36 4-36 9-34 4-59l-10-51zM236 150l18 16 14 83s9 64 2 65-17-1-21 0-9-2-9-2l-4-26-4-30-4-34 6-36z" fill="#575a89"/><path d="M148 533l-7 18a4161 4161 0 01-20 55c-4 10-86-6-92-10s-8-18-9-38l3-17a249 249 0 018-26l16-46s16-11 22-18 37-13 37-13c8 0 29 35 37 45s5 50 5 50z" fill="#3f3d56"/><circle cx="102.3" cy="467.5" r="3.6" fill="#2f2e41"/><circle cx="108" cy="471.6" r="2" fill="#2f2e41"/><path d="M141 551l-5 15-110-36 5-15zM132 577l-6 16-106-35 3-17z" fill="#f2f2f2"/><path d="M102 468s8 36 4 68 12 61 12 61" fill="none" stroke="#2f2e41" stroke-miterlimit="10" stroke-width="3"/><path d="M108 471s-16 58-16 66-7 66-15 72" fill="none" stroke="#2f2e41" stroke-miterlimit="10" stroke-width="3"/><path d="M153 65s-7-17 2-22l3 7s23-14 29-11l-6 8s27 0 29 10l-9 1s10 6 10 17l-20 1 10 6s-37 5-46-9z" fill="#2f2e41"/><path d="M147 65s7 15 17 11 0-17 0-17l-6-3z" fill="#2f2e41"/><path d="M776 296L644 130a44 44 0 01-22 11c-25 5-49-12-54-38a48 48 0 0117-47L540 0 283 220l236 295z" fill="#f2f2f2"/><circle cx="611.7" cy="95.9" r="37.3" fill="#f2f2f2"/><path fill="#3b8070" d="M367 275l11-13 39 33-12 13zM614 511l11-13 35 30-12 13z"/><path d="M687 400v9a171 171 0 01-342 2v-11a170 170 0 0131-99l6-7 3-4a171 171 0 01239-23l6 5 4 4a171 171 0 0152 109l1 15z" fill="#3f3d56"/><path d="M516 592c-106 0-193-86-193-192a192 192 0 0152-131l4 4a186 186 0 00-50 127c0 103 84 187 187 187a185 185 0 00134-57l4 4a191 191 0 01-138 58z" fill="#3b8070"/><path fill="#3b8070" d="M495 588h49v49h-49zM382 294v4l3 2c2 0 4 1 3 2-4 2-8 0-12-1a170 170 0 00-31 99v11a4 4 0 001 0l4 1 2 2c3 1 6-1 8 1a21 21 0 012 1c2 2 6 1 8 2l3 4c2 4 6 8 10 9a27 27 0 014 0c2 0 3 1 3 3v7c0 4-6 6-7 11a26 26 0 010 2l-2 4c0 2 1 4 3 5l5 5 1 7c0 5 5 9 9 11a10 10 0 014 3l1 6c1 5 5 9 6 14 0 4-2 7-4 10a23 23 0 00-1 11 172 172 0 0022 16 6 6 0 000-2 4 4 0 00-1-4 10 10 0 003-3 3 3 0 001-3l5-1 1-5a20 20 0 01-1-5 87 87 0 0014 0 9 9 0 00-4-6c2 0 4-3 4-5a13 13 0 001-6 3 3 0 01-1-2 3 3 0 012-2l11-6a6 6 0 001-1c2-1 1-3 1-5l-2-5c-1-5 5-8 7-13a20 20 0 001-6c0-2 0-5-2-6-1-2-4-1-5-2l-4-5h-5c-3-1-5-5-8-5h-5l-2-4a12 12 0 00-9-10l-5-1-4-4c-1-2-4-3-7-4l-12-2c-2-1-4-1-6 1a8 8 0 000 2 7 7 0 01-6 5 7 7 0 00-5-4 27 27 0 01-3-1 5 5 0 01-2-6 6 6 0 00-2-8c-2-2-4-2-7-2-1-1 1-3 2-4l3-4c0-2-3-4-6-4l-5 6a17 17 0 01-2 4 4 4 0 01-4 1c-2 0-2-3-3-5a33 33 0 01-1-8 11 11 0 013-8c4-3 9-2 13-2a3 3 0 011-4 5 5 0 014-1 6 6 0 014 2l2 5c1 2 4 4 5 3 2-1 2-3 2-5l-1-5c0-4 4-6 7-7s6-3 7-7a6 6 0 010-2 4 4 0 011-1c9-6 19-12 29-15h1v-2l-2-2v-2a2 2 0 00-3-2c-1-2 1-3 2-3a58 58 0 0112-2 2 2 0 012 0 2 2 0 010 2 13 13 0 01-2 2 5 5 0 00-2 5l7 2c3 0 5-3 4-5l-5-5c-1-2 3-5 2-7l-2-3a7 7 0 01-2-7 9 9 0 01-7-3c-2-1-3-4-6-4-2 0-4 3-7 2l-1-1a1 1 0 00-1 1c0 3 1 6-1 8l-7 6-3 4c-1 2-3 2-4 1a6 6 0 00-1-7 15 15 0 00-4-2 20 20 0 01-4-2 4 4 0 01-1-2 3 3 0 010-2 10 10 0 018-6l4-2 2-2a2 2 0 011 1l6 2a4 4 0 002 0 1 1 0 001-1l-1-3a2 2 0 010-1 21 21 0 0117-6l-2 4c-1 1-2 2 0 3a3 3 0 001 1 13 13 0 014 1l6 3a7 7 0 010-4 3 3 0 013-2l3 2c2 0 2-2 2-3l-2-5-1-3a2 2 0 00-1 0l-22-4c-1-1-3 0-3 1v2l-2 1a3 3 0 00-1 3 8 8 0 001 3l-5-1a19 19 0 00-1-5 2 2 0 00-3-1l-5 1a2 2 0 00-2 0v3a3 3 0 01-2 3 8 8 0 01-3 0l-8-1a13 13 0 006-4v-5a4 4 0 00-2 0c-3 0-6-3-9-4a10 10 0 00-4 0zM687 409a4 4 0 01-4 1c-3 0-5-5-9-6a1 1 0 00-1 0v2l1 9c1 4 6 7 5 11-5-2-8-8-9-13s-1-11-3-16c-2 2-5 0-7-2l-3-6c-2-2-4-4-6-4-3-1-5 1-7 3a16 16 0 00-4 5c-2 2-1 6-1 9-1 3-1 7-4 9-2 3-6 4-9 1a10 10 0 01-2-4 221 221 0 01-7-25c0 2-2 5-4 4a3 3 0 010-2c-3-5-9-8-14-9l-17-5a43 43 0 01-9-4 7 7 0 000 7 6 6 0 006 2l3-1c2-1 3-1 4 1v3c0 2 3 2 4 4a3 3 0 01-1 4 16 16 0 01-3 2l-10 8c-4 3-9 5-13 4 1-5-5-9-6-14v-5l-5-5a22 22 0 01-6-16v-6c0-2-2-4-4-4-4 0-10 1-13-3v-5a4 4 0 014-1l10 1h7c2-1 3-5 1-6l-4-3v-5h-3a19 19 0 01-2 3l-5-1c-1-1-5-1-5 1l-1 6c-1 3-5 1-7 3-2 3 1 6 1 10a6 6 0 01-6-1 5 5 0 01-2-5v-4a5 5 0 00-2-2l-10-6c-1 2 0 4 1 5l5 4a5 5 0 01-2 7 1 1 0 01-1 1 1 1 0 01-1-1c-2-5-4-9-9-12-4-2-10-2-13 2l-2 3c-3 6-9 8-16 8a3 3 0 01-1 0l-1-4 1-5a4 4 0 011-3h4a5 5 0 005-4 6 6 0 00-2-6l-1-2a2 2 0 011-1l8-2c3-1 5-2 6-5l1-2a3 3 0 011-1 6 6 0 005-6l4 1 4 3 8-2h3c2 0 2-1 3-2s2-2 3-1v-5a10 10 0 008-1l-9-3a2 2 0 01-1-1l1-2c1-2 1-5-1-6-1-1-3 0-4 1l-7 3c0 2 2 2 2 3a4 4 0 01-2 7 5 5 0 011 4h-4a2 2 0 01-2 0v-2a4 4 0 00-4-3 11 11 0 00-4 0 3 3 0 01-2 0 2 2 0 01-1-1 5 5 0 011-4 27 27 0 014-4 21 21 0 006-9l8-4a29 29 0 016-2 28 28 0 016 0h8a19 19 0 017 1c2 1 4 3 4 5a2 2 0 01-1 2 2 2 0 01-1 0l-5 1c1 1 3 3 5 3 4 1 6-3 8-6a3 3 0 003 2 7 7 0 003 0 49 49 0 0123-7 3 3 0 012-2c2-1 3 1 4 2l2 5c2 1 4 1 5-1l-3-4c-1-1-3-2-2-4l21-3a9 9 0 004-1 3 3 0 001-2 8 8 0 01-8-4c7 0 15-1 22 1l6 5c-1 1-3 2-2 4a3 3 0 002 0h4a171 171 0 0152 109c-2 0-4 3-4 6s3 6 4 8a13 13 0 011 2z"/><path fill="none" stroke="#3f3d56" stroke-miterlimit="10" stroke-width="2" d="M0 637h888"/><circle cx="366.4" cy="65.3" r="14.8" fill="none" stroke="#3f3d56" stroke-miterlimit="10" stroke-width="2"/><circle cx="802.4" cy="346.3" r="14.8" fill="none" stroke="#3f3d56" stroke-miterlimit="10" stroke-width="2"/><circle cx="701.6" cy="199.3" r="14.8" fill="none" stroke="#3f3d56" stroke-miterlimit="10" stroke-width="2"/><circle cx="604.8" cy="323.9" r="16.6" fill="#3f3d56"/><circle cx="658" cy="270.7" r="21.8" fill="#fff"/><path d="M680 248a31 31 0 00-44 1c-11 12-28 73-28 73s61-18 73-30a31 31 0 00-1-44zm-32 33a14 14 0 1120 0 14 14 0 01-20 0z" fill="#57b894"/></svg>