<svg data-name="Layer 1" xmlns="http://www.w3.org/2000/svg" viewBox="0 0 975.2 768.5"><path d="M739 604l-33 17 18-17h-59v-41c63-45 103-116 103-195 0-136-86-246-265-246-98 0-167 32-210 82v26l-7-17a252 252 0 0055 350v41h-30l5 23-20-23h-77v111h245V531h-14c-41-26-69-80-69-142 0-87 55-158 122-158 56 0 104 50 118 117l18-27-16 43a205 205 0 012 25c0 62-28 116-69 142h-14v184h245V604z" fill="#3f3d56"/><path d="M533 99c-6 21-26 34-26 34s-10-21-4-42 25-34 25-34 10 21 5 42z" fill="#3b8070"/><path d="M481 99c6 21 25 34 25 34s10-21 5-42-26-34-26-34-10 21-4 42z" fill="#3b8070"/><path d="M489 95c16 15 18 38 18 38s-24-1-39-16-18-39-18-39 24 1 39 17zM524 95c-15 15-17 38-17 38s23-1 39-16 17-39 17-39-23 1-39 17z" fill="#3f3d56"/><path d="M418 487c16 15 19 38 19 38s-23 0-40-15-19-37-19-37 24 0 40 14zM382 360c9 20 31 29 31 29s6-22-3-42-30-29-30-29-7 22 2 42z" fill="#3b8070"/><path d="M390 354c18 13 23 35 23 35s-23 3-41-10-23-35-23-35 23-2 41 10zM448 408c-15 15-17 39-17 39s23-1 39-17 17-38 17-38-23 1-39 16zM440 576c-21 6-33 27-33 27s22 9 43 2 32-27 32-27-21-9-42-2z" fill="#3f3d56"/><path d="M286 709l-2-1a54 54 0 0112-29c11-11 25-17 40-23l8-3a162 162 0 0030-16c34-24 57-68 61-117 2-39-6-82-26-133l2-1c20 51 28 95 26 134-4 50-27 94-62 118a163 163 0 01-31 17l-7 3c-15 5-29 11-39 23a52 52 0 00-12 28z" fill="#3f3d56"/><circle cx="348.9" cy="312.6" r="19" fill="#3f3d56"/><path d="M546 378c16 15 19 38 19 38s-23 0-40-15-19-37-19-37 24 0 40 14zM510 251c9 20 31 29 31 29s6-22-3-42-30-29-30-29-7 22 2 42z" fill="#3b8070"/><path d="M518 245c18 13 23 35 23 35s-23 3-41-10-23-35-23-35 23-2 41 10zM576 299c-15 15-17 39-17 39s23-1 39-17 17-38 17-38-23 1-39 16zM568 467c-21 6-33 27-33 27s22 9 43 2 32-27 32-27-21-9-42-2z" fill="#3f3d56"/><path d="M414 600l-2-1a54 54 0 0112-29c11-11 25-17 40-23l8-3a161 161 0 0030-16c34-24 57-68 61-117 2-39-6-82-26-133l2-1c20 51 28 95 26 134-4 50-27 94-62 118a163 163 0 01-31 17l-7 3c-15 5-29 11-39 23a52 52 0 00-12 28z" fill="#3f3d56"/><circle cx="476.9" cy="203.6" r="19" fill="#3f3d56"/><path d="M185 428c21 0 39 16 39 16s-18 15-40 14-39-16-39-16 18-15 40-14zM75 353c20 10 42 3 42 3s-9-21-29-31-42-3-42-3 9 22 29 31z" fill="#3b8070"/><path d="M77 344c22-2 41 12 41 12s-16 17-38 19-41-12-41-12 16-17 38-19zM157 348c-2 21 11 40 11 40s17-16 19-37-11-41-11-41-17 16-19 38zM259 481c-12 18-8 41-8 41s23-7 34-25 7-42 7-42-22 7-33 26z" fill="#3f3d56"/><path d="M226 683a54 54 0 01-10-30c0-16 8-30 15-44l4-7a161 161 0 0013-32c10-40 0-88-29-128-24-32-58-60-106-85l1-2c48 26 83 54 106 86 30 40 41 89 29 130a163 163 0 01-12 32l-4 7c-7 14-15 28-15 43a52 52 0 009 28z" fill="#3f3d56"/><circle cx="19" cy="338.9" r="19" fill="#3f3d56"/><path d="M181 118c-21 0-39 16-39 16s18 15 40 14 39-16 39-16-18-15-40-14zM291 43c-20 10-42 3-42 3s9-21 29-31 42-3 42-3-9 22-29 31z" fill="#3b8070"/><path d="M289 34c-22-2-41 12-41 12s16 17 38 19 41-12 41-12-16-17-38-19zM209 38c2 21-11 40-11 40s-17-16-19-37 11-41 11-41 17 16 19 38zM107 171c12 18 8 41 8 41s-23-7-34-25-7-42-7-42 22 7 33 26z" fill="#3f3d56"/><path d="M140 373l-1-2a52 52 0 009-28c0-15-8-29-15-43l-4-7a163 163 0 01-12-32c-12-41-1-90 29-130 23-32 58-60 106-86l1 2c-48 25-82 53-106 85-29 40-39 88-29 128a161 161 0 0013 32l4 7c7 14 15 28 15 44a54 54 0 01-10 30z" fill="#3f3d56"/><circle cx="347" cy="28.9" r="19" fill="#3f3d56"/><path fill="#3f3d56" d="M60 714h915v2H60z"/><path d="M853 406s92 64 75 93l-52 94-25-15 10-27s5-38 26-53c0 0-2-12-22-19s-61-42-61-42z" fill="#ffb9b9"/><path d="M883 587l-33-20-23 33s-33 10-39 29c0 0 37 90 50 84s5-35 5-35l22-52z" fill="#2f2e41"/><path d="M738 439l58 91s17 76 47 110l33-10-33-77s7-21-13-54-28-72-28-72z" fill="#ffb9b9"/><path d="M878 622l-40 21 38 41s-7 8-8 29v27s97 40 106 26-31-36-31-36l-38-57z" fill="#2f2e41"/><circle cx="789.4" cy="127.1" r="35" fill="#ffb9b9"/><path fill="#ffb9b9" d="M767 139l-15 32 59 91-2-42-12-27-11-10 9-29-28-15z"/><path d="M759 179l-7-8s-28-12-38 18c-4 11-6 25-8 38a160 160 0 005 60s-16 54-11 89l-3 18s-39 28-17 36 30-30 30-30l23-92-1-40 10 10zM799 195s19 11 21 20l20 91 31 90s49 47 22 51-37-45-37-45l-36-72-8-111z" fill="#ffb9b9"/><path d="M825 119s20-44-33-44c0 0-32-17-57 23l-25 41 6-1 1 6 8 6 6-7-1 10 72 30s-27-29-16-65l4 9z" fill="#2f2e41"/><path d="M829 265s6-16 2-22l-33-52h-3s14 47 9 54c0 0-45-74-53-74l3 6-22 95 9 32h80z" fill="#3b8070"/><path d="M876 414l-37-24s-13-80-18-86h-80v1s-46 102-34 145c0 0 0 4 26 0s78-6 78-6 70-12 65-30z" fill="#2f2e41"/></svg>