<svg data-name="Layer 1" xmlns="http://www.w3.org/2000/svg" viewBox="0 0 654.2 682.1"><path d="M620 636c0 25-139 46-310 46S0 661 0 636c0-19 70-34 171-42a1868 1868 0 01199-4c143 4 250 23 250 46z" fill="#3f3d56"/><ellipse cx="270" cy="630.6" rx="119" ry="14.5" opacity=".1"/><ellipse cx="269.5" cy="521.1" rx="112.5" ry="120" fill="#3f3d56"/><path fill="#3b8070" d="M235 592h70v64h-70z"/><path fill="#575a89" d="M397 608l-4 22 26 4 17-10-1-16h-38z"/><path d="M266 195s-2 23-7 24 11 41 11 41h24l19-5-9-22s-12-16-3-29-35-9-35-9z" fill="#a0616a"/><path d="M266 195s-2 23-7 24 11 41 11 41h24l19-5-9-22s-12-16-3-29-35-9-35-9z" opacity=".1"/><path d="M216 371s-26 50-5 60 26 9 26 12-4 2-2 7-4 25 2 37 4 21 4 21l2 5c2 4 3 7 2 9s-7 15-1 18 37 5 40 0-3-8 0-11 5-4 3-6-4-27-4-27 5-29 3-33-5-8-3-11 4-2 5-6l3-13 11-1 26 5s29 32 61 42c0 0 9 9 12 9s3 0 2 2-4 2-2 4 5-1 3 2-4 3-2 5-1 13-1 14-9 95-6 97 45 8 48 0-2-18-2-18 15-120 11-128-18-44-93-67c0 0-21-4-21-7s-2-22-6-23l-27-2-29 9-40-7z" fill="#2f2e41"/><path d="M251 539l-5 18s-4 29 1 36c3 5 10 12 23 13a16 16 0 0017-11 5 5 0 001-1l-3-26-5-25-1-7zM397 625s-5-5-6 0-5 26 2 27 74 11 81 7 20-10 12-13l-31-12-15-18c-2-1-13 1-18 5s-25 4-25 4z" fill="#2f2e41"/><circle cx="289.5" cy="184.6" r="31" fill="#a0616a"/><path d="M287 255l-12-13-14-26s-9-3-11 2-38 21-38 21 9 84 5 92-11 40-5 43 34 0 43 4 35 4 42-1 9-9 16-6c5 2 19-85 23-111a12 12 0 00-5-12c-8-6-25-17-28-15-4 2-17 22-17 22z" fill="#575a89"/><path d="M330 251a12 12 0 018 10l8 73s-20 43-30 14 14-97 14-97z" fill="#575a89"/><path d="M328 341l22-6s4 28 8 28-14 16-23 14-22-9-23-14 9-26 9-26z" fill="#575a89"/><path d="M266 198l4-15a18 18 0 0127-8c2 1 4 4 7 3 3 0 5-3 8-2s2 7 5 8l5-2a11 11 0 001-5c0-4 1-9-1-13a30 30 0 01-2-4 14 14 0 010-4c0-5-1-10-3-14-3-5-8-8-14-10s-11-1-16 0c-10 1-19 2-26 8a10 10 0 00-3 3 14 14 0 00-1 3 79 79 0 01-7 19 40 40 0 00-4 7l1 9 5 4 4 6 5 1c3 2 3 5 5 6z" fill="#2f2e41"/><path d="M292 270l3-6s44 13 53 25c0 0 22-14 34-12l12 2-37 33-47-4z" fill="#f2f2f2"/><path d="M290 264l-41 57 59 29s5 3 9 0l39-18 38-53-37 19s-4-8-12-4z" fill="#3b8070"/><path d="M353 365l8-21s18-23 8-34-21 32-21 32zM260 361l18-14s27-11 24-25-35 17-35 17z" fill="#a0616a"/><path d="M217 260h-1s-15-18-18 7-13 108 13 111 44-13 44-13 19-29 12-29l-21-1c-9 1-17 3-16 1 1-5 15-69-13-76z" opacity=".1"/><path d="M216 241l-4-2s-16 3-19 28-13 108 13 111 61-4 61-4 7-38 0-38-43 5-42 0 19-88-9-95zM338 353l11-17 7 28-18 8v-19z" fill="#575a89"/><circle cx="111.5" cy="85.1" r="27" fill="#f2f2f2"/><path fill="#f2f2f2" d="M80 286h64v64H80zM372 0l16 28 16 28h-64l16-28 16-28z"/><path d="M654 168q0 18-9 29-8 11-19 11-9 0-16-11-7-10-7-32v-10l1-8 4-38h-27q-7 72-11 86-5 14-15 14a13 13 0 01-9-4 12 12 0 01-4-9q0-6 9-15 8-10 9-18l7-54h-11a20 20 0 00-10 2 17 17 0 00-6 5l-5 8h-4q6-18 14-27 8-8 19-8h88v20h-30l-2 28v28q0 9 4 15t11 6q4 0 9-3a12 12 0 005-9v-4-2z" fill="#3b8070"/><path d="M654 168q0 18-9 29-8 11-19 11-9 0-16-11-7-10-7-32v-10l1-8 4-38h-27q-7 72-11 86-5 14-15 14a13 13 0 01-9-4 12 12 0 01-4-9q0-6 9-15 8-10 9-18l7-54h-11a20 20 0 00-10 2 17 17 0 00-6 5l-5 8h-4q6-18 14-27 8-8 19-8h88v20h-30l-2 28v28q0 9 4 15t11 6q4 0 9-3a12 12 0 005-9v-4-2z" opacity=".1"/><path d="M654 165q0 18-9 28-8 11-19 11-9 0-16-10-7-11-7-33v-9l1-9 4-38h-27q-7 73-11 86-5 14-15 14a13 13 0 01-9-4 12 12 0 01-4-9q0-5 9-15 8-9 9-17l7-55h-11a20 20 0 00-10 3 17 17 0 00-6 5l-5 7h-4q6-17 14-26t19-9h88v20h-30l-2 28v28q0 10 4 15 4 6 11 6 4 0 9-3a12 12 0 005-9v-4-1z" fill="#3b8070"/></svg>