<svg data-name="Layer 1" xmlns="http://www.w3.org/2000/svg" viewBox="0 0 1083.9 826.8"><defs><linearGradient id="a" x1="580.6" y1="855.8" x2="580.6" y2="123.3" gradientUnits="userSpaceOnUse"><stop offset="0" stop-color="gray" stop-opacity=".3"/><stop offset=".5" stop-color="gray" stop-opacity=".1"/><stop offset="1" stop-color="gray" stop-opacity=".1"/></linearGradient></defs><path d="M1084 722c-10-14-5-37-5-37s-3-101-19-125c0 0-23-54-27-57s-27-18-24-27l-9 3v-1l-5-13a2 2 0 001 0c2 3 5 4 8 4a7 7 0 004 0 5 5 0 002-3l-1 1a9 9 0 002-6 19 19 0 00-8-14 7 7 0 002-2h1a9 9 0 000-1 8 8 0 010 1 8 8 0 002-7l-4 2h-2a55 55 0 004-9c2-7 1-14 0-21-3-9-6-19-14-25a54 54 0 00-11-6 59 59 0 00-11-4l-12-2c-8-1-15-4-23-4s-16 2-20 8a11 11 0 00-2 7v1c1 4 4 7 8 9a18 18 0 002 0 46 46 0 0010 78l1 3c6 12 14 29 16 41 0 1-29 52-25 55l-1 1c-7 9-15 18-15 22l-6-3v-2h-6c-13-6-34-16-38-22s-28-24-39-32v-33h-40l-11 7 11-7H645l-10-6-3-1a7 7 0 000-3s-46-44-48-52l-10-15 65 5c-3-2-4-5-5-9h30s66-43 62-57-75 37-75 37h-13l1-3s-35-1-37-3-19-7-19-7l9-41 12-20 1-12v-1c11-9 6-45 6-45a94 94 0 0120-19l2-1a53 53 0 0074-32l1-2 2 1a7 7 0 002 0 3 3 0 003-1v-4a6 6 0 011-4 11 11 0 014-3l7-3a15 15 0 007-11v-2a22 22 0 00-4-12c-3-5-7-4-11-6-3-2-3-5-5-7a33 33 0 00-10-10l-19-10c-9-5-16-12-26-16a77 77 0 00-14-3h-9c-4 0-7 3-11 5-8 5-19 4-26 10-8 6-10 16-12 26-3 17-6 34-14 48a3 3 0 00-1 2 3 3 0 001 2 37 37 0 004 3h-1a23 23 0 01-7-7 7 7 0 00-10-1l-1 1c-1 2-70 27-84 42-14 14-30 35-30 35l-3 3a429 429 0 01-51 47 181 181 0 01-17 10l-2 1a10 10 0 00-1 1c-4 2-7 3-9 2-6-1-50 51-54 74s-9 24-9 24-8 21-6 25c0 3-6 14-7 25-24 0-117 1-197 6a184 184 0 00-8 21l-1 2a124 124 0 00-3 13 93 93 0 00-1 35c3 20 14 37 24 54l18 31a216 216 0 0013 19l1 2v1l2 2 21 29 5 5 17 18v1a2 2 0 001 0 277 277 0 0025 21c8-9 20-19 20-19l56-48a77 77 0 0110-8h6c7 7 19 13 32 18a107 107 0 004 12h10s5 28 2 36 0 45 27 54c0 0 14 3 16-12l3-45 4-29c36 5 67 7 67 7l4 36h37l1 1 2 2h1c14 10 24 22 31 33a254 254 0 01115-19l10-14 2-3h22l1 20 34 5 11 2v-27l61-2a38 38 0 001 10c2 6 2 18 2 31l20 6 49 17-2-6c-2-3 15-7 15-7l4-1v21l14 6v-4l3 5 3 1 15 6 130-1v10a112 112 0 0014-6v-4l8-1h4v-22h5v-9l-22-22c12-8 26-24 24-51v-1-1c5 2 15-4 6-17zm-138-70l-2 9c-2 5-3 16 3 18s6 14 6 15c-1 1-10 4-14 9h-21a506 506 0 00-65 3l39-51a4 4 0 010 1c2 6 30 2 34-7a15 15 0 014-4zM745 524l-32 20 32-20zm-338-22l2-4 3 1 7 3zm187 0h-18c-5-13-14-33-31-37l-54-15s-9-10-14-12a4 4 0 00-3 0l9-18a87 87 0 0114-10l6-3 5-2 1 12 11 14 74 71zm8-219l1-2 8-12zm124 293v125l1-2-1 2v46zm171 234z" transform="translate(-58 -37)" fill="url(#a)"/><path d="M1074 695c-10 43-30 87-66 111l-4 3-6 3-1 1a111 111 0 01-14 6c-34 13-74 9-109-2a386 386 0 01-35-12l-3-1-2-1-14-6-17-7a567 567 0 00-132-35l-11-2a1464 1464 0 00-68-8 253 253 0 00-114 18c-51 20-100 49-153 44a534 534 0 01-176-81 272 272 0 01-25-21h-1v-1h-1l-16-18-5-5-21-29-2-3-1-2-13-19-18-30c-10-17-20-35-23-54a93 93 0 010-35 127 127 0 014-13v-2a180 180 0 019-20c21-46 60-90 59-140-2-39-26-73-45-107s-32-78-10-111c18-27 54-36 87-40a789 789 0 01101-7c25 0 50 6 75 7 30 1 64-13 94-21l102-25C557 15 616 0 676 0s122 15 168 54c15 14 29 30 35 50 13 40-7 86 5 127 11 35 44 58 71 83a400 400 0 01119 381z" fill="#3b8070" opacity=".1"/><path fill="#3a3768" d="M829 735l-4 3 8 61 21 11 154-1-3-36-176-38z"/><path d="M834 803l-15-6v-29l13 6 1 25z" fill="#3a3768"/><path d="M834 803l-15-6v-29l13 6 1 25z" opacity=".1"/><path d="M997 813a111 111 0 01-14 6v-29l13 6v13z" fill="#3a3768"/><path d="M997 813a111 111 0 01-14 6v-29l13 6v13z" opacity=".1"/><path d="M1008 783v26h-4l-150 1-15-5-3-31z" fill="#3a3768"/><path d="M839 805l-3-1-3-5-12-23-2-3-3-6 9-29 11 35v1l1 8z" fill="#3a3768"/><path fill="#3a3768" d="M819 720h138l57 58-178-4-17-54z"/><path fill="#3a3768" d="M1014 778v8l-177-4-1-8 178 4z"/><path opacity=".1" d="M1014 778v8l-177-4-1-8 178 4z"/><path d="M889 667s-29 1-32 0-49 2-52 2l-37 2-2 54 119-19z" fill="#f3b4b3"/><path d="M889 667s-29 1-32 0-49 2-52 2l-37 2-2 54 119-19z" opacity=".1"/><path fill="#3a3768" d="M617 612l135 31 5 83H599l18-114z"/><path fill="#3a3768" d="M720 467l-97 56 24 70 5 91 70-15 35-72 31-44-28-53-40-33z"/><path d="M159 533s-33-69-16-126a115 115 0 00-3-72 193 193 0 00-15-32" fill="none" stroke="#535461" stroke-miterlimit="10" stroke-width="2"/><path d="M135 267c2 9-10 37-10 37s-20-23-22-32a16 16 0 0132-5zM169 311c-3 9-28 26-28 26s-5-30-1-39a16 16 0 1129 13zM182 395c-7 5-38 7-38 7s12-28 19-33a16 16 0 0119 26zM177 460c-6 7-36 14-36 14s7-30 13-36a16 16 0 0123 22zM107 344c8 5 38 7 38 7s-12-28-19-34a16 16 0 10-19 27zM103 420c8 3 38-5 38-5s-20-23-29-25a16 16 0 00-9 30zM108 495c8 4 39 2 39 2s-16-26-24-30a16 16 0 00-15 28z" fill="#3b8070"/><path d="M135 267c2 9-10 37-10 37s-20-23-22-32a16 16 0 0132-5zM169 311c-3 9-28 26-28 26s-5-30-1-39a16 16 0 1129 13zM182 395c-7 5-38 7-38 7s12-28 19-33a16 16 0 0119 26zM177 460c-6 7-36 14-36 14s7-30 13-36a16 16 0 0123 22zM107 344c8 5 38 7 38 7s-12-28-19-34a16 16 0 10-19 27zM103 420c8 3 38-5 38-5s-20-23-29-25a16 16 0 00-9 30zM108 495c8 4 39 2 39 2s-16-26-24-30a16 16 0 00-15 28z" opacity=".3"/><path d="M159 530s-57-49-65-108a115 115 0 00-32-65 193 193 0 00-27-23" fill="none" stroke="#535461" stroke-miterlimit="10" stroke-width="2"/><path d="M30 297c5 8 5 38 5 38S8 322 3 315a16 16 0 1127-18zM79 324c0 9-16 35-16 35s-16-26-16-35a16 16 0 1132 0zM124 395c-4 8-31 22-31 22s-1-30 3-38a16 16 0 0128 16zM146 457c-3 8-27 27-27 27s-6-30-3-39a16 16 0 0130 12zM36 379c8 1 37-10 37-10s-23-20-31-22a16 16 0 00-6 32zM62 450c9-1 33-20 33-20s-27-13-36-12a16 16 0 103 32zM98 517c9 0 35-15 35-15s-24-17-33-18a16 16 0 00-2 33z" fill="#3b8070"/><path d="M671 712v43l-11-2-33-5-2-20v-2l-1-24 43 9h1z" fill="#3a3768"/><path d="M671 712v43l-11-2-33-5-2-20v-2l-1-24 43 9h1z" opacity=".1"/><path d="M618 708l-13 18-1 2-2 3-10 14a253 253 0 00-114 18 112 112 0 00-39-37 92 92 0 00-22-9zM106 686l24-34 3-3 1-2 11-16-81-3 13 19 1 2 2 3 21 29zM721 467l-11 7-25 15-39 25-3 2 1 29-172 8H282l-51-12-1-1h-1l-11-2-44-12-151-17a127 127 0 014-13v-2a180 180 0 019-20c79-6 170-7 194-7h6z" fill="#3a3768"/><path d="M618 708l-201 9a93 93 0 0130 14h155zM145 631l-11 16-1 2-2 3H80l-2-3-1-2-13-19 81 3z" opacity=".1"/><path d="M667 516v212H407l-4-36s-31-2-67-7l-6-1-26-6h-2l-9-2a276 276 0 01-21-7c-14-5-25-11-33-18h-5l-62-1h-3l-36-1H78l-1-2-13-19-18-30c-10-17-20-34-23-54a93 93 0 010-35 127 127 0 014-13h205l7 2 1 1h1c18 5 56 16 66 16h17l89 1h230z" fill="#3a3768"/><path d="M667 514v212H407l-4-36s-31-1-67-7l-3-1-27-5h-1l-1-1h-2l-9-2-10-3-12-4c-13-5-25-11-32-18h-2l-64-1h-2l-37-1H77l-13-19-18-30c-10-17-20-34-23-54a93 93 0 010-35 127 127 0 014-13v-2h205l7 2 1 1h1c19 6 56 16 66 16h18l90 1h231z" opacity=".1"/><path d="M667 516v212H407l-4-36s-31-2-67-7l-6-1-26-6h-2l-9-2a276 276 0 01-21-7c-14-5-25-11-33-18h-5l-62-1h-3l-36-1H78l-1-2-13-19-18-30c-10-17-20-34-23-54a93 93 0 010-35 127 127 0 014-13h205l7 2 1 1h1c18 5 56 16 66 16h17l89 1h230z" opacity=".1"/><path fill="#3a3768" d="M721 467v33l-54 41-24-25 78-49z"/><path opacity=".1" d="M721 467v33l-54 41-24-25 78-49z"/><path fill="#3a3768" d="M749 504l-28-4-54 41v21l82-58z"/><path fill="#3a3768" d="M760 467v70l18 20-111 108V562l82-58-28-4v-33h39z"/><path opacity=".1" d="M760 467v70l18 20-111 108V562l82-58-28-4v-33h39z"/><path opacity=".1" d="M767 557l73-4-5 59-85 113 2-82h-65l80-86z"/><path fill="#3a3768" d="M769 557l73-4-5 59-85 113 2-82h-65l80-86z"/><path opacity=".1" d="M817 591h-37l-48 52h23v17l62-69z"/><path opacity=".1" d="M814 591h-37l-47 52h23l-1 17 62-69z"/><path fill="#dce6f2" d="M816 591h-38l-47 52h23v17l62-69z"/><path opacity=".1" d="M753 724l-85 2v-62l22-22h65l-2 82z"/><path fill="#3a3768" d="M752 725l-85 3v-63l22-22h65l-2 82z"/><path opacity=".1" d="M752 725l-85 3v-63l22-22h65l-2 82z"/><path d="M992 756a59 59 0 01-14 8l-110 6-32 3-4 1-11 2h-2l-4 1s-16 3-14 6l2 7a567 567 0 00-69-23l-1-31a37 37 0 01-2-10v-2l4-11c0-3 7-5 15-7l2-1h1l14-3 1-1a25 25 0 002-1h1c7-5 84-17 91-19s15-10 15-10a9 9 0 011-4c4-5 13-8 14-8l7-6s29-5 59 0l6 1a96 96 0 0123 8c9 4 16 9 21 17a42 42 0 016 13 84 84 0 011 11v2c2 27-12 43-23 51z" fill="#f3b4b3"/><path d="M605 387h-37l6-20h19s70-50 74-37-62 57-62 57zM665 489c-6 11-89-3-89-3l-22-22 14-8 9 6 10 5s85 11 78 22zM419 596l-14 8-32 19c-9 4-17 17-28 28-6 6-9 16-11 23a72 72 0 00-1 8l-16 7-24-2v-41s3-16 10-17a6 6 0 001-1c7-2 19-17 29-22 8-5 14-20 17-25v-2l29-15z" fill="#ffcace"/><path d="M419 596l-14 8c-10-6-22-14-26-20-8-9-24-5-29-4v-1l29-15z" opacity=".1"/><path d="M521 478s-4 8-4 11-21 25-21 25l-41 47s-15 11-14 23-14 30-14 30-37-21-46-32c-9-10-30-4-31-3 2-2 62-64 74-74s0-11 0-15a443 443 0 00-91-33l22-49 37-10s21 7 26 6a4 4 0 012 0c5 2 14 11 14 11s29 10 54 15 33 48 33 48z" fill="#575988"/><path d="M334 674a72 72 0 00-1 8l-16 7-24-2v-41s3-16 10-17a6 6 0 001-1c-17 8 0 49 0 49 17-15 26-9 30-3z" opacity=".1"/><path d="M336 682l-3 31s-1 32-3 46-16 12-16 12c-27-10-31-47-27-54s-2-36-2-36h-10s-6-16-6-31c0-5 4-9 10-13 10-5 24-8 24-8-18 8 0 50 0 50 25-22 33 3 33 3z" fill="#575988"/><path d="M579 387h-11l6-20h8c-2 4-4 13-3 20z" opacity=".1"/><path d="M544 249l10-13s4 36-7 45l-13 33-9 40s18 4 19 7 37 3 37 3-10 26 0 32l-81-6-19-14 15-84 22-32z" fill="#575988"/><path d="M544 249l10-13s4 36-7 45l-13 33-9 40s18 4 19 7 37 3 37 3-10 26 0 32l-81-6-19-14 15-84 22-32z" opacity=".1"/><path d="M892 620l-93-45s-33 36-38 13 17-37 17-37l157 37z" fill="#ffcace"/><path d="M892 620l-93-45s-33 36-38 13 17-37 17-37l157 37z" opacity=".1"/><path d="M496 326l-14 18-2 2-12 17-21 10-7 3a86 86 0 00-13 10l-5 4-17 3s-117-64-89-76c7-3 14-7 21-13 20-15 41-37 48-44l3-3 17-10 54 48zM592 208a48 48 0 00-19 9c-11 8-21 20-28 31a187 187 0 00-15 28s-76-100-30-91a98 98 0 0020 1 62 62 0 0025-5c11-5 16-12 16-12s68 33 31 39zM942 455s-53 50-52 33a30 30 0 00-1-7 209 209 0 00-24-57s67-29 64-19c-1 3 0 10 2 17l7 22 4 11z" fill="#ffcace"/><path d="M592 208a48 48 0 00-19 9c-13-6-14-19-18-33l1-10c11-5 5-5 5-5s68 33 31 39z" opacity=".1"/><path d="M651 169a52 52 0 11-53-52 52 52 0 0153 52z" fill="#ffcace"/><path d="M496 326l-14 18-2 2h-1c-7 1-12-2-14-10a54 54 0 00-8-14l-6-7c-22-25-60-51-66-55l3-3 17-10 54 48zM545 248a187 187 0 00-15 28s-76-100-30-91a98 98 0 0020 1c5 5 12 22 16 32a74 74 0 013 15c1 6 5 13 6 15z" opacity=".1"/><path d="M546 293l-14 24a191 191 0 01-22 16l-8 5c-7 3-14 6-20 6s-12-2-14-10a54 54 0 00-8-14l-6-7c-23-27-66-56-66-56 0-1 15-21 29-36 15-14 82-39 84-42a6 6 0 0110 1 23 23 0 007 6c5 3 12 22 16 33a73 73 0 014 15c1 7 6 15 6 15s6 36 2 44z" fill="#575988"/><path d="M577 462c-2 4-8 8-14 11l-9-9 14-8zM514 282l-12 56c-7 3-14 6-20 6l-14 19-21 10v-5a199 199 0 017-51l1-4a1168 1168 0 0011-48c5-25 28-21 28-21 26-3 20 38 20 38z" opacity=".1"/><path d="M521 285l-11 48-8 5c-7 3-14 6-20 6s-12-2-14-10a54 54 0 00-8-14v-1l13-51c5-26 28-22 28-22 26-3 20 39 20 39z" opacity=".1"/><path d="M499 244s-23-4-28 21l-13 51a199 199 0 00-7 53c0 7 0 12 2 14l10 13 84 82s30-9 27-20c0 0-46-44-48-53 0 0-26-35-24-44l17-79s6-41-20-38z" fill="#575988"/><path d="M428 383l-1 3-5 4-17 3s-117-64-89-76c7-3 14-7 21-13 20 1 47 22 47 22 24 15 44 57 44 57zM420 404l-25 6-39 55-23-8 22-49 37-10s21 7 26 6a4 4 0 012 0z" opacity=".1"/><path d="M106 686l16 18h1v1h1a272 272 0 0024 21c8-9 20-19 20-19l55-48a76 76 0 0111-8l3-2a38 38 0 013-2c9-3 17-25 17-25l42-56 6-13 19-38 1-2 16-32 10-14 2-3 38-54 27-6 9-18s-20-43-44-58c0 0-29-22-48-22h-1a177 177 0 01-17 11l-2 1c-4 2-7 3-9 2-6-1-50 51-54 73s-9 24-9 24-7 21-6 25c1 3-5 14-7 25a26 26 0 001 11 42 42 0 011 16v2a46 46 0 01-5 16c-3 5-5 17-8 25l-6 10c-6 5-15 28-15 28s-20 26-25 27c-4 2-19 18-28 29l-9 9-5 6-2 2-2 4-26 29z" fill="#575988"/><path d="M331 321a1148 1148 0 01-28 24c-8 6-34 52-35 54l-11 44a372 372 0 01-16 54v2l-3 13-7 29-17 63c0 1-6 14-14 17-3 1-13 11-27 27l-1 2-48 55h-1c14-17 32-39 47-55l2-2c14-16 25-27 27-28 9-3 14-16 14-16l17-64 7-29 3-13v-1c2-10 5-21 7-22l3-8 6-24 11-45c1-2 27-48 36-54l13-12 13-12h1z" fill="#575988"/><path d="M330 321l-13 11-15 13c-8 6-34 52-35 54l-11 44a374 374 0 01-16 54v1l-3 14-7 28-17 64c0 1-6 14-14 17-3 1-13 11-27 27l-1 1-48 56v-1h-1l47-55 2-1c14-16 24-27 27-28 8-3 14-16 14-16l17-64 7-29 3-13v-2c2-9 5-20 7-21l3-8 6-24 11-45c1-2 27-48 36-54a304 304 0 0027-24z" fill="#dce6f2"/><path d="M375 353s-13 30-3 40zM394 370s-8 20-3 23zM404 381s-3 11 0 15zM229 603s27-9 27-4-27 4-27 4zM224 629s15 7 18 0-18 0-18 0zM443 553s-30 5-31 11 31-11 31-11zM428 419s-13 14-11 19 11-19 11-19zM651 169a52 52 0 01-2 15 5 5 0 00-4 0 7 7 0 01-2 4l-7-8a2 2 0 00-1-1l-2 1c-2 1-5 1-8-1l-6-5a13 13 0 00-15 2 33 33 0 00-5 6 25 25 0 01-8 7 12 12 0 01-10 1 20 20 0 00-3-1c-4-1-7 2-9 4s-5 6-8 6c-7-1-6-13-12-15h-1a52 52 0 11103-15z" opacity=".1"/><path d="M645 120l-19-10c-8-5-16-12-25-16a77 77 0 00-15-3h-8l-11 5c-8 5-19 4-26 10-8 6-10 16-12 26-2 17-5 33-14 48a3 3 0 00-1 2 3 3 0 001 2c6 4 13 8 19 5l7-5c3-2 5-3 7-2 7 2 6 14 13 14 3 1 6-2 8-5s5-6 9-5a21 21 0 013 2c3 1 7 0 10-1a25 25 0 008-8 33 33 0 015-6 13 13 0 0115-1l6 5c2 2 6 2 8 1l2-1a2 2 0 011 1l7 8a7 7 0 002-4c2-1 4 0 6 1s4 0 5-1v-5c0-2 2-4 5-6l7-3c5-3 7-8 7-13a22 22 0 00-4-12c-3-5-7-4-11-6-3-2-3-5-5-7a33 33 0 00-10-10z" fill="#ffdfcf"/><path d="M923 418c-8 13-15 26-31 26a46 46 0 01-19-4l-8-16s67-29 64-19c-1 3-8 6-6 13z" opacity=".1"/><circle cx="891.7" cy="395.4" r="46.3" fill="#ffcace"/><path d="M1015 705a3 3 0 01-1-1c-3-6-52-13-52-13l-11-20s-26 2-30-3-30-6-29-7a13 13 0 000-2l7-6s102-15 114 39a81 81 0 012 13zM942 455s-53 50-52 33a30 30 0 00-1-7v-1s13-14 17-20c2-5 21-12 32-16l4 11z" opacity=".1"/><path d="M947 442s-38 13-41 19-17 21-17 21l-12 52 7 73s2 13-1 18-3 16 2 19 7 13 7 15 24 2 29 7 30 3 30 3l11 19s49 8 52 13 18 0 8-15-5-37-5-37-3-100-19-124c0 0-23-54-27-56s-26-19-24-27z" fill="#dce6f2"/><path d="M947 614s67 54 63 64-63-64-63-64zM951 646s39 20 34 33zM904 597s21-1 22 3zM899 614s31 8 31 12z" opacity=".1"/><path d="M927 565l-35 32s-23 9-27 17-32 12-33 6-44-40-44-40-22-20-28-36-25-27-25-27-60-17-51-39 71 19 71 19 38 27 44 35 49 27 49 27c0-4 8-14 15-22l14-14 50 42z" fill="#ffcace"/><path d="M953 699s32 38 30 46-30-46-30-46zM766 735c0 2 3 14 18 22zM798 746s-1 15 10 19-10-19-10-19z" opacity=".1"/><path d="M949 426a19 19 0 00-8-14 8 8 0 005-9l-4 2-2 1a54 54 0 004-10c2-6 1-13 0-20-3-10-6-19-14-25a53 53 0 00-11-6 57 57 0 00-11-4l-11-2c-8-1-15-4-23-4s-16 2-20 8a11 11 0 00-2 7c0 4 4 7 8 9l11 3 14 5c2 1 5 1 7 3 3 3 3 7 4 11a48 48 0 006 17l3 6c0 3-1 6 1 8 2 1 4 0 6-1l5-3 7 2a13 13 0 015 11v7c0 2 3 3 5 2 2 3 5 4 8 4a7 7 0 004 0c2-2 3-5 3-8z" fill="#ffdfcf"/><path d="M285 681h-10s-6-16-6-31c0-5 4-9 10-13z" opacity=".1"/><g opacity=".1"><path d="M531 127l1-6a97 97 0 00-3 11l-3 20a247 247 0 005-25zM669 163l-7 4c-2 1-5 3-5 6a11 11 0 000 1 10 10 0 014-3l7-3a15 15 0 007-12 14 14 0 01-6 7zM652 178l-5-1a7 7 0 01-3 5l-7-9a2 2 0 00-1-1l-2 1c-2 2-5 1-8-1l-6-5a13 13 0 00-15 2 33 33 0 00-5 6 25 25 0 01-8 7c-3 2-7 2-10 1a21 21 0 00-3-1c-3-1-6 2-9 5s-5 5-8 5c-7-1-6-12-12-15-3 0-6 1-8 3l-7 5c-6 2-13-2-18-6a5 5 0 01-1-1l-1 2a3 3 0 00-1 2 3 3 0 002 2c5 4 12 8 18 5l7-5c3-2 5-3 8-2 6 2 5 13 12 14 3 1 6-2 8-5s5-6 9-5a20 20 0 013 2c3 1 7 0 10-1a25 25 0 008-8 33 33 0 015-6 13 13 0 0115-1l6 5c2 2 6 2 8 1l2-1a2 2 0 011 0l7 9a7 7 0 002-4c2-1 4 0 6 1s4 0 5-1v-4a5 5 0 01-4 0z"/></g><path d="M927 564a22 22 0 01-2 2s-53-28-62-29l14-14z" opacity=".1"/><path d="M929 469s47 31 31 59-31 38-31 38-55-30-62-29 24-54 24-54z" opacity=".1"/><path d="M927 468s47 31 30 59-30 38-30 38-55-30-62-29 24-54 24-54z" fill="#dce6f2"/><g opacity=".1"><path d="M944 432c-3 0-6-1-7-3l-1-1c-1 1-4 0-5-2v-7a13 13 0 00-4-10c-2-2-5-3-7-3l-6 3c-2 1-4 2-5 1-2-2-1-5-2-8 0-2-1-4-3-5a48 48 0 01-6-17c-1-4-1-9-4-11l-7-4-13-5-12-3c-4-2-7-5-8-9a11 11 0 012-6 13 13 0 011-2 15 15 0 00-3 4 11 11 0 00-2 6c1 5 4 8 8 9l12 3 13 5 7 4c3 3 3 7 4 11a48 48 0 006 17l3 6c0 2-1 5 1 7h6c2-1 3-3 6-3 2-1 5 0 6 2a13 13 0 015 10v7c0 2 4 4 5 2a5 5 0 000 1l8 4a7 7 0 004-1 5 5 0 002-2 8 8 0 01-4 0zM943 410l1 1a8 8 0 000-1 7 7 0 01-1 0z"/></g><path d="M208 136s37-2 32 24c0 0 1 4-3 6 0 0 0-2-4-1a17 17 0 01-4 0 8 8 0 01-4-2s-11-4-15-21c0 0-3-3-2-4l6 2s-2 5-1 8c0 0 0-8 2-7l3 1s-4 8-1 14c0 0-1-10 2-13l4 2s-4 8-1 15c0 0-1-10 2-14l4 3s-4 8-1 13c0 0 0-11 2-12l4 4s-3 6-1 9l2-8 4 9a19 19 0 00-3-10 10 10 0 015 3s-1-3-6-4l-4-4 9 1s-3-3-10-2l-4-3s8-1 11 0c0 0-4-3-12-1l-4-2 10-1s-4-2-11 0l-3-1 6-1c2 0 1-1 1-1a16 16 0 00-8 1l-7-3zM962 102s36-3 32 23c0 0 1 5-3 7 0 0 0-2-4-2a17 17 0 01-4 1 8 8 0 01-5-2s-10-5-14-21l-3-5 6 3s-2 4 0 8l1-8 4 2s-4 7-1 13c0 0-1-10 2-13l4 3s-4 8-1 14c0 0-1-10 2-14l4 3s-4 8-2 14c0 0 1-12 3-13l4 4s-3 6-1 9l2-8s3 5 3 9a19 19 0 00-3-9 10 10 0 016 2s-1-3-7-4l-3-4 9 1s-3-3-10-2l-4-3s7-1 10 1c0 0-3-3-11-1l-4-3 10-1s-4-2-11 0l-3-1 5-1h2a16 16 0 00-9 1l-6-3zM382 67s28 24 6 39c0 0-2 4-7 2 0 0 2-1-1-3a17 17 0 01-3-3 8 8 0 01-2-5s-4-10 5-25l1-5 2 6s-4 2-6 6c0 0 6-6 7-5l1 4s-8 2-10 8c0 0 6-7 10-7l2 5s-9 2-12 9c0 0 7-8 12-8v5s-8 2-10 8c0 0 8-8 11-7l-1 6s-6 2-7 5l7-4-3 9a19 19 0 004-9 10 10 0 012 6s2-3-2-7l1-6 5 7s1-4-5-8l-1-5s6 4 7 7c0 0 0-4-7-8l-1-5 7 6s-1-4-7-7l-2-4 5 4 2 1a16 16 0 00-7-6l-3-6zM762 215s28 24 6 39c0 0-2 4-7 2 0 0 2-1-1-3a16 16 0 01-3-3 8 8 0 01-2-5s-5-10 5-25l1-5 2 6s-4 2-6 6c0 0 6-6 7-5l1 4s-8 3-10 8c0 0 6-7 10-7l2 5s-9 2-12 9c0 0 7-8 12-8v5s-8 2-10 8c0 0 8-8 10-7v6s-6 2-7 5c0 0 6-5 7-4l-3 9a19 19 0 004-9 10 10 0 012 6s2-3-2-7l1-6 5 7s1-4-5-8l-1-5s6 4 7 7c0 0 0-4-7-8l-1-5 7 6s-1-4-8-7l-1-4 5 4 1 1a16 16 0 00-6-6l-3-6zM1058 69s27 25 6 40c0 0-3 4-7 2 0 0 1-1-2-3a17 17 0 01-3-3 8 8 0 01-2-5s-4-10 5-25l1-5 3 6s-5 2-7 6c0 0 6-6 7-5l1 3s-8 3-10 9c0 0 6-7 11-7l1 4s-9 3-12 10c0 0 7-8 12-8l1 4s-9 3-11 9c0 0 9-8 11-7l-1 5s-6 3-7 6l7-4-3 9a19 19 0 004-9 10 10 0 012 6s2-3-2-7l1-6 5 7s1-4-5-8l-1-5s6 4 8 7c0 0-1-5-8-9l-1-4 7 6s-1-4-8-8l-1-3 5 4h2a16 16 0 00-7-5l-2-7zM345 178s-3 36-28 29c0 0-4 0-6-4 0 0 2 0 2-4a17 17 0 010-4 8 8 0 013-5s6-9 23-11l5-2-4 6s-4-3-8-2c0 0 8 1 8 3l-2 3s-7-5-13-3c0 0 9 0 12 4l-3 4s-7-6-14-4c0 0 10 1 13 4l-3 4s-8-5-13-3c0 0 11 1 12 4l-5 3s-5-3-8-2l7 3-9 2a19 19 0 009-1 10 10 0 01-3 4s4 0 5-5l4-3s0 5-2 9c0 0 4-3 3-10l4-3s0 7-2 10c0 0 4-3 3-11l3-4-1 10s3-4 2-11l1-3 1 6v1a16 16 0 000-8l4-6zM765 137s-3 36-28 29c0 0-4 0-6-4 0 0 2 0 2-4a17 17 0 010-4 8 8 0 013-5s6-9 23-11l5-2-4 6s-4-3-8-2c0 0 8 1 8 3l-2 3s-7-5-13-3c0 0 9 0 12 4l-3 4s-7-6-14-4c0 0 10 1 13 4l-3 4s-8-5-13-3c0 0 11 1 12 4l-5 3s-5-3-8-2l7 3-9 2a19 19 0 009-1 10 10 0 01-3 4s4 0 5-5l4-3s0 5-2 9c0 0 4-3 3-10l4-3s0 7-2 10c0 0 4-3 3-11l3-4-1 10s3-4 2-11l1-3 1 6v1a16 16 0 000-8l4-6zM1006 1s-3 36-27 29c0 0-5 0-7-4 0 0 2 0 2-4a17 17 0 010-4 8 8 0 013-4s6-10 23-12l5-2-4 6s-4-3-8-2c0 0 8 1 8 3l-2 3s-7-5-13-3c0 0 9 0 12 4l-3 4s-7-6-14-4c0 0 10 1 13 4l-3 4s-7-5-13-3c0 0 11 2 12 4 0 0-3 3-5 3 0 0-5-3-8-2l7 3s-5 3-9 2a19 19 0 0010-1 10 10 0 01-4 5s4 0 5-6l4-3s0 6-2 9c0 0 4-3 3-10l4-3s0 7-1 10c0 0 3-3 2-11l3-4v10s2-4 1-11l2-3v7a16 16 0 000-8l4-6z" fill="#3b8070" opacity=".1"/><path fill="none" stroke="#000" stroke-miterlimit="10" opacity=".1" d="M773 597l36 2M767 604l36 1M761 610l36 2M756 617l35 1M750 623l36 1M744 629l36 2M738 636l36 1M732 642l36 2"/></svg>