<svg data-name="Layer 1" xmlns="http://www.w3.org/2000/svg" xmlns:xlink="http://www.w3.org/1999/xlink" viewBox="0 0 1099.2 725.8"><defs><linearGradient id="a" x1="837" y1="580.8" x2="989.7" y2="580.8" gradientTransform="matrix(-1 0 0 1 1862 0)" gradientUnits="userSpaceOnUse"><stop offset="0" stop-color="gray" stop-opacity=".3"/><stop offset=".5" stop-color="gray" stop-opacity=".1"/><stop offset="1" stop-color="gray" stop-opacity=".1"/></linearGradient><linearGradient id="b" x1="-106.9" y1="588.7" x2="-106.9" y2="244.3" gradientTransform="matrix(-1 -.04 -.04 1 494 21)" xlink:href="#a"/></defs><circle cx="985.6" cy="371.1" r="21.6" fill="#3b8070" opacity=".1"/><circle cx="1063" cy="274.6" r="36.3" fill="#3b8070" opacity=".1"/><circle cx="455.3" cy="27.8" r="21.6" fill="#3b8070" opacity=".1"/><circle cx="703.4" cy="52.6" r="21.6" fill="#3b8070" opacity=".1"/><circle cx="36.3" cy="326.2" r="36.3" fill="#3b8070" opacity=".1"/><path d="M608 120c-65-3-126-25-185-50S306 19 243 5c-41-8-87-9-120 14-32 23-42 62-47 98-5 27-7 55 4 81 8 18 22 32 32 49 33 59 10 132-27 189-17 27-36 52-50 81s-19 62-7 91c11 29 38 51 68 66 59 31 130 40 198 45a4348 4348 0 00625-12c31-5 63-13 85-33 28-25 35-68 16-100-31-53-120-66-142-123-12-32 0-67 18-96 38-62 103-117 106-188 2-49-29-99-76-122-50-24-119-21-156 19-38 42-105 58-162 56z" fill="#3b8070" opacity=".1"/><path d="M872 483a6 6 0 002 3 20 20 0 005 5v5a167 167 0 0030 32 10 10 0 004 2h1a4 4 0 01-2 1 4 4 0 004 3 7 7 0 003-1l6-4a18 18 0 003-2l3-4c2-2 5-3 6-6l2-5 1-3a12 12 0 000-2h1l1 1-1 2 2 3 1 4v15a3 3 0 00-3 2 10 10 0 000 5 6 6 0 00-3 6 1 1 0 010 1 6 6 0 00-4 5 3 3 0 010 1 3 3 0 01-1 1 7 7 0 00-2 5 4 4 0 001 3h1a18 18 0 00-6 12 47 47 0 000 12h1a5 5 0 000 2 24 24 0 012 8 8 8 0 001 3 11 11 0 001 2l2 7a58 58 0 002 9c2 5 4 9 3 13a13 13 0 000 4 9 9 0 001 3l2 3a3 3 0 000 2l1 1v1a10 10 0 010 1v2a2 2 0 010 1 4 4 0 01-1 0 2 2 0 000 1 2 2 0 000 1l1 4v1l1 2v3l1 1v2l1 3c4 12 8 24 10 36a4 4 0 001 2 8 8 0 003 1l1 5-1 11a1 1 0 00-1 0 31 31 0 00-2 2l-5 5a8 8 0 00-1 2 5 5 0 000 3 5 5 0 002 3 4 4 0 011 1 2 2 0 001 0 36 36 0 008-1 6 6 0 003-2 6 6 0 001-2l1-2a30 30 0 002-5 10 10 0 000-5 1 1 0 00-1 0l1-4v-2 12a14 14 0 000 2c0 4 1 8 4 10a5 5 0 002 1 6 6 0 002 0 21 21 0 006-1 8 8 0 004-5 10 10 0 001-3 12 12 0 00-1-3 25 25 0 00-1-4 36 36 0 01-2-5l-1-4-1-2a4 4 0 00-1-2l-1-1a36 36 0 001-4l-3-5a11 11 0 01-1-3h-1a2 2 0 011-1l2 1c-2-12-1-24-5-35-2-5-6-10-6-15a4 4 0 011-7l2-1a4 4 0 000-1 205 205 0 0110-30l3-6 3-7 4-9c1-3 2-6 1-9l-1-3a22 22 0 011-3 6 6 0 000-2l-1-3a18 18 0 012 0c1-1 0-2-1-3a9 9 0 01-1-3l-1-10a18 18 0 010-4l1-5 1-8a39 39 0 011-8v-1a6 6 0 002 0h2a24 24 0 01-1-2v-1-1l-1-1v-1-1a9 9 0 002 1l5 11a3 3 0 001-2 6 6 0 000 1 11 11 0 003 2 6 6 0 002 1 5 5 0 004-1c3-3 4-7 6-10a75 75 0 004-15c1-6 0-11 2-17l-4-8a38 38 0 01-2-5 17 17 0 01-1-11 2 2 0 00-2 0 4 4 0 00-1 1 14 14 0 00-1 7 3 3 0 010 2 2 2 0 01-2 0 15 15 0 01-4 0 38 38 0 00-12-1 9 9 0 00-1-1v-1h-1a5 5 0 010-1 3 3 0 01-1-1 2 2 0 010-1 3 3 0 010-1l1-1a6 6 0 000-1 7 7 0 000-1v-1-1a9 9 0 000-1 10 10 0 00-1-2 14 14 0 000-1 24 24 0 00-3-3v-1h-1a24 24 0 01-2-3 8 8 0 01-1-1v-1a7 7 0 010-1v-1a15 15 0 010-1v-3l1-1v-1-2a15 15 0 000-4 9 9 0 00-1-2 9 9 0 00-1-2 13 13 0 00-5-4 26 26 0 00-5-2h-3c-10-2-21 2-28 10-3 5-6 9-7 15s-1 11 2 16l4 6 3 5a12 12 0 005 5 13 13 0 00-3 0l-3 1h-4c-3 0-5 2-7 4s-4 4-4 7l-2 2a8 8 0 00-1 1v5a10 10 0 01-1 2 60 60 0 01-5 8 13 13 0 01-4 3 6 6 0 01-3 1 21 21 0 01-5-3 31 31 0 01-4-6l3 4-21-36a29 29 0 01-1-5l-1-1a1 1 0 00-1 0 4 4 0 00-1 4 5 5 0 00-4 0 2 2 0 000 3 1 1 0 00-1 2 5 5 0 00-3 0c-1 0-2 2-1 3a3 3 0 00-2 3zm134 5a17 17 0 002 0 30 30 0 016 2 3 3 0 011 1 3 3 0 010 3l-3 7-1 4-1 1v-1a59 59 0 01-2-6l-1-6a29 29 0 00-1-5zm-3-6a2 2 0 011 1 1 1 0 010 1zm-5-7l4 1a4 4 0 012 1 1 1 0 010 2 5 5 0 01-1 0 2 2 0 000 2 22 22 0 00-2-3 14 14 0 00-2-2l-1-1zm-30 228a11 11 0 001 0 11 11 0 000 3z" transform="translate(-50 -87)" fill="url(#a)"/><path d="M922 339c5 1 12 3 14 8v13a9 9 0 000 3 12 12 0 003 5 24 24 0 014 5 9 9 0 010 7 5 5 0 00-1 2c0 2 2 3 3 3 4 4 4 10 4 15a76 76 0 007 32 10 10 0 01-11-1 36 36 0 003 7c-4 1-8-1-10-5l-3-11-4-10a10 10 0 00-2-4 9 9 0 00-2-2 21 21 0 01-8-10l-13 1c-5 0-8-2-11-6l-2-5-4-6c-3-5-4-11-3-16s4-10 8-15c6-8 18-12 28-10z" fill="#3a3768"/><path d="M922 339c5 1 12 3 14 8v13a9 9 0 000 3 12 12 0 003 5 24 24 0 014 5 9 9 0 010 7 5 5 0 00-1 2c0 2 2 3 3 3 4 4 4 10 4 15a76 76 0 007 32 10 10 0 01-11-1 36 36 0 003 7c-4 1-8-1-10-5l-3-11-4-10a10 10 0 00-2-4 9 9 0 00-2-2 21 21 0 01-8-10l-13 1c-5 0-8-2-11-6l-2-5-4-6c-3-5-4-11-3-16s4-10 8-15c6-8 18-12 28-10z" fill="#3f3d56"/><path d="M957 408l1 6a56 56 0 002 6 6 6 0 010 3 6 6 0 01-1 2c-2 4-5 9-6 14v4l-7-13c-2-4-5-8-6-13a25 25 0 010-6 15 15 0 013-8c1-2 6-5 9-4s4 6 5 9z" fill="#f86d70"/><path d="M868 432l-9-5a30 30 0 01-4-6l-8-11c-2-2-4-5-4-8a28 28 0 01-8-18l-1-1a4 4 0 00-2 4 5 5 0 00-3 0v3a1 1 0 00-1 2 5 5 0 00-4 0v3a3 3 0 00-2 3 6 6 0 001 3c3 4 8 6 12 9a27 27 0 013 4l10 15c3 5 6 10 11 14a10 10 0 004 2 4 4 0 004-1l1-5v-7z" fill="#a1616a"/><path d="M901 642a9 9 0 00-1 1 5 5 0 000 4 5 5 0 002 3 5 5 0 011 0 5 5 0 001 1 2 2 0 001 0 36 36 0 007-2 6 6 0 004-1 6 6 0 001-2l1-3a31 31 0 001-5 10 10 0 000-5 2 2 0 000 1 11 11 0 01-2 5 5 5 0 01-1 1 5 5 0 01-3 1 29 29 0 01-5 1 1 1 0 01-1-1 3 3 0 010-2l3-3c0-1-1-2-2-1a28 28 0 00-2 2z" fill="#3f3d56"/><path d="M910 624c0 4 1 9-2 12l-3 4a4 4 0 00-1 2l3 3a9 9 0 005-1 11 11 0 004-2c2-1 2-4 3-7v-6a19 19 0 001-4 19 19 0 00-1-5l-2-4a2 2 0 00-1-1 2 2 0 00-1-1c-1 0-5 1-6 3l1 7z" fill="#ee8e9e"/><path d="M910 624c0 4 1 9-2 12l-3 4a4 4 0 00-1 2l3 3a9 9 0 005-1 11 11 0 004-2c2-1 2-4 3-7v-6a19 19 0 001-4 19 19 0 00-1-5l-2-4a2 2 0 00-1-1 2 2 0 00-1-1c-1 0-5 1-6 3l1 7z" opacity=".1"/><path d="M877 500a5 5 0 001 2 25 25 0 012 8 7 7 0 000 3 12 12 0 001 1c2 3 2 5 2 8a58 58 0 003 9c1 5 4 9 3 13a13 13 0 00-1 3 9 9 0 002 4l1 3 1 3v5a5 5 0 00-1 1 3 3 0 000 1l2 7 1 5c4 13 9 26 11 39 1 2 3 4 5 4a6 6 0 005-1 3 3 0 001-1c2-2 2-5 2-8-1-14-8-26-11-39a76 76 0 01-2-15c-1-16-1-34 4-50 1-3 2-7 0-10-1-2-3-3-5-3a33 33 0 00-26 0 8 8 0 000 1 10 10 0 010 5 6 6 0 00-1 2zM934 628v3a35 35 0 002 6 24 24 0 012 4 12 12 0 010 3 10 10 0 010 3 8 8 0 01-5 4 21 21 0 01-6 1 5 5 0 01-2 0 5 5 0 01-1 0c-3-3-5-6-5-10a12 12 0 011-2c0-1 2 0 1 2h5a19 19 0 002 0l4-1 3-2c1-1-1-2-2-3l-2-9c0-1-1-5 1-4a5 5 0 011 3l1 2z" fill="#3f3d56"/><path d="M892 562v-5-1l13-5v4a76 76 0 002 15c3 13 10 25 11 39 0 3 0 7-3 9a6 6 0 01-5 1c-2 0-4-2-5-4-2-13-7-26-10-39l-4-12a3 3 0 010-1 5 5 0 011-1z" opacity=".1"/><path d="M928 614c1 2 3 3 3 5a31 31 0 010 4 12 12 0 000 3l5 13a4 4 0 010 2 3 3 0 01-2 3l-10 1a5 5 0 01-3-1l-1-4v-13l-1-4a13 13 0 010-7 15 15 0 012-4 13 13 0 014-3l2-1v2a11 11 0 000 1 11 11 0 001 3z" fill="#ee8e9e"/><path d="M903 505a4 4 0 010 3l-1 5a74 74 0 00-3 10l-1 9a66 66 0 00-7 22c0 2 4 4 4 6 0 4-3 5-1 8l-1 4 3 3a24 24 0 014 5c6 10 14 23 12 35a2 2 0 001 2 6 6 0 002 0h1c2-2 2-5 2-8-1-14-8-26-11-39a76 76 0 01-2-15c-1-17-1-34 4-50 1-3 2-7 0-10-1-2-3-3-5-3a33 33 0 00-26 0 8 8 0 000 1 10 10 0 010 5 6 6 0 00-1 2v-3l16 5a37 37 0 018 2 4 4 0 012 1z" opacity=".1"/><path d="M940 476l2 7a6 6 0 010 2 22 22 0 00-1 3l2 3c1 3 0 6-2 9l-4 9-3 7-2 6a204 204 0 00-10 30 4 4 0 01-1 1l-2 1a4 4 0 000 7c-1 5 3 10 5 15 5 11 4 23 5 35l-2-1-2 5c-1 2-5 3-8 2a6 6 0 01-2 0 2 2 0 01-1-2c2-12-6-25-12-35a23 23 0 00-4-5l-3-3c-2-3-3-8-2-12a66 66 0 017-28l1-9a72 72 0 012-10l2-5a4 4 0 000-3 4 4 0 00-2-1 38 38 0 00-8-2l-18-2-1-12a18 18 0 0113-15 3 3 0 012 0 96 96 0 0149 3z" fill="#3f3d56"/><path d="M923 377a9 9 0 001 5 8 8 0 002 2 15 15 0 006 3l4 2c1 1 0 4-1 5-2 3-4 6-8 7l-8 1-6 1a17 17 0 01-16-4l8-8a11 11 0 000-8l-2-7c0-2 3-5 6-6a35 35 0 017-1c1 0 9-2 10-1l-2 4a16 16 0 00-1 5z" fill="#a1616a"/><path d="M923 377a9 9 0 001 5 8 8 0 002 2 15 15 0 006 3l4 2c1 1 0 4-1 5-2 3-4 6-8 7l-8 1-6 1a17 17 0 01-16-4l8-8a11 11 0 000-8l-2-7c0-2 3-5 6-6a35 35 0 017-1c1 0 9-2 10-1l-2 4a16 16 0 00-1 5z" opacity=".1"/><circle cx="913" cy="365.8" r="16.7" fill="#a1616a"/><path d="M922 393l-11 2a42 42 0 01-9 1 24 24 0 00-5 0l-3 1h-4c-2 0-4 2-6 4-2 1-5 4-5 7a2 2 0 000 1 3 3 0 001 0l5 7a25 25 0 005 6l2 1-1 2c-1 1 1 2 2 3v4l1 4v11a3 3 0 00-3 2 10 10 0 000 5 6 6 0 00-3 5 1 1 0 01-1 2 6 6 0 00-3 5 3 3 0 01-1 1 2 2 0 010 1 7 7 0 00-3 5 4 4 0 002 3 31 31 0 008 3 68 68 0 007 1 66 66 0 007 0h40l-1-3a9 9 0 01-1-3l-1-10a18 18 0 010-4l1-5v-8a39 39 0 011-8l3-12a48 48 0 012-6l7-18a2 2 0 000-2l-2-4a29 29 0 00-3-4 14 14 0 00-8-5 15 15 0 00-10 1l-3 2c-2 1-5 3-7 2z" fill="#f86d70"/><path d="M882 404l-4 6a7 7 0 00-1 1l-1 5a9 9 0 01-1 2 62 62 0 01-5 8 13 13 0 01-3 3 5 5 0 01-4 1 3 3 0 011 1 15 15 0 011 10 10 10 0 01-1 3 5 5 0 01-2 2 4 4 0 004 3 7 7 0 002-1l6-4a17 17 0 003-2l3-4 7-6 1-5 1-3a15 15 0 00-1-11l-6-9z" fill="#f86d70"/><path d="M897 356a22 22 0 015-6c3-2 7-4 11-4a11 11 0 015 0c0-4 1-7 4-7 5 1 12 3 14 8v13a9 9 0 000 3 12 12 0 003 5 24 24 0 014 5 9 9 0 010 7 5 5 0 00-1 2c0 2 2 3 3 3 4 4 4 10 4 15a76 76 0 007 32 10 10 0 01-11-1 36 36 0 003 7c-4 1-8-1-10-5l-3-11-4-10a10 10 0 00-2-4 9 9 0 00-2-2c-3-2 2-22 0-26-2 0-5-10-8-20a10 10 0 01-4 0 6 6 0 00-2 0 5 5 0 00-2 1 37 37 0 01-5 2c-3 2-7 2-11 1a11 11 0 012-8z" fill="#3a3768"/><path d="M897 356a22 22 0 015-6c3-2 7-4 11-4a11 11 0 015 0c0-4 1-7 4-7 5 1 12 3 14 8v13a9 9 0 000 3 12 12 0 003 5 24 24 0 014 5 9 9 0 010 7 5 5 0 00-1 2c0 2 2 3 3 3 4 4 4 10 4 15a76 76 0 007 32 10 10 0 01-11-1 36 36 0 003 7c-4 1-8-1-10-5l-3-11-4-10a10 10 0 00-2-4 9 9 0 00-2-2c-3-2 2-22 0-26-2 0-5-10-8-20a10 10 0 01-4 0 6 6 0 00-2 0 5 5 0 00-2 1 37 37 0 01-5 2c-3 2-7 2-11 1a11 11 0 012-8z" fill="#3f3d56"/><g opacity=".1"><path d="M954 432a76 76 0 01-7-32c0-5 0-11-4-15-1 0-3-1-3-3a5 5 0 011-2 9 9 0 000-7 24 24 0 00-4-5 12 12 0 01-3-5 10 10 0 010-3v-13c-2-5-8-7-14-8a3 3 0 012 0c5 1 11 3 14 8v13a9 9 0 000 3 12 12 0 003 5 24 24 0 014 5 9 9 0 010 7 5 5 0 00-1 2c0 2 2 3 3 3 4 4 4 10 4 15a76 76 0 007 32 9 9 0 01-5 1 9 9 0 003-1zM946 438a36 36 0 01-3-7 9 9 0 003 1 37 37 0 002 6 5 5 0 01-4 0 5 5 0 002 0zM916 346a12 12 0 00-3 0 11 11 0 013 0zM904 363a37 37 0 005-2 4 4 0 012-1 5 5 0 012 0 6 6 0 00-2 1 37 37 0 01-5 2 23 23 0 01-8 2 20 20 0 006-2zM917 360a10 10 0 01-2 0 11 11 0 002 0z"/></g><path d="M952 437a6 6 0 002 5 11 11 0 002 2 6 6 0 003 1 5 5 0 003-2c3-2 5-6 6-10a75 75 0 004-14l2-17-3-8a40 40 0 01-3-5 17 17 0 01-1-11 2 2 0 00-1 0 4 4 0 00-1 1 14 14 0 00-2 7 3 3 0 010 2 2 2 0 01-2 0 16 16 0 01-4 0 38 38 0 00-12-1 6 6 0 00-3 0 2 2 0 00-1 2l10 2a4 4 0 012 0 1 1 0 010 2 4 4 0 010 1 2 2 0 000 3 2 2 0 011 1l-1 2a2 2 0 001 2 9 9 0 003 1 30 30 0 016 2 3 3 0 012 1 3 3 0 01-1 3l-2 7-2 4-2 4a41 41 0 00-1 4c-2 3-4 5-5 9z" fill="#a1616a"/><path d="M515 162v335a111 111 0 00-34-5c-50 0-91 35-91 85s41 85 91 85 90-37 90-90V339h263v158a111 111 0 00-34-5c-50 0-91 35-91 85s41 85 91 85 90-37 90-90V162zm319 125H571v-69h263zM249 125v225a85 85 0 1043 74V210h85v-85zM227 653a54 54 0 00-16-6 72 72 0 0012-3c10-3 15-7 11-9s-15-1-25 2a39 39 0 00-10 4c-1-2-4-5-8-7-9-5-22-8-28-6s-3 8 6 13a54 54 0 0014 5 82 82 0 00-10 2c-11 2-17 6-14 9s15 2 26-1a48 48 0 0012-4c0 2 3 5 8 7 9 5 21 8 27 6s4-7-5-12zM290 580a27 27 0 00-7-3 36 36 0 005-1c5-2 8-4 6-5s-7-1-12 1a20 20 0 00-5 2l-4-4c-5-2-10-3-13-2s-2 3 2 6a26 26 0 007 2 41 41 0 00-4 1c-6 1-9 3-7 4s7 1 12 0a24 24 0 006-2l4 4c4 2 10 3 13 3s2-4-3-6zM119 505a17 17 0 00-5-1 21 21 0 004-1c3-1 4-2 3-3s-4 0-8 1a12 12 0 00-3 1 6 6 0 00-2-2c-3-2-6-3-8-2s-1 2 1 4a16 16 0 005 1 25 25 0 00-3 1c-4 1-6 2-5 3s5 0 8-1a15 15 0 004-1 6 6 0 002 3c3 1 7 2 9 1s1-2-2-4z" fill="#3b8070"/><path d="M364 125v71h-85v214a85 85 0 01-138 67 85 85 0 00152-53V210h85v-85z" opacity=".1"/><path d="M123 144l1 2 9 1 2-1 9-5c5-1 21-8 16-8l-5 1s-5-6-11-1a79 79 0 01-21 11z" fill="#efb7b9"/><path d="M161 119a16 16 0 015-2 6 6 0 014 2l2 2c3 3 8 1 12 3 2 2 2 4 3 7s2 5 5 6a14 14 0 004-1 4 4 0 013 2c1 1-1 4 1 6 2 1 4-1 5 1a2 2 0 010 2 18 18 0 00-2 3 3 3 0 004 4h3a2 2 0 011 2 5 5 0 01-4 5l-6-2-5-1a8 8 0 00-2 2 23 23 0 01-6 4h-7c-2-1-3-4-6-5s-5 1-7 2-5 3-8 1c-2-2-1-5-2-8a8 8 0 00-3-2l-4-3a8 8 0 01-4-5l2-6c1-1 3-4 3-7l1-5a6 6 0 014-4l2-1a4 4 0 012-2z" fill="#3f3d56"/><g opacity=".1"><path d="M199 138a9 9 0 010 3 8 8 0 010-3zM203 150a3 3 0 000 1 3 3 0 010-3 18 18 0 012-2 4 4 0 000-1 2 2 0 010 3 18 18 0 00-2 2zM150 147l5 3a8 8 0 012 3c2 2 1 6 3 8 2 1 5 0 8-1s5-3 7-2l6 4h6a23 23 0 007-4 9 9 0 012-1c2-1 4 0 5 1l5 1a5 5 0 005-4 3 3 0 010 1 5 5 0 01-4 5l-6-2h-5a9 9 0 00-2 1 23 23 0 01-6 4h-7c-2-1-3-4-6-5s-5 1-7 2-5 3-8 1c-2-2-1-5-2-8a8 8 0 00-3-2l-4-3a8 8 0 01-4-5 5 5 0 010-1 8 8 0 003 4z"/></g><path d="M154 199l-3 1s3 5 9 2-6-3-6-3z" fill="#4c4981"/><path d="M154 199l-3 1s3 5 9 2-6-3-6-3z" opacity=".1"/><path d="M229 251l9 5 7 6c3 4 14 8 14 8l11 9c3 1 6 4 7 6h5l2-3s1-7-4-7a7 7 0 01-2-1c-6-2-13-9-13-9s-12-15-15-16a6 6 0 01-2 0l-9-6zM182 295c1 7 7 21 8 24 3 3 4 10 4 10v5a6 6 0 001 2 11 11 0 001 1l9-2-1-5-4-7c-2-2-2-9-2-9l-3-17a26 26 0 01-1-6v-3a70 70 0 00-1-11l-11 2v12a8 8 0 000 4z" fill="#efb7b9"/><path d="M277 285h5l2-3s1-7-4-7a7 7 0 01-2-1c-1 2 1 4 1 4l1 4c0 2-2 3-3 3z" opacity=".1"/><path d="M276 285l6 4 1 1 4-5 6-9a24 24 0 002-8c0-3-1-3-3-3a10 10 0 00-2 2 7 7 0 01-4 2 17 17 0 00-5 2l-3 3c-1 3 2 4 2 4l1 4c0 3-5 3-5 3z" fill="#444053"/><path d="M282 289l1 1 4-5 6-9a24 24 0 002-8c0-3-1-3-3-3 0 3 0 7-2 10l-8 14zM195 336a11 11 0 001 1l9-2-1-5c-4-1-9 5-9 5z" opacity=".1"/><path d="M195 343s7 3 11 2c2 0 2-1 2-4v-3c0-4-2-5-2-5-3-7-11 3-11 3v1a9 9 0 00-1 4 12 12 0 001 2z" fill="#444053"/><path d="M195 343s7 3 11 2c2 0 2-1 2-4a8 8 0 01-6 2 24 24 0 01-8-2 12 12 0 001 2z" opacity=".1"/><path d="M157 158l3 13v3l6 1h6l6-2s2-6 0-10a7 7 0 00-3-4 6 6 0 01-1-1 5 5 0 01-1-1 6 6 0 010-2c-1-4 1-8 1-8s-13-4-12-1c1 1-1 5-2 7l-2 2z" fill="#efb7b9"/><circle cx="168.7" cy="141.8" r="11.4" opacity=".1"/><circle cx="168.6" cy="141.3" r="11.4" fill="#efb7b9"/><path d="M158 201c0 3 3 7 3 7l16 4 11-12c0-1-5-15-2-19 4-3 2-13 2-13l-6-9c-1-2-9-2-9-2l1 1a14 14 0 012 4 6 6 0 010 4 5 5 0 00-1 1c-1 6-7 5-9 4h-10l2 29a3 3 0 000 1z" fill="#f86d70"/><path d="M156 173l10-2h-10v2zM168 210l4 1 7-1 1-2-12 2zM175 211l2 1v-1h-2z" fill="#925978"/><path d="M158 201l5 1 13-1v-13a19 19 0 00-6-4c-2-1-5-3-4-9v-2a15 15 0 000-2 12 12 0 00-4-8l-2-10-2 2-1 3 3 13h-4l2 29a3 3 0 000 1z" opacity=".1"/><path d="M162 202l13-1v-13a20 20 0 00-5-4c-2-1-5-3-4-10a12 12 0 00-4-11l-2-10a5 5 0 00-4 2 8 8 0 010 1 2 2 0 01-3 1c-1-1-7-3-9-1s-1 17-1 17a11 11 0 014 6c0 5 2 5 2 5l2 12s1 2 0 4" fill="#444053"/><path d="M156 156l2 7h4l-2-10a5 5 0 00-4 2 8 8 0 010 1z" fill="#444053"/><path d="M123 144l1 2 9 1 2-1-8-2-1-1-3 1z" opacity=".1"/><path d="M112 158s11 8 18 9c0 0 9 3 13 6l4-15-3-2s-3 2-5 1l-5-1a41 41 0 00-7-2c-2 0-1-2 0-3a4 4 0 011-1 2 2 0 003 1 7 7 0 002-2 23 23 0 002-3l-8-2h-2l5-3s-4-2-6-1v2l-12 9s-5 3 0 7z" fill="#444053"/><path d="M122 150l6 1a4 4 0 010-1 2 2 0 003 1 7 7 0 002-2 23 23 0 002-2l-9-2z" opacity=".1"/><path d="M122 149l6 1a2 2 0 003 1l4-5-8-2z" fill="#444053"/><path d="M239 243l-10 8 9 5 10-7-9-6zM182 295a36 36 0 008-2l4-2v-3a70 70 0 00-1-11l-11 2v12a8 8 0 000 4z" opacity=".1"/><path d="M163 246l8 17a57 57 0 004 7c3 3 4 9 6 15s0 4 0 7 10-1 10-1 21-5 27-17 31-24 36-31-1-4-1-8-3-7-3-7-9-3-11-5l-9-6-8-4c-1-1-9-5-12-5s-5-4-5-4l-4-3c-3-3-12-4-12-4-17 13-28 11-28 11l-1 2c-9 12 1 33 3 36z" fill="#444053"/><path d="M160 210s15 5 29-13c-17 13-28 11-28 11zM185 218zM176 216s14 21 14 24c0 0-13-20-14-24zM169 222s2 12-2 18zM163 223l-1 12zM196 214l18 7-6 1-12-8zM161 135l3 2a4 4 0 002-1l6-1 6 5a5 5 0 003 0 5 5 0 001 0 5 5 0 002-3 6 6 0 00-2-6 12 12 0 00-5-2l-16-1a2 2 0 00-2 1l-2 5 4 1z" opacity=".1"/><path d="M161 135l3 1a4 4 0 002 0c2-1 4-2 6-1l6 5a5 5 0 003 0 5 5 0 001-1 5 5 0 002-2 6 6 0 00-2-6 12 12 0 00-5-3h-16a2 2 0 00-2 0l-2 5c1 2 4 0 4 2z" fill="#3f3d56"/><path d="M231 143l1 7 3-1 12-8s9 0 10-7-11-1-11 0l-2 2-11 6z" fill="#efb7b9"/><path d="M231 143l1 7 3-1-2-7zM171 188l2 15 15-3c0-1-5-15-2-19 4-3 2-13 2-13l-7-9-8-2a6 6 0 01-1-2 8 8 0 000 1c0 3 1 5 4 6a12 12 0 002 1c5 1 6 4 6 4a11 11 0 012 8c0 4-15 13-15 13z" opacity=".1"/><path d="M172 188l2 15 17-4-2-7-1-11c7-8 3-14 3-14l21-4 7-4 9-3a9 9 0 011-1 3 3 0 011-1v5a7 7 0 004-1c1-1-1-16-2-16a2 2 0 00-1 0 11 11 0 00-4 2l-12 5-16 4s-6 2-7 1-11-3-12-1-3 1-3 1c-2-2-3-1-3 0a8 8 0 00-1 2c0 3 1 5 4 6l2 1c5 1 6 4 6 4a11 11 0 012 8c0 4-15 13-15 13z" fill="#444053"/><path d="M231 142c2 0 4 15 2 16a7 7 0 01-3 1v-4a3 3 0 00-1 0 12 12 0 00-2-11z" opacity=".1"/><path d="M230 154v5a7 7 0 004-1c1-1-1-16-3-16-1-1-3 1-4 2a12 12 0 013 10zM177 162l3-2-6-6a8 8 0 00-1 2c0 3 1 5 4 6z" fill="#444053"/><path d="M161 134l3 1a4 4 0 002 0l6-1 6 5a5 5 0 003 0 5 5 0 003-3 5 5 0 000-2 5 5 0 010 3 5 5 0 01-2 2 5 5 0 01-1 1 5 5 0 01-3 0l-6-5c-2-1-4 0-6 1a4 4 0 01-2 0l-3-1c0-2-3 0-4-2a2 2 0 010-1c1 2 4 1 4 2zM171 166s-2 4 0 5l-3-4" opacity=".1"/><path d="M252 131s-8 7-2 8 2-8 2-8z" fill="#efb7b9"/><g opacity=".1"><path d="M821 333H558v233c0 53-40 90-90 90a100 100 0 01-35-6 98 98 0 0048 12c50 0 90-37 90-90V339h250zM558 281h13v-63h250v-6H558v69zM877 162v404c0 53-40 90-90 90a100 100 0 01-35-6 98 98 0 0048 12c50 0 90-37 90-90V162z"/></g><path d="M580 70c6 13 17 28 29 23s21-31 14-44-21-20-33-14-17 22-10 35z" fill="#3b8070"/><path d="M605 101s3 0 2-2a4 4 0 000-1 6 6 0 01-1-2 9 9 0 010-3l-7-1 3 3a1 1 0 01-1 1h-1l-1 2c1 2 6 3 6 3z" fill="#3b8070"/><path d="M601 96h5l-4-1a1 1 0 01-1 1z" fill="#444053"/><path d="M605 101s3 0 2-2a7 7 0 01-3 0 6 6 0 01-4-3l-1 2c1 2 6 3 6 3z" fill="#3b8070"/><path d="M605 101s3 0 2-2a7 7 0 01-3 0 6 6 0 01-4-3l-1 2c1 2 6 3 6 3z" opacity=".1"/><path d="M602 37s7-1 9 4a6 6 0 00-2 0 4 4 0 01-2 0 10 10 0 00-5-4z" fill="#fff" opacity=".1"/><path d="M610 133a5 5 0 012-2 9 9 0 012 0 8 8 0 011-1l-1-4v-2a14 14 0 01-1 2l-2 1-1-1h-1c-1 0-2 1-2 3a16 16 0 000 3s1 2 3 1z" fill="#3b8070"/><path d="M612 131v-3-1h-1v1z" fill="#444053"/><path d="M610 133a7 7 0 01-1-3 6 6 0 010-1v-1a5 5 0 011-2h-1c-1 0-2 1-2 3a16 16 0 000 3s1 2 3 1z" fill="#3b8070"/><path d="M610 133a7 7 0 01-1-3 6 6 0 010-1v-1a5 5 0 011-2h-1c-1 0-2 1-2 3a16 16 0 000 3s1 2 3 1z" opacity=".1"/><path d="M566 92l18 9h12a12 12 0 005-2 12 12 0 002-3c4-6 4-18 1-28-3-7-7-13-12-17-12-8-28-5-35 6s-3 27 9 35z" fill="#3b8070"/><path d="M566 92l18 9h12a12 12 0 005-2 12 12 0 002-3c4-6 4-18 1-28-3-7-7-13-12-17-12-8-28-5-35 6s-3 27 9 35z" opacity=".1"/><path d="M598 105c1 3 6 0 6 0s2-1 0-3a6 6 0 01-2-1 9 9 0 01-1-2 7 7 0 01-1-1l-5 3a13 13 0 011 0l2 1a1 1 0 010 1 5 5 0 000 1c-2 1 0 1 0 1z" fill="#3b8070"/><path d="M598 103l4-2-4 1a1 1 0 010 1z" fill="#444053"/><path d="M598 105c1 3 6 0 6 0s2-1 0-3a7 7 0 01-2 2 6 6 0 01-4 0c-2 1 0 1 0 1z" fill="#3b8070"/><path d="M598 105c1 3 6 0 6 0s2-1 0-3a7 7 0 01-2 2 6 6 0 01-4 0c-2 1 0 1 0 1z" opacity=".1"/><path d="M568 52s5-4 10-1a6 6 0 00-2 1 4 4 0 01-2 1 10 10 0 00-6-1z" fill="#fff" opacity=".1"/><g opacity=".1"><path d="M628 99l-1-7a12 12 0 01-1 2 11 11 0 001 5 7 7 0 011 0z"/><path d="M623 101a6 6 0 012-1 5 5 0 010-1 9 9 0 012 0 7 7 0 011 0l-1-7a12 12 0 01-1 2l-2 1-1-1h-1c-3 1-2 7-2 7s1 2 3 0z"/><path d="M625 100a5 5 0 010-1l-1-4zM623 101a7 7 0 01-1-2 6 6 0 011-5h-1c-3 1-2 7-2 7s1 2 3 0z"/><path d="M623 101a7 7 0 01-1-2 6 6 0 011-5h-1c-3 1-2 7-2 7s1 2 3 0z" opacity=".1"/></g><path d="M622 100a6 6 0 012-2 9 9 0 012 0 7 7 0 011-1l-1-6a13 13 0 01-1 2l-1 1a1 1 0 01-1 0v-1h-2c-3 1-2 6-2 6s1 2 3 1z" fill="#3b8070"/><path d="M624 98v-4a1 1 0 01-1 0z" fill="#444053"/><path d="M622 100a7 7 0 01-1-3 6 6 0 012-4h-2c-3 1-2 6-2 6s1 2 3 1z" fill="#3b8070"/><path d="M622 100a7 7 0 01-1-3 6 6 0 012-4h-2c-3 1-2 6-2 6s1 2 3 1z" opacity=".1"/><g opacity=".1"><path d="M617 82a11 11 0 004 2 8 8 0 011-1l-6-3a12 12 0 011 2z"/><path d="M619 91s2 0 2-2a3 3 0 000-1 6 6 0 01-1-2 5 5 0 011 0 10 10 0 011-3l-6-3a12 12 0 011 2v2a1 1 0 01-1 0h-1l-1 1c-1 3 5 6 5 6z"/><path d="M616 84l4 2-3-2a1 1 0 01-1 0zM619 91s2 0 2-2a7 7 0 01-3-1 6 6 0 01-3-4l-1 1c-1 3 5 6 5 6z"/><path d="M619 91s2 0 2-2a7 7 0 01-3-1 6 6 0 01-3-4l-1 1c-1 3 5 6 5 6z" opacity=".1"/></g><path d="M618 90s3 0 2-2a6 6 0 010-2 5 5 0 010-1 8 8 0 011-2 8 8 0 010-1l-6-2a12 12 0 011 1v2a1 1 0 010 1h-1c-2 0-1 1-1 1-1 2 4 5 4 5z" fill="#3b8070"/><path d="M616 84l4 2a5 5 0 010-1l-4-2a1 1 0 010 1z" fill="#444053"/><path d="M618 90s3 0 2-2a7 7 0 01-2-1 6 6 0 01-3-3c-2 0-1 1-1 1-1 2 4 5 4 5z" fill="#3b8070"/><path d="M618 90s3 0 2-2a7 7 0 01-2-1 6 6 0 01-3-3c-2 0-1 1-1 1-1 2 4 5 4 5z" opacity=".1"/><path d="M595 117a12 12 0 011-1l2-2a1 1 0 010 1h1l1 1c3-1 2-7 2-7s-1-2-3-1a4 4 0 000 1 6 6 0 01-2 1 9 9 0 01-2 1 6 6 0 01-1 0z" fill="#3b8070"/><path d="M598 114a1 1 0 010 1l-1-5 1 4z" fill="#444053"/><path d="M599 115l1 1c3-1 2-7 2-7s-1-2-3-1a7 7 0 011 3 6 6 0 01-1 4z" fill="#3b8070"/><path d="M599 115l1 1c3-1 2-7 2-7s-1-2-3-1a7 7 0 011 3 6 6 0 01-1 4z" opacity=".1"/><path d="M593 126a20 20 0 003-10l2-2a1 1 0 010 1h1l1 1c3-1 2-7 2-7s-1-2-3-1a4 4 0 000 1 6 6 0 01-2 1 9 9 0 01-2 1 13 13 0 00-2-3 23 23 0 00-9-6c1 9 4 18 9 24zM607 129a17 17 0 002-1 19 19 0 002 0v-1h2l1-1c8-4 15-13 19-22a29 29 0 001-8 20 20 0 000-4 29 29 0 00-3-11l-1-1c-5-8-13-13-22-12 2 6 4 11 8 13v2a1 1 0 010 1h-1c-2 0-1 1-1 1-1 2 4 5 4 5s3 0 2-2a6 6 0 010-2 5 5 0 010-1 8 8 0 011-2 13 13 0 003 0 18 18 0 005-1l-1 1a20 20 0 00-3 10l-1 1a1 1 0 01-1 0v-1h-2c-3 0-2 6-2 6s1 2 3 1a6 6 0 012-2 9 9 0 012-1 13 13 0 002 3l1 1h-1a79 79 0 00-8 9l-3 3-1 3a20 20 0 00-3 10l-2 1-1-1h-1c-1 0-2 1-2 3z" opacity=".1"/><g opacity=".1"><path d="M618 79a4 4 0 002 0 6 6 0 013 1c-1-5-8-7-8-7a10 10 0 013 6zM583 97l1 4h12l2 1a1 1 0 010 1 5 5 0 000 1v1c1 3 6 0 6 0s2-1 0-3a6 6 0 01-2-1 9 9 0 01-1-2 12 12 0 002-3c4-6 4-18 1-28-13 2-22 15-21 29zM596 126a11 11 0 004 2 7 7 0 011-1l-6-2a14 14 0 011 1z"/><path d="M598 135s2 0 2-2a6 6 0 01-1-2 5 5 0 011-1 9 9 0 010-2 7 7 0 011-1l-6-2a14 14 0 011 2v2a1 1 0 01-1 0 5 5 0 00-1 0l-1 1c-1 3 5 5 5 5z"/><path d="M595 129l4 2 1-1-4-1a1 1 0 01-1 0zM598 135s2 0 2-2a7 7 0 01-3 0 6 6 0 01-3-4l-1 1c-1 3 5 5 5 5z"/><path d="M598 135s2 0 2-2a7 7 0 01-3 0 6 6 0 01-3-4l-1 1c-1 3 5 5 5 5zM618 79a4 4 0 002 0 6 6 0 013 1c-1-5-8-7-8-7a10 10 0 013 6z" opacity=".1"/></g><path d="M585 98c2 15 7 33 20 31s29-22 28-37-14-25-27-23-23 15-21 29z" fill="#3b8070"/><path d="M599 136s2 0 2-2a5 5 0 010-2v-1a9 9 0 011-3l-6-2 1 3a1 1 0 010 1 2 2 0 01-1 0c-2 0-1 1-1 1-1 2 4 5 4 5z" fill="#3b8070"/><path d="M597 130l4 2v-1l-4-2a1 1 0 010 1z" fill="#444053"/><path d="M599 136s2 0 2-2a7 7 0 01-3-1 6 6 0 01-2-3c-2 0-1 1-1 1-1 2 4 5 4 5z" fill="#3b8070"/><path d="M599 136s2 0 2-2a7 7 0 01-3-1 6 6 0 01-2-3c-2 0-1 1-1 1-1 2 4 5 4 5z" opacity=".1"/><path d="M617 74s7 1 7 6a6 6 0 00-2 0 4 4 0 01-2 0 10 10 0 00-3-6z" fill="#fff" opacity=".1"/><path d="M599 131a4 4 0 014 5c-1 3-4 4-7 6s-3 5-3 8a20 20 0 005 16l7 6a35 35 0 016 9 21 21 0 013 7c0 5-2 9-5 12l-7 10a21 21 0 00-2 17 2 2 0 001 1 1 1 0 001 0" fill="none" stroke="#444053" stroke-miterlimit="10"/><path d="M612 130a2 2 0 010 3 3 3 0 01-3 1h-3a3 3 0 00-1 2 11 11 0 010 3 5 5 0 01-1 2 5 5 0 01-2 1l-6 1c-2 0-3 3-4 5a16 16 0 000 8 29 29 0 002 6 12 12 0 011 5 5 5 0 01-2 4M609 195c-3 3-4 9-8 10l-7-2c-5-3-9-5-15-6s-11 0-15 4l-5 10a20 20 0 01-11 7 46 46 0 01-14 2l-5-2a12 12 0 01-2-3c-2-3-6-5-10-6s-9 1-13 3l-6 2c-3-1-5-3-7-6a100 100 0 01-12-19" fill="none" stroke="#444053" stroke-miterlimit="10"/><path d="M498 603l2-7a15 15 0 012-7v-9a27 27 0 00-2-4c-1-3 1-12 1-12s5-13 4-21 13-36 13-36a35 35 0 00-1-8 7 7 0 010-1c0-6 5-16 5-16v-19s-2-11 3-26a142 142 0 004-14l-16-3s6-22 9-26 7-15 7-15 3-16 0-20-3-13-3-13-7-5-7-7l-2-10 1-7c0-2 2-6 1-9a7 7 0 01-1-2 34 34 0 011-7 18 18 0 017-3v-1l1-1h1v-3l-1-5c-2-9 10-10 10-10a6 6 0 013-3c3-1 0 13-1 14l-5 7v5a13 13 0 011 3s-2 2-1 5a15 15 0 01-1 6s1-2 3-1l5 1s4 1 3 2 2 4 2 4l9-8v-1a20 20 0 001-3 19 19 0 01-3-1 6 6 0 01-2-2 9 9 0 01-1-3l-3-8a23 23 0 01-1-12 8 8 0 011-4l6-4 5-4 7-1a34 34 0 0112 5l4 2a5 5 0 003-2v-1a15 15 0 011 7v1a2 2 0 000 1 3 3 0 000 1 6 6 0 011 1 5 5 0 011 2 3 3 0 01-1 2 9 9 0 01-1 1 16 16 0 01-9 17 20 20 0 00-2 9v1s14 1 18-2 8 8 8 8h13a13 13 0 018-3 26 26 0 017-3 7 7 0 013 0l9-9 12-13v-1l1-2a6 6 0 000 1l1-1a30 30 0 012-5l-1-2 1-8s7-14 12-3c0 0 10 7 1 15l-4 2a92 92 0 01-3 6v2l2 3a15 15 0 00-1 3s-13 15-15 21c0 0-33 18-43 19l1 10v8a298 298 0 004 27l1 11a69 69 0 001 11c2 6 0 12 0 12s5 13-7 4l-14-1v3l-1 25c-1 13-6 38-6 38l-1 13a17 17 0 011 4 24 24 0 01-4 13l-2 9-3 9a6 6 0 010 2l-2 13-2 10c-2 1 1 6 2 7a7 7 0 010 3 3 3 0 01-1 3c-3 1-5 3-2 3l2 1a2 2 0 011 1 7 7 0 01-1 4 34 34 0 01-4 6h-1a5 5 0 001 1 5 5 0 001 2 5 5 0 002 1 5 5 0 014 2c1 2 2 4-1 6l-10 3s-18 2-17-2l2-7a16 16 0 012-7 7 7 0 011-1h-1s-1-9-3-11l1-1a9 9 0 012 0s1-5-1-6a2 2 0 01-1-2 7 7 0 011-2v1l4-11v-6c-1-2 1-22 1-22l1-15c1-5-1-10-1-10v-2l2-10v-18l-2-7-5 11-6 15s-2 3-2 6v1a8 8 0 010 1 9 9 0 01-2 5s-1 7-4 9-2 5-2 5l-4 12-1 7-1 7v1a11 11 0 001 2 26 26 0 010 6c0 4-1 8-3 11-4 4-6 3-6 3s1 6 3 7a1 1 0 011 0 3 3 0 010 2c0 2-1 6-3 8a5 5 0 01-2 1h1v1a4 4 0 002 0 5 5 0 014 2c1 2 2 4-1 7l-11 3s-17 1-16-3z" transform="translate(-50 -87)" fill="url(#b)"/><path d="M514 525l10-3c3-2 2-4 1-6a5 5 0 00-4-2 5 5 0 01-2-1 4 4 0 01-1-2 7 7 0 01-1-3s-11-4-14-1a8 8 0 00-1 2 16 16 0 00-2 7l-2 7c-1 4 16 2 16 2zM466 519l10-3c3-3 2-5 1-7a5 5 0 00-4-2 4 4 0 01-1 0 5 5 0 01-1-1c-3-1-2-5-2-5s-11-4-14-1a8 8 0 00-1 2 16 16 0 00-2 7l-2 7c-1 3 16 3 16 3z" fill="#2d293d"/><path d="M503 507a8 8 0 00-1 2l16 2a7 7 0 01-1-3s-11-4-14-1zM454 502v3c2 4 14 3 18 2a5 5 0 01-1-1c-3-1-2-5-2-5s-11-4-14-1a8 8 0 00-1 2z" opacity=".1"/><path d="M452 489a27 27 0 012 4v11c2 4 17 3 19 1s4-9 2-10-4-7-4-7 2 1 6-4 4-14 3-16 0-10 0-10l2-7c2-1 3-12 3-12s1-4 3-5 3-9 3-9a9 9 0 002-6c-1-3 2-7 2-7l6-15 4-11 3 7-1 18-2 12s3 5 1 10-1 15-1 15-2 20-1 22l1 6s-6 12-5 14l1 6s-4 0-2 1 3 11 3 11l16 2a35 35 0 004-7c3-5 0-4-2-5s-1-2 2-3 1-6 1-6-4-6-2-7 2-10 2-10 3-11 2-14 3-10 3-10l1-9a24 24 0 004-16v-14l6-39 1-27v-6l-59-9a49 49 0 01-1 9l-4 13c-5 15-2 26-2 26l-1 19s-5 13-4 17a36 36 0 010 8s-12 28-11 36-5 21-5 21-2 9-1 12z" fill="#3f3d56"/><path d="M489 418l-18-3s10 11 18 3zM474 397s0 7 3 9c0 0-7-1-3-9zM476 377s15 13 21 12-21-12-21-12zM511 425s12 3 12 7-12-7-12-7zM507 482s16 4 11 6a78 78 0 01-12 3s-6 0 1-9z" opacity=".1"/><g opacity=".1"><path d="M521 491a3 3 0 002-2s1 4-1 5l-1 1h-2c-2-1 0-2 2-4zM500 489v-3a8 8 0 011 4 3 3 0 00-1-1zM505 421a18 18 0 011 5 21 21 0 00-1-4v-1zM469 412a6 6 0 01-1-1l1 2v-1zM504 470a9 9 0 010-3 10 10 0 010 4 4 4 0 000-1zM500 496a54 54 0 011 8l17 3a35 35 0 004-7v-1c1 0 2 1 0 4a35 35 0 01-4 7l-16-3s-1-8-3-10c-1-1 0-1 1-1zM523 472s-1 9-2 10l-1-4c2 0 2-10 2-10s3-11 3-14l2-10 2-9a24 24 0 003-16l1-13 6-39 1-27v-4 7l-1 27-6 39v13a24 24 0 01-4 17l-1 8s-3 7-3 10l-2 15zM472 501a16 16 0 003-6c2 1 0 7-2 10s-17 3-19-2v-2c3 3 16 2 18 0zM452 485a28 28 0 012 4v2l-2-3a8 8 0 010-3zM472 488a26 26 0 01-1-4s2 1 6-3c3-3 3-9 3-13 1 2 1 12-3 16-2 3-4 4-5 4zM480 458a72 72 0 000 8l-1-2 1-10 1-7 4-12s0-3 2-5 4-9 4-9a9 9 0 001-6c0-3 3-7 3-7l5-14 5-11 2 6v2l-2-5-4 11-6 15s-3 3-2 7a9 9 0 01-2 6s-1 7-3 8-3 5-3 5l-3 12-2 7z"/></g><path d="M478 204l1 5v4h6v-1l5-7c1-1 4-15 1-14a6 6 0 00-3 3s-11 1-10 10z" fill="#ffcdd3"/><path d="M479 213h6v-1a5 5 0 00-6-1z" opacity=".1"/><path d="M478 215l7 2v-1l1-3a5 5 0 00-8-1v1z" fill="#dce6f2"/><path d="M601 209l8 5v-2l3-5 4-3c9-7-1-15-1-15-5-11-12 3-12 3v11a30 30 0 00-2 5v1z" fill="#ffcdd3"/><path d="M601 209l8 5v-2l-6-4a9 9 0 01-2 0v1z" opacity=".1"/><path d="M600 211l9 5v-3l-7-5a8 8 0 01-2 0v2z" fill="#dce6f2"/><path d="M499 238s40 6 32 3c-5-2-7-5-7-9a21 21 0 012-9 39 39 0 014-7s-30-18-24-2a24 24 0 011 7 20 20 0 01-1 7 22 22 0 01-7 10z" fill="#ffcdd3"/><path d="M506 214a24 24 0 011 7c3 2 6 2 10 3 3 0 6 1 9-1a39 39 0 014-7s-30-18-24-2z" opacity=".1"/><circle cx="518" cy="208.2" r="16.4" fill="#ffcdd3"/><path d="M499 238s40 6 32 3c-5-2-7-5-7-9l-8-5a12 12 0 00-7 0 10 10 0 00-3 1 22 22 0 01-7 10zM478 215l7 2v-1a7 7 0 00-7-3zM600 211l9 5v-2a67 67 0 00-9-4zM480 337a251 251 0 0060 7v-7l-59-9a49 49 0 01-1 9z" opacity=".1"/><path d="M465 333s50 11 55 9 34 2 34 2c12 8 7-4 7-4s1-7 0-12a72 72 0 01-2-12s1-8 0-10l-3-16-1-11v-8l-1-10c10-1 42-19 42-19 2-6 14-21 14-21a16 16 0 011-4c1-2-11-7-11-7l-12 14-9 9a7 7 0 00-3 0 25 25 0 00-6 3 12 12 0 00-9 3h-12s-4-11-8-8-16 2-16 2l-9-5a12 12 0 00-7 0 9 9 0 00-3 1l-9 8-2-4-2-2-6-1-3 1a16 16 0 001-6c0-3 2-5 2-5-4-12-16-3-16-3s-1 7 0 9-2 8-1 9-1 4-1 7l2 10c1 3 7 7 7 7s0 8 3 13 0 20 0 20-3 12-7 15-9 26-9 26z" fill="#3f3d56"/><path d="M542 245l3-5a32 32 0 004-1l-1-2s-5 1-6 3v5zM570 236c0 2 12 3 12 3l-6-6a25 25 0 00-6 3zM540 282s-32 38-55 15c0 0 37 6 55-15z" opacity=".1"/><path d="M549 263a60 60 0 01-8 12 48 48 0 01-12 10s19-20 20-22zM556 241s-4 14-12 18zM560 243s3 11-11 16c0 0 6-1 11-16zM480 231l-9 6s5-7 9-6z" opacity=".1"/><path d="M522 223a3 3 0 01-1 2 3 3 0 01-2 1c-5 0-10 0-15-2a6 6 0 01-2-2 9 9 0 01-1-4l-3-7a23 23 0 01-1-12 8 8 0 011-4l6-4 5-4 6-1a32 32 0 0112 5c1 1 2 2 4 1a5 5 0 002-2 15 15 0 011 8 3 3 0 000 1 3 3 0 001 1c1 1 2 4 1 5l-2 2-1 4a2 2 0 010 1 2 2 0 01-2 1 6 6 0 00-3-1 4 4 0 00-1 2c-3 3-4 6-5 9z" fill="#3f3d56"/><g opacity=".1"><path d="M502 221a6 6 0 002 1c4 3 9 3 14 2a4 4 0 002 0 3 3 0 001-2l5-10a4 4 0 012-1 6 6 0 012 0 2 2 0 002 0 2 2 0 000-1l1-5 2-1a3 3 0 001-4v5l-2 1-1 5a2 2 0 010 1 2 2 0 01-2 1 6 6 0 00-3-1 4 4 0 00-2 2c-2 2-3 6-4 9a3 3 0 01-1 2 3 3 0 01-2 1c-5 0-10 0-15-2a6 6 0 01-2-2 4 4 0 01-1-1zM534 198a2 2 0 010-1 3 3 0 010-1 15 15 0 00-1-6 15 15 0 011 7 5 5 0 000 1z"/></g><path d="M524 233s-20 2-22-1M485 223s-11 0-14 4" opacity=".1"/></svg>