<svg data-name="Layer 1" xmlns="http://www.w3.org/2000/svg" viewBox="0 0 758.8 848"><ellipse cx="503.1" cy="812.8" rx="205.1" ry="35.2" fill="#f2f2f2"/><path d="M465 838c-142 0-254-20-254-45s112-44 254-44 253 19 253 44-111 45-253 45zm0-87c-136 0-251 19-251 42s115 42 251 42 251-19 251-42-115-42-251-42z" fill="#f2f2f2"/><path d="M759 455a346 346 0 01-7 68l-2 10-2 6-1 4a346 346 0 01-181 222 340 340 0 01-45 18l-7 3a345 345 0 01-100 14h-15a286 286 0 01-38-4C207 768 131 615 68 455l-4-12-1-3C-103 1 77-110 414 110c159 104 345 154 345 345z" fill="#f2f2f2"/><path d="M520 661l-1-1c0-1 25-25 34-70 9-42 6-110-58-201-48-69-68-129-58-179 9-44 38-63 38-64l1 2s-28 19-37 62c-9 50 10 110 58 178 28 40 47 80 56 117 7 30 8 59 2 86-9 45-35 70-35 70zM94 394a422 422 0 00-30 49l-1-3a432 432 0 0129-47c48-69 67-129 58-178-9-43-37-62-37-62l1-2s29 19 38 63c10 50-10 111-58 180z" fill="#f2f2f2"/><path d="M279 767l-2-2s31-30 43-87c11-53 8-139-72-253-34-47-56-92-68-133-9-34-11-65-6-93 11-55 48-79 48-79l2 1c-1 1-37 24-47 79-13 62 12 137 73 224 35 50 59 100 70 147 9 38 10 74 2 107-12 58-43 89-43 89z" fill="#fff"/><circle cx="202.1" cy="158.5" r="88.2" fill="#fff"/><path d="M223 241a120 120 0 11120-120 120 120 0 01-120 120zm0-238a118 118 0 10118 118A118 118 0 00223 3z" fill="#fff"/><circle cx="290.3" cy="358.6" r="73.1" fill="#fff"/><circle cx="253" cy="612.4" r="73.1" fill="#fff"/><path d="M748 539l-2-11c-10-49-24-89-40-121l-44-15 33-5c-13-22-28-40-43-55l-80 9 60-26c-110-83-254-16-294 5l-10 5 22 12 397 206z" fill="#3b8070"/><path d="M748 539l2-6-4-5c-46-66-214-280-407-207l-11 4-9 5a250 250 0 00-10 4s-8 2-17 10c-18 15-40 53-11 140 0 0 26 72 13 106-13 33 67 72 90 0s31-142 31-142 27 56 24 113c-1 23 1 46 7 68l2 7c9 28 22 65 41 100a336 336 0 0032 47 340 340 0 0045-18 346 346 0 00181-222z" fill="#3f3d56"/><path fill="#3f3d56" d="M317 360l-10-85 44 62-34 23z"/><path fill="#3f3d56" d="M295 366l-11-85 44 62-33 23z"/><path fill="#3b8070" d="M272 446L162 302l111 101-1 43z"/><circle cx="513.8" cy="71" r="17.1" fill="#f2f2f2"/></svg>