<svg data-name="Layer 1" xmlns="http://www.w3.org/2000/svg" viewBox="0 0 938 604"><path d="M681 567l-5-61-14 64v34h18l1-37zM430 588a123 123 0 01-3-17l-2-21-2-15c-7-32-13-33-13-33h-1a21 21 0 00-2 3c-10 13-17 46-21 69l-3 21 2 9h47a83 83 0 00-2-16z" fill="#f2f2f2"/><path d="M796 0H142C64 0 0 64 0 142v320c0 78 64 142 142 142h207l-2-13s-7-44 0-79a260 260 0 004-33 198 198 0 016-37l1-2c-2 0-3 0-2-1l2-5a242 242 0 0110-48c-7 5-11 5-14 3-11-3-7-27-7-27l9-70c1-11 18-17 32-20l2-10v-1c-2-4-6-7-7-11a12 12 0 01-2-4c-1-7 6-13 8-20a17 17 0 01-5-7c-2-6-1-13 8-19l6-3a9 9 0 013-1c7-3 13-6 17-12l4-4a7 7 0 013-1c13-1 24 10 37 9 4-1 8-2 12-1 3 1 5 3 6 5a48 48 0 0111 39c-2 9-6 18-3 26 2 6 8 11 8 17 0 5-4 10-8 14l2 1c9 10 7 19 6 22l-5 44-4 29s-1 12-10 15c-2 1-6 2-10 0l-7-2c2 6 5 19 4 31 0 17 2 19 2 19a3 3 0 01-1 0c9 20 10 41 0 62-11 23 1 77 1 77l1 18h164c-2-25-5-50-7-53a1219 1219 0 010-107h-2a15 15 0 001 4c1 2-2 4-5 5 2 11 5 32-5 36s-10-21-9-35l-4 1c-12 0 3-138 3-147-1-9 5-46 5-46s2-7 9-9 36-18 36-18a22 22 0 016-6v-1a23 23 0 012-2l-1-20a24 24 0 01-7-12 38 38 0 01-3-3 19 19 0 01-5-12 37 37 0 012-13 15 15 0 011-4 14 14 0 014-4h1a12 12 0 014-5c4-2 8-2 13-2h2a2 2 0 002-2l2 1 2 1a18 18 0 012-3l1 3h2l2-2 1 3h4a13 13 0 017 2 15 15 0 014 5 33 33 0 015 14 17 17 0 013 6c1 7-6 13-7 20-1 4 0 8-2 11a12 12 0 01-3 4 24 24 0 01-2 1 61 61 0 001 13l1 3 4 4 27 12c6 4 13 4 15 9s7 77 8 91 9 94 8 98l-8 4c2 10 6 33-4 38-11 4-10-24-10-36l-2-1-1-7h-3c8 28-11 102-15 116l-6 45h86c78 0 142-64 142-142V142C938 64 874 0 796 0z" fill="#f2f2f2"/><ellipse cx="210" cy="169" rx="95" ry="86.5" fill="#3f3d56"/><path d="M367 452s32-22 32-32 22-75 34-46-17 70-17 70-32 58-51 68-35 4-35 4v-27l18-28a23 23 0 0119-9z" fill="#ffb9b9"/><path d="M276 298s48 16 53 23 7-5 21 41 17 90 17 90-34 12-30 57-6 94-6 94h-13l-27-85 33-129s-47-80-48-91z" fill="#575a89"/><circle cx="259.5" cy="196.5" r="60" fill="#ffb9b9"/><path d="M283 242s-17 56-2 64 32 44 32 44l-26 29h-60l-27-30-11-51 15-12s16-40 16-61 63 17 63 17z" fill="#ffb9b9"/><path d="M288 304s-12-3-5 9 14 34-11 35-50-12-58-39-11-25-14-24-35 34-35 34l11 62 4 222h146s6-64-4-79 9-53 9-53 17-26 4-76-42-91-47-91z" fill="#3b8070"/><path d="M207 285s-15-7-28 5-42 22-42 28 25 177 8 207-35 78-35 78h83s14-50 28-77 13-103 9-126l-23-115z" fill="#575a89"/><path fill="#ffb9b9" d="M119 550l4 53h54l-4-66-54 13z"/><path fill="#3f3d56" d="M365 522l13 81h289l25-163-327 82z"/><path fill="#3f3d56" d="M703 429l3 15-374 90v-13l371-92z"/><path fill="#3f3d56" d="M545 456l-2 17 22-3-9-17-11 3z"/><path d="M424 284s44-3 56 31 40 95 51 104 23 33 21 41" fill="none" stroke="#3f3d56" stroke-miterlimit="10" stroke-width="5"/><path d="M430 283c0 5-5 9-13 9s-12-4-12-9 4-8 12-8 13 3 13 8z" fill="#3b8070"/><path d="M356 439s8-31-6-77-16-34-21-41-53-23-53-23c0 4 5 15 12 28a53 53 0 00-5-13c-7-12 5-9 5-9 5 0 34 41 47 91s-4 76-4 76z" fill="#575a89"/><path d="M276 298s6 22 11 26l35 34-4-25-16-24-4-3z" fill="#575a89"/><path d="M143 367l1-51s-32 14-35 74 5 173 16 174 63-11 63-11 8-145 5-164-50-22-50-22z" opacity=".1"/><path d="M146 316h-9s-32 14-35 74 5 173 16 174 63-11 63-11 8-145 5-164-40-73-40-73z" fill="#575a89"/><ellipse cx="188" cy="180.5" rx="62" ry="69.5" fill="#3f3d56"/><ellipse cx="232.5" cy="218.5" rx="12.5" ry="18.5" fill="#ffb9b9"/><circle cx="126" cy="111" r="51" fill="#3f3d56"/><path d="M133 152a51 51 0 01-74-41 51 51 0 10101 3 51 51 0 01-27 38z" fill="#3f3d56"/><path d="M98 119a51 51 0 0126-80 51 51 0 1016 100 51 51 0 01-42-20z" fill="#3f3d56"/><ellipse cx="263" cy="150" rx="36" ry="26" fill="#3f3d56"/></svg>