<svg xmlns="http://www.w3.org/2000/svg" viewBox="0 0 1004 1009.5" data-name="Layer 1"><defs><radialGradient gradientUnits="userSpaceOnUse" r="503.4" cy="557.8" cx="615.2" id="a"><stop stop-opacity=".5" offset="0" stop-color="#fff"/><stop stop-opacity="0" stop-color="#fff" offset="1"/></radialGradient></defs><path transform="translate(-113 -53)" d="M615 53v505L510 64zm-296 96l296 409L410 97zM178 305l437 253-375-338zm-65 200l502 53-480-156zm22 209l480-156-502 53zm105 182l375-338-437 252zm170 123l205-461-296 408zm205 44V558l-105 493zm206-44L615 558l105 493zm169-123L615 558l297 408zm105-182L615 558l437 252zm22-209l-502 53 502 53zm-65-200L615 558l480-156zM912 149L615 558l375-338zM720 64L615 558 821 97z" fill-rule="evenodd" fill="url(#a)"/></svg>