<?xml version="1.0" encoding="UTF-8" standalone="no"?>
<svg
   xmlns:dc="http://purl.org/dc/elements/1.1/"
   xmlns:cc="http://creativecommons.org/ns#"
   xmlns:rdf="http://www.w3.org/1999/02/22-rdf-syntax-ns#"
   xmlns:svg="http://www.w3.org/2000/svg"
   xmlns="http://www.w3.org/2000/svg"
   id="svg4"
   version="1.1"
   viewBox="0 0 400 400">
  <metadata
     id="metadata10">
    <rdf:RDF>
      <cc:Work
         rdf:about="">
        <dc:format>image/svg+xml</dc:format>
        <dc:type
           rdf:resource="http://purl.org/dc/dcmitype/StillImage" />
        <dc:title></dc:title>
      </cc:Work>
    </rdf:RDF>
  </metadata>
  <defs
     id="defs8" />
  <path
     id="path2"
     fill="rgba(255,255,255,0.6)"
     d="m 146.70711,389 c -7,-3 -13,-6 -23,-17 -11,-11 -14,-17 -15,-27 -1,-7 -2,-14 5,-22 l 62,-64 60,-60 -60,-61 c -46,-46 -62,-62 -63,-65 -4,-8 -5,-16 -3,-23 2,-9 4,-13 15,-25 13,-13 19,-16 32,-16 17,0 14,1 101,85 96,93 86,87 89,105 -3,18 6,10 -86,102 l -84,83 c -9,6 -21,7 -30,5 z" />
</svg>
