<svg data-name="Layer 1" xmlns="http://www.w3.org/2000/svg" viewBox="0 0 987.6 787.4"><defs><linearGradient id="a" x1="903.3" y1="782.2" x2="903.3" y2="259.8" gradientUnits="userSpaceOnUse"><stop offset="0" stop-color="gray" stop-opacity=".3"/><stop offset=".5" stop-color="gray" stop-opacity=".1"/><stop offset="1" stop-color="gray" stop-opacity=".1"/></linearGradient></defs><path d="M59 745s-42-2-37 27c0 0-1 5 3 8 0 0 1-2 5-2a19 19 0 004 1 10 10 0 006-3s12-5 17-24l3-5-7 3s2 5 0 9l-1-9-4 2s4 9 1 15c0 0 1-11-2-15l-5 3s4 10 1 17c0 0 1-11-2-16l-5 4s5 9 2 15c0 0-1-14-3-15l-5 5s4 7 2 11l-3-9s-4 6-4 10c0 0 0-6 3-11a12 12 0 00-6 3s1-4 7-4l5-5s-7-1-11 1c0 0 4-4 12-2l4-4s-8-1-12 0c0 0 4-3 13-1l5-3-11-1s4-2 13 1l3-2-7-1c-2 0-1-1-1-1a18 18 0 0110 1l7-3z" fill="#3b8070"/><ellipse cx="29.9" cy="782.3" rx="29.9" ry="5.1" fill="#3b8070" opacity=".1"/><path d="M987 678s-24-2-21 15a4 4 0 002 4s0-1 3 0a11 11 0 002 0 5 5 0 003-2s7-2 10-13l2-3-4 1s1 3 0 6c0 0 0-6-1-5l-2 1s2 5 1 8c0 0 0-6-2-8l-3 2s3 5 1 9c0 0 1-6-1-9l-3 2s3 5 1 9l-1-9a16 16 0 00-3 3s2 4 1 6l-2-5-2 6a12 12 0 012-6 7 7 0 00-3 1s0-2 4-2l2-3-6 1s2-3 7-2l2-2h-7s3-2 8 0l3-2a25 25 0 00-7 0s3-2 7 0l2-1-4-1c-1 0 0 0 0 0a10 10 0 015 1l4-2z" fill="#3b8070"/><ellipse cx="970.8" cy="698.8" rx="16.9" ry="2.9" fill="#3b8070" opacity=".1"/><path d="M938 723s-29-1-25 19a5 5 0 002 5s0-2 3-1a13 13 0 003 0 7 7 0 004-2s8-3 12-16l2-4-5 2s2 4 0 7c0 0 0-7-1-6l-2 1s3 6 0 10c0 0 1-7-1-10l-4 2s4 7 1 12c0 0 1-8-1-11l-3 2s3 6 1 11c0 0 0-10-2-10l-3 3s2 5 1 7l-2-6s-3 4-3 7a15 15 0 012-8 8 8 0 00-4 3s1-3 5-3l3-4-7 1s2-3 8-1l3-3h-8s2-2 9 0l3-2-8-1s3-2 9 0l2-1-4-1h-1a12 12 0 016 0l5-2z" fill="#3b8070"/><ellipse cx="918.3" cy="748.6" rx="20.4" ry="3.4" fill="#3b8070" opacity=".1"/><ellipse cx="805.5" cy="726.4" rx="92.3" ry="14.4" fill="#3b8070" opacity=".1"/><ellipse cx="513.3" cy="767.9" rx="103.8" ry="10.4" fill="#3b8070" opacity=".1"/><ellipse cx="199" cy="763.1" rx="78.8" ry="4.9" fill="#3b8070" opacity=".1"/><path d="M339 34C368 8 414 3 456 5c131 6 249 70 351 141 37 26 74 54 98 90 49 73 34 173-34 233a494 494 0 01-245 100 822 822 0 01-448-114c-41-26-80-58-97-100s-6-96 36-120c18-11 39-15 59-20 30-6 61-12 88-25 29-14 62-40 56-70-6-32-10-60 19-86z" fill="#3b8070" opacity=".1"/><path d="M581 392V201h26v-57H421v57h26v191a189 189 0 00-123 177 189 189 0 00379 0 189 189 0 00-122-177z" fill="#96b7fe" opacity=".9"/><path opacity=".1" d="M447 200h134v3H447z"/><path d="M408 564s114-2 171-31 89-3 86 14-19 51-84 55-173-38-173-38z" fill="#3b8070"/><path d="M408 564s114-2 171-31 89-3 86 14-19 51-84 55-173-38-173-38z" opacity=".1"/><path d="M359 545s-12 169 148 172 158-170 158-170-59 65-198 12c0 0-72-20-108-14z" fill="#3b8070"/><path d="M665 548c-3 39-24 161-158 158-132-2-147-117-148-158-1 22 0 167 148 169 159 3 158-170 158-170v1z" opacity=".1"/><circle cx="507.5" cy="472.5" r="20.7" fill="#3b8070" opacity=".3"/><circle cx="519.4" cy="389.6" r="12.8" fill="#3b8070" opacity=".3"/><circle cx="490.7" cy="315.5" r="12.8" fill="#3b8070" opacity=".3"/><path d="M381 488c-1 9-1 20 7 24-7-3 20-42 16-50-8-17-22 18-23 26z" fill="#fff" opacity=".2"/><circle cx="480.4" cy="85" r="20.7" fill="#3b8070" opacity=".3"/><circle cx="542.6" cy="49.5" r="15.4" fill="#3b8070" opacity=".3"/><circle cx="498.1" cy="8" r="8" fill="#3b8070" opacity=".3"/><path d="M284 263H116v50h26v388a58 58 0 10116 0V313h26z" fill="#96b7fe" opacity=".9"/><path d="M181 401s41-15 53-5c0 0-17 25-33 24s-20-19-20-19z" fill="#3b8070"/><path d="M181 401s41-15 53-5c0 0-17 25-33 24s-20-19-20-19z" opacity=".1"/><path d="M234 396v282a36 36 0 01-36 35 36 36 0 01-35-35V396s17-4 33 6 38-6 38-6z" fill="#3b8070"/><path opacity=".1" d="M142 313h116v2H142zM198 696a36 36 0 01-35-35v17a36 36 0 0035 36 36 36 0 0036-36v-17a36 36 0 01-36 35z"/><circle cx="198.1" cy="361.6" r="7.2" fill="#3b8070" opacity=".3"/><circle cx="221.8" cy="335.9" r="4.6" fill="#3b8070" opacity=".3"/><circle cx="189.5" cy="326.7" r="4.6" fill="#3b8070" opacity=".3"/><path d="M151 454c-1 9-1 20 7 24-7-4 20-42 16-50-8-17-22 18-23 26z" fill="#fff" opacity=".2"/><circle cx="213.1" cy="214.5" r="17.6" fill="#3b8070" opacity=".3"/><circle cx="160.3" cy="184.3" r="13.1" fill="#3b8070" opacity=".3"/><circle cx="198" cy="149.2" r="6.8" fill="#3b8070" opacity=".3"/><path d="M1002 508s-15-77-9-86l-1-20v-2a27 27 0 004 2 26 26 0 0017 3l-4-6c-2-1-3-2-3-4a9 9 0 011-4c4-12 5-26-4-34-7-7-9-16-17-23-5-5-8-12-11-19l-7-17c-1-5-1-10-3-14s-4-10-9-12a33 33 0 01-5-2l-4-5c-7-9-31-4-42 0a24 24 0 00-8 4 15 15 0 00-3 3l-3 9c-2 3-11 12-7 16a3 3 0 001 0 8 8 0 004 1 27 27 0 00-2 11 28 28 0 0028 27 29 29 0 009-1 39 39 0 010 1v1l-15 20c-2 2-15 11-16 18l-1 17v2a6 6 0 01-5 1c-5-1-5 17-5 17s-3 3-5 0-7 6-7 6l-35 1h-1l-1-5a2 2 0 00-3-2 2 2 0 00-1 0 1 1 0 000 1 2 2 0 00-1 0 2 2 0 000 2l2 5c-7 1-14 5-8 16l-29-6 10 8 47 10c-1 1-1 2 1 5 9 9 24 12 30 13a53 53 0 006 10v10s-16 74-19 78a44 44 0 004-5l-12 39c-3 5-6 26-3 27h8v65s0 40-2 43-2 12-2 12-9 15-15 21v1l-1-2s-8 10-25 10c0 0-11 6 5 7s36-1 36-1 14-21 25-18v16h4v-16a15 15 0 006-10 12 12 0 00-4-11 7 7 0 01-2-5v-1c-1-8-3-26 2-38 6-18 8-42 4-57a129 129 0 01-4-14v-2a71 71 0 019 2c10 3 33 4 53 3v2a61 61 0 003 12c2 7 3 40 3 40a213 213 0 00-1 56l-9 23v1a13 13 0 00-3 1s-5 10-10 12-4 7 8 5l29-4 1-10 3-5-1 11 4-1v-13l5-7s7-6-3-19v0c-2-3-3-8-1-16 5-16 7-31 7-31s10-39-2-57h1a31 31 0 01-3-9v-1c9 0 18-2 25-5 0 0-4-93-8-107zm-115-65h-2zm-6 1a2 2 0 00-1 1 8 8 0 00-1 3h-3l-5-1-2-2 12-1z" transform="translate(-106 -56)" fill="url(#a)"/><path fill="#1d2366" d="M871 704l-1 13 3-1v-14l-2 2z"/><path d="M786 641a94 94 0 00-1 44l-8 15-19 13-14 7s-13-5-7-8a10 10 0 004-2c6-6 14-21 14-21s1-8 3-12 1-43 1-43v-71h26a58 58 0 001 8 129 129 0 004 14c4 15 2 39-4 56z" fill="#ffb0b1"/><path d="M785 685l-8 15-19 13-14 7s-13-5-7-8a10 10 0 004-2v4h5l38-34 1 5z" opacity=".1"/><path d="M784 681l-38 34h-5l-1-6s-7 10-25 9c0 0-10 7 5 7h35s14-21 26-19v17h3v-17a15 15 0 006-9 12 12 0 00-4-11 7 7 0 01-2-5z" fill="#1d2366"/><path d="M874 661c-2 9-1 14 1 17a30 30 0 014 11v1l-17 25-10 4s-15-6-12-7l3-5 9-23 2-18c2-11-1-38-1-38s-1-33-4-40a62 62 0 01-2-12l-1-8s10-14 29 1a21 21 0 014 4c12 18 2 58 2 58l-7 30z" fill="#ffb0b1"/><path d="M879 689l-17 26-10 4s-15-6-12-7l3-5c6 0 10 6 10 6l8-1s11-21 13-23 0-9 0-9v-3l1 1a30 30 0 014 11z" opacity=".1"/><path d="M853 714s-4-9-13-6c0 0-5 10-10 12s-4 7 8 5l28-3 1-11 11-14s7-7-3-19v2s2 9 0 10-13 22-13 22z" fill="#1d2366"/><path d="M785 563a58 58 0 001 8h-27v-8zM880 575l-33 1-1-8s10-14 29 1a21 21 0 014 4 24 24 0 001 2z" opacity=".1"/><path d="M880 574s-65 3-85-3-40 0-43-2 0-21 2-26l17-56 14-72 14-4h1l26-7 18-5s37 143 34 154a27 27 0 00-1 12 31 31 0 003 9z" fill="#1d2366"/><path d="M737 366s-13 14-3 22 16 1 16 1z" fill="#c7daf5"/><path d="M737 366s-13 14-3 22 16 1 16 1z" opacity=".1"/><path d="M842 275l-4 3a536 536 0 01-21 17c2-3 1-9 0-14v-1a97 97 0 00-3-11l15-18c2-2 4-2 4-1l3 10a245 245 0 006 15z" fill="#ffb0b1"/><path d="M836 260a28 28 0 01-19 21 95 95 0 00-3-12s18-24 19-19l3 10zM816 287l2-3s1 10 7 5 6 32 6 32l-6 91-44-2 1-44 5-23 12-32 8-11z" opacity=".1"/><path d="M831 321l-5 83-1 9-25-2h-1l-18-1 1-44 5-22 12-33 8-10 9-13 2-3s1 9 7 5 6 31 6 31z" fill="#1d2366"/><path d="M788 336s-3 5-7 4-4 17-4 17-3 2-5 0-8 6-8 6l-34 1s15 7 12 28c0 0 51-3 53-8s-7-48-7-48z" fill="#fff"/><path fill="#fff" d="M690 375l8 8 74 15-9-9-73-14zM816 290c-2 2-5 12-8 20l-4 13s-5 31-8 36-1 28-1 28l-9 53s-4 28-10 44c-6 17-13 24-13 25 2-4 18-79 18-79l5-93 1-17c1-8 16-18 16-18l14-20c2 2 1 5-1 8z"/><path d="M778 411s-22-1-32-14 24-5 24-5l9 2z" fill="#ffb0b1"/><path d="M878 553a27 27 0 00-1 13c-23 1-48-5-48-5l-17 10-7-82c-4-11-6-70-6-70l1-8c2-13 5-37 7-40 2-4-7-16-7-16l4-36 1-4c8-4 15-16 15-16l5-9c6-4 6 31 6 31l-5 83 18-5s37 144 34 154z" opacity=".1"/><path d="M902 559c-26 12-72 1-72 1l-17 10-7-82c-4-12-6-70-6-70s6-44 8-48v-5a67 67 0 01-4-31l1-16 1-4c9-4 15-16 15-16l5-8 8-15 5-7 5 5a616 616 0 0032 28c6 6 8 29 8 46v20c-5 9 10 85 10 85 3 15 8 107 8 107z" fill="#fff"/><path d="M852 296s-17 33-15 46 8 27 5 30a10 10 0 01-8 4c-3 0-11 5-11 6s-6 1-13 3l-15 4-19 1c-2 1-3 12 0 20s8 14 11 15 21-5 36-7 32-13 32-13 18-7 22-18-4-71-4-71-6-28-21-20z" fill="#fff"/><path d="M852 385s-14-3-9 2 5 9 11 8-2-10-2-10zM875 485s-6 4 6 14-6-14-6-14zM863 520c0 1-2 20 6 25s-6-25-6-25z" opacity=".1"/><path d="M731 364c-7 0-21 2-14 17 7 12 18 4 24-3a24 24 0 00-10-14zM742 378zM741 378h0z" fill="#ffb0b1"/><path d="M850 278l-14 10c-3 2-10 16-13 23-4 6-14 8-18 8l1-4c9-4 15-17 15-17l17-30 6 6 6 4z" opacity=".1"/><path d="M850 278l-14 9c-3 3-10 17-13 24-4 6-14 7-18 7l1-4c9-4 15-16 15-16l18-30 5 5 6 5z" fill="#dce7ff"/><path d="M836 254a27 27 0 010 6 27 27 0 01-5 9 28 28 0 115-15z" fill="#ffb0b1"/><path d="M884 347a24 24 0 01-8-10c-2-3-3-7-6-9-2-2-5-2-8-3-10-3-18-12-19-22 0-5 2-10 1-14a16 16 0 00-3-8 23 23 0 00-3-3l-4-3a15 15 0 01-2-3 13 13 0 01-1-2c-1-6 0-13-2-19-1-2-2-4-4-4l-7 2c-4 2-9-1-12-4s-8-6-13-6l-8 4a13 13 0 01-2 1 28 28 0 0153 10 27 27 0 010 6l3 8 5 5a616 616 0 0032 28c6 6 8 29 8 46z" opacity=".1"/><path d="M785 226l3-8c3-4 7-6 11-8 11-4 34-9 41 0l4 5a34 34 0 005 3c4 2 7 6 9 11l3 14 6 18c3 6 6 13 12 18 7 7 9 16 16 23 8 8 8 22 4 33a9 9 0 00-1 5 9 9 0 002 4l5 5a26 26 0 01-28-13c-2-3-3-6-6-8l-8-4c-10-3-18-12-18-22v-14a16 16 0 00-3-7l-8-10c-4-6-1-14-4-21-1-2-2-4-4-4l-6 3c-5 1-10-2-13-4s-8-7-12-6c-4 0-6 2-9 3-2 1-6 2-8 0-4-3 5-13 7-16z" fill="#591d4b"/><path d="M879 333c-1-3-2-6-5-8-2-2-6-3-9-4-9-3-18-12-18-22l1-14a16 16 0 00-3-7c-3-4-7-6-9-10-3-6-1-14-3-21-1-2-3-4-5-4l-6 2c-4 2-9-1-13-4s-7-6-12-5c-3 0-5 2-8 3-2 1-6 2-8 0-4-4 5-13 6-16l4-8v-1a15 15 0 00-3 4l-3 8c-2 3-11 12-7 16 2 2 6 1 8 0 3-1 5-3 8-3 5-1 9 2 13 5s8 6 12 5c3-1 4-3 7-3s3 2 4 4c3 7 0 15 3 21l9 10a16 16 0 013 7c1 5-1 10-1 14 1 10 9 19 19 22l8 4c3 2 4 5 5 8a26 26 0 0029 13l-3-2c-9 0-19-5-23-14z" opacity=".1"/><path d="M815 291c-1 2-5 11-7 20-3-1-6-8-6-8l15-21c1 2 0 6-2 9z" opacity=".1"/><path d="M816 290c-2 2-5 12-8 20-3-1-5-8-5-8l14-20c2 2 1 5-1 8z" fill="#dce7ff"/><path d="M731 385l-8-25a2 2 0 012-3 2 2 0 013 1l8 26-1 5z" fill="#be8b87"/><path d="M724 358a2 2 0 013 1l8 26-1 4h1l1-5-8-25a2 2 0 00-3-2 2 2 0 00-1 1z" fill="#fff" opacity=".1"/><path fill="#efc8c4" d="M731 385l5-1-1 4v1l-1-1-3-3z"/><path d="M734 388a1 1 0 011 0v1z" fill="#727a9c"/><path d="M723 369s16 0 13 7-10 7-10 7z" fill="#ffb0b1"/></svg>