<svg data-name="Layer 1" xmlns="http://www.w3.org/2000/svg" xmlns:xlink="http://www.w3.org/1999/xlink" viewBox="0 0 1006.4 786.8"><defs><linearGradient id="a" x1="281.8" y1="766.4" x2="281.8" y2="356.8" gradientUnits="userSpaceOnUse"><stop offset="0" stop-color="gray" stop-opacity=".3"/><stop offset=".5" stop-color="gray" stop-opacity=".1"/><stop offset="1" stop-color="gray" stop-opacity=".1"/></linearGradient><linearGradient id="b" x1="282.8" y1="784.8" x2="282.8" y2="753.2" xlink:href="#a"/><linearGradient id="c" x1="376" y1="417.1" x2="376" y2="120.1" xlink:href="#a"/><linearGradient id="d" x1="376" y1="407.7" x2="376" y2="129.5" xlink:href="#a"/><linearGradient id="e" x1="278.7" y1="332.3" x2="278.7" y2="240.6" xlink:href="#a"/><linearGradient id="f" x1="278.7" y1="324.5" x2="278.7" y2="248.4" xlink:href="#a"/><linearGradient id="g" x1="379.4" y1="528.7" x2="379.4" y2="399.9" xlink:href="#a"/><linearGradient id="h" x1="373" y1="528.8" x2="373" y2="406.7" xlink:href="#a"/><linearGradient id="i" x1="317.1" y1="469.1" x2="317.1" y2="351.4" xlink:href="#a"/><linearGradient id="j" x1="377.5" y1="416.4" x2="377.5" y2="387.9" xlink:href="#a"/><linearGradient id="k" x1="377.5" y1="413.4" x2="377.5" y2="384.9" xlink:href="#a"/><linearGradient id="l" x1="685.3" y1="676.4" x2="685.3" y2="279.5" xlink:href="#a"/></defs><path d="M235 635s21 20 9 51 20 80 20 80h-1c-42-7-63-55-40-91 9-13 16-29 12-40z" fill="#3b8070"/><path d="M235 635s12 25 0 45-2 78 29 86" fill="none" stroke="#535461" stroke-miterlimit="10"/><path d="M199 718s23-4 25 17 45 24 45 24h-1c-35 23-69 15-64-16 2-11 2-23-5-25z" fill="#3b8070"/><path d="M199 718s23-4 25 17 45 24 45 24h-1c-35 23-69 15-64-16 2-11 2-23-5-25z" fill="#f5f5f5" opacity=".2"/><path d="M199 718s18 4 16 20 27 36 54 21" fill="none" stroke="#535461" stroke-miterlimit="10"/><path d="M886 364c12 24 4 57 21 76 12 15 31 14 45 26 10 10 15 25 20 39l23 70c11 32 20 73-1 96-13 14-32 16-50 15-125-11-226-138-351-154-88-12-176 34-264 31-47-1-93-16-139-30-35-12-73-26-90-64-7-17-10-38-21-51-8-11-20-16-31-24C2 360-3 285 1 222c2-36 6-72 20-103s40-57 70-58c19-1 37 8 55 13s40 5 54-10c12-12 15-32 26-45 9-9 22-13 34-16 64-12 132 10 182 58 12 12 24 26 39 32 20 8 41 1 62 1 75 1 125 81 177 131 31 30 60 36 93 56 21 12 61 58 73 83z" fill="#3b8070" opacity=".1"/><path fill="url(#a)" d="M259 357h45v409h-45z"/><path fill="url(#b)" d="M353 785H212l50-32h38l53 32z"/><path d="M158 203s190-187 436 0v162s-193 117-436 0z" transform="translate(-97 -57)" fill="url(#c)"/><path d="M172 208s178-176 408 0v151s-181 109-408 0z" transform="translate(-97 -57)" fill="url(#d)"/><path fill="url(#e)" d="M225 241h108v91H225z"/><path fill="url(#f)" d="M234 248h90v77h-90z"/><path d="M413 529l-34-59-30 57-26-60-28 61v-1c11-32 0-123 0-124l-1-3 29 65 24-53 32 56 30-56 25 58 25-66 6-1c-1 1-17 89-8 119l3 5-1 1a25 25 0 01-3-6l-22-50zm-33-60l33 57 21-55-25-57zm-57-3l26 58 30-55-32-55zm-27-60c2 16 8 83 1 115l25-55zm139 65l20 46c-6-33 7-104 9-113l-5 1z" transform="translate(-97 -57)" fill="url(#g)" opacity=".1"/><path d="M325 529l-26-63 1-1 25 61 24-56-33-59 1-1 33 59 24-55 73-7-67 120-30-55zm25-59l30 54 65-116-70 7z" transform="translate(-97 -57)" fill="url(#h)" opacity=".1"/><path fill="url(#i)" d="M336 469l-1-1-60-116 1-1 60 116 22-58h1l-23 60z" opacity=".1"/><path d="M378 388c-48 0-87 6-87 14s39 14 87 14 86-6 86-14-39-14-86-14zm0 22c-44 0-80-4-80-9s36-9 80-9 79 4 79 9-36 9-79 9z" transform="translate(-97 -57)" fill="url(#j)"/><path d="M378 388c-48 0-87 6-87 14s39 14 87 14 86-6 86-14-39-14-86-14zm0 22c-44 0-80-4-80-9s36-9 80-9 79 4 79 9-36 9-79 9z" transform="translate(-97 -57)" fill="url(#j)" opacity=".2"/><path d="M378 385c-48 0-87 6-87 14s39 14 87 14 86-6 86-14-39-14-86-14zm0 22c-44 0-80-4-80-9s36-9 80-9 79 4 79 9-36 9-79 9z" transform="translate(-97 -57)" fill="url(#k)"/><path fill="#e8eaf1" d="M260 358h44v402h-44z"/><path fill="#e8eaf1" d="M352 778H214l49-31h37l52 31zM66 152s186-184 427 0v159s-189 114-427 0z"/><path d="M79 156s174-172 400 0v149s-177 107-400 0z" fill="#f3f5f7"/><path fill="#fff" d="M226 244h106v90H226z"/><path fill="#f3f5f7" d="M235 252h88v74h-88z"/><path d="M316 471l-34-57-29 55-26-58-27 59h-1c11-32 0-121 0-122v-3l28 63 24-52 31 55 30-54 24 56 24-64 6-2v1c0 1-16 87-7 117l2 5h-1a24 24 0 01-2-5l-22-49zm-33-58l33 56 20-55-24-55zm-55-3l25 57 29-54-31-54zm-27-59c1 16 8 81 1 113l24-54zm136 63l20 45c-6-32 6-102 8-110h-4z" opacity=".1"/><path d="M229 471l-25-62h1l24 60 24-55-32-59h1l31 58 24-55h1l71-7-66 118-30-54zm25-57l29 53 64-114-69 6z" opacity=".1"/><path opacity=".1" d="M335 468l-1-1-59-114h1l59 113 22-57h1l-23 59z"/><path d="M281 333c-47 0-85 6-85 14s38 14 85 14 85-6 85-14-38-14-85-14zm0 22c-43 0-78-4-78-9s35-9 78-9 78 4 78 9-35 9-78 9z" fill="#5f546f"/><path d="M281 333c-47 0-85 6-85 14s38 14 85 14 85-6 85-14-38-14-85-14zm0 22c-43 0-78-4-78-9s35-9 78-9 78 4 78 9-35 9-78 9z" opacity=".2"/><path d="M281 330c-47 0-85 6-85 14s38 14 85 14 85-6 85-14-38-14-85-14zm0 22c-43 0-78-4-78-9s35-9 78-9 78 4 78 9-35 9-78 9z" fill="#5f546f"/><path d="M591 736c-27 8-57 0-83 9a19 19 0 00-7 3c-6 6-4 17 2 23 9 10 24 13 37 15 66 6 131-18 197-13 10 1 21 2 28-5 5-6 5-14 3-21-5-12-17-21-30-24s-26-3-39-3l-54 2c-19 1-35 9-54 14z" fill="#3b8070" opacity=".1"/><path d="M845 644c-7-1-20-12-20-12a10 10 0 00-9-4l-12-18a135 135 0 00-18-24l-3-4a96 96 0 00-12-9 66 66 0 01-7-7 85 85 0 01-6-6l-9-13v-1a14 14 0 000-3v-1l-37-44-11-22-2 1v-3a93 93 0 0111-44 31 31 0 004-15v-2l-2-2v-1c5-8 11-10 11-10 22-3 37-17 37-17 16-9 13-17 13-17l-14-35-9-19-3-8a143 143 0 00-3-17c-2-8-13-10-18-4v1a16 16 0 002 21l10 9c9 2 15 49 15 49l-6 4a33 33 0 00-24 12h-19v-1h-3l-9-2-3-1h-1a56 56 0 01-4-6 3 3 0 001 0v-1h1l1-9a36 36 0 012-4c2-4 2-8 2-12l-4-12c-2-4-7-6-11-6l-10 3c-3 1-5 0-7-1a45 45 0 00-8-2l-5 1a3 3 0 000 1 6 6 0 00-1 1l-2 7a1 1 0 000 1c2 2 0 4 1 6l5 1a19 19 0 0012 29v1a41 41 0 01-1 8h-13a39 39 0 01-4 0v4l-1 1a42 42 0 00-23 16l-23 13s-10-2-39 23l-21 11s-32 9-26 18 36-11 36-11l12-5 37-16s12-8 21-11 18-12 18-12l2-1h1a8 8 0 01-1 1v83l-2 33s0 15-2 23 2 43 2 43h3v1l-1 14s-2 5 8 8a23 23 0 016 3l11 7 12 7 2 5-2-1s-2 5 4 11a21 21 0 017 18s1 12 7 9c0 0 10-2 9-19 0 0-3-13 1-19 5-6-1-14-1-14s-12-5-12 3l-1-1c-2-1-6-3-10-9 1 0-6-16-16-18l2-9v-1l8-7v-2h1v-2h1v-2h1v-2c3-7 7-18 7-24a15 15 0 000-2v-1l27 6 16 18h1v-1h2v-1h1v-1h1l1-1v1l7 8c7 3 23 18 23 18 2 5 10 11 14 14a25 25 0 003 2c3 1 6 4 9 7a103 103 0 0011 10 52 52 0 0110 10h1c-3 8 11 16 11 16 5-1 20 13 20 13s15 12 21-1-15-21-15-21zm-26-13l-2-3a3 3 0 012 3z" transform="translate(-97 -57)" fill="url(#l)"/><path d="M597 329s-50 30-39 13a42 42 0 007-24 31 31 0 00-1-8l21-10a20 20 0 001 9c2 10 11 20 11 20z" fill="#db8b8b"/><path d="M585 309a19 19 0 01-20 9 31 31 0 00-1-8l21-10a20 20 0 000 9z" opacity=".1"/><circle cx="568.8" cy="298.6" r="19.1" fill="#db8b8b"/><path d="M557 288a7 7 0 014 3c1 2 1 5 3 7a6 6 0 005 1 22 22 0 015 0c2 0 5 2 6 4a64 64 0 014 8 9 9 0 001 2 3 3 0 003 1c2-3 0-6 2-9a36 36 0 012-4c2-3 2-8 1-12 0-4-1-8-4-12s-6-6-11-5l-9 3-7-2a44 44 0 00-8-1c-1-1-3-1-4 1a6 6 0 00-1 2l-2 6a1 1 0 000 1c2 1 0 4 1 6s7 0 9 0z" opacity=".1"/><path d="M557 288a7 7 0 015 3c1 2 1 5 3 6a6 6 0 004 1 22 22 0 015 0c3 1 5 3 6 5a64 64 0 014 7 9 9 0 002 3 3 3 0 003 1l1-10a36 36 0 013-4c2-3 1-7 1-11l-4-12c-2-3-7-6-11-6-3 1-6 3-10 3-2 1-4 0-7-1a44 44 0 00-7-2l-5 1a6 6 0 00-1 2l-2 6a1 1 0 000 1l1 1c2 1-1 4 1 5l8 1z" fill="#472727"/><path d="M662 328s-15 14-36 17c0 0-6 1-11 10a35 35 0 00-3 10l-23-39-1-2h37a33 33 0 0124-12l6-4s-6-45-15-48l-9-8a16 16 0 01-3-21v-1c5-6 16-4 18 4a140 140 0 013 16l3 9 9 18 14 34s3 8-13 17zM549 330l-2 26h-9s-9 9-18 12-21 11-21 11l-35 15-12 6s-29 20-35 11 25-19 25-19l21-10c28-25 38-22 38-22l22-13a41 41 0 0122-16 28 28 0 014-1z" fill="#db8b8b"/><path d="M615 355a35 35 0 00-3 10l-23-39a16 16 0 001-2 19 19 0 002-4l3 1 9 2 3 1c-4 12 4 25 8 31zM549 330l-2 26h-7c3-5 5-18 5-25a28 28 0 014-1z" opacity=".1"/><path d="M613 374a91 91 0 00-11 44v2s6 15 0 15-5 7-11 8-31 12-39 8-12-14-12-14v-80c5-6 7-31 7-31a38 38 0 004 0h13c4 3 10 4 13 4a22 22 0 013 0c8 1 11-10 11-10l3 1 9 2 3 1c-6 15 9 32 11 34a31 31 0 01-4 16z" fill="#3b8070"/><path d="M551 326c0 7-1 28-11 31 5-6 7-31 7-31a38 38 0 004 0zM617 358c-18-1-16-24-14-35l3 1c-5 15 9 32 11 34z" fill="#fff" opacity=".3"/><g opacity=".1"><path d="M617 359v-1l-4-1a31 31 0 01-4 15 91 91 0 00-11 44v2s6 15 0 15-5 7-11 9c-7 1-27 10-36 8l1 1c8 5 32-6 39-7s6-9 11-9 0-15 0-15v-2a91 91 0 0111-44 31 31 0 004-15zM565 327h-1 1z"/></g><path d="M720 572l-6 13a82 82 0 00-5-8 52 52 0 00-10-10 101 101 0 01-12-9l-8-7a24 24 0 01-4-2c-3-3-11-9-13-14 0 0-16-14-22-17l-7-8-8-9 20-20 6 8 9 12a80 80 0 0013 13 91 91 0 0114 13 132 132 0 0117 23l13 18 2 3zM595 574l-7 18-7-7-2-5-3-5-11-7-11-7a23 23 0 00-6-3c-10-3-8-8-8-8l1-14 1-9 26-3-2 7-1 9c9 2 16 18 16 18 4 6 7 8 9 9a8 8 0 002 1z" fill="#db8b8b"/><path d="M717 568zM720 572l-6 13a82 82 0 00-5-8c0 1 5 6 7 2a49 49 0 012-5 6 6 0 001-3z" opacity=".1"/><path d="M719 571l-2-2v-1l-12-17a132 132 0 00-18-24 91 91 0 00-13-12 80 80 0 01-14-13l-9-13-6-8v1l5 7 9 13a80 80 0 0013 13 91 91 0 0114 12 132 132 0 0117 24l13 17v1l2 2 1 2-5 12 1 1 5-13zM595 574l-7 18-7-7-2-5 7 5c8-5 5-17 4-18a8 8 0 002 1z" opacity=".1"/><path d="M591 568s4 13-4 17l-11-6s-2 4 5 11a21 21 0 017 17s1 12 7 9c0 0 9-2 8-18 0 0-3-14 1-19v-1c5-5-1-14-1-14s-12-4-12 4z" fill="#535461"/><path d="M602 435c-5 0-5 7-11 8s-31 12-39 8-12-14-12-14v-1c12 6 28 0 28 0 10 2 29-12 34-16s6 15 0 15zM542 527l26-3-2 7c-8 4-19 5-25 5zM651 489c-1 9-11 17-18 21l-8-9 20-20z" opacity=".1"/><path d="M568 437s-16 6-28 0l-2 33s0 15-2 23 2 42 2 42 30 0 36-11c0 0 13-26 10-35l27 6 15 17s27-12 25-28l-36-43-11-22s-24 20-36 18z" fill="#3b8070"/><path d="M626 512l-15-17-27-6v1a10 10 0 011 2c0 10-11 32-11 32-6 11-36 11-36 11s-4-33-2-42 2-23 2-23l2-32v-1a26 26 0 0011 3 43 43 0 0016-3h1c11 1 28-11 34-16l2-2 11 22 36 43a12 12 0 010 1c1 15-25 27-25 27z" opacity=".1"/><path d="M594 321c-11 20-27 9-31 5h1c4 3 10 4 13 4a22 22 0 013 0c8 1 11-10 11-10z" fill="#fff" opacity=".3"/><path d="M717 568a10 10 0 019 5s13 10 19 11c0 0 21 9 15 21s-20 1-20 1-15-13-20-12c0 0-14-8-11-16 0 0 6 6 8 1a49 49 0 012-5c1-2 1-4-2-6z" fill="#535461"/><path d="M564 437c-5 2-15 4-24-1v2c11 4 22 0 24-1zM575 435a18 18 0 01-7 1l-3 1c3 1 7 0 10-2zM651 486c0 14-25 25-25 25 7-4 24-14 22-27l-36-43-10-20 2-2 11 22 36 43a12 12 0 010 1zM581 489c3 9-10 35-10 35-2 3-6 5-10 7 6-2 11-4 13-8 0 0 11-23 11-33z" opacity=".1"/><path d="M573 362c-7 0-13 8-13 18s6 18 13 18 12-8 12-18-5-18-12-18zm0 29c-4 0-7-5-7-11s3-10 7-10 7 4 7 10-3 11-7 11z" fill="#fff" opacity=".3"/><path d="M655 236v3a30 30 0 01-5 14l-1 1a30 30 0 01-24 12h-4a30 30 0 01-21-13v-1a30 30 0 01-5-16 31 31 0 011-4v-1a30 30 0 0116-22h1a29 29 0 0122-1 29 29 0 013 1 30 30 0 0115 16 31 31 0 012 11z" fill="#f88787"/><path d="M653 225a21 21 0 01-6 1h-2a25 25 0 01-11-4c-9-9-18-12-22-13h1c4 1 12 4 19 11a20 20 0 007 4 24 24 0 006 1h1l1 1a20 20 0 006-1zM655 238v1a40 40 0 00-8-4l-1-1a101 101 0 00-21-4c-17-2-25 0-29 2v-1c4-2 13-4 29-2a104 104 0 0121 5h1a42 42 0 018 4z" fill="#fff" opacity=".5"/><path d="M647 234v1l-1 4-1 3v1c-4 12-12 18-18 22a36 36 0 01-4 1h-2a36 36 0 006-2c6-3 13-9 17-21v-1l1-3 1-4v-1a36 36 0 000-8v-1a25 25 0 00-7-14 26 26 0 00-4-3 29 29 0 013 1l2 2a26 26 0 017 15 37 37 0 010 8z" fill="#fff" opacity=".5"/><path d="M650 253l-1 1a40 40 0 00-4-10 2 2 0 000-1 3 3 0 00-1 0c-4-2-15 1-24 6-6 3-15 4-20 4v-1c4 0 13 0 20-4 8-4 20-8 24-6a4 4 0 011 0 3 3 0 011 1 41 41 0 014 10z" fill="#fff" opacity=".5"/><path opacity=".1" d="M259 745h44v5h-44z"/><path fill="#fff" opacity=".3" d="M182 96L79 199v25L196 91l-14 5zM217 86L79 261v25L252 80l-35 6z"/></svg>