<svg data-name="Layer 1" xmlns="http://www.w3.org/2000/svg" xmlns:xlink="http://www.w3.org/1999/xlink" viewBox="0 0 1094.7 788.7"><defs><linearGradient id="a" x1="2938.8" y1="215.4" x2="2938.8" y2="-91.9" gradientTransform="rotate(59 1727 -1813)" gradientUnits="userSpaceOnUse"><stop offset="0" stop-color="gray" stop-opacity=".3"/><stop offset=".5" stop-color="gray" stop-opacity=".1"/><stop offset="1" stop-color="gray" stop-opacity=".1"/></linearGradient><linearGradient id="b" x1="1364.2" y1="820.4" x2="1364.2" y2="492" gradientTransform="matrix(-1 -.04 -.04 1 2349 30)" xlink:href="#a"/></defs><g opacity=".5"><rect x="960.7" y="367.7" width="134" height="134" rx="14.1" fill="#d0d2d5"/><path d="M1009 406h38s32 28 0 57h-38s-32-26 0-57z" opacity=".1"/><path fill="#3f3d56" d="M1013 422h5v15h-5zM1038 420h5v18h-5zM1028 446a6 6 0 016 6v5h-12v-5a6 6 0 016-6z"/></g><path d="M674 294h10l9-1h14c4-1 7-1 10-3l6-7c9-8 15-20 23-29l6-8 8-16a45 45 0 003-7l1-5 5-10h-1c4-5 3-13 5-19a80 80 0 014-10l7-15 4-7 8-5a13 13 0 004-6v1l3 4c3 2 7 4 9 7l5 4a5 5 0 005-1c5-4 12-5 18-8l4-4a56 56 0 0110-7 27 27 0 017 1l9 3a13 13 0 008-3c2-2 3-3 3-5a6 6 0 00-2-6h-1a7 7 0 00-2-5 16 16 0 00-5-3 12 12 0 00-4-1 16 16 0 00-5 2 51 51 0 01-11 2h-3v-1c-4 2-9 0-14 0l-6 1a60 60 0 01-8-1h-7a87 87 0 01-9-1l-3-5a46 46 0 00-5-8 27 27 0 012-2h1a19 19 0 0027-17 15 15 0 002-1h1v-1a8 8 0 001 0v-1a5 5 0 001-1v-1a2 2 0 010-1v-1-1-1-1-1l-3-6a16 16 0 00-3-5c-1-2-4-3-6-4l-6-7c-2-3-5-4-8-4a15 15 0 00-7 1c-19 7-34 20-50 31-7 4-14 8-21 7l6 11 1 1 1 2a12 12 0 004 3 8 8 0 001 1 9 9 0 001 0h8l2-1h1l-1 3a61 61 0 00-4 11c-2 7-4 15-3 23v8l-1 3a17 17 0 011 2l-2 4v3a5 5 0 00-3 4 4 4 0 01-1 2 4 4 0 01-1 1 5 5 0 00-1 3l-6 3a21 21 0 01-5 2c-4 1-9 5-12 8-2 2-5 4-5 6l-1 3a18 18 0 01-3 5 34 34 0 01-7 8 19 19 0 00-3 4c-2 2-5 2-6 5a24 24 0 01-2 3l-5 2c-4 1-6 6-9 8a1 1 0 01-1 0h-1-1l-2-1-24-15-4-2-20-12a1 1 0 00-1 0h-1l-3-3v-1a1 1 0 000-1 3 3 0 000-1 22 22 0 01-3-3 25 25 0 00-2-3 5 5 0 00-4-2 6 6 0 00-3 1 37 37 0 00-7 6v1a21 21 0 01-5 5l-8 6a10 10 0 00-3 4 8 8 0 001 6c1 4 4 7 7 10a4 4 0 002 1 2 2 0 002 0l2-6v-3a1 1 0 011-1l2-1v-1a11 11 0 017 0l4 2a9 9 0 001 5l14 5a114 114 0 0111 7l8 5 12 9a54 54 0 007 6c7 4 17 4 24-1 8-6 19-10 28-15a32 32 0 007-6 5 5 0 010 1l-4 7-1 6c-1 1-3 2-3 4v1a4 4 0 010 1c-1 3-2 5-5 7l-2 2-1 1-2 2a3 3 0 01-3 2c-7-1-13 2-20 2l-7-1c-8 0-15 2-22 4a11 11 0 00-1 5 17 17 0 01-8 0 16 16 0 00-1 0 3 3 0 000-2 40 40 0 00-8 4c-2 1-4 3-4 5a7 7 0 000 2l1 3a4 4 0 001 2l1 1a3 3 0 010 1l1 3a19 19 0 011 3v3a30 30 0 001 5l1 5a19 19 0 001 5l2 3v2a6 6 0 003 3 3 3 0 002 0l3-2a16 16 0 002-8l-1-3 1-9a2 2 0 00-1-2l1-7a11 11 0 013-3l1 4c8-3 15-5 23-5zm163-153h-2c-4 2-10 3-14 2a13 13 0 01-5-2h21z" transform="translate(-53 -56)" fill="url(#a)"/><path d="M811 75a15 15 0 016-2 12 12 0 013 1 16 16 0 016 3 7 7 0 012 5c0 2-2 4-3 5a13 13 0 01-8 3l-9-2a27 27 0 00-7-1 15 15 0 01-4 0 4 4 0 01-2-2 5 5 0 010-3l1-5h5a50 50 0 0010-2z" fill="#fbbebe"/><path d="M740 54a46 46 0 018 10c3 7 6 14 11 18a37 37 0 004 4 13 13 0 004 2c5 1 10-1 15-2a93 93 0 0013-6 11 11 0 002 5c1 2 3 3 5 2a59 59 0 00-12 7l-4 3c-5 4-12 4-17 9a5 5 0 01-5 0l-5-4-9-7-3-4-6-5c-2-1-2-3-3-5l-4-4c-2-3-2-8 0-12l6-11z" fill="#f86d70"/><path d="M740 54a46 46 0 018 10c3 7 6 14 11 18a37 37 0 004 4 13 13 0 004 2c5 1 10-1 15-2a93 93 0 0013-6 11 11 0 002 5c1 2 3 3 5 2a59 59 0 00-12 7l-4 3c-5 4-12 4-17 9a5 5 0 01-5 0l-5-4-9-7-3-4-6-5c-2-1-2-3-3-5l-4-4c-2-3-2-8 0-12l6-11z" opacity=".1"/><path d="M562 147a10 10 0 00-3-3 9 9 0 00-5 0c-4 0-8 2-12 5l-9 6a7 7 0 00-1 3 6 6 0 000 3 7 7 0 003 5c3 1 5 0 7-1 3-1 6-2 9-1l6 2c3 0 5-2 7-4 1-2 4-5 4-8s-4-5-6-7zM596 225a17 17 0 01-7 0c-2 0-4-1-5 1a4 4 0 000 1c-3 10-1 21 4 31h1a11 11 0 003-2c2-1 2-4 2-7l1-7c2-3 6-4 7-7v-8l-2-3-4 1z" fill="#fbbebe"/><path d="M562 146a1 1 0 000-2 3 3 0 000-1 21 21 0 01-3-2 28 28 0 00-3-4 5 5 0 00-3-1 6 6 0 00-3 0 36 36 0 00-7 6v1a1 1 0 010 1 21 21 0 01-5 4l-7 6a10 10 0 00-4 4 8 8 0 001 6c1 4 4 7 7 10a4 4 0 002 2 2 2 0 002-1c2-1 2-3 2-5v-3a1 1 0 010-1 1 1 0 011 0l3-2a9 9 0 00-8-4 3 3 0 01-3 0 2 2 0 010-3 5 5 0 013-1c7-2 13-7 20-10a5 5 0 013 0h2zM590 251l-1 1-1 1a2 2 0 01-1-1 37 37 0 01-2-22 14 14 0 011-3l1-4a40 40 0 00-8 4c-2 1-4 2-4 4a7 7 0 000 3l1 3a4 4 0 001 2l1 1a3 3 0 011 1v3a20 20 0 011 3v3a31 31 0 001 5l1 5a19 19 0 001 5l2 3 1 2a6 6 0 002 3 3 3 0 002 0l3-3a16 16 0 002-7v-12c0-3-4-2-5 0z" fill="#f86d70"/><path d="M737 76a22 22 0 01-8-6 38 38 0 01-3-4 135 135 0 01-10-20h13a18 18 0 006-3 52 52 0 006-6 61 61 0 005 8c2 1 5 4 5 6s-4 3-6 4a23 23 0 00-6 6c-3 4-5 10-2 15z" fill="#fbbebe"/><path d="M745 55a19 19 0 01-10-12 52 52 0 007-6 61 61 0 005 8c1 1 4 4 4 6s-4 3-6 4z" opacity=".1"/><circle cx="754.1" cy="37.5" r="18.7" fill="#fbbebe"/><path d="M713 154a9 9 0 01-9 0 17 17 0 01-3-3c-6-6-12-13-16-21a14 14 0 01-2-5 6 6 0 012-5 4 4 0 001-1 4 4 0 000-2 5 5 0 014-4v-3l1-3a17 17 0 00-1-3l1-3v-8c-1-8 1-15 3-23a61 61 0 014-11l1-3a77 77 0 016-9 11 11 0 015-3 4 4 0 010-1 11 11 0 014 0c3 0 7 1 9 3l5 9a25 25 0 001 4l7 8 2 2 6 3a6 6 0 011 2 35 35 0 012 11 19 19 0 010 3 14 14 0 01-4 8l-8 6-4 7-7 14a82 82 0 00-4 10c-2 7-1 17-7 21z" fill="#f86d70"/><path d="M655 237h-14l-9 1h-9c-8 0-16 2-24 4a44 44 0 01-3-16 11 11 0 010-1 11 11 0 011-5c7-2 14-4 22-4l7 1c7 0 13-3 20-2a3 3 0 003-2l1-2 2-1 2-2 4-6a4 4 0 001-2v-1l2-4c2-2 1-4 2-6 1-3 3-4 3-7a5 5 0 001-1 31 31 0 01-8 6c-9 5-19 9-27 15-7 5-17 5-24 1a54 54 0 01-8-6l-11-9-8-6a114 114 0 00-11-6c-4-2-9-5-14-5a11 11 0 010-9 29 29 0 014-7 22 22 0 016-6 1 1 0 011 0l20 12 4 3 24 15h3l1 1a1 1 0 001 0c3-3 5-7 9-9 1 0 3 0 4-2a23 23 0 002-3c2-2 5-2 7-5a18 18 0 013-3 34 34 0 007-8 18 18 0 002-5l1-3 5-6c4-3 8-7 13-8a21 21 0 005-2c2-1 3-3 6-3a5 5 0 012 2 70 70 0 017 8l11 14a16 16 0 004 4 11 11 0 008 1c0 4-3 7-5 10l-1 6a43 43 0 01-2 6c-3 6-5 11-9 16l-5 8c-8 9-14 21-23 29l-6 7c-3 2-6 2-10 3z" fill="#434175"/><path d="M693 110a5 5 0 00-2 0c1 0 4 2 5 1v-1h-3z" opacity=".1"/><path fill="#d0d2d5" d="M935 466l74-26 4 13-73 26zM960 494l67-24a7 7 0 019 4 7 7 0 01-5 9l-66 24-5-13z"/><path d="M896 453l16-6a58 58 0 0174 35l6 16a23 23 0 01-14 29l-49 18a23 23 0 01-29-14l-18-49a23 23 0 0114-29z" fill="#3f3d56"/><path d="M692 119a4 4 0 00-2 0 4 4 0 00-3 2 2 2 0 002 0 7 7 0 012-1l2 1c1-1 0-1-1-2zM747 88a19 19 0 01-4-2l-10-8a55 55 0 00-6-3l-11-6a12 12 0 00-3-1l-6 1a7 7 0 01-5-4 18 18 0 01-2-5 29 29 0 01-1-4 16 16 0 010-4 9 9 0 013-6 12 12 0 015-2 19 19 0 013-1 11 11 0 012 0c5 1 8 4 11 7l5 5a25 25 0 001 4l7 8 2 2 6 3a6 6 0 011 2 35 35 0 012 11 19 19 0 010 3zM656 216l-60 9a11 11 0 011-5c7-2 14-4 22-4l7 1c7 0 13-3 20-2a3 3 0 003-2l1-2 2-1 2-2 4-6a4 4 0 001-2v-1l2-4c2-2 1-4 2-6 1-3 3-4 3-7h1l10-4z" opacity=".1"/><ellipse cx="425" cy="668.7" rx="425" ry="33" fill="#3b8070" opacity=".1"/><ellipse cx="800.7" cy="752.9" rx="275" ry="35.8" fill="#3b8070" opacity=".1"/><path d="M475 642l1-14 40-2c7 0 15 0 23 2l15 5c10 3 21 4 32 4 10 0 21 1 30-4 16-8 23-28 24-46s-3-36 0-54" fill="none" stroke="#3f3d56" stroke-miterlimit="10" stroke-width="12"/><path fill="#d0d2d5" d="M512 670l-178-3v-4l9-76h156l12 76 1 6v1z"/><path opacity=".1" d="M512 669h-89l-89-2v-4h177l1 6z"/><path fill="#d0d2d5" d="M304 664h236v6H304z"/><path d="M766 135a15 15 0 00-15-15H91a15 15 0 00-15 15v400h690z" fill="#3f3d56"/><path d="M76 531v47a15 15 0 0015 15h660a15 15 0 0015-15v-47z" fill="#d0d2d5"/><path fill="#2f2e41" d="M105 145h636v360H105z"/><path d="M424 575a15 15 0 0013-6 15 15 0 001-2l-9-1h9a15 15 0 001-12l-13 6 12-8a15 15 0 10-26 17 15 15 0 0012 6z" fill="#3b8070"/><path opacity=".1" d="M440 593l71 71-11-71h-60z"/><path d="M745 142l38-51 8-8c9-6 22-3 30 5s11 19 13 30a316 316 0 017 75c0 14-2 27-6 40-6 19-19 35-29 53-16 28-22 66-2 92l21 23c7 10 9 22 12 34 4 18 8 35 8 54 3 58-31 117-82 144-36 20-79 25-110 51-11 10-21 23-18 37 2 12 12 20 23 24s23 4 35 3a636 636 0 0083-10c23-5 46-9 66-21a14 14 0 005-4c2-2 2-5 2-8 1-7 1-15-2-22-3-8-10-15-13-23s-3-17-1-26c3-10 8-20 13-30l15-27c16-26 38-46 60-67" fill="none" stroke="#3f3d56" stroke-miterlimit="10" stroke-width="12"/><path d="M808 69a15 15 0 016-1 12 12 0 013 1 16 16 0 016 3 6 6 0 012 5c0 2-2 4-3 5a13 13 0 01-8 3l-9-2a27 27 0 00-7-1 15 15 0 01-4 0 4 4 0 01-2-2 5 5 0 010-3l1-5h5a51 51 0 0010-3z" fill="#fbbebe"/><path d="M794 70c-4 2-9 1-13 1h-7a59 59 0 01-7 0l-7-1a62 62 0 01-13-1c-4-5-9-6-14-10l-9-10c-3-4-6-6-11-6a16 16 0 00-5 0 12 12 0 00-4 2 9 9 0 00-4 7 22 22 0 001 7 18 18 0 002 6 7 7 0 005 3h6a12 12 0 013 1l12 6a56 56 0 015 3l10 7c4 2 8 4 12 2 12-4 25-2 38-1l1-1a11 11 0 002-7l-3-8z" fill="#f86d70"/><path d="M774 37a7 7 0 003-3c2-2 1-5 0-7l-2-6a15 15 0 00-3-5l-7-5-6-6-8-5a15 15 0 00-7 2c-18 6-33 20-49 30-7 4-14 8-21 7l7 11c1 3 3 6 6 7h9a23 23 0 006-2c4-2 7-7 11-8h10c3 1 6 3 10 3 6 1 12-1 17-5l9-6a14 14 0 018-1l7-1z" fill="#2f2e41"/><path d="M777 34v-7a6 6 0 010 4 7 7 0 01-3 3l-8 1a14 14 0 00-8 1c-4 1-6 4-9 6-5 3-11 6-17 5-4 0-7-2-10-3s-7-2-10 0c-4 1-7 6-11 8a23 23 0 01-6 2h-9c-3-1-5-4-6-7l-5-8h-1l6 11c2 3 4 6 7 7h8a23 23 0 007-2c4-2 6-7 11-8 3-2 7-1 10 0l9 3c6 1 12-1 17-5l9-6a14 14 0 018-1l8-1a7 7 0 003-3z" opacity=".1"/><path d="M882 774a10 10 0 012-3c4-4 6-10 7-16l3-18a57 57 0 014-8c1-2 2-7 4-8a3 3 0 011-1 15 15 0 014-5c3-2 6-4 8-8a18 18 0 012-3l5-3 1-8c0-3 0-5 2-6l4-2c2-1 3-3 3-6l-1-6c-1-7 4-14 2-21 0-3-2-5-3-8a17 17 0 01-1-2 36 36 0 01-10 2c6-12 4-27 7-40h-1a21 21 0 01-4-12c0-5 3-10 4-15 0-4 0-8 2-12a38 38 0 013-7l4-7 4-13c1-6 3-12 7-17 1-2 1-6 3-7a9 9 0 015-1c3-1 6-4 6-7a7 7 0 000-2c-5 0-7-4-9-7-4-6-3-13 0-20a13 13 0 013-5c3-3 8-2 12-4a43 43 0 014-1c3-1 6 0 8 1l8 4c3 1 6 2 6 5a5 5 0 010 2 10 10 0 01-3 5 18 18 0 01-11 25l-2 3-2 8a21 21 0 012 2c3 4 5 9 6 14a140 140 0 015 18c3 5 6 10 7 15a35 35 0 0010-1l8-2c3 0 6-1 8-3l4-3c1-1 4-3 5-2a4 4 0 011 1c1-3 9 8 3 9l1 1 2 6-38 13a23 23 0 01-8 2 12 12 0 01-3-1v2c0 14 2 27 3 40 0 2 0 5-2 7-1 2-4 2-7 2a17 17 0 01-2-1 69 69 0 00-2 11l-2 17a26 26 0 00-1 6l4 12c1 4 3 8 1 12l-2 3a13 13 0 00-1 6l-1 16a2 2 0 012 0c2 2 1 9 2 12v12a71 71 0 002 16 10 10 0 003 5 10 10 0 004 2 47 47 0 0015 2h6c2 0 4 3 3 5 0 2-2 3-4 4a65 65 0 00-11 5 29 29 0 01-4 2 22 22 0 01-4 1l-18 3c-4 1-8 1-11-2l-1-6v-12a36 36 0 00-1-7l-6-16-4-16 1-5a4 4 0 012-1v-14-4a17 17 0 00-3 3c-1 3-2 6-5 8-2 2-5 1-7 4a10 10 0 00-1 2 20 20 0 01-4 7 33 33 0 01-2 6l-5 9-5 10a27 27 0 00-3 7c-1 5 1 10 4 14s9 5 14 7a4 4 0 011 1 3 3 0 011 2c0 2-2 4-4 5a15 15 0 01-7 0c-13-1-26-5-37-11a13 13 0 01-5-3 5 5 0 010-5z" transform="translate(-53 -56)" fill="url(#b)"/><path d="M883 494l-6 10a37 37 0 00-3 7l-2 12-3 15a21 21 0 004 11 57 57 0 009 9 188 188 0 0012-61l-1-8c-1-2-4-7-6-5l-1 5a36 36 0 01-3 5z" fill="#f86d70"/><path d="M883 494l-6 10a37 37 0 00-3 7l-2 12-3 15a21 21 0 004 11 57 57 0 009 9 188 188 0 0012-61l-1-8c-1-2-4-7-6-5l-1 5a36 36 0 01-3 5z" opacity=".1"/><path d="M990 505c4-1 9-1 12 2a9 9 0 013 6c0 3-1 6-4 6a13 13 0 01-2 0 30 30 0 00-5 1 21 21 0 01-19-8c-2-3 1-4 4-5l11-2z" fill="#fbbebe"/><path d="M924 595l-3 18a26 26 0 000 5c0 4 2 8 4 12s2 8 0 12l-2 3a13 13 0 00-1 6l-1 25a159 159 0 01-23 0 1 1 0 01-1-1 1 1 0 010-1v-17-7c0-8 4-17 3-25a57 57 0 00-2-7c-4-15-3-31-2-46a1 1 0 010-1 1 1 0 011 0 28 28 0 0125 5l5 3c1 1 0 3-1 4a57 57 0 00-2 12z" fill="#3f3d56"/><path d="M924 595l-3 18a26 26 0 000 5c0 4 2 8 4 12s2 8 0 12l-2 3a13 13 0 00-1 6l-1 25a159 159 0 01-23 0 1 1 0 01-1-1 1 1 0 010-1v-17-7c0-8 4-17 3-25a57 57 0 00-2-7c-4-15-3-31-2-46a1 1 0 010-1 1 1 0 011 0 28 28 0 0125 5l5 3c1 1 0 3-1 4a57 57 0 00-2 12z" opacity=".1"/><path d="M877 590l4 7c1 7-3 14-3 21l1 7c0 3-1 4-3 5l-4 2c-2 1-2 4-2 6s1 6-1 8l-4 3a17 17 0 00-2 3c-2 4-6 6-9 8s-5 7-4 10 4 5 6 6a65 65 0 0015 5 4 4 0 002 0 4 4 0 001-1l8-10a10 10 0 011-2c1-2 5-2 7-4l5-8 6-6c3-4 3-9 6-14l3-5a30 30 0 001-8c1-11 5-23 3-35l-2-7v-14a4 4 0 00-2-3 4 4 0 00-2 0 119 119 0 00-17 0c-3 0-7 1-8 3-2 3-2 5-2 8l-4 7v8z" fill="#3f3d56"/><path d="M900 671l-4 1c-2 1-2 3-2 5l5 16 5 16a36 36 0 012 7l-1 12 2 6c2 3 7 2 10 2l18-3a22 22 0 004-1 30 30 0 005-3 65 65 0 0111-5l4-3c0-2-1-4-3-5h-6a47 47 0 01-16-3 10 10 0 01-4-2 10 10 0 01-2-4 71 71 0 01-3-16v-12c0-3 0-10-2-12-2-1-8 2-10 3a50 50 0 01-13 1zM842 682l-3 18c-1 6-3 12-8 16a10 10 0 00-2 2 5 5 0 001 5 13 13 0 004 4c12 6 24 9 37 11a15 15 0 007-1c2 0 4-2 4-5a3 3 0 00-1-1 4 4 0 00-1-1c-5-2-9-4-13-8s-6-9-5-14a27 27 0 014-6 106 106 0 005-10l4-9 3-8a41 41 0 01-16-3 26 26 0 01-7-4c-2-2-3-4-6-2l-4 7a59 59 0 00-3 9z" fill="#2f2e41"/><path d="M906 453c0 4-4 6-7 8l22 7c-1-3 0-6 1-9a51 51 0 014-6l1-2a1 1 0 00-1 0l-14-5c-2 0-5-1-6 1s1 4 0 6z" fill="#fbbebe"/><path d="M906 453c0 4-4 6-7 8l22 7c-1-3 0-6 1-9a51 51 0 014-6l1-2a1 1 0 00-1 0l-14-5c-2 0-5-1-6 1s1 4 0 6z" opacity=".1"/><circle cx="919.5" cy="438.4" r="17.6" fill="#fbbebe"/><path d="M935 583c-2 2-5 3-8 2-6-1-11-5-17-7-7-2-15 1-22 4s-14 7-22 7c7-15 3-33 10-49 2-4 4-7 4-11 1-6-2-10-2-15-1-5 1-9 2-14l5-16c2-6 3-12 7-17 1-2 2-5 4-6 4-3 10 0 15 0s9 4 12 8l6 13a125 125 0 015 21v34l2 40-1 6z" fill="#f86d70"/><path d="M934 537c-4-1-7-3-9-5a39 39 0 01-7-7 50 50 0 01-5-11 129 129 0 01-7-33c0-3 0-6 2-8a7 7 0 018-2c3 1 4 3 6 5l7 14 2 7a61 61 0 003 6v34z" opacity=".1"/><path d="M908 471c-2 2-2 6-2 8a129 129 0 007 33 49 49 0 005 11 39 39 0 007 7c3 3 7 6 12 6a23 23 0 007-2l38-13-2-6-2-6c-1-2-1-4-3-5s-4 1-5 2l-3 3-9 3-8 2a36 36 0 01-9 2l-10-21-2-7-7-14c-2-2-3-4-6-5a7 7 0 00-8 2z" fill="#f86d70"/><path d="M914 442a9 9 0 011-3 3 3 0 013-1c2 0 2 3 4 3l3-2 1-4a6 6 0 012-1c5-1 9-3 10-8a5 5 0 001-2c-1-3-4-4-7-5l-7-4c-2-1-6-2-9-1a41 41 0 00-4 1c-4 2-9 1-12 4a13 13 0 00-3 5c-2 6-4 14 0 19 2 4 4 7 9 8 5 0 7-4 8-9z" fill="#2f2e41"/><g opacity=".1"><path d="M922 437l1-4a6 6 0 012-1c5-1 9-4 10-8a5 5 0 001-3 3 3 0 00-1-1l4 4a5 5 0 01-1 2c-1 5-5 7-10 8a6 6 0 00-2 1l-1 4-3 2-3-2c2 0 2-1 3-2zM903 449c5 0 7-4 8-9a9 9 0 011-3 3 3 0 013-1l2 2a3 3 0 00-2 1 9 9 0 00-1 3c-1 5-3 9-8 9a8 8 0 01-5-3 7 7 0 002 1z"/></g><path d="M171 650l19-11a46 46 0 00-10-12l-36 12 28-17a46 46 0 00-68 40c0 26 21 27 46 27s46-1 46-27a46 46 0 00-4-18z" fill="#3b8070"/><path d="M176 675a36 36 0 00-7-5c-4-3-7-5-11-6h-11a26 26 0 01-17-8l-8-8c-3-2-8-3-12-2a31 31 0 00-3 1 46 46 0 00-3 15c0 26 21 27 46 27 13 0 24-1 32-4l-1-2a36 36 0 00-5-8z" opacity=".1"/><path d="M584 715l-25-15a61 61 0 0113-16l47 15-37-22a61 61 0 0190 53c0 34-27 35-61 35s-61-1-61-35a61 61 0 015-24z" fill="#3b8070"/><path d="M577 747a48 48 0 019-7c5-3 10-6 15-7h15a34 34 0 0022-11c4-3 6-8 10-10 5-3 11-4 16-3a38 38 0 015 1 61 61 0 013 20c0 34-27 35-61 35-16 0-31 0-42-4l2-3 6-11z" opacity=".1"/></svg>