<svg data-name="Layer 1" xmlns="http://www.w3.org/2000/svg" viewBox="0 0 1103.1 834.1"><defs><linearGradient id="a" x1="394.5" y1="617.1" x2="394.5" y2="476.8" gradientUnits="userSpaceOnUse"><stop offset="0" stop-color="gray" stop-opacity=".3"/><stop offset=".5" stop-color="gray" stop-opacity=".1"/><stop offset="1" stop-color="gray" stop-opacity=".1"/></linearGradient></defs><path d="M51 331c17 46 53 86 109 105 117 41 381 20 578-4 102-12 191-46 256-94zM1084 113H976c-5 0-9-3-9-6s4-6 9-6h19c-6 0-10-3-10-6s4-6 10-6h-14c-5 0-9-3-9-6s4-6 9-6h57c-13-4-28-6-44-8-154-12-209-4-229 5a287 287 0 01-79 22c-94 13-272 28-433-5-80-16-139 11-175 57h1025c-2-13-6-26-13-36a13 13 0 01-6 1zM42 234a199 199 0 004 81l949 22c26-19 48-41 66-64zm375 58h-18c5 0 9 3 9 6s-4 6-9 6H291c-6 0-10-3-10-6s4-6 10-6h18c-5 0-9-3-9-6s4-6 9-6h-13c-5 0-10-3-10-6s5-6 10-6h108c5 0 9 3 9 6s-4 6-9 6h13c5 0 10 3 10 6s-5 6-10 6zM1103 148L67 165a190 190 0 00-25 68h1043a202 202 0 0015-43c3-15 4-29 3-42zm-851 54h-18c5 0 9 2 9 6s-4 6-9 6H126c-5 0-10-3-10-6s5-6 10-6h18c-5 0-9-3-9-6s4-6 9-6h-13c-5 0-9-3-9-6s4-6 9-6h108c5 0 9 2 9 6s-4 6-9 6h13c6 0 10 2 10 6s-4 6-10 6z" fill="#3b8070" opacity=".1"/><path fill="#535f89" d="M581 264h5v307h-5zM592 628a15 15 0 01-18 0c-3-16 4-49 5-56v-1h8a5 5 0 011 1c5 11 4 56 4 56z"/><path d="M585 564v7h-3v-7a9 9 0 012 0 10 10 0 011 0zM588 572a9 9 0 01-4 1 8 8 0 01-5-1v-1h8a5 5 0 011 1z" opacity=".1"/><ellipse cx="583.5" cy="568.7" rx="6" ry="3.6" fill="#dce2ed"/><path fill="#3b8070" d="M557 214l21-10 31 8-24-19-28 21z"/><path fill="#3b8070" d="M563 217l-6-3 21-10 31 8-5 2-26-6-15 9z"/><path opacity=".1" d="M563 217l-6-3 21-10 31 8-5 2-26-6-15 9z"/><path fill="#3b8070" opacity=".2" d="M562 215l17 48h9l16-51-26-6-16 9z"/><path fill="#3b8070" d="M592 249l-3 11-1 3h-9v-2l-4-11 6-4 11 3z"/><path fill="#3b8070" opacity=".2" d="M578 208l4 55h-3l-16-46 15-9z"/><path opacity=".1" d="M585 193l-7 11-21 10 28-21zM589 260l-1 3h-9v-2a7 7 0 015-2 8 8 0 015 1zM585 264v4h-1a9 9 0 01-2 0v-4z"/><ellipse cx="584.3" cy="263.7" rx="6" ry="3.6" fill="#dce2ed"/><path fill="#535f89" d="M799 413h4v203h-4zM806 654a10 10 0 01-12 0c-1-11 3-32 4-37v-1h5a3 3 0 011 1c3 7 2 37 2 37z"/><path d="M802 612v4h-2v-4a5 5 0 011 0 7 7 0 011 0zM804 617a6 6 0 01-3 1 6 6 0 01-3-1v-1h5a3 3 0 011 1z" opacity=".1"/><ellipse cx="800.9" cy="614.6" rx="4" ry="2.4" fill="#dce2ed"/><path fill="#3b8070" d="M783 380l14-6 21 5-16-13-19 14z"/><path fill="#3b8070" d="M788 382l-5-2 14-6 21 5-4 1-17-3-9 5z"/><path opacity=".1" d="M788 382l-5-2 14-6 21 5-4 1-17-3-9 5z"/><path fill="#3b8070" opacity=".2" d="M787 381l11 31h6l10-33-17-4-10 6z"/><path fill="#3b8070" d="M807 404l-3 7v1h-6v-1l-3-7 4-3 8 3z"/><path fill="#3b8070" opacity=".2" d="M797 377l3 35h-2l-10-30 9-5z"/><path opacity=".1" d="M802 366l-5 8-14 6 19-14zM804 411v1h-6v-1a5 5 0 013-1 5 5 0 013 1zM802 413v3h-1a6 6 0 01-1 0v-3z"/><ellipse cx="801.4" cy="413" rx="4" ry="2.4" fill="#dce2ed"/><ellipse cx="445" cy="790.1" rx="445" ry="44" fill="#3b8070" opacity=".1"/><path d="M447 688s-89-4-99-179 84-204 84-204 29-16 42-17 57 3 57 3l-48-9s68-26 88-28l-73 16s-1-41 16-54c0 0-15-1-23 28a56 56 0 01-33 37c-27 11-65 28-73 42 0 0-16 17-14-26s14-80 18-81c0 0 32-35 78-37 0 0-27-10-71 23 0 0-4-17 13-37s43-62 71-66c0 0-40-2-71 49 0 0-12 8-13-12s-8-43-8-43-10 44 11 64c0 0-39 51-37 108 0 0-12 25-17-5 0 0-2-41-8-77a105 105 0 0122-81c9-10 15-21 12-26l-45 54s-38-88-66-107-31-23-31-23l45 52-56-20 56 26s25 21 40 78 16 94 16 94-79-63-94-61l51 39a122 122 0 0148 89s-99-26-123-30l-45-47 34 44-71-1-40-29s32 27 29 29-50 4-50 4 119-1 132 8 42 11 42 11l-84 13 100-7s76 14 80 37c0 0-15 41-25 57a339 339 0 00-24 225c12 35 17 56 10 66s-12 25 9 28 115-2 115-2 28 6 23-15z" fill="#dea3a2"/><path d="M397 669a45 45 0 00-30-4c-18 4-45 2-47 2M341 463s-4 67 3 81zM325 544s6 63 9 75-9-75-9-75zM320 389c-4 1-21 35-17 45s17-45 17-45zM362 354c-2 1-10 20-8 26s8-26 8-26zM290 467c2 19 3 32 2 48a185 185 0 000 36M497 240c-2 2-3 6-3 10v10c0 4-2 8-5 9M434 123a89 89 0 00-12 16 37 37 0 01-4 5l-7 5a32 32 0 00-11 17M254 23a22 22 0 005 6l5 4a35 35 0 013 5c3 6 8 11 12 16M338 122c-3 2-4 6-4 10s1 7-1 10l-2 4-1 8v10c1 4 1 8 3 11" opacity=".1"/><path d="M313 221a41 41 0 017 5 14 14 0 015 8v4a13 13 0 003 5 66 66 0 006 7" fill="none"/><path d="M335 311a47 47 0 00-6-5 26 26 0 00-7-2l-10-2c-3-1-7-1-10-4M195 267c5 0 9 1 13 3l5 3a16 16 0 008 2M253 285h-3l-2 3c-1 2-4 2-6 2M277 196l4 2a71 71 0 0112 7M323 235c3-1 5 2 6 5v8a15 15 0 004 6M368 240c2 7-3 15-1 22l2 7c1 6-1 12-5 17" opacity=".1"/><path fill="#535f89" d="M217 182h7v383h-7zM231 637a18 18 0 01-22 0c-4-21 4-61 6-70l1-2h8a7 7 0 012 2c6 13 5 70 5 70z"/><path d="M223 557v8h-4v-8a11 11 0 012 0 12 12 0 012 0zM226 567a11 11 0 01-5 1 10 10 0 01-6-1l1-2h8a7 7 0 012 2z" opacity=".1"/><ellipse cx="220.7" cy="562.4" rx="7.5" ry="4.5" fill="#dce2ed"/><path fill="#3b8070" d="M188 120l26-13 39 10-30-23-35 26z"/><path fill="#3b8070" d="M195 124l-7-4 26-13 39 10-7 3-32-7-19 11z"/><path opacity=".1" d="M195 124l-7-4 26-13 39 10-7 3-32-7-19 11z"/><path fill="#3b8070" opacity=".2" d="M194 121l22 60h10l20-64-32-7-20 11z"/><path fill="#3b8070" d="M231 164l-4 13-1 4h-10l-1-3-5-14 8-4 13 4z"/><path fill="#3b8070" opacity=".2" d="M214 113l5 68h-3l-21-57 19-11z"/><path opacity=".1" d="M223 94l-9 13-26 13 35-26zM227 177l-1 4h-10l-1-3 7-2a10 10 0 015 1zM223 182v6h-1a12 12 0 01-3-1v-5z"/><ellipse cx="221.7" cy="181.7" rx="7.5" ry="4.5" fill="#dce2ed"/><ellipse cx="914" cy="687.7" rx="16.8" ry="2.8" fill="#3b8070" opacity=".1"/><path d="M903 675s9-1 12-3 15-4 16-1 14 16 3 16-25-1-28-3-3-9-3-9z" fill="#a8a8a8"/><path d="M934 686c-10 0-25-1-28-3-2-1-3-6-3-8s0 7 3 9 17 4 28 3c3 0 5-1 4-2l-4 1z" opacity=".2"/><ellipse cx="1011.6" cy="654.6" rx="12.9" ry="2.2" fill="#3b8070" opacity=".1"/><path d="M1003 644s7 0 9-1 12-4 12-1 11 12 3 12-19-1-21-2-3-8-3-8z" fill="#a8a8a8"/><path d="M1027 654c-8 0-19-2-21-3s-3-5-3-7 0 6 3 8 13 2 21 2c3 0 3 0 3-2l-3 2z" opacity=".2"/><ellipse cx="952.8" cy="792.9" rx="30.9" ry="5.2" fill="#3b8070" opacity=".1"/><path d="M932 769s18-1 23-5 27-8 28-2 27 30 7 30-46-3-51-6-7-17-7-17z" fill="#a8a8a8"/><path d="M990 790c-20 0-46-3-51-6-4-2-6-11-6-15h-1s1 14 7 17 31 7 51 6c6 0 8-2 8-5-1 2-3 3-8 3z" opacity=".2"/><path d="M634 547s51-2 57-102-48-117-48-117-17-10-25-10l-32 2 27-6s-39-14-50-16l42 9s0-23-10-31c0 0 9 0 14 16a32 32 0 0019 22c15 6 37 16 42 24 0 0 9 9 7-15s-7-46-10-47c0 0-18-19-44-21 0 0 15-6 40 13 0 0 3-9-7-21s-25-35-41-38c0 0 23-1 41 28 0 0 7 5 7-6s5-25 5-25 5 25-6 37c0 0 22 29 21 61 0 0 7 15 9-2l5-45a60 60 0 00-13-46c-5-6-8-12-6-15l26 31s21-51 37-62l18-13-25 30 32-11-32 15s-15 12-24 45-9 53-9 53 46-36 54-35l-29 23a70 70 0 00-28 51l71-18 26-26-20 25 41-1 23-16s-18 15-16 16l28 2s-68 0-76 5-24 7-24 7l48 7-57-4s-44 8-46 21c0 0 9 24 15 33 5 7 14 32 16 54s5 55-2 75-11 32-7 38 7 14-5 16-66-1-66-1-16 3-13-9z" fill="#dea3a2"/><path d="M663 537a26 26 0 0117-3c10 3 26 1 27 1M695 418s2 39-2 47zM704 465s-3 36-5 43 5-43 5-43zM707 376c2 0 12 20 10 25s-10-25-10-25zM683 356c1 0 5 11 4 15s-4-15-4-15zM724 420c-1 12-2 19-1 28a105 105 0 010 21M605 290a9 9 0 012 6v6c0 2 1 4 3 5M641 223a51 51 0 018 9 21 21 0 002 3 33 33 0 003 3 18 18 0 017 10M745 166a13 13 0 01-3 3l-3 2a20 20 0 00-1 3 70 70 0 01-8 9M697 223c2 1 2 3 2 5v6l2 2a11 11 0 010 5v5c0 3 0 5-2 7" opacity=".1"/><path d="M711 279a24 24 0 00-4 3 8 8 0 00-3 5v2a7 7 0 01-2 3 38 38 0 01-3 4" fill="none"/><path d="M698 331a28 28 0 014-3 15 15 0 014-1 40 40 0 016-1 9 9 0 005-2M779 306l-7 1-4 2a9 9 0 01-4 1M745 316a1 1 0 012 0l1 2 4 1M731 265l-2 1a41 41 0 00-7 4M705 287l-3 3v5a9 9 0 01-3 3M679 290c-1 4 2 9 1 13l-1 4c-1 3 1 7 3 9" opacity=".1"/><path d="M381 373c-16 22-30 87-34 107l-28-1c2-17 36-86 46-104l16-2z" fill="#3b8070"/><path fill="#dce0ed" d="M726 365h12v18h-12z"/><path d="M738 365v6a10 10 0 01-2 0h-10v-6z" opacity=".1"/><path d="M720 319h12a14 14 0 0114 9c3 9 6 23-2 36a10 10 0 01-8 5h-16z" fill="#dce0ed"/><ellipse cx="720.4" cy="344.4" rx="12.8" ry="24.9" fill="#f0f0f4"/><path fill="#dce0ed" d="M613 365h13v16h-13z"/><path d="M626 365v5a10 10 0 01-3 1l-10-1v-5z" opacity=".1"/><path d="M608 320h12a14 14 0 0113 9c4 8 7 22-1 36a10 10 0 01-9 5h-15z" fill="#dce0ed"/><ellipse cx="607.8" cy="344.6" rx="12.8" ry="24.9" fill="#f0f0f4"/><path d="M611 329s-5 1-2 7a43 43 0 013 9s4 3 4-5-5-11-5-11z" fill="#dce0ed"/><ellipse cx="130.6" cy="685" rx="74.8" ry="82" fill="#636780"/><path d="M159 608c-40 3-71 38-71 82 0 35 21 65 49 77 39-3 70-39 70-82 0-35-20-65-48-77z" opacity=".1"/><ellipse cx="715.9" cy="505.8" rx="60.7" ry="79.2" fill="#636780"/><path d="M699 430c-25 10-44 40-44 76 0 38 21 70 49 78 25-10 44-40 44-76 0-39-21-71-49-78z" opacity=".1"/><path d="M488 489l1-29s-6-12-11-13l-19-2s-10 41-3 54 32-10 32-10z" fill="#3b8070"/><path d="M488 489l1-29s-6-12-11-13l-19-2s-10 41-3 54 32-10 32-10z" opacity=".1"/><path d="M384 486s-4-40 18-41h9c15-2 56-5 51 5 0 0-9 34-3 43zM694 560l30 1s5-55 6-59 3-24-3-27-23-7-23-7l-14 31-1 28z" fill="#3b8070"/><path d="M694 560l30 1s5-55 6-59 3-24-3-27-23-7-23-7l-14 31-1 28z" opacity=".1"/><path d="M623 470v-6a3 3 0 014-4c14 1 67 4 77 8 0 0-11 76 1 94l-4 60-130-10z" fill="#3b8070"/><path d="M613 375l13-1v7h-13zM738 382v1h-12v-6a54 54 0 0112 5z" opacity=".1"/><path d="M429 503a1 1 0 011-1 2 2 0 011 0v1a20 20 0 00-2 2v-2zm46-13a44 44 0 013-5l-3 5zm7-13l-3 6a28 28 0 013-6zM304 617h9-9zm9 0l6-1-6 1zm171-77l2-32-1 23a23 23 0 01-1 9z" transform="translate(-48 -33)" fill="url(#a)"/><path d="M329 568l-1 4-4 8-9 1a29 29 0 01-20-6l5-4 6-5 8-6 2-1z" fill="#f899a5"/><path d="M323 582l-49-2c-2 0-4-4-4-4-1-2 4-2 4-2l11 2h16c-3-8-10-10-13-10v-1a16 16 0 013-2c9 1 15 14 15 14l14 4 3 1z" fill="#f3b4b4"/><path d="M299 587l-3 1a15 15 0 01-2 0 50 50 0 01-13-3l-2-1a28 28 0 00-5-1l-6 1h-9a73 73 0 01-11-1l-2-1a10 10 0 01-2-1c-5-3 12-5 12-5a9 9 0 005-3h1a24 24 0 012-2h1l8-5a20 20 0 008-5 10 10 0 002-1l9-3 7 16a123 123 0 000 14z" fill="#f899a5"/><path d="M296 588a15 15 0 01-2 0 50 50 0 01-13-3l-2-1a28 28 0 00-5-1l-6 1h-9a73 73 0 01-11-1l-2-1a12 12 0 012 0l11 1h16c-3-8-10-10-13-10a17 17 0 012-2h1c9 0 14 13 14 13h1l15 3a6 6 0 011 1z" opacity=".1"/><path d="M297 589l-50-1c-3-1-3-4-3-4-1-2 4-1 4-1l11 1h9l6-1c-3-8-10-9-13-9v-1a17 17 0 013-2c9 0 15 13 15 13l15 4 3 1z" fill="#f3b4b4"/><path d="M329 568l-1 4c-1 0-10-6-13-10a8 8 0 01-1-2l2-1z" opacity=".1"/><path d="M356 548l-2 5-16 9-5 4a4 4 0 01-2 2 35 35 0 00-3 4l-13-11-1-3 15-11 8-10 6-6 2-1z" fill="#bdd3e8"/><path d="M432 440l-16 27-6 11-30-4 1-2 2-5 2-3 3-6 3-4 5-7a4 4 0 001 0 4 4 0 002-2c2-4-1-13-1-13s11-28 15-12c3 11 12 17 16 19a22 22 0 003 1z" fill="#f899a5"/><path d="M380 534v3s10 9 8 17 2 18 2 18l10-1-2-36z" fill="#bdd3e8"/><path d="M400 571l-10 1s-3-10-2-18-8-17-8-17v-3l18 1v2zM344 533a84 84 0 00-9 10l-9 11-8 4-3 3-1-3 15-11 8-10 6-6zM299 575a10 10 0 00-1 1s0 5-4-6-13-9-13-9l2-1 9-3 7 16v2z" opacity=".1"/><path d="M333 512l-6 1-4 5-8 8c-2 1-14 14-18 20 0 0-3 1-3 3s-6 6-6 6-7 5-6 5c0 0 9-2 13 9s4 6 4 6a9 9 0 012-2l6-6a6 6 0 003-1l8-8 7-4 9-11a85 85 0 019-10z" fill="#bdd3e8"/><path d="M305 548s10 5 9 6-9-6-9-6zM313 547s0 4 4 4-4-4-4-4zM299 559s0 3 4 3-4-3-4-3zM336 548s5 2 6 5-6-5-6-5zM324 558c2 1 8 7 7 8s-7-8-7-8zM333 554a3 3 0 013 1l-3-1z" opacity=".1"/><path d="M369 506s-19-6-18 0 18 9 18 9z" fill="#f899a5"/><path d="M432 440l-16 27-6 11-30-4 1-2a17 17 0 012-2 10 10 0 010-3 5 5 0 012-3l3-6 1-1 2-3 6-7 2-2 2-2-6 9-4 6-5 7s-8 7 7 7 24-14 24-14l12-19a22 22 0 003 1zM398 537h-5l-13-1v-2l18 1v2z" opacity=".1"/><path d="M429 437s3 3 5 3c0 0-5 6-6 11 0 0-9 13-3 18s10 6 10 6l-2 32s4 22 6 24 1 5 1 5-1 4 0 5l2 8-8-3-5-7-36-3-16-1 2-44s-7-12 3-21c0 0-1-4 1-6l4-7 12-14-6 9-3 6-5 7s-8 8 7 8 23-15 23-15z" fill="#e6ebef"/><path d="M417 495s5 4 11 4-11-4-11-4zM424 483s4-2 6 0-6 0-6 0zM422 490s0 2 6 3-6-3-6-3z" opacity=".1"/><path d="M434 440l1 1a28 28 0 008 2c5 0 10 5 10 10l1 4a90 90 0 010 18l-1 10-2 22s-1 16-5 18-28 1-28 1l-10-17 23 1a23 23 0 003-12l1-23s-14-3-11-14 10-21 10-21z" fill="#f899a5"/><path d="M390 572s-10 3-13 1l-12-8-10-10v-1c-5-5-8-10-8-13a11 11 0 00-1-3 13 13 0 00-2-4 12 12 0 00-2-2l-15-19 5-6c0-1 5-9 12-5l16 14 20 18 1 2c3 3 8 9 8 11l1 25z" fill="#bdd3e8"/><path d="M381 536c-7 7-18 17-26 19v-1l-9-16-2-4 16-18 20 18 1 2z" opacity=".1"/><path d="M440 549v4s5 16-4 21c-4 2-13 3-21 3a22 22 0 01-22-19 13 13 0 010-5l-5-27s-21 25-34 27l-11-20 18-20s13-21 16-22 8-8 8-8 15-12 25 9 17 39 19 45c0 0 4 7 6 7a5 5 0 015 5z" fill="#bdd3e8"/><path d="M388 525a22 22 0 004-7c2-5 0 5-4 8z" opacity=".1"/><path d="M368 404l2 4a73 73 0 008 7c1 0 2 1 2 3a5 5 0 010 2 46 46 0 01-4 10 6 6 0 00-1 3c0 3 4 5 7 6 3 3 6 6 5 10 0 5-5 10-6 15a26 26 0 0010-2c2-1 5-4 4-6a2 2 0 011-1 2 2 0 011-1c3-1 6 0 8-2s1-4 1-6l-8-17a12 12 0 01-1-6l3-6a37 37 0 004-13l-1-8c-2-3-5-5-9-6-7-2-11 2-17 4-4 2-9 6-9 10z" fill="#4b3648"/><path d="M381 464l2-1c1-5 6-10 6-15 0-3-2-7-5-9s-7-3-7-6a6 6 0 011-3 46 46 0 004-10 5 5 0 000-3l-3-3a74 74 0 01-7-7l-2-4c-1-4 4-7 9-9 4-2 8-5 13-5-6 0-10 3-15 5-4 2-9 5-9 9l2 4a74 74 0 008 7l2 3a5 5 0 010 3 46 46 0 01-4 10 6 6 0 00-1 3c0 3 4 4 7 6s6 6 5 9c0 6-5 10-6 16z" opacity=".1"/><circle cx="397.7" cy="415.4" r="23.5" opacity=".1"/><circle cx="398.1" cy="414.5" r="23.5" fill="#f899a5"/><path d="M384 404l-5-3c-1-1-2-5 0-6a10 10 0 013-1c4-2 4-8 7-12a9 9 0 018-4 39 39 0 015 1l12 1c8 2 14 9 17 17l4 12a156 156 0 006 17 12 12 0 002 4c3 3 7 2 9 6v6a51 51 0 002 22c1 5 5 11 10 11-2 3-6 3-8 1l-6-8a49 49 0 00-4-6 9 9 0 00-4-3c-3-2-7 1-10 4l-8 4a7 7 0 01-7-5c-1-3 1-9-1-11l-3-3c-4-2-4-7-4-11s2-9 0-13a16 16 0 00-4-5 88 88 0 00-24-16" fill="#4b3648"/><g opacity=".1"><path d="M427 466a7 7 0 01-7-4c-1-4 1-9-2-12l-3-2c-3-2-4-8-3-12s1-9 0-13a16 16 0 00-4-5 88 88 0 00-25-16l3 1c-2-1-4-1-5-3s-1-5 0-6a10 10 0 013-1c4-2 5-8 7-12a10 10 0 014-3 9 9 0 00-6 4c-3 4-4 10-8 12a10 10 0 00-2 1c-2 1-2 4-1 6s4 2 5 3l-2-1a88 88 0 0124 16 16 16 0 014 5c2 4 1 8 0 13s0 9 3 12l4 2c2 3 0 8 1 12a7 7 0 007 4 10 10 0 003-1zM458 475l-5-7a48 48 0 00-5-7 9 9 0 00-3-3 6 6 0 00-5 1 5 5 0 012 0 9 9 0 014 3 49 49 0 014 6l5 8c2 2 5 2 7 1a6 6 0 01-4-2z"/></g><path fill="#dce0ed" d="M802 562h-19l-40-72-6-12 5-30 4 7 56 107zM629 473l-8 12-24-32-10-14 6-9 5 6 31 37z"/><path d="M598 436v2l-1 15-10-14 6-9zM746 455l-3 35-6-12 5-30 4 7z" opacity=".1"/><path d="M576 458s-10-70 25-81a9 9 0 011 0c8-1 82-10 120 0 0 0 26 4 26 18l-12 173h-18l6-114s9-50-6-53-83-9-107-3c0 0-17-3-15 40l-1 23z" fill="#dce0ed"/><path d="M633 479a11 11 0 00-4-10l-22-12h-5l-16 40 1 83 28 35z" fill="#3b8070"/><path d="M633 479a11 11 0 00-4-10l-22-12h-5l-16 40 1 83 28 35z" opacity=".1"/><path d="M519 567l1-86s-3-33 17-34c0 0 47 1 67 7a5 5 0 013 7c-4 7-11 25-14 73v52z" fill="#3b8070"/><path fill="#3b8070" d="M618 621l-85-2-42-1 5-56 23 1 74 17 22 35 3 6z"/><path opacity=".1" d="M618 621l-85-2-42-1 5-56 23 1 74 17 22 35 3 6z"/><path fill="#3b8070" d="M618 621l-85-2-2-37 62-2 22 35 3 6z"/><path d="M533 619l-42-1 5-56s13 21 35 20z" fill="#fff" opacity=".1"/><path d="M833 665c-1 16-13 13-13 13h-2l-21-2 1-25s11-1 21 1c8 2 15 6 14 13z" fill="#dce0ed"/><path d="M540 421s-39 18-42 23l-22 27 9 14 38-30z" fill="#4c4981"/><path d="M510 512l-18-3-13 16s-18 9-20 13-9 16-12 16-6 4-6 6-11 21-14 22-8 8-8 9l-10 14s-18 28-21 29-13 19-15 21-10 4-10 6 19 27 18 34c0 0 14-11 14-14s18-21 18-21l87-90 17-58z" fill="#ceddf9"/><path d="M559 541s3 41-9 48-20 5-22 8-16 5-18 8-40 24-40 24l-31 19c-4 3-27 14-31 18l-28 20s-7-22-16-23c0 0 20-4 21-7s7-7 7-7 28-16 29-20 8-9 8-9 11-15 15-17 29-26 29-26 16-9 18-12 34-19 34-19l-36-44 11-4 34 9 6 11z" opacity=".1"/><path d="M561 542s3 41-9 47-20 6-22 8-16 6-18 8l-40 24s-27 16-31 20-27 13-31 18-28 20-28 20-7-22-16-24c0 0 20-4 21-7s7-6 7-6 29-17 29-20 8-9 8-9 11-16 15-17 29-27 29-27 17-8 18-11-14-41-14-41l12-23 11-3 34 9 6 11z" fill="#ceddf9"/><path d="M601 434l-28 19s-33-12-20-17c9-4 12-20 13-31l1-10s37 0 30 11a19 19 0 00-2 11c0 9 6 17 6 17z" fill="#fec2be"/><path d="M595 417a26 26 0 01-29-12l1-10s37 0 30 12a19 19 0 00-2 10z" opacity=".1"/><path d="M614 399a26 26 0 111-3l-1 3z" fill="#fec2be"/><path d="M561 423s-4 0-4 7-5 6-5 6l-22 22-9 24c1 1-3 5-2 7s0 8-2 8-5 1-5 4-15 12-14 14 43 25 43 25l18 14 16-31 14-43 8-24 6-7-3-17s-3-7-5-6-10 9-17 10-12 2-14 0-12-3-3-13z" opacity=".1"/><path d="M563 421s-5 0-6 7-5 6-5 6l-21 22-10 24-2 7c0 2 0 8-2 8s-4 1-4 4-15 12-15 14 43 25 43 25l18 14 17-31 14-43 7-24 7-8-3-16s-3-7-5-6-10 9-17 10-12 2-14 0-1-4-2-13z" opacity=".1"/><path d="M563 422s-6 0-6 6-5 6-5 6l-21 23-10 24-2 7c0 2 0 8-2 7s-5 2-5 5-15 12-14 14 43 25 43 25l18 13 17-31 13-42 8-25 6-7-3-16s-2-8-4-7-10 10-18 11-11 1-13 0-1-4-2-13z" fill="#fff"/><path d="M563 422a41 41 0 01-8-2h-12s-11 1-13 4-11 21-14 22-22 30-25 33-20 33-20 33 12-5 17 3l1 1c5 9 10 2 10 2l18-19 14-29c2-6 25-33 26-34l6-14z" opacity=".1"/><path d="M563 422a63 63 0 01-9-2h-12s-12 0-14 3-11 21-14 22-21 31-25 33-19 34-19 34 12-6 17 3c6 9 10 2 10 2l19-18 14-29c3-6 25-33 25-35l8-13z" fill="#4c4981"/><path d="M596 423s14 10 16 13 20 13 20 13 7 13 6 18-2 9-1 11 1 3 0 6-1 3 1 6-28 12-28 12-4 1-4 3l-27 60c-3 8-14 40-23 41h-2s2-26-4-35 6-44 6-44 35-102 40-104z" opacity=".1"/><path d="M596 423s15 10 17 13 21 13 21 13 7 13 6 18-3 9-2 12 2 2 0 5 0 4 1 7-28 12-28 12-4 0-4 2l-27 61c-4 8-14 40-22 40h-2s1-26-4-35 5-44 5-44 34-102 39-104z" fill="#4c4981"/><path d="M614 526s-32 7-33 9-27 17-13 25 35-11 35-11l17-11z" fill="#fec2be"/><path d="M628 484l11 7 7 21c2 4 4 12 3 13s4 9-2 13-11 3-13 5l-22 11c-2 1 11-26-6-30 0 0 12 1 13-1s1-8-1-10l-12-11z" fill="#4c4981"/><path d="M615 396a7 7 0 01-4-3c-1-2-2-5-4-5l-4-1v-3a12 12 0 00-2-7 7 7 0 00-6-3c-4 0-6 3-10 3l-4-1a4 4 0 00-1 1 21 21 0 00-7 9l-3 10c-1 1-2 3-3 2-3 0-1-3-3-4a3 3 0 00-1-1 26 26 0 1152 3z" opacity=".1"/><path d="M567 398l3-3c2-3 2-6 3-10a21 21 0 017-9 4 4 0 011-1l5 1c3 1 6-2 9-2a7 7 0 016 3 12 12 0 012 6v3l4 1c3 1 4 3 5 5s3 4 5 4l2-1 4-1v-4l-2-5a6 6 0 012-2 10 10 0 00-1-13l-2-2-4-6a18 18 0 00-7-6 9 9 0 00-4-1h-5c-6 1-11-4-17-5a5 5 0 00-4 0l-2 4c-1 3-4 5-7 7-4 1-8 2-10 5v10l-4 6c-2 2-2 5-1 7a6 6 0 003 3l7 1c2 1 0 4 2 5z" fill="#9a5e7f"/><path d="M626 514c1 0 12 2 14 5s-14-5-14-5zM621 502l13 4-13-4zM624 473s9 3 10 6-10-6-10-6zM512 572c1 1 23 17 21 17s-21-17-21-17zM512 582s13 6 11 9-11-9-11-9z" opacity=".1"/><g opacity=".1"><path d="M560 374v2a8 8 0 000-2zM622 384a3 3 0 000 1 11 11 0 011-2 9 9 0 002-4 8 8 0 01-2 3 6 6 0 00-1 2zM623 393h-4l-2 1c-2 1-4-1-5-3s-2-5-4-5l-4-1-1-3a12 12 0 00-2-7 7 7 0 00-6-3l-9 3-4-1a4 4 0 00-2 1 21 21 0 00-6 9 30 30 0 00-1 3v-2a21 21 0 017-9 4 4 0 011-1l5 1c3 1 6-2 9-2a7 7 0 016 3 12 12 0 012 6v3l4 1 5 5c1 2 3 4 5 4l2-1 4-1a2 2 0 001-2 2 2 0 01-1 1zM570 394c0 1-1 3-3 2-2 0-1-3-2-4l-6-2a6 6 0 01-4-2 5 5 0 010-3 5 5 0 000 4 6 6 0 003 3l7 1c2 1 0 4 2 5l3-3a26 26 0 002-4 21 21 0 01-2 3z"/></g><path d="M526 444s-9 13-8 16 8-16 8-16zM527 486l6 4c1 2-6-4-6-4zM537 499s10 3 11 4l-11-4zM539 513s9 1 10 4-10-4-10-4zM833 665c-1 16-13 13-13 13h-2a22 22 0 01-3-12c0-6 1-11 4-14 8 2 15 6 14 13z" opacity=".1"/><path d="M507 454c-19 0-35 21-35 47s16 48 35 48 35-21 35-48-16-47-35-47zm-5 85c-15 0-27-16-27-34s12-35 27-35 26 16 26 35-11 34-26 34z" fill="#636780"/><path fill="#636780" d="M508 516l17 16 6-14-24-14 1 12z"/><path fill="#3b8070" d="M533 357l14 2 5 6-8 36-17 58-11 40-8 24-5 32-5 22-15 15-30-36-5-12-12-24 31-15 34-3 16-41 13-47 3-57z"/><path fill="#3b8070" d="M245 529l-19 156 234-10-27-77-45-29 103 2 1-43-42-9-84-7-63-3-60 20"/><path opacity=".1" d="M245 529l-19 156 234-10-27-77-45-29 103 2 1-43-42-9-84-7-63-3-60 20"/><path d="M565 684c0 39-13 74-49 70-45-1-49-31-49-70s22-67 49-67 49 28 49 67z" fill="#636780"/><path d="M565 684c0-30-13-54-31-63-24 4-42 31-42 67 0 32 2 58 28 67 33 1 45-33 45-71z" opacity=".1"/><path fill="#3b8070" d="M611 623l-14 16 25-4 18-17 17-33 23-14 57 7 53 2 19-17-22-3h-22l-55-2-66-1-13 36-10 24-10 6z"/><path d="M800 688l-38 7-102 18-175 3-21-17-11 1v1l-145 25h-2l-39-6-206-29 3-30 1-17 3-37 2-10 18-1 9-1 133-12 17-2 10-1 95-13 139 4 1-43 55-169c12 2 12 10 12 10l-47 159-1 98c98 10 101-12 116-4l19-60 163 1c7 8-9 125-9 125z" fill="#3b8070"/><path fill="#3b8070" d="M394 599l52 111 18 6 4-18-20-62-20-36-34-1z"/><path opacity=".1" d="M394 599l52 111 18 6 4-18-20-62-20-36-34-1z"/><ellipse cx="360.7" cy="721.3" rx="93.9" ry="106.5" fill="#636780"/><path d="M394 622c-49 3-88 49-88 106 0 45 25 84 61 99 49-3 88-49 88-106 0-45-25-84-61-99z" opacity=".1"/><path d="M109 535l-5 22-14 67-61-6s-4-11 6-15c0 0 3-38 14-50a11 11 0 015-3z" fill="#3b8070"/><path d="M104 557l-14 67-61-6s-4-11 6-15c0 0 3-38 14-50z" fill="#fff" opacity=".1"/><path d="M247 541c8 13-11 135-11 135L85 651l6-106c3-19 14-22 14-22 53-26 175-32 175-32 111 4 212 37 212 37-126-20-245 13-245 13z" fill="#3b8070"/><path d="M236 676L85 651l6-106c3-19 14-22 14-22s110-10 142 18c8 13-11 135-11 135z" opacity=".1"/><path d="M220 669L94 648l5-91c2-16 12-18 12-18s91-9 118 15c7 11-9 115-9 115z" fill="#3b8070"/><ellipse cx="209.3" cy="594.3" rx="17.2" ry="31.3" opacity=".1"/><ellipse cx="209.3" cy="593.5" rx="17.2" ry="31.3" fill="#dce0ed"/><path d="M212 570s-7 1-4 11l4 14s7 4 7-9-7-16-7-16z" fill="#f0f0f4"/><ellipse cx="117.2" cy="581.9" rx="16.1" ry="29.2" opacity=".1"/><ellipse cx="117.2" cy="581" rx="16.1" ry="29.2" fill="#dce0ed"/><path d="M119 558s-7 1-3 10 4 14 4 14 7 4 7-8-8-16-8-16z" fill="#f0f0f4"/><path d="M190 568c-2 11-7 97-7 97l-10-2h-5l-7-2h-1l-28-4 6-91a11 11 0 0111-11 8 8 0 011 0l6 1h3a197 197 0 0123 5c5 1 8 4 8 7z" opacity=".1"/><path d="M149 555l-5 102h-3l5-102a11 11 0 013 0zM159 556l-5 103h-5l7-103h3zM171 558l-8 103h-3l7-104 4 1zM182 561l-9 102v1l-5-1 10-104 4 2z" fill="#3b8070"/><path d="M67 640s-10-53 13-56 102 3 99 25-4 55-4 55l-16-3s12-51-7-52-65-8-65-8-13-2-5 42z" opacity=".1"/><path d="M67 645s-10-57 13-59 102 3 99 25-4 55-4 55l-16-4s12-50-7-52l-65-7s-13 1-5 46z" fill="#dce0ed"/><path d="M485 716h-21c-15-67-41-109-41-109-8-5-100-4-100-4-10 2-13 32-13 32s9 7 1 12a225 225 0 01-74-5c-19-6-4-16-4-16s2-3 4-22a75 75 0 0110-31l1-2a10 10 0 014-2c24-10 141 0 141 0l43 13 5 9c14 29 44 125 44 125z" fill="#3b8070"/><path d="M485 716h-21c-15-67-41-109-41-109-8-5-100-4-100-4-10 2-13 32-13 32s9 7 1 12a225 225 0 01-74-5c-19-6-4-16-4-16s2-3 4-22a75 75 0 0110-31l1-2a10 10 0 014-2c24-10 141 0 141 0l43 13 5 9c14 29 44 125 44 125z" opacity=".1"/><path d="M441 591c-40-16-150-7-150-7-12-10-34-11-44-11l1-2a10 10 0 014-2c24-10 141 0 141 0l43 13 5 9z" fill="#3b8070"/><path d="M298 588l-13 43a148 148 0 00-3 17c-16 0-36-3-46-6-18-6-3-16-3-16s2-4 4-22a75 75 0 0112-33 10 10 0 013-2c15 4 47 12 45 19z" fill="#3b8070"/><path d="M298 588l-13 43a148 148 0 00-3 17c-16 0-36-3-46-6-18-6-3-16-3-16s2-4 4-22a75 75 0 0112-33 10 10 0 013-2c15 4 47 12 45 19z" fill="#fff" opacity=".1"/><path d="M323 366c-11 2-16 25-16 25l-30 102 215 35 55-169c-51-23-224 7-224 7zm173 109s-1 9-9 10l-140-5-28-1-10-1h-1s-10 2-8-7c0 0 11-84 32-91l6-1a561 561 0 0189-7s103-10 95 13c0 0-21 83-26 90z" fill="#3b8070"/><path d="M309 478h-1s-10 2-8-7c0 0 11-84 32-91l6-1c-8 15-32 64-29 99z" fill="#3b8070"/><path d="M309 478h-1s-10 2-8-7c0 0 11-84 32-91l6-1c-8 15-32 64-29 99zM328 687a14 14 0 01-13 7h-4l-41-2-14-1-14-1-178-29 1-18 21 3 8 2 126 18 17 2 8 1h71a14 14 0 015 1 13 13 0 017 6 11 11 0 010 11z" opacity=".1"/><path d="M328 688a14 14 0 01-13 7l-59-2-14-1-190-31-15-3-8-1c-16-3-11-19-11-19 1-8 28-14 37-14 6 0 7 9 7 15v6l9 1 174 25 71-1a14 14 0 0112 8 11 11 0 010 10z" fill="#dce0ed"/><path d="M42 634s8 9 20 11c0 0-5-11-20-11zM40 660s-25 0-25 13 16 16 16 16l224 43 64 1s22-18-1-25l-64 1-214-39s6-8 0-10z" opacity=".1"/><path d="M319 735l-64-1-199-39-15-2-10-2s-16-3-16-16c0-10 13-12 20-13h5c6 2 0 10 0 10l8 1 206 38 64-2c23 8 1 26 1 26z" fill="#dce0ed"/><path d="M59 649l13-6h7v57l-21-4-9-6-4-24 2-10 12-7z" fill="#dce0ed"/><path d="M59 649l13-6h7v57l-21-4-9-6-4-24 2-10 12-7z" opacity=".1"/><path d="M56 695v1l-15-3c-7-13-8-23-6-31h5c6 2 0 10 0 10l8 1c-1 11 6 21 8 22zM78 643l-7 3c-10 5-16 10-19 15l-15-2c6-14 22-20 22-20l3 1z" opacity=".1"/><path d="M61 639s-42 16-18 54l15 3s-29-34 21-53zM159 657h15l-3 61-24-5-11-5-4-12-4-12 8-11 10-6 13-10z" fill="#dce0ed"/><path opacity=".1" d="M159 657h15l-3 61-24-5-11-5-4-12-4-12 8-11 10-6 13-10z"/><ellipse cx="156.9" cy="688.7" rx="7.3" ry="12.4" fill="#dce0ed"/><path d="M104 723c-2-11-11-13-11-13s-15-5-16 13c0 0 0 11 8 14v12s1 11-6 10-5-11-5-11-4-10-12-5c0 0-2 6 2 9 3 2 3 5 3 8a11 11 0 002 9 11 11 0 0010 4 16 16 0 009-5 23 23 0 006-16l1-15s11-3 9-14zm-13 11a9 9 0 119-9 9 9 0 01-9 9z" fill="#dce0ed"/><path d="M87 705a4 4 0 00-2 6l4 8c-1 2 3 1 4 0s8 0 8-5-4-7-4-7l2-11-10-1v10z" fill="#636780"/><path d="M87 705a4 4 0 00-2 6l4 8c-1 2 3 1 4 0s8 0 8-5-4-7-4-7l2-11-10-1v10z" opacity=".1"/><path d="M90 705s3 12 2 12l-2-12zM94 703s3 11 2 12-2-12-2-12z" opacity=".1"/><path d="M134 668l-6 34-10-1a8 8 0 01-3-1h-1c-2 0-5 2-6 0h-3a3 3 0 01-2 0c-1-1-3 0-5 1l-2-1a2 2 0 00-2-1l-5-1h-1l-4-2-4-1a17 17 0 00-3 0h-2-6c-1-1-4 2-5-1s-12-17 3-36l7 1a11 11 0 013 0l5 1a7 7 0 013 1 2 2 0 011 1l3 1 4-1 6 1h4l3 1a4 4 0 003 0 16 16 0 014 1 2 2 0 011 0l4 1a4 4 0 012 0 2 2 0 001 1l6-1z" fill="#636780"/><path d="M73 695h-3c-11-17-2-31 4-36a11 11 0 013 0c-12 14-7 30-4 36z" opacity=".1"/><path d="M80 694a17 17 0 00-3 1c-10-17 0-30 5-35a7 7 0 013 1c-11 12-8 27-5 33z" opacity=".1"/><path d="M89 698h-1l-4-2c-8-15-1-27 5-33l4-1c-12 14-6 31-4 36z" opacity=".1"/><path d="M98 701l-2-1a2 2 0 00-2-1c-10-18 0-31 5-36h4c-14 14-7 33-5 38z" opacity=".1"/><path d="M108 700h-3c-11-17-1-30 4-36a16 16 0 014 1c-12 13-7 29-5 35z" opacity=".1"/><path d="M118 701a8 8 0 01-3-1h-1c-9-16-2-28 4-34a4 4 0 012 0 2 2 0 001 1c-11 13-5 29-3 34z" opacity=".1"/><ellipse cx="390.7" cy="726.4" rx="45.9" ry="67.6" fill="#636780"/><ellipse cx="389.2" cy="727.4" rx="33.4" ry="54.8" opacity=".1"/><ellipse cx="389.2" cy="725.7" rx="33.4" ry="54.8" fill="#f0f0f4"/><ellipse cx="395.2" cy="688.9" rx="3.9" ry="6.8" fill="#636780"/><ellipse cx="411" cy="748.1" rx="3.9" ry="6.8" fill="#636780"/><ellipse cx="368.5" cy="719.9" rx="3.9" ry="6.8" fill="#636780"/><ellipse cx="380" cy="759.4" rx="3.9" ry="6.8" fill="#636780"/><path d="M727 601s33 88 31 94c0 0 14 8 17 6s1-41 1-41l-7-34-7-20z" fill="#3b8070"/><path d="M727 601s33 88 31 94c0 0 14 8 17 6s1-41 1-41l-7-34-7-20z" opacity=".1"/><ellipse cx="416.6" cy="711.5" rx="3.9" ry="6.8" fill="#636780"/><ellipse cx="395.2" cy="727.8" rx="11.6" ry="16.1" fill="#636780"/><path d="M764 719c0 51-17 97-64 92-59-1-64-41-64-92s29-89 64-89 64 38 64 89z" fill="#636780"/><path d="M764 719c0-40-17-71-41-83-31 6-55 41-55 88 0 41 3 76 37 87 43 2 59-43 59-92z" opacity=".1"/><path d="M788 697s-8 7-13 2c0 0-11-91-25-91l-50-1s-6 3-8 14l-32 91-175 2-14-28 145 1c1-3 25-90 41-100a7 7 0 012-1s61-8 80-3c0 0 21 5 26 11 1 1 9 10 11 35z" opacity=".1"/><path d="M788 699s-8 7-13 2c0 0-11-91-25-92h-50s-6 2-8 13l-32 91-175 3-14-28h145c1-2 25-89 41-100a7 7 0 012-1s61-8 80-2c0 0 21 5 26 11 1 1 9 10 11 35z" fill="#3b8070"/><path d="M788 699s-8 7-13 2c0 0-11-91-25-92h-50s-6 2-8 13l-32 91-175 3-14-28h145c1-2 25-89 41-100a7 7 0 012-1s61-8 80-2c0 0 21 5 26 11 1 1 9 10 11 35z" opacity=".1"/><path d="M681 599l-40 107-25-18c1-2 25-89 41-100 11 2 27 6 24 11z" fill="#3b8070"/><path d="M634 554l-20 65-104-3 1 10s81 12 116-4l19-60 163 1-31-7z" fill="#3b8070"/><path d="M634 554l-20 65-104-3 1 10s81 12 116-4l19-60 163 1-31-7z" fill="#fff" opacity=".1"/><path d="M148 657s-55 27-14 54l11 2s-40-29 27-56z" opacity=".1"/><path d="M150 657s-55 27-14 54l11 2s-40-29 27-56z" fill="#dce0ed"/><ellipse cx="724.3" cy="726" rx="30.8" ry="52.8" fill="#636780"/><ellipse cx="723.2" cy="727.1" rx="22.4" ry="42.8" opacity=".1"/><ellipse cx="723.2" cy="725.4" rx="22.4" ry="42.8" fill="#f0f0f4"/><ellipse cx="727.3" cy="696.7" rx="2.6" ry="5.3" fill="#636780"/><ellipse cx="737.9" cy="742.9" rx="2.6" ry="5.3" fill="#636780"/><ellipse cx="709.3" cy="720.9" rx="2.6" ry="5.3" fill="#636780"/><ellipse cx="717.1" cy="751.7" rx="2.6" ry="5.3" fill="#636780"/><ellipse cx="741.7" cy="714.3" rx="2.6" ry="5.3" fill="#636780"/><ellipse cx="727.3" cy="727.1" rx="7.8" ry="12.5" fill="#636780"/><path d="M276 491s94 3 216 37z" opacity=".1"/><path d="M724 327s-5 1-3 7l4 11s5 2 4-7-5-11-5-11z" fill="#dce0ed"/><path d="M474 463a10 10 0 00-2 5c0 5-1 16 7 14a24 24 0 0011-6 9 9 0 003-7 7 7 0 00-4-6l-2-2a5 5 0 00-3-1l-5 1a6 6 0 00-5 2z" fill="#fec2be"/><path d="M531 372l-15 74-11 22 7 13 16-36 17-55-14-18z" fill="#3b8070"/></svg>