<svg data-name="Layer 1" xmlns="http://www.w3.org/2000/svg" xmlns:xlink="http://www.w3.org/1999/xlink" viewBox="0 0 976.7 840.3"><defs><linearGradient id="a" x1="915.8" y1="706.9" x2="915.8" y2="252.3" gradientUnits="userSpaceOnUse"><stop offset="0" stop-color="gray" stop-opacity=".3"/><stop offset=".5" stop-color="gray" stop-opacity=".1"/><stop offset="1" stop-color="gray" stop-opacity=".1"/></linearGradient><linearGradient id="b" x1="583" y1="706.8" x2="583" y2="221.2" xlink:href="#a"/></defs><path d="M890 456c-38 65-32 152-18 220 5 23 11 47 6 73-6 32-27 57-48 71-39 27-82 27-113 1-27-23-44-63-72-85-45-35-110-12-166 24-39 25-83 57-119 40-25-12-41-46-47-84-4-18-5-38-13-51-5-8-12-14-18-18-63-40-150-4-210-49-41-31-63-96-70-165s2-145 11-218c7-53 16-109 42-152C83 18 126-3 162 0s69 28 96 59c33 37 64 86 108 97 30 8 64-2 96-9 54-10 107-9 160-6 51 2 102 5 148 23 34 13 59 41 89 59 21 11 43 12 62 28 23 19 42 55 32 101-10 44-42 70-63 104z" fill="#3b8070" opacity=".1"/><path d="M163 660s-67-111-48-210c8-41 3-84-16-122a329 329 0 00-32-52" fill="none" stroke="#535461" stroke-miterlimit="10" stroke-width="2"/><path d="M79 214c4 14-12 64-12 64s-37-36-41-50a27 27 0 0153-14zM144 284c-5 14-44 47-44 47s-13-50-8-65a27 27 0 1152 18zM179 423c-12 10-63 19-63 19s15-50 26-60a27 27 0 0137 41zM181 534c-9 12-58 29-58 29s6-51 15-63a27 27 0 0143 34zM45 349c13 7 65 5 65 5s-25-46-38-53a27 27 0 10-27 48zM49 479c15 3 64-15 64-15s-38-36-53-39a27 27 0 00-11 54zM71 605c14 6 65-4 65-4s-31-41-45-47a27 27 0 00-20 51z" fill="#3b8070"/><path d="M79 214c4 14-12 64-12 64s-37-36-41-50a27 27 0 0153-14zM144 284c-5 14-44 47-44 47s-13-50-8-65a27 27 0 1152 18z" fill="#3b8070"/><path d="M179 423c-12 10-63 19-63 19s15-50 26-60a27 27 0 0137 41zM181 534c-9 12-58 29-58 29s6-51 15-63a27 27 0 0143 34z" fill="#fc6681"/><path d="M45 349c13 7 65 5 65 5s-25-46-38-53a27 27 0 10-27 48zM49 479c15 3 64-15 64-15s-38-36-53-39a27 27 0 00-11 54zM71 605c14 6 65-4 65-4s-31-41-45-47a27 27 0 00-20 51z" fill="#3b8070"/><ellipse cx="496.2" cy="672.6" rx="480.5" ry="33" fill="#3b8070" opacity=".1"/><path d="M1021 674l-2-2h1s-15-36-11-51-13-52-13-52-23-47-12-86a103 103 0 002-13c4-23 3-28-3-36l-1-1a7 7 0 002-2c5-13-22-36-15-57 7-20-11-61-13-67v-1h-1a21 21 0 015-13h1l7-7h1c2-3 4-6 2-9l-5-7a37 37 0 010-4c0-4-4-7-8-9s-9-5-14-5c-7 0-13 5-20 5l-7 1a15 15 0 00-4 3 22 22 0 00-2 2c-2 2-3 3-3 5a6 6 0 002 4 25 25 0 009 38v2c1 7 2 18-1 26-11 6-29 15-32 20a3 3 0 00-1 2 3 3 0 000 1c-2 1-6 0-10-3l-39-35s-14-33-23-27 11 37 11 37l45 49s2 10 18 4l15-5 1 1c-4 22-6 51 8 60a13 13 0 012 5 76 76 0 00-2 14 42 42 0 00-3 19l-6 75s0 17 5 30 23 76 11 80l1 1c-3 3-9 8-13 9-7 2-5 12 10 14s16 1 27-7c9-8 10-11 10-12h1s-6-20 0-29-13-62-13-62a171 171 0 011-20l5 12s5 23 10 27 35 59 30 83v2h1c-2 4-5 12-9 14-5 4 0 13 15 9s15-5 22-17 5-15 5-15z" transform="translate(-112 -30)" fill="url(#a)"/><path d="M805 433l-4-5a41 41 0 00-5 22l-5 74s-1 16 5 28 22 75 10 79l35 5s-5-20 0-29-12-60-12-60-2-43 13-54-37-60-37-60z" fill="#555388"/><path d="M810 629s-9 11-16 12-4 12 10 13 16 2 26-6 11-12 11-12-2-8-4-8l-27 1z" fill="#603556"/><path d="M807 435l-6-7a41 41 0 00-5 22l-5 74s-1 16 5 28 22 75 11 79l34 5s-5-20 0-29-12-60-12-60-2-43 13-54-35-58-35-58z" opacity=".1"/><path d="M953 566s-10-190-49-258c0 0-30-53-54-68v-7c-40-27-89 0-89 0v3l-10 9-46-1a22 22 0 00-17-8H479a22 22 0 00-17 8h-47s-3-4-11-7v-4c-39-27-88 0-88 0v8a13 13 0 00-3 3s-41 27-50 60c0 0-49 149-50 265s43 133 67 136 65-1 106-104l17-61s3-35 40-13 69-12 69-12h138s46 28 88 6c0 0 16-21 31 51 0 0 47 149 120 134s64-140 64-140z" transform="translate(-112 -30)" fill="url(#b)"/><path d="M209 219v-11s48-27 87 0v10zM646 219v-11s48-27 87 0v10z" fill="#535461"/><path d="M209 219v-11s48-27 87 0v10zM646 219v-11s48-27 87 0v10z" opacity=".1"/><path d="M353 218h-47s-12-14-52-13-48 13-48 13-39 27-48 60c0 0-49 145-50 259s43 130 66 133 64-1 104-102l17-59s3-35 39-13 68-12 68-12h135s45 28 86 6c0 0 16-21 31 50 0 0 46 146 117 131s63-137 63-137-9-186-48-252c0 0-38-69-63-72 0 0-54-10-75-1l-12 10z" fill="#535461"/><circle cx="244.2" cy="316.1" r="87" fill="#e2e2ec"/><circle cx="698.2" cy="316.1" r="87" fill="#e2e2ec"/><path d="M259 297l-11 10a5 5 0 01-7 0l-12-10a5 5 0 01-2-4v-29a5 5 0 016-5h23a5 5 0 015 5v29a5 5 0 01-2 4zM259 335l-11-10a5 5 0 00-7 0l-12 10a5 5 0 00-2 4v29a5 5 0 006 5h23a5 5 0 005-5v-29a5 5 0 00-2-4zM225 331l10-11a5 5 0 000-7l-10-12a5 5 0 00-4-2h-28a5 5 0 00-6 5v24a5 5 0 006 5h28a5 5 0 004-2zM264 331l-11-11a5 5 0 010-7l11-12a5 5 0 014-2h28a5 5 0 015 5v24a5 5 0 01-5 5h-28a5 5 0 01-4-2z" fill="#535461"/><path fill="none" stroke="#535461" stroke-miterlimit="10" stroke-width="2" d="M229 252h30l-15-13-15 13zM229 380h30l-15 13-15-13zM180 301v30l-13-15 13-15zM308 301v30l13-15-13-15z"/><circle cx="362.2" cy="411.1" r="63" fill="#e2e2ec"/><circle cx="360.2" cy="401.1" r="42" fill="#535461"/><circle cx="580.2" cy="411.1" r="63" fill="#e2e2ec"/><circle cx="578.2" cy="401.1" r="42" fill="#535461"/><circle cx="360.2" cy="401.1" r="28" fill="none" stroke="#000" stroke-miterlimit="10" stroke-width="2" opacity=".1"/><circle cx="578.2" cy="401.1" r="28" fill="none" stroke="#000" stroke-miterlimit="10" stroke-width="2" opacity=".1"/><circle cx="473.2" cy="418.1" r="18" fill="#e2e2ec"/><circle cx="445.7" cy="358" r="3.9" fill="#e2e2ec"/><circle cx="460.4" cy="358" r="3.9" fill="#e2e2ec"/><circle cx="458.4" cy="376.6" r="3.9" fill="#e2e2ec"/><circle cx="472.2" cy="377.1" r="4" fill="#e2e2ec"/><circle cx="485.9" cy="376.6" r="3.9" fill="#e2e2ec"/><circle cx="452.5" cy="367.8" r="3.9" fill="#e2e2ec"/><circle cx="465.2" cy="368.1" r="4" fill="#e2e2ec"/><circle cx="478.2" cy="368.1" r="4" fill="#e2e2ec"/><circle cx="491.8" cy="367.8" r="3.9" fill="#e2e2ec"/><circle cx="472.2" cy="358.1" r="4" fill="#e2e2ec"/><circle cx="486.2" cy="358.1" r="4" fill="#e2e2ec"/><circle cx="497.7" cy="358" r="3.9" fill="#e2e2ec"/><rect x="315.2" y="225.1" width="22" height="38" rx="8.5" ry="8.5" fill="#e2e2ec"/><rect x="607.2" y="225.1" width="22" height="38" rx="8.5" ry="8.5" fill="#e2e2ec"/><circle cx="699.2" cy="263.1" r="24" fill="#535461"/><circle cx="648.2" cy="314.1" r="24" fill="#535461"/><circle cx="752.2" cy="311.1" r="24" fill="#535461"/><circle cx="703.2" cy="364.1" r="24" fill="#535461"/><rect x="347.2" y="211.1" width="249" height="133" rx="21.8" ry="21.8" fill="#e2e2ec"/><path fill="none" stroke="#e2e2ec" stroke-miterlimit="10" stroke-width="2" d="M685 273l14-24 15 24h-29zM636 303h25v22h-25z"/><circle cx="752.2" cy="311.1" r="14" fill="none" stroke="#e2e2ec" stroke-miterlimit="10" stroke-width="2"/><path fill="none" stroke="#e2e2ec" stroke-miterlimit="10" stroke-width="2" d="M692 353l22 22M715 353l-23 22"/><path d="M344 665c3-3 6-5 7-9a7 7 0 00-5-8c-4-1-9 1-12 3s-8 6-12 5c4-3 7-9 5-14a5 5 0 00-1-3c-3-2-7-1-10 1-9 5-12 15-12 24v-10c0-4-1-7-4-9a17 17 0 00-7-1c-5 0-9 0-12 3s-3 8 1 11l11 8 9 6a6 6 0 010 2h26a74 74 0 0016-9z" fill="#3b8070"/><path d="M876 645s-4 14-10 17 0 13 14 9 16-5 22-16 5-15 5-15-4-6-7-5l-24 10z" fill="#603556"/><path d="M848 296s-63 35-48 25c9-7 9-24 7-36a106 106 0 00-1-9s30-18 28-7a12 12 0 000 3c0 11 14 24 14 24zM779 331s-5 8-14 0l-39-35s-13-32-23-26 11 37 11 37l44 47s2 10 18 4l28-10z" fill="#c87486"/><path d="M906 638l-31 11h-2l1-3c5-23-24-77-29-80s-11-27-11-27l-11-62-4-8a62 62 0 01-6-14c-3-12-11-33-8-45 0-3-2 3-1 1v-1l63-9a47 47 0 013 4c5 7 4 7 5 21a138 138 0 01-3 24c-9 37 11 88 11 88s15 35 12 50 11 50 11 50z" fill="#555388"/><path d="M870 405c-9 12-69 21-68 17a8 8 0 000-4 76 76 0 012-7v-1l63-9a47 47 0 013 4z" opacity=".1"/><path d="M843 280s-26 8-33 26 6 19 6 19-22 58-17 88c0 0 4 4 3 8s64-7 69-19-22-35-15-56-13-66-13-66z" fill="#dfe5ee"/><path d="M834 271a2 2 0 010 1c-1 2-4-1-3 2-5 5-6 14-13 14a25 25 0 01-11-3l-1-7c3-2 27-16 28-9a5 5 0 010 2z" opacity=".1"/><circle cx="818.1" cy="261.6" r="24.8" fill="#c87486"/><path d="M843 341l-43 20s-30-23-25-29 41-24 41-24 37 8 27 33z" opacity=".1"/><path d="M843 339l-43 20s-30-22-25-28 41-24 41-24 37 7 27 32z" fill="#dfe5ee"/><path d="M811 251c-4 0-8-1-11-3-2-1-4-3-4-5s2-5 4-6a15 15 0 015-3l7-1c6 0 12-5 19-5 5 0 9 3 14 5 3 2 7 5 8 8a36 36 0 000 4l5 7c1 3-1 7-3 9l-7 6a20 20 0 00-7 15 2 2 0 010 1 2 2 0 01-1 1c-3 0-6 1-7-1s-1-6-2-8c-2-2-7 0-10-2a6 6 0 01-2-3c-2-5 0-9 1-14 2-6-5-5-9-5z" opacity=".1"/><path d="M812 250c-4 0-8-1-11-3-2-1-4-2-4-5 0-2 2-4 4-6a15 15 0 015-3h6c7-1 13-6 20-6 5 0 9 3 13 5s8 5 8 9a36 36 0 001 3c0 3 3 5 4 8 2 2 0 6-2 8l-7 6a20 20 0 00-7 15 2 2 0 010 2 2 2 0 01-1 0c-3 1-6 1-7-1s-1-6-2-8c-3-2-7 0-10-2a6 6 0 01-2-2c-3-6 0-10 1-15s-5-4-9-5z" fill="#603456"/></svg>